<svg width="180" height="180" viewBox="0 0 180 180" fill="none" xmlns="http://www.w3.org/2000/svg">
<rect width="180" height="180" fill="#004EC2"/>
<g clip-path="url(#clip0_9346_83967)">
<rect width="123.021" height="123.021" transform="translate(28.4883 28.4902)" fill="#004EC2"/>
<g clip-path="url(#clip1_9346_83967)">
<path d="M90.0002 100.253C88.5479 100.253 87.3314 99.7608 86.3506 98.7767C85.3664 97.7959 84.8743 96.5794 84.8743 95.127C84.8743 93.6747 85.3664 92.4564 86.3506 91.4723C87.3314 90.4915 88.5479 90.0011 90.0002 90.0011C91.4526 90.0011 92.6708 90.4915 93.655 91.4723C94.6358 92.4564 95.1261 93.6747 95.1261 95.127C95.1261 96.5794 94.6358 97.7959 93.655 98.7767C92.6708 99.7608 91.4526 100.253 90.0002 100.253ZM69.4967 100.253C68.0443 100.253 66.8261 99.7608 65.8419 98.7767C64.8611 97.7959 64.3708 96.5794 64.3708 95.127C64.3708 93.6747 64.8611 92.4564 65.8419 91.4723C66.8261 90.4915 68.0443 90.0011 69.4967 90.0011C70.949 90.0011 72.1673 90.4915 73.1514 91.4723C74.1322 92.4564 74.6226 93.6747 74.6226 95.127C74.6226 96.5794 74.1322 97.7959 73.1514 98.7767C72.1673 99.7608 70.949 100.253 69.4967 100.253ZM110.504 100.253C109.051 100.253 107.835 99.7608 106.854 98.7767C105.87 97.7959 105.378 96.5794 105.378 95.127C105.378 93.6747 105.87 92.4564 106.854 91.4723C107.835 90.4915 109.051 90.0011 110.504 90.0011C111.956 90.0011 113.173 90.4915 114.153 91.4723C115.138 92.4564 115.63 93.6747 115.63 95.127C115.63 96.5794 115.138 97.7959 114.153 98.7767C113.173 99.7608 111.956 100.253 110.504 100.253ZM90.0002 120.757C88.5479 120.757 87.3314 120.264 86.3506 119.28C85.3664 118.299 84.8743 117.083 84.8743 115.631C84.8743 114.178 85.3664 112.962 86.3506 111.981C87.3314 110.997 88.5479 110.505 90.0002 110.505C91.4526 110.505 92.6708 110.997 93.655 111.981C94.6358 112.962 95.1261 114.178 95.1261 115.631C95.1261 117.083 94.6358 118.299 93.655 119.28C92.6708 120.264 91.4526 120.757 90.0002 120.757ZM69.4967 120.757C68.0443 120.757 66.8261 120.264 65.8419 119.28C64.8611 118.299 64.3708 117.083 64.3708 115.631C64.3708 114.178 64.8611 112.962 65.8419 111.981C66.8261 110.997 68.0443 110.505 69.4967 110.505C70.949 110.505 72.1673 110.997 73.1514 111.981C74.1322 112.962 74.6226 114.178 74.6226 115.631C74.6226 117.083 74.1322 118.299 73.1514 119.28C72.1673 120.264 70.949 120.757 69.4967 120.757ZM110.504 120.757C109.051 120.757 107.835 120.264 106.854 119.28C105.87 118.299 105.378 117.083 105.378 115.631C105.378 114.178 105.87 112.962 106.854 111.981C107.835 110.997 109.051 110.505 110.504 110.505C111.956 110.505 113.173 110.997 114.153 111.981C115.138 112.962 115.63 114.178 115.63 115.631C115.63 117.083 115.138 118.299 114.153 119.28C113.173 120.264 111.956 120.757 110.504 120.757ZM54.119 141.26C51.2997 141.26 48.8854 140.257 46.8761 138.251C44.8702 136.242 43.8672 133.828 43.8672 131.008V59.2458C43.8672 56.4265 44.8702 54.0139 46.8761 52.008C48.8854 49.9987 51.2997 48.994 54.119 48.994H59.2449V43.8681C59.2449 42.4157 59.7352 41.1975 60.716 40.2133C61.7002 39.2326 62.9184 38.7422 64.3708 38.7422C65.8231 38.7422 67.0414 39.2326 68.0255 40.2133C69.0063 41.1975 69.4967 42.4157 69.4967 43.8681V48.994H110.504V43.8681C110.504 42.4157 110.996 41.1975 111.98 40.2133C112.961 39.2326 114.177 38.7422 115.63 38.7422C117.082 38.7422 118.299 39.2326 119.279 40.2133C120.264 41.1975 120.756 42.4157 120.756 43.8681V48.994H125.882C128.701 48.994 131.115 49.9987 133.124 52.008C135.13 54.0139 136.133 56.4265 136.133 59.2458V131.008C136.133 133.828 135.13 136.242 133.124 138.251C131.115 140.257 128.701 141.26 125.882 141.26H54.119ZM54.119 131.008H125.882V79.7493H54.119V131.008Z" fill="white"/>
</g>
</g>
<defs>
<clipPath id="clip0_9346_83967">
<rect width="123.021" height="123.021" fill="white" transform="translate(28.4883 28.4902)"/>
</clipPath>
<clipPath id="clip1_9346_83967">
<rect width="123.021" height="123.021" fill="white" transform="translate(28.4883 28.4902)"/>
</clipPath>
</defs>
</svg>
