<svg xmlns="http://www.w3.org/2000/svg" width="16" height="16" viewBox="0 0 16 16" fill="none">
  <g clip-path="url(#clip0_3330_18806)">
    <path d="M11.3335 2C11.8436 1.99997 12.3345 2.19488 12.7057 2.54486C13.0768 2.89483 13.3002 3.3734 13.3302 3.88267L13.3335 4V6.9L13.7295 6.724C14.1388 6.542 14.6108 6.824 14.6628 7.256L14.6668 7.33333V12.6667C14.6669 13.0031 14.5399 13.327 14.3112 13.5737C14.0824 13.8204 13.7689 13.9714 13.4335 13.9967L13.3335 14H2.66683C2.33045 14.0001 2.00645 13.8731 1.7598 13.6443C1.51314 13.4156 1.36206 13.1021 1.33683 12.7667L1.3335 12.6667V7.33333C1.3335 6.88533 1.7835 6.56867 2.19816 6.69667L2.2715 6.724L2.66683 6.9V4C2.6668 3.48986 2.86171 2.99899 3.21169 2.62783C3.56166 2.25666 4.04023 2.03326 4.5495 2.00333L4.66683 2H11.3335ZM11.3335 3.33333H4.66683C4.49002 3.33333 4.32045 3.40357 4.19542 3.5286C4.0704 3.65362 4.00016 3.82319 4.00016 4V7.49267L8.00016 9.27067L12.0002 7.49267V4C12.0002 3.82319 11.9299 3.65362 11.8049 3.5286C11.6799 3.40357 11.5103 3.33333 11.3335 3.33333ZM8.00016 5.33333C8.17008 5.33352 8.33352 5.39859 8.45707 5.51523C8.58063 5.63188 8.65499 5.7913 8.66494 5.96093C8.6749 6.13056 8.61971 6.29759 8.51065 6.42789C8.40159 6.55819 8.24689 6.64193 8.07816 6.662L8.00016 6.66667H6.66683C6.49691 6.66648 6.33347 6.60141 6.20992 6.48477C6.08636 6.36812 6.01201 6.2087 6.00205 6.03907C5.99209 5.86944 6.04728 5.70241 6.15634 5.57211C6.2654 5.44181 6.4201 5.35807 6.58883 5.338L6.66683 5.33333H8.00016Z" fill="#64748B"/>
  </g>
  <defs>
    <clipPath id="clip0_3330_18806">
      <rect width="16" height="16" fill="white"/>
    </clipPath>
  </defs>
</svg>