<svg width="20" height="20" viewBox="0 0 20 20" fill="none" xmlns="http://www.w3.org/2000/svg">
<path d="M16.25 2.5H14.375V1.875C14.375 1.70924 14.3092 1.55027 14.1919 1.43306C14.0747 1.31585 13.9158 1.25 13.75 1.25C13.5842 1.25 13.4253 1.31585 13.3081 1.43306C13.1908 1.55027 13.125 1.70924 13.125 1.875V2.5H6.875V1.875C6.875 1.70924 6.80915 1.55027 6.69194 1.43306C6.57473 1.31585 6.41576 1.25 6.25 1.25C6.08424 1.25 5.92527 1.31585 5.80806 1.43306C5.69085 1.55027 5.625 1.70924 5.625 1.875V2.5H3.75C3.41848 2.5 3.10054 2.6317 2.86612 2.86612C2.6317 3.10054 2.5 3.41848 2.5 3.75V16.25C2.5 16.5815 2.6317 16.8995 2.86612 17.1339C3.10054 17.3683 3.41848 17.5 3.75 17.5H16.25C16.5815 17.5 16.8995 17.3683 17.1339 17.1339C17.3683 16.8995 17.5 16.5815 17.5 16.25V3.75C17.5 3.41848 17.3683 3.10054 17.1339 2.86612C16.8995 2.6317 16.5815 2.5 16.25 2.5ZM5.625 3.75V4.375C5.625 4.54076 5.69085 4.69973 5.80806 4.81694C5.92527 4.93415 6.08424 5 6.25 5C6.41576 5 6.57473 4.93415 6.69194 4.81694C6.80915 4.69973 6.875 4.54076 6.875 4.375V3.75H13.125V4.375C13.125 4.54076 13.1908 4.69973 13.3081 4.81694C13.4253 4.93415 13.5842 5 13.75 5C13.9158 5 14.0747 4.93415 14.1919 4.81694C14.3092 4.69973 14.375 4.54076 14.375 4.375V3.75H16.25V6.25H3.75V3.75H5.625ZM16.25 16.25H3.75V7.5H16.25V16.25ZM13.2547 9.55781C13.3128 9.61586 13.3589 9.68479 13.3904 9.76066C13.4218 9.83654 13.438 9.91787 13.438 10C13.438 10.0821 13.4218 10.1635 13.3904 10.2393C13.3589 10.3152 13.3128 10.3841 13.2547 10.4422L9.50469 14.1922C9.44664 14.2503 9.37771 14.2964 9.30184 14.3279C9.22596 14.3593 9.14463 14.3755 9.0625 14.3755C8.98037 14.3755 8.89904 14.3593 8.82316 14.3279C8.74729 14.2964 8.67836 14.2503 8.62031 14.1922L6.74531 12.3172C6.62804 12.1999 6.56215 12.0409 6.56215 11.875C6.56215 11.7091 6.62804 11.5501 6.74531 11.4328C6.86259 11.3155 7.02165 11.2497 7.1875 11.2497C7.35335 11.2497 7.51241 11.3155 7.62969 11.4328L9.0625 12.8664L12.3703 9.55781C12.4284 9.4997 12.4973 9.4536 12.5732 9.42215C12.649 9.3907 12.7304 9.37451 12.8125 9.37451C12.8946 9.37451 12.976 9.3907 13.0518 9.42215C13.1277 9.4536 13.1966 9.4997 13.2547 9.55781Z" fill="black"/>
</svg>
