<svg width="20" height="20" viewBox="0 0 20 20" fill="none" xmlns="http://www.w3.org/2000/svg">
<path fill-rule="evenodd" clip-rule="evenodd" d="M15.3633 5.32125C15.4261 5.36896 15.4789 5.42858 15.5187 5.49672C15.5584 5.56485 15.5844 5.64016 15.595 5.71833C15.6056 5.7965 15.6007 5.876 15.5806 5.95228C15.5605 6.02855 15.5255 6.10011 15.4777 6.16285L9.07767 14.5629C9.02576 14.6309 8.95989 14.687 8.88449 14.7275C8.80908 14.768 8.72589 14.7919 8.6405 14.7976C8.5551 14.8033 8.46948 14.7906 8.38937 14.7605C8.30927 14.7303 8.23654 14.6834 8.17607 14.6229L4.57607 11.0229C4.47009 10.9091 4.41239 10.7587 4.41513 10.6032C4.41788 10.4478 4.48084 10.2995 4.59078 10.1896C4.70071 10.0796 4.84901 10.0167 5.00445 10.0139C5.1599 10.0112 5.31033 10.0689 5.42407 10.1749L8.53927 13.2893L14.5233 5.43565C14.6196 5.30922 14.7621 5.22616 14.9196 5.20471C15.0771 5.18326 15.2367 5.22518 15.3633 5.32125Z" fill="#156FF7"/>
</svg>
