<svg width="16" height="16" viewBox="0 0 16 16" fill="none" xmlns="http://www.w3.org/2000/svg">
<g clip-path="url(#clip0_243_1089)">
<path d="M8 9.33334C7.81111 9.33334 7.65289 9.26934 7.52533 9.14134C7.39733 9.01379 7.33333 8.85557 7.33333 8.66668C7.33333 8.47779 7.39733 8.31934 7.52533 8.19134C7.65289 8.06379 7.81111 8.00001 8 8.00001C8.18889 8.00001 8.34733 8.06379 8.47533 8.19134C8.60289 8.31934 8.66667 8.47779 8.66667 8.66668C8.66667 8.85557 8.60289 9.01379 8.47533 9.14134C8.34733 9.26934 8.18889 9.33334 8 9.33334ZM5.33333 9.33334C5.14444 9.33334 4.986 9.26934 4.858 9.14134C4.73044 9.01379 4.66667 8.85557 4.66667 8.66668C4.66667 8.47779 4.73044 8.31934 4.858 8.19134C4.986 8.06379 5.14444 8.00001 5.33333 8.00001C5.52222 8.00001 5.68067 8.06379 5.80867 8.19134C5.93622 8.31934 6 8.47779 6 8.66668C6 8.85557 5.93622 9.01379 5.80867 9.14134C5.68067 9.26934 5.52222 9.33334 5.33333 9.33334ZM10.6667 9.33334C10.4778 9.33334 10.3196 9.26934 10.192 9.14134C10.064 9.01379 10 8.85557 10 8.66668C10 8.47779 10.064 8.31934 10.192 8.19134C10.3196 8.06379 10.4778 8.00001 10.6667 8.00001C10.8556 8.00001 11.0138 8.06379 11.1413 8.19134C11.2693 8.31934 11.3333 8.47779 11.3333 8.66668C11.3333 8.85557 11.2693 9.01379 11.1413 9.14134C11.0138 9.26934 10.8556 9.33334 10.6667 9.33334ZM8 12C7.81111 12 7.65289 11.936 7.52533 11.808C7.39733 11.6805 7.33333 11.5222 7.33333 11.3333C7.33333 11.1445 7.39733 10.9862 7.52533 10.8587C7.65289 10.7307 7.81111 10.6667 8 10.6667C8.18889 10.6667 8.34733 10.7307 8.47533 10.8587C8.60289 10.9862 8.66667 11.1445 8.66667 11.3333C8.66667 11.5222 8.60289 11.6805 8.47533 11.808C8.34733 11.936 8.18889 12 8 12ZM5.33333 12C5.14444 12 4.986 11.936 4.858 11.808C4.73044 11.6805 4.66667 11.5222 4.66667 11.3333C4.66667 11.1445 4.73044 10.9862 4.858 10.8587C4.986 10.7307 5.14444 10.6667 5.33333 10.6667C5.52222 10.6667 5.68067 10.7307 5.80867 10.8587C5.93622 10.9862 6 11.1445 6 11.3333C6 11.5222 5.93622 11.6805 5.80867 11.808C5.68067 11.936 5.52222 12 5.33333 12ZM10.6667 12C10.4778 12 10.3196 11.936 10.192 11.808C10.064 11.6805 10 11.5222 10 11.3333C10 11.1445 10.064 10.9862 10.192 10.8587C10.3196 10.7307 10.4778 10.6667 10.6667 10.6667C10.8556 10.6667 11.0138 10.7307 11.1413 10.8587C11.2693 10.9862 11.3333 11.1445 11.3333 11.3333C11.3333 11.5222 11.2693 11.6805 11.1413 11.808C11.0138 11.936 10.8556 12 10.6667 12ZM3.33333 14.6667C2.96667 14.6667 2.65267 14.5362 2.39133 14.2753C2.13044 14.014 2 13.7 2 13.3333V4.00001C2 3.63334 2.13044 3.31957 2.39133 3.05868C2.65267 2.79734 2.96667 2.66668 3.33333 2.66668H4V2.00001C4 1.81112 4.06378 1.65268 4.19133 1.52468C4.31933 1.39712 4.47778 1.33334 4.66667 1.33334C4.85556 1.33334 5.014 1.39712 5.142 1.52468C5.26956 1.65268 5.33333 1.81112 5.33333 2.00001V2.66668H10.6667V2.00001C10.6667 1.81112 10.7307 1.65268 10.8587 1.52468C10.9862 1.39712 11.1444 1.33334 11.3333 1.33334C11.5222 1.33334 11.6804 1.39712 11.808 1.52468C11.936 1.65268 12 1.81112 12 2.00001V2.66668H12.6667C13.0333 2.66668 13.3473 2.79734 13.6087 3.05868C13.8696 3.31957 14 3.63334 14 4.00001V13.3333C14 13.7 13.8696 14.014 13.6087 14.2753C13.3473 14.5362 13.0333 14.6667 12.6667 14.6667H3.33333ZM3.33333 13.3333H12.6667V6.66668H3.33333V13.3333Z" fill="#64748B"/>
</g>
<defs>
<clipPath id="clip0_243_1089">
<rect width="16" height="16" fill="white"/>
</clipPath>
</defs>
</svg>
