<svg width="16" height="16" viewBox="0 0 16 16" fill="none" xmlns="http://www.w3.org/2000/svg">
<g clip-path="url(#clip0_1830_15682)">
<path d="M8 4.0625C8 3.94647 7.95391 3.83519 7.87186 3.75314C7.78981 3.67109 7.67853 3.625 7.5625 3.625C7.44647 3.625 7.33519 3.67109 7.25314 3.75314C7.17109 3.83519 7.125 3.94647 7.125 4.0625V8.875C7.12502 8.95212 7.14543 9.02785 7.18415 9.09454C7.22288 9.16123 7.27854 9.2165 7.3455 9.25475L10.408 11.0048C10.5085 11.0591 10.6263 11.0719 10.7361 11.0406C10.846 11.0092 10.9392 10.9361 10.9959 10.8369C11.0525 10.7377 11.0682 10.6203 11.0394 10.5098C11.0107 10.3992 10.9398 10.3043 10.842 10.2452L8 8.62125V4.0625Z" fill="white" stroke="white" stroke-width="0.4"/>
<path d="M8 15C9.85652 15 11.637 14.2625 12.9497 12.9497C14.2625 11.637 15 9.85652 15 8C15 6.14348 14.2625 4.36301 12.9497 3.05025C11.637 1.7375 9.85652 1 8 1C6.14348 1 4.36301 1.7375 3.05025 3.05025C1.7375 4.36301 1 6.14348 1 8C1 9.85652 1.7375 11.637 3.05025 12.9497C4.36301 14.2625 6.14348 15 8 15ZM14.125 8C14.125 9.62445 13.4797 11.1824 12.331 12.331C11.1824 13.4797 9.62445 14.125 8 14.125C6.37555 14.125 4.81763 13.4797 3.66897 12.331C2.52031 11.1824 1.875 9.62445 1.875 8C1.875 6.37555 2.52031 4.81763 3.66897 3.66897C4.81763 2.52031 6.37555 1.875 8 1.875C9.62445 1.875 11.1824 2.52031 12.331 3.66897C13.4797 4.81763 14.125 6.37555 14.125 8Z" fill="white" stroke="white" stroke-width="0.4"/>
</g>
<defs>
<clipPath id="clip0_1830_15682">
<rect width="16" height="16" fill="white"/>
</clipPath>
</defs>
</svg>
