<svg width="10" height="10" viewBox="0 0 10 10" fill="none" xmlns="http://www.w3.org/2000/svg">
<path fill-rule="evenodd" clip-rule="evenodd" d="M9.375 1.875C9.72018 1.52982 9.72018 0.970178 9.375 0.625C9.02982 0.279822 8.47018 0.279823 8.125 0.625001L5 3.75L1.875 0.625C1.52982 0.279822 0.970178 0.279822 0.625 0.625C0.279822 0.970178 0.279822 1.52982 0.625 1.875L3.75 5L0.625 8.125C0.279822 8.47018 0.279822 9.02982 0.625 9.375C0.970178 9.72018 1.52982 9.72018 1.875 9.375L5 6.25L8.125 9.375C8.47018 9.72018 9.02982 9.72018 9.375 9.375C9.72018 9.02982 9.72018 8.47018 9.375 8.125L6.25 5L9.375 1.875Z" fill="#F73015"/>
</svg>
