<svg width="25" height="24" viewBox="0 0 25 24" fill="none" xmlns="http://www.w3.org/2000/svg">
<path d="M11.9895 17.9184L7.18512 15.156C7.05477 15.0627 6.88718 15.156 6.88718 15.324V20.8488C6.88718 20.9981 6.96166 21.1288 7.09201 21.2035L11.8964 23.9659C12.0267 24.0405 12.1943 23.9472 12.1943 23.7979V18.273C12.1943 18.1237 12.1198 17.9931 11.9895 17.9184ZM12.2129 10.919L12.1943 16.5185C12.1943 16.6492 12.064 16.6865 11.9708 16.6492L6.10507 13.2895C5.97472 13.2148 5.80713 13.3082 5.80713 13.4575V20.0836C5.80713 20.2329 5.62091 20.3449 5.50918 20.2515L0.704838 17.5264C0.574487 17.4518 0.5 17.3211 0.5 17.1718V4.31162C0.5 4.1623 0.686216 4.05031 0.797945 4.14363L11.9895 10.5271C12.1198 10.6391 12.2129 10.7697 12.2129 10.919ZM24.5776 4.25562L19.8291 6.96205C19.6988 7.03671 19.6243 7.16736 19.6057 7.31668L19.6243 14.1667C19.6243 14.3161 19.5498 14.4467 19.4194 14.5214L13.4792 17.9371C13.3488 18.0117 13.2744 18.1424 13.2744 18.2917V23.7979C13.2744 23.9472 13.4419 24.0592 13.5723 23.9659L24.6707 17.6198C24.8011 17.5451 24.8755 17.4144 24.8755 17.2651V4.44227C24.8755 4.27429 24.708 4.18096 24.5776 4.25562ZM13.2744 10.9377V16.4439C13.2744 16.5932 13.4419 16.7052 13.5723 16.6119L18.4325 13.8308C18.4884 13.8121 18.5256 13.7374 18.5256 13.6628V8.06328C18.5256 7.91396 18.358 7.80197 18.2277 7.8953L13.4792 10.6017C13.3488 10.6577 13.2744 10.7884 13.2744 10.9377ZM1.41245 2.78109L6.14231 0.055995C6.27267 -1.39065e-09 6.42164 -1.39065e-09 6.57061 0.055995L17.7621 6.43943C17.8925 6.51409 17.8925 6.7194 17.7621 6.79406L13.0136 9.51916C12.8833 9.59382 12.7343 9.59382 12.604 9.51916L1.41245 3.13572C1.30072 3.06106 1.30072 2.85575 1.41245 2.78109ZM14.1123 2.78109L18.898 0.055995C19.0284 -0.018665 19.1774 -0.018665 19.3077 0.055995L24.1307 2.81842C24.261 2.89308 24.261 3.09839 24.1307 3.17305L19.345 5.89815C19.2146 5.97281 19.0656 5.97281 18.9353 5.89815L14.1123 3.13572C13.982 3.06106 13.982 2.85575 14.1123 2.78109Z" fill="black"/>
</svg>
