<svg width="32" height="32" viewBox="0 0 32 32" fill="none" xmlns="http://www.w3.org/2000/svg">
<rect width="32" height="32" fill="#93BCEC"/>
<g style="mix-blend-mode:luminosity">
<g clip-path="url(#clip0_2244_39005)">
<path fill-rule="evenodd" clip-rule="evenodd" d="M16.7249 16.7439V19.9617C16.7249 20.0348 16.8403 20.108 16.9173 20.0714L19.881 18.4625C19.9194 18.4259 19.9579 18.3894 19.9579 18.3528V15.0984C19.9579 15.0253 19.8425 14.9522 19.7655 14.9887L16.8788 16.5611C16.8018 16.5976 16.7249 16.6708 16.7249 16.7439Z" fill="#0D48A0"/>
<path fill-rule="evenodd" clip-rule="evenodd" d="M11.9707 18.6619L9.0455 17.0529C8.96853 17.0164 8.85306 17.0895 8.85306 17.1626V20.3804C8.85306 20.4902 8.89153 20.5633 8.96853 20.5999L11.8937 22.2088C11.9707 22.2452 12.0862 22.1722 12.0862 22.099V18.8813C12.0862 18.7715 12.0477 18.6985 11.9707 18.6619Z" fill="#0D48A0"/>
<path fill-rule="evenodd" clip-rule="evenodd" d="M11.9707 14.3741L9.0455 12.7651C8.96853 12.7285 8.85306 12.8017 8.85306 12.8748V16.0926C8.85306 16.2023 8.89153 16.2755 8.96853 16.3121L11.8937 17.9209C11.9707 17.9574 12.0862 17.8844 12.0862 17.8112V14.5934C12.0862 14.4836 12.0477 14.4106 11.9707 14.3741Z" fill="#0D48A0"/>
<path fill-rule="evenodd" clip-rule="evenodd" d="M15.9066 16.5249L12.9814 14.916C12.9044 14.8794 12.7889 14.9525 12.7889 15.0257V18.2434C12.7889 18.3532 12.8274 18.4264 12.9044 18.4629L15.8296 20.0719C15.9066 20.1083 16.022 20.0353 16.022 19.9621V16.7443C16.022 16.6345 15.9836 16.5615 15.9066 16.5249Z" fill="#0D48A0"/>
<path fill-rule="evenodd" clip-rule="evenodd" d="M16.6761 25.3698V28.5876C16.6761 28.6608 16.7916 28.7339 16.8686 28.6973L19.8322 27.0885C19.8707 27.0519 19.9092 27.0153 19.9092 26.9787V23.7244C19.9092 23.6512 19.7937 23.5781 19.7168 23.6147L16.8301 25.187C16.7531 25.2236 16.6761 25.2967 16.6761 25.3698Z" fill="#D9DEE2"/>
<path fill-rule="evenodd" clip-rule="evenodd" d="M20.6135 23.2109V26.4287C20.6135 26.5018 20.7289 26.575 20.8059 26.5384L23.7696 24.9295C23.8081 24.893 23.8466 24.8564 23.8466 24.8198V21.5654C23.8466 21.4923 23.7311 21.4192 23.6541 21.4558L20.7674 23.0281C20.6904 23.0647 20.6135 23.1378 20.6135 23.2109Z" fill="#D9DEE2"/>
<path fill-rule="evenodd" clip-rule="evenodd" d="M24.5508 21.1323V24.3501C24.5508 24.4232 24.6663 24.4964 24.7433 24.4598L27.7069 22.8509C27.7454 22.8144 27.7839 22.7778 27.7839 22.7412V19.4868C27.7839 19.4137 27.6684 19.3406 27.5915 19.3772L24.7048 20.9495C24.6278 20.986 24.5508 21.0592 24.5508 21.1323Z" fill="#D9DEE2"/>
<path fill-rule="evenodd" clip-rule="evenodd" d="M24.5508 16.8887V20.1064C24.5508 20.1796 24.6663 20.2527 24.7433 20.2162L27.7069 18.6073C27.7454 18.5707 27.7839 18.5341 27.7839 18.4975V15.2432C27.7839 15.17 27.6684 15.0969 27.5915 15.1335L24.7048 16.7058C24.6278 16.7424 24.5508 16.8155 24.5508 16.8887Z" fill="#D9DEE2"/>
<path fill-rule="evenodd" clip-rule="evenodd" d="M24.5508 12.5483V15.7661C24.5508 15.8392 24.6663 15.9124 24.7433 15.8758L27.7069 14.2669C27.7454 14.2304 27.7839 14.1938 27.7839 14.1572V10.9029C27.7839 10.8297 27.6684 10.7566 27.5915 10.7932L24.7048 12.3655C24.6278 12.4021 24.5508 12.4752 24.5508 12.5483Z" fill="#D9DEE2"/>
<path fill-rule="evenodd" clip-rule="evenodd" d="M13.322 9.8488L16.2472 8.27645C16.3242 8.23988 16.4396 8.23988 16.4781 8.27645L19.4417 9.88536C19.5188 9.9585 19.5188 10.0682 19.4417 10.1047L16.5166 11.6771C16.4396 11.7137 16.3626 11.7137 16.2857 11.6771L13.322 10.0682C13.245 9.99507 13.245 9.88536 13.322 9.8488Z" fill="#D9DEE2"/>
<path fill-rule="evenodd" clip-rule="evenodd" d="M17.132 7.66957L20.0572 6.09725C20.1343 6.06068 20.2496 6.06068 20.2881 6.09725L23.2518 7.70616C23.3288 7.77927 23.3288 7.88898 23.2518 7.92554L20.3267 9.49786C20.2496 9.53443 20.1726 9.53443 20.0957 9.49786L17.132 7.88898C17.055 7.81584 17.055 7.70613 17.132 7.66957Z" fill="#D9DEE2"/>
<path fill-rule="evenodd" clip-rule="evenodd" d="M21.0768 9.8488L24.0021 8.27645C24.0791 8.23988 24.1944 8.23988 24.2329 8.27645L27.1965 9.88536C27.2736 9.9585 27.2736 10.0682 27.1965 10.1047L24.2714 11.6771C24.1944 11.7137 24.1174 11.7137 24.0406 11.6771L21.0768 10.0682C20.9998 9.99507 20.9998 9.88536 21.0768 9.8488Z" fill="#D9DEE2"/>
<path fill-rule="evenodd" clip-rule="evenodd" d="M9.52354 7.67056L12.4488 6.09823C12.5258 6.06166 12.6411 6.06166 12.6796 6.09823L15.6433 7.70713C15.7203 7.78027 15.7203 7.88994 15.6433 7.92651L12.7182 9.49886C12.6411 9.53542 12.5641 9.53542 12.4873 9.49886L9.52354 7.88997C9.44654 7.81684 9.44654 7.70713 9.52354 7.67056Z" fill="#D9DEE2"/>
<path fill-rule="evenodd" clip-rule="evenodd" d="M13.3335 5.49136L16.2588 3.91903C16.3358 3.88246 16.4511 3.88246 16.4897 3.91903L19.4533 5.52794C19.5303 5.60106 19.5303 5.71075 19.4533 5.74732L16.5282 7.31964C16.4511 7.35621 16.3741 7.35621 16.2973 7.31964L13.3335 5.71077C13.2566 5.63763 13.2566 5.52793 13.3335 5.49136Z" fill="#D9DEE2"/>
<path fill-rule="evenodd" clip-rule="evenodd" d="M5.5672 9.8488L8.49243 8.27645C8.56944 8.23988 8.68481 8.23988 8.72331 8.27645L11.6869 9.88536C11.764 9.9585 11.764 10.0682 11.6869 10.1047L8.76181 11.6771C8.68481 11.7137 8.60777 11.7137 8.53093 11.6771L5.5672 10.0682C5.49021 9.99507 5.49021 9.88536 5.5672 9.8488Z" fill="#D9DEE2"/>
<path fill-rule="evenodd" clip-rule="evenodd" d="M8.13364 16.6705L5.20846 15.0615C5.1315 15.0249 5.01602 15.0981 5.01602 15.1712V18.3889C5.01602 18.4987 5.05451 18.5719 5.1315 18.6084L8.05668 20.2173C8.13364 20.2538 8.24911 20.1808 8.24911 20.1076V16.8898C8.24911 16.78 8.21065 16.707 8.13364 16.6705Z" fill="#D9DEE2"/>
<path fill-rule="evenodd" clip-rule="evenodd" d="M8.13364 20.9563L5.20846 19.3474C5.1315 19.3108 5.01602 19.3839 5.01602 19.4571V22.6748C5.01602 22.7846 5.05451 22.8578 5.1315 22.8943L8.05668 24.5032C8.13364 24.5397 8.24911 24.4666 8.24911 24.3935V21.1757C8.24911 21.0659 8.21065 20.9929 8.13364 20.9563Z" fill="#D9DEE2"/>
<path fill-rule="evenodd" clip-rule="evenodd" d="M11.9872 22.9739L9.06198 21.3649C8.98501 21.3284 8.86954 21.4015 8.86954 21.4746V24.6924C8.86954 24.8021 8.90804 24.8753 8.98501 24.9119L11.9102 26.5208C11.9872 26.5572 12.1026 26.4842 12.1026 26.4111V23.1933C12.1026 23.0835 12.0642 23.0105 11.9872 22.9739Z" fill="#D9DEE2"/>
<path fill-rule="evenodd" clip-rule="evenodd" d="M15.8888 25.1519L12.9636 23.5429C12.8867 23.5064 12.7712 23.5795 12.7712 23.6526V26.8704C12.7712 26.9801 12.8097 27.0533 12.8867 27.0899L15.8118 28.6988C15.8888 28.7352 16.0043 28.6622 16.0043 28.589V25.3712C16.0043 25.2615 15.9658 25.1885 15.8888 25.1519Z" fill="#D9DEE2"/>
<path fill-rule="evenodd" clip-rule="evenodd" d="M8.13364 12.3191L5.20846 10.7102C5.1315 10.6736 5.01602 10.7467 5.01602 10.8199V14.0376C5.01602 14.1474 5.05451 14.2205 5.1315 14.2571L8.05668 15.866C8.13364 15.9025 8.24911 15.8294 8.24911 15.7563V12.5385C8.24911 12.4287 8.21065 12.3557 8.13364 12.3191Z" fill="#D9DEE2"/>
<path fill-rule="evenodd" clip-rule="evenodd" d="M9.41307 11.9789L12.3383 10.4066C12.4153 10.37 12.5307 10.37 12.5692 10.4066L15.5328 12.0155C15.6098 12.0886 15.6098 12.1983 15.5328 12.2349L12.6077 13.8072C12.5307 13.8438 12.4537 13.8438 12.3768 13.8072L9.41307 12.1983C9.3361 12.1252 9.3361 12.0155 9.41307 11.9789Z" fill="#0D48A0"/>
<path fill-rule="evenodd" clip-rule="evenodd" d="M13.3195 14.0639L16.2447 12.4915C16.3217 12.455 16.4371 12.455 16.4756 12.4915L19.4392 14.1005C19.5163 14.1736 19.5163 14.2833 19.4392 14.3198L16.5141 15.8921C16.4371 15.9287 16.3601 15.9287 16.2832 15.8921L13.3195 14.2833C13.2425 14.2101 13.2425 14.1004 13.3195 14.0639Z" fill="#0D48A0"/>
<path fill-rule="evenodd" clip-rule="evenodd" d="M17.1869 11.9789L20.1121 10.4066C20.1891 10.37 20.3045 10.37 20.343 10.4066L23.3066 12.0155C23.3836 12.0886 23.3836 12.1983 23.3066 12.2349L20.3815 13.8072C20.3045 13.8438 20.2274 13.8438 20.1506 13.8072L17.1869 12.1983C17.1099 12.1252 17.1099 12.0155 17.1869 11.9789Z" fill="#FF4545"/>
<path fill-rule="evenodd" clip-rule="evenodd" d="M20.5497 14.5928V17.8106C20.5497 17.8837 20.6652 17.9568 20.7422 17.9203L23.7058 16.3114C23.7443 16.2748 23.7828 16.2382 23.7828 16.2017V12.9473C23.7828 12.8741 23.6673 12.801 23.5904 12.8376L20.7037 14.41C20.6267 14.4465 20.5497 14.5196 20.5497 14.5928Z" fill="#FF4545"/>
<path fill-rule="evenodd" clip-rule="evenodd" d="M20.5497 18.8806V22.0984C20.5497 22.1715 20.6652 22.2447 20.7422 22.2081L23.7058 20.5992C23.7443 20.5627 23.7828 20.5261 23.7828 20.4895V17.2352C23.7828 17.162 23.6673 17.0889 23.5904 17.1254L20.7037 18.6978C20.6267 18.7343 20.5497 18.8075 20.5497 18.8806Z" fill="#FF4545"/>
<path fill-rule="evenodd" clip-rule="evenodd" d="M16.685 20.9343V24.1521C16.685 24.2252 16.8004 24.2984 16.8774 24.2618L19.8411 22.6529C19.8796 22.6164 19.9181 22.5798 19.9181 22.5432V19.2888C19.9181 19.2157 19.8026 19.1426 19.7256 19.1792L16.8389 20.7515C16.7619 20.788 16.685 20.8612 16.685 20.9343Z" fill="#FF4545"/>
<path fill-rule="evenodd" clip-rule="evenodd" d="M15.9066 20.7881L12.9814 19.1791C12.9044 19.1426 12.7889 19.2157 12.7889 19.2889V22.5066C12.7889 22.6164 12.8274 22.6895 12.9044 22.7261L15.8296 24.335C15.9066 24.3714 16.022 24.2984 16.022 24.2253V21.0075C16.022 20.8977 15.9836 20.8247 15.9066 20.7881Z" fill="#FF4545"/>
</g>
</g>
<defs>
<clipPath id="clip0_2244_39005">
<rect width="23.2" height="25.2174" fill="white" transform="translate(4.79999 3.7915)"/>
</clipPath>
</defs>
</svg>
