<svg width="20" height="20" viewBox="0 0 20 20" fill="none" xmlns="http://www.w3.org/2000/svg">
<path d="M16.875 3.125H3.125C2.79348 3.125 2.47554 3.2567 2.24112 3.49112C2.0067 3.72554 1.875 4.04348 1.875 4.375V15.625C1.875 15.9565 2.0067 16.2745 2.24112 16.5089C2.47554 16.7433 2.79348 16.875 3.125 16.875H16.875C17.2065 16.875 17.5245 16.7433 17.7589 16.5089C17.9933 16.2745 18.125 15.9565 18.125 15.625V4.375C18.125 4.04348 17.9933 3.72554 17.7589 3.49112C17.5245 3.2567 17.2065 3.125 16.875 3.125ZM16.875 15.625H3.125V4.375H16.875V15.625ZM14.375 7.5C14.375 7.66576 14.3092 7.82473 14.1919 7.94194C14.0747 8.05915 13.9158 8.125 13.75 8.125H6.25C6.08424 8.125 5.92527 8.05915 5.80806 7.94194C5.69085 7.82473 5.625 7.66576 5.625 7.5C5.625 7.33424 5.69085 7.17527 5.80806 7.05806C5.92527 6.94085 6.08424 6.875 6.25 6.875H13.75C13.9158 6.875 14.0747 6.94085 14.1919 7.05806C14.3092 7.17527 14.375 7.33424 14.375 7.5ZM14.375 10C14.375 10.1658 14.3092 10.3247 14.1919 10.4419C14.0747 10.5592 13.9158 10.625 13.75 10.625H6.25C6.08424 10.625 5.92527 10.5592 5.80806 10.4419C5.69085 10.3247 5.625 10.1658 5.625 10C5.625 9.83424 5.69085 9.67527 5.80806 9.55806C5.92527 9.44085 6.08424 9.375 6.25 9.375H13.75C13.9158 9.375 14.0747 9.44085 14.1919 9.55806C14.3092 9.67527 14.375 9.83424 14.375 10ZM14.375 12.5C14.375 12.6658 14.3092 12.8247 14.1919 12.9419C14.0747 13.0592 13.9158 13.125 13.75 13.125H6.25C6.08424 13.125 5.92527 13.0592 5.80806 12.9419C5.69085 12.8247 5.625 12.6658 5.625 12.5C5.625 12.3342 5.69085 12.1753 5.80806 12.0581C5.92527 11.9408 6.08424 11.875 6.25 11.875H13.75C13.9158 11.875 14.0747 11.9408 14.1919 12.0581C14.3092 12.1753 14.375 12.3342 14.375 12.5Z" fill="#263D53"/>
</svg>
