<svg width="26" height="26" viewBox="0 0 26 26" fill="none" xmlns="http://www.w3.org/2000/svg">
<g clip-path="url(#clip0_1916_7489)">
<g filter="url(#filter0_d_1916_7489)">
<path d="M13 26C20.1797 26 26 20.1797 26 13C26 5.82031 20.1797 0 13 0C5.82031 0 0 5.82031 0 13C0 20.1797 5.82031 26 13 26Z" fill="#5865F2"/>
</g>
<g clip-path="url(#clip1_1916_7489)">
<path d="M17.7812 3H8.21875C5.8888 3 4 4.8888 4 7.21875V16.7812C4 19.1112 5.8888 21 8.21875 21H17.7812C20.1112 21 22 19.1112 22 16.7812V7.21875C22 4.8888 20.1112 3 17.7812 3Z" fill="#5865F2"/>
<mask id="mask0_1916_7489" style="mask-type:luminance" maskUnits="userSpaceOnUse" x="5" y="6" width="16" height="13">
<path d="M5.125 6.37488H20.875V18.5756H5.125V6.37488Z" fill="white"/>
</mask>
<g mask="url(#mask0_1916_7489)">
<path d="M18.458 7.46136C17.4368 6.99269 16.3592 6.65844 15.2521 6.46698C15.2421 6.46514 15.2317 6.46651 15.2224 6.47089C15.2132 6.47527 15.2056 6.48244 15.2006 6.49139C15.0622 6.73757 14.9088 7.05887 14.8014 7.31134C13.5908 7.13006 12.3865 7.13006 11.2008 7.31134C11.0933 7.0532 10.9344 6.73757 10.7953 6.49139C10.7902 6.48259 10.7826 6.47554 10.7733 6.47118C10.7641 6.46683 10.7538 6.46536 10.7438 6.46698C9.63655 6.65801 8.5589 6.99227 7.53793 7.46136C7.52924 7.46514 7.52188 7.47145 7.51683 7.47947C5.475 10.5299 4.91571 13.5054 5.19008 16.4441C5.19175 16.4586 5.19911 16.4718 5.21055 16.4809C6.55765 17.4702 7.86262 18.0709 9.14333 18.469C9.15329 18.4719 9.16392 18.4717 9.17379 18.4685C9.18367 18.4653 9.19232 18.4591 9.19861 18.4508C9.50156 18.0371 9.7716 17.6009 10.0032 17.1422C10.0064 17.1359 10.0082 17.129 10.0085 17.122C10.0089 17.1149 10.0077 17.1079 10.0051 17.1013C10.0025 17.0948 9.99861 17.0889 9.99356 17.0839C9.98852 17.079 9.98249 17.0752 9.97587 17.0728C9.54747 16.9103 9.13963 16.7122 8.74729 16.4872C8.74015 16.483 8.73415 16.4771 8.72982 16.47C8.7255 16.4629 8.72298 16.4549 8.72249 16.4466C8.722 16.4384 8.72355 16.4301 8.72701 16.4225C8.73047 16.415 8.73573 16.4084 8.74233 16.4034C8.8251 16.3416 8.90645 16.2778 8.9863 16.2122C8.9933 16.2064 9.00177 16.2027 9.01075 16.2015C9.01974 16.2003 9.02889 16.2016 9.03717 16.2053C11.6148 17.3821 14.4053 17.3821 16.9525 16.2053C16.9608 16.2014 16.9701 16.1999 16.9792 16.201C16.9883 16.2021 16.9969 16.2058 17.0041 16.2116C17.084 16.2775 17.1656 16.3415 17.2487 16.4034C17.2553 16.4084 17.2606 16.4149 17.2641 16.4224C17.2676 16.4299 17.2692 16.4382 17.2688 16.4465C17.2684 16.4547 17.2659 16.4628 17.2617 16.4699C17.2574 16.477 17.2514 16.4829 17.2443 16.4872C16.8518 16.7164 16.4406 16.9121 16.0151 17.0722C16.0085 17.0747 16.0026 17.0786 15.9976 17.0836C15.9926 17.0886 15.9887 17.0946 15.9862 17.1012C15.9837 17.1078 15.9826 17.1149 15.983 17.1219C15.9833 17.129 15.9852 17.1359 15.9884 17.1422C16.224 17.5973 16.4927 18.0345 16.7923 18.4502C16.7984 18.4587 16.8071 18.465 16.817 18.4684C16.8269 18.4718 16.8376 18.472 16.8476 18.469C18.1345 18.0709 19.4395 17.4702 20.7867 16.4809C20.7924 16.4766 20.7972 16.4712 20.8008 16.465C20.8043 16.4587 20.8065 16.4518 20.8071 16.4447C21.1355 13.0473 20.2571 10.0962 18.4784 7.4801C18.4741 7.47157 18.4668 7.46491 18.458 7.46136ZM10.3881 14.6548C9.61205 14.6548 8.9726 13.9423 8.9726 13.0673C8.9726 12.1923 9.59968 11.4799 10.3881 11.4799C11.1827 11.4799 11.8159 12.1986 11.8035 13.0673C11.8035 13.9423 11.1765 14.6548 10.3881 14.6548ZM15.6215 14.6548C14.8455 14.6548 14.2061 13.9423 14.2061 13.0673C14.2061 12.1923 14.8331 11.4799 15.6215 11.4799C16.4161 11.4799 17.0494 12.1986 17.037 13.0673C17.037 13.9423 16.4161 14.6548 15.6215 14.6548Z" fill="white"/>
</g>
</g>
</g>
<defs>
<filter id="filter0_d_1916_7489" x="-1" y="-1" width="28" height="28" filterUnits="userSpaceOnUse" color-interpolation-filters="sRGB">
<feFlood flood-opacity="0" result="BackgroundImageFix"/>
<feColorMatrix in="SourceAlpha" type="matrix" values="0 0 0 0 0 0 0 0 0 0 0 0 0 0 0 0 0 0 127 0" result="hardAlpha"/>
<feOffset/>
<feGaussianBlur stdDeviation="0.5"/>
<feComposite in2="hardAlpha" operator="out"/>
<feColorMatrix type="matrix" values="0 0 0 0 0 0 0 0 0 0 0 0 0 0 0 0 0 0 0.17 0"/>
<feBlend mode="normal" in2="BackgroundImageFix" result="effect1_dropShadow_1916_7489"/>
<feBlend mode="normal" in="SourceGraphic" in2="effect1_dropShadow_1916_7489" result="shape"/>
</filter>
<clipPath id="clip0_1916_7489">
<rect width="26" height="26" fill="white"/>
</clipPath>
<clipPath id="clip1_1916_7489">
<rect width="18" height="18" fill="white" transform="translate(4 3)"/>
</clipPath>
</defs>
</svg>
