<svg width="14" height="14" viewBox="0 0 14 14" fill="none" xmlns="http://www.w3.org/2000/svg">
<g clip-path="url(#clip0_6441_59181)">
<g clip-path="url(#clip1_6441_59181)">
<path d="M9.9165 1.74887C10.0697 1.59567 10.2516 1.47413 10.4518 1.39122C10.652 1.3083 10.8665 1.26563 11.0832 1.26562C11.2998 1.26562 11.5144 1.3083 11.7146 1.39122C11.9147 1.47413 12.0966 1.59567 12.2498 1.74887C12.403 1.90208 12.5246 2.08397 12.6075 2.28415C12.6904 2.48432 12.7331 2.69887 12.7331 2.91554C12.7331 3.13221 12.6904 3.34676 12.6075 3.54694C12.5246 3.74711 12.403 3.929 12.2498 4.08221L4.37484 11.9572L1.1665 12.8322L2.0415 9.62387L9.9165 1.74887Z" stroke="#156FF7" stroke-width="1.3" stroke-linecap="round" stroke-linejoin="round"/>
</g>
</g>
<defs>
<clipPath id="clip0_6441_59181">
<rect width="14" height="14" fill="white"/>
</clipPath>
<clipPath id="clip1_6441_59181">
<rect width="14" height="14" fill="white"/>
</clipPath>
</defs>
</svg>
