<svg width="26" height="26" viewBox="0 0 26 26" fill="none" xmlns="http://www.w3.org/2000/svg">
<g clip-path="url(#clip0_1940_14864)">
<g filter="url(#filter0_d_1940_14864)">
<path d="M13 26C20.1797 26 26 20.1797 26 13C26 5.82031 20.1797 0 13 0C5.82031 0 0 5.82031 0 13C0 20.1797 5.82031 26 13 26Z" fill="#1E3A8A"/>
</g>
<path d="M18.6 13C18.5999 11.7518 18.1827 10.5395 17.4148 9.55543C16.6469 8.57141 15.5723 7.87214 14.3616 7.56865C13.1509 7.26517 11.8735 7.37487 10.7322 7.88034C9.59094 8.38581 8.65127 9.25807 8.0624 10.3586C7.47353 11.4592 7.26921 12.7249 7.48189 13.9548C7.69458 15.1847 8.31207 16.3084 9.23631 17.1472C10.1606 17.9861 11.3386 18.4922 12.5833 18.5851C13.828 18.6779 15.0681 18.3523 16.1066 17.6599L16.8836 18.8247C15.7343 19.5931 14.3825 20.0022 13 20C9.1339 20 6 16.8661 6 13C6 9.1339 9.1339 6 13 6C16.8661 6 20 9.1339 20 13V14.05C20.0001 14.5741 19.8321 15.0845 19.5207 15.506C19.2092 15.9276 18.7708 16.2382 18.2698 16.3922C17.7688 16.5462 17.2317 16.5355 16.7372 16.3616C16.2428 16.1877 15.8171 15.8599 15.5228 15.4262C15.0556 15.912 14.4581 16.2526 13.802 16.407C13.1459 16.5614 12.4592 16.5231 11.8244 16.2967C11.1896 16.0703 10.6336 15.6654 10.2233 15.1307C9.81302 14.5959 9.56586 13.9541 9.51151 13.2823C9.45716 12.6105 9.59794 11.9373 9.91694 11.3436C10.2359 10.7498 10.7196 10.2608 11.3098 9.93533C11.8999 9.60982 12.5716 9.46163 13.2439 9.50858C13.9163 9.55553 14.5608 9.79562 15.1 10.2H16.5V14.05C16.5 14.3285 16.6106 14.5955 16.8075 14.7925C17.0045 14.9894 17.2715 15.1 17.55 15.1C17.8285 15.1 18.0955 14.9894 18.2925 14.7925C18.4894 14.5955 18.6 14.3285 18.6 14.05V13ZM13 10.9C12.443 10.9 11.9089 11.1212 11.5151 11.5151C11.1212 11.9089 10.9 12.443 10.9 13C10.9 13.5569 11.1212 14.0911 11.5151 14.4849C11.9089 14.8787 12.443 15.1 13 15.1C13.557 15.1 14.0911 14.8787 14.4849 14.4849C14.8788 14.0911 15.1 13.5569 15.1 13C15.1 12.443 14.8788 11.9089 14.4849 11.5151C14.0911 11.1212 13.557 10.9 13 10.9Z" fill="white"/>
</g>
<defs>
<filter id="filter0_d_1940_14864" x="-1" y="-1" width="28" height="28" filterUnits="userSpaceOnUse" color-interpolation-filters="sRGB">
<feFlood flood-opacity="0" result="BackgroundImageFix"/>
<feColorMatrix in="SourceAlpha" type="matrix" values="0 0 0 0 0 0 0 0 0 0 0 0 0 0 0 0 0 0 127 0" result="hardAlpha"/>
<feOffset/>
<feGaussianBlur stdDeviation="0.5"/>
<feComposite in2="hardAlpha" operator="out"/>
<feColorMatrix type="matrix" values="0 0 0 0 0 0 0 0 0 0 0 0 0 0 0 0 0 0 0.17 0"/>
<feBlend mode="normal" in2="BackgroundImageFix" result="effect1_dropShadow_1940_14864"/>
<feBlend mode="normal" in="SourceGraphic" in2="effect1_dropShadow_1940_14864" result="shape"/>
</filter>
<clipPath id="clip0_1940_14864">
<rect width="26" height="26" fill="white"/>
</clipPath>
</defs>
</svg>
