<svg width="18" height="18" viewBox="0 0 18 18" fill="none" xmlns="http://www.w3.org/2000/svg">
<circle cx="8.7793" cy="8.7793" r="8.7793" fill="url(#paint0_linear_103_49)"/>
<path d="M8.44847 3.61769C8.5761 3.33136 8.98251 3.33136 9.11014 3.61769L10.3252 6.34348C10.3778 6.46158 10.4894 6.54265 10.618 6.55623L13.5858 6.86947C13.8976 6.90237 14.0232 7.28889 13.7903 7.49875L11.5734 9.49662C11.4773 9.58318 11.4347 9.71437 11.4615 9.84085L12.0807 12.7602C12.1458 13.0669 11.817 13.3058 11.5454 13.1492L8.96027 11.6581C8.84827 11.5935 8.71033 11.5935 8.59833 11.6581L6.01317 13.1492C5.74162 13.3058 5.41283 13.0669 5.47787 12.7602L6.09708 9.84085C6.12391 9.71437 6.08128 9.58318 5.98524 9.49662L3.76831 7.49875C3.53544 7.28889 3.66103 6.90237 3.97278 6.86946L6.94063 6.55623C7.06921 6.54265 7.1808 6.46158 7.23344 6.34348L8.44847 3.61769Z" fill="white"/>
<defs>
<linearGradient id="paint0_linear_103_49" x1="0" y1="0" x2="21.0762" y2="10.4936" gradientUnits="userSpaceOnUse">
<stop stop-color="#E942FF"/>
<stop offset="1" stop-color="#8044D5"/>
</linearGradient>
</defs>
</svg>
