<svg width="56" height="53" viewBox="0 0 56 53" fill="none" xmlns="http://www.w3.org/2000/svg">
<g filter="url(#filter0_d_1682_35236)">
<rect x="8" y="4" width="40" height="40" rx="20" fill="white"/>
<rect x="7.5" y="3.5" width="41" height="41" rx="20.5" stroke="#156FF7"/>
<path d="M28 28C28.2833 28 28.521 27.904 28.713 27.712C28.905 27.52 29.0007 27.2827 29 27C28.9993 26.7173 28.9033 26.48 28.712 26.288C28.5207 26.096 28.2833 26 28 26C27.7167 26 27.4793 26.096 27.288 26.288C27.0967 26.48 27.0007 26.7173 27 27C26.9993 27.2827 27.0953 27.5203 27.288 27.713C27.4807 27.9057 27.718 28.0013 28 28ZM28 24C28.2833 24 28.521 23.904 28.713 23.712C28.905 23.52 29.0007 23.2827 29 23V19C29 18.7167 28.904 18.4793 28.712 18.288C28.52 18.0967 28.2827 18.0007 28 18C27.7173 17.9993 27.48 18.0953 27.288 18.288C27.096 18.4807 27 18.718 27 19V23C27 23.2833 27.096 23.521 27.288 23.713C27.48 23.905 27.7173 24.0007 28 24ZM22 31L19.7 33.3C19.3833 33.6167 19.0207 33.6877 18.612 33.513C18.2033 33.3383 17.9993 33.0257 18 32.575V17C18 16.45 18.196 15.9793 18.588 15.588C18.98 15.1967 19.4507 15.0007 20 15H36C36.55 15 37.021 15.196 37.413 15.588C37.805 15.98 38.0007 16.4507 38 17V29C38 29.55 37.8043 30.021 37.413 30.413C37.0217 30.805 36.5507 31.0007 36 31H22ZM21.15 29H36V17H20V30.125L21.15 29Z" fill="#156FF7"/>
<path d="M20 17H36V29H21.15L20 30.125V17ZM20 17V29M28 28C28.2833 28 28.521 27.904 28.713 27.712C28.905 27.52 29.0007 27.2827 29 27C28.9993 26.7173 28.9033 26.48 28.712 26.288C28.5207 26.096 28.2833 26 28 26C27.7167 26 27.4793 26.096 27.288 26.288C27.0967 26.48 27.0007 26.7173 27 27C26.9993 27.2827 27.0953 27.5203 27.288 27.713C27.4807 27.9057 27.718 28.0013 28 28ZM28 24C28.2833 24 28.521 23.904 28.713 23.712C28.905 23.52 29.0007 23.2827 29 23V19C29 18.7167 28.904 18.4793 28.712 18.288C28.52 18.0967 28.2827 18.0007 28 18C27.7173 17.9993 27.48 18.0953 27.288 18.288C27.096 18.4807 27 18.718 27 19V23C27 23.2833 27.096 23.521 27.288 23.713C27.48 23.905 27.7173 24.0007 28 24ZM22 31L19.7 33.3C19.3833 33.6167 19.0207 33.6877 18.612 33.513C18.2033 33.3383 17.9993 33.0257 18 32.575V17C18 16.45 18.196 15.9793 18.588 15.588C18.98 15.1967 19.4507 15.0007 20 15H36C36.55 15 37.021 15.196 37.413 15.588C37.805 15.98 38.0007 16.4507 38 17V29C38 29.55 37.8043 30.021 37.413 30.413C37.0217 30.805 36.5507 31.0007 36 31H22Z" stroke="white" stroke-width="0.6"/>
</g>
<rect x="0.25" y="36.75" width="55.5" height="15.5" rx="7.75" fill="white"/>
<rect x="0.25" y="36.75" width="55.5" height="15.5" rx="7.75" stroke="#156FF7" stroke-width="0.5"/>
<path d="M4.83163 47.5V40.9545H9.02481V41.9485H6.01736V43.7255H8.73717V44.7195H6.01736V47.5H4.83163ZM10.1051 47.5V40.9545H14.3622V41.9485H11.2908V43.7255H14.1416V44.7195H11.2908V46.506H14.3877V47.5H10.1051ZM15.5719 47.5V40.9545H19.829V41.9485H16.7576V43.7255H19.6084V44.7195H16.7576V46.506H19.8545V47.5H15.5719ZM23.2567 47.5H21.0387V40.9545H23.3014C23.9513 40.9545 24.5095 41.0856 24.9762 41.3477C25.4449 41.6076 25.805 41.9815 26.0564 42.4695C26.3078 42.9574 26.4335 43.5412 26.4335 44.2209C26.4335 44.9027 26.3068 45.4886 26.0532 45.9787C25.8018 46.4687 25.4385 46.8448 24.9634 47.1069C24.4904 47.369 23.9215 47.5 23.2567 47.5ZM22.2244 46.4741H23.1992C23.6551 46.4741 24.0355 46.391 24.3402 46.2248C24.6448 46.0565 24.8739 45.8061 25.0273 45.4737C25.1807 45.1392 25.2574 44.7216 25.2574 44.2209C25.2574 43.7202 25.1807 43.3047 25.0273 42.9744C24.8739 42.642 24.647 42.3938 24.3465 42.2298C24.0483 42.0636 23.6775 41.9805 23.2343 41.9805H22.2244V46.4741ZM27.5601 47.5V40.9545H30.0658C30.5388 40.9545 30.932 41.0291 31.2452 41.1783C31.5605 41.3253 31.7959 41.5266 31.9515 41.7823C32.1092 42.038 32.188 42.3278 32.188 42.6516C32.188 42.918 32.1369 43.146 32.0346 43.3356C31.9323 43.5231 31.7949 43.6754 31.6223 43.7926C31.4497 43.9098 31.2569 43.994 31.0438 44.0451V44.109C31.2761 44.1218 31.4987 44.1932 31.7118 44.3232C31.927 44.451 32.1028 44.6321 32.2391 44.8665C32.3755 45.1009 32.4437 45.3842 32.4437 45.7166C32.4437 46.0554 32.3616 46.3601 32.1976 46.6307C32.0335 46.8991 31.7864 47.1112 31.4561 47.2667C31.1258 47.4222 30.7104 47.5 30.2097 47.5H27.5601ZM28.7459 46.5092H30.0211C30.4515 46.5092 30.7615 46.4272 30.9511 46.2631C31.1429 46.0969 31.2388 45.8839 31.2388 45.6239C31.2388 45.43 31.1908 45.2553 31.0949 45.0998C30.9991 44.9421 30.8627 44.8185 30.6859 44.729C30.509 44.6374 30.2981 44.5916 30.053 44.5916H28.7459V46.5092ZM28.7459 43.7383H29.9188C30.1234 43.7383 30.3077 43.701 30.4717 43.6264C30.6358 43.5497 30.7647 43.4421 30.8584 43.3036C30.9543 43.163 31.0023 42.9968 31.0023 42.805C31.0023 42.5515 30.9128 42.3427 30.7338 42.1786C30.557 42.0146 30.2938 41.9325 29.9444 41.9325H28.7459V43.7383ZM34.3157 47.5H33.0501L35.3544 40.9545H36.8182L39.1258 47.5H37.8601L36.1119 42.2969H36.0608L34.3157 47.5ZM34.3573 44.9336H37.809V45.886H34.3573V44.9336ZM45.2829 43.163H44.0876C44.0535 42.967 43.9906 42.7933 43.899 42.642C43.8074 42.4886 43.6934 42.3587 43.557 42.2521C43.4207 42.1456 43.2651 42.0657 43.0904 42.0124C42.9178 41.957 42.7314 41.9293 42.5311 41.9293C42.1753 41.9293 41.86 42.0188 41.5851 42.1978C41.3102 42.3746 41.095 42.6346 40.9395 42.9776C40.784 43.3185 40.7062 43.7351 40.7062 44.2273C40.7062 44.728 40.784 45.1499 40.9395 45.4929C41.0972 45.8338 41.3124 46.0916 41.5851 46.2663C41.86 46.4389 42.1742 46.5252 42.5279 46.5252C42.7239 46.5252 42.9072 46.4996 43.0776 46.4485C43.2502 46.3952 43.4047 46.3175 43.5411 46.2152C43.6796 46.1129 43.7957 45.9872 43.8894 45.8381C43.9853 45.6889 44.0514 45.5185 44.0876 45.3267L45.2829 45.3331C45.2381 45.6442 45.1412 45.9361 44.9921 46.2088C44.845 46.4815 44.6522 46.7223 44.4136 46.9311C44.1749 47.1378 43.8958 47.2997 43.5762 47.4169C43.2566 47.532 42.9019 47.5895 42.5119 47.5895C41.9367 47.5895 41.4232 47.4563 40.9715 47.19C40.5198 46.9237 40.1639 46.5391 39.904 46.0362C39.644 45.5334 39.5141 44.9304 39.5141 44.2273C39.5141 43.522 39.6451 42.919 39.9072 42.4183C40.1693 41.9155 40.5261 41.5309 40.9778 41.2646C41.4296 40.9982 41.9409 40.8651 42.5119 40.8651C42.8763 40.8651 43.2151 40.9162 43.5283 41.0185C43.8415 41.1207 44.1206 41.271 44.3656 41.4691C44.6107 41.6651 44.812 41.9059 44.9697 42.1914C45.1295 42.4748 45.2339 42.7987 45.2829 43.163ZM46.3687 47.5V40.9545H47.5545V43.962H47.6344L50.188 40.9545H51.6358L49.1045 43.8917L51.6582 47.5H50.2327L48.28 44.6939L47.5545 45.5504V47.5H46.3687Z" fill="#156FF7"/>
<defs>
<filter id="filter0_d_1682_35236" x="4" y="0" width="48" height="48" filterUnits="userSpaceOnUse" color-interpolation-filters="sRGB">
<feFlood flood-opacity="0" result="BackgroundImageFix"/>
<feColorMatrix in="SourceAlpha" type="matrix" values="0 0 0 0 0 0 0 0 0 0 0 0 0 0 0 0 0 0 127 0" result="hardAlpha"/>
<feOffset/>
<feGaussianBlur stdDeviation="1.5"/>
<feComposite in2="hardAlpha" operator="out"/>
<feColorMatrix type="matrix" values="0 0 0 0 0.302138 0 0 0 0 0.194974 0 0 0 0 0.730794 0 0 0 0.6 0"/>
<feBlend mode="normal" in2="BackgroundImageFix" result="effect1_dropShadow_1682_35236"/>
<feBlend mode="normal" in="SourceGraphic" in2="effect1_dropShadow_1682_35236" result="shape"/>
</filter>
</defs>
</svg>
