<svg width="20" height="20" viewBox="0 0 20 20" fill="none" xmlns="http://www.w3.org/2000/svg">
<path d="M12.1429 13.5714C12.3323 13.5714 12.514 13.6467 12.6479 13.7806C12.7819 13.9146 12.8571 14.0963 12.8571 14.2857C12.8571 14.4752 12.7819 14.6568 12.6479 14.7908C12.514 14.9247 12.3323 15 12.1429 15H7.85714C7.6677 15 7.48602 14.9247 7.35206 14.7908C7.21811 14.6568 7.14285 14.4752 7.14285 14.2857C7.14285 14.0963 7.21811 13.9146 7.35206 13.7806C7.48602 13.6467 7.6677 13.5714 7.85714 13.5714H12.1429ZM15 9.28571C15.1894 9.28571 15.3711 9.36097 15.5051 9.49492C15.639 9.62888 15.7143 9.81056 15.7143 10C15.7143 10.1894 15.639 10.3711 15.5051 10.5051C15.3711 10.639 15.1894 10.7143 15 10.7143H5C4.81056 10.7143 4.62887 10.639 4.49492 10.5051C4.36097 10.3711 4.28571 10.1894 4.28571 10C4.28571 9.81056 4.36097 9.62888 4.49492 9.49492C4.62887 9.36097 4.81056 9.28571 5 9.28571H15ZM17.1429 5C17.3323 5 17.514 5.07526 17.6479 5.20921C17.7819 5.34316 17.8571 5.52485 17.8571 5.71429C17.8571 5.90373 17.7819 6.08541 17.6479 6.21936C17.514 6.35332 17.3323 6.42857 17.1429 6.42857H2.85714C2.6677 6.42857 2.48602 6.35332 2.35206 6.21936C2.21811 6.08541 2.14285 5.90373 2.14285 5.71429C2.14285 5.52485 2.21811 5.34316 2.35206 5.20921C2.48602 5.07526 2.6677 5 2.85714 5H17.1429Z" fill="#156FF7"/>
</svg>
