<svg width="17" height="16" viewBox="0 0 17 16" fill="none" xmlns="http://www.w3.org/2000/svg">
<path d="M9.6709 14H7.6709C7.40568 14 7.15133 13.8946 6.96379 13.7071C6.77626 13.5196 6.6709 13.2652 6.6709 13V9.205L2.9659 5.5C2.7781 5.31332 2.67201 5.05979 2.6709 4.795V3C2.6709 2.73478 2.77626 2.48043 2.96379 2.29289C3.15133 2.10536 3.40568 2 3.6709 2H13.6709C13.9361 2 14.1905 2.10536 14.378 2.29289C14.5655 2.48043 14.6709 2.73478 14.6709 3V4.795C14.6698 5.05979 14.5637 5.31332 14.3759 5.5L10.6709 9.205V13C10.6709 13.2652 10.5655 13.5196 10.378 13.7071C10.1905 13.8946 9.93611 14 9.6709 14ZM3.6709 3V4.795L7.6709 8.795V13H9.6709V8.795L13.6709 4.795V3H3.6709Z" fill="#156FF7"/>
</svg>
