<svg width="20" height="20" viewBox="0 0 20 20" fill="none" xmlns="http://www.w3.org/2000/svg">
<path d="M12.1428 13.5714C12.3323 13.5714 12.5139 13.6467 12.6479 13.7806C12.7819 13.9146 12.8571 14.0963 12.8571 14.2857C12.8571 14.4752 12.7819 14.6568 12.6479 14.7908C12.5139 14.9247 12.3323 15 12.1428 15H7.85711C7.66767 15 7.48599 14.9247 7.35203 14.7908C7.21808 14.6568 7.14282 14.4752 7.14282 14.2857C7.14282 14.0963 7.21808 13.9146 7.35203 13.7806C7.48599 13.6467 7.66767 13.5714 7.85711 13.5714H12.1428ZM15 9.28571C15.1894 9.28571 15.3711 9.36097 15.505 9.49492C15.639 9.62888 15.7143 9.81056 15.7143 10C15.7143 10.1894 15.639 10.3711 15.505 10.5051C15.3711 10.639 15.1894 10.7143 15 10.7143H4.99997C4.81052 10.7143 4.62884 10.639 4.49489 10.5051C4.36093 10.3711 4.28568 10.1894 4.28568 10C4.28568 9.81056 4.36093 9.62888 4.49489 9.49492C4.62884 9.36097 4.81052 9.28571 4.99997 9.28571H15ZM17.1428 5C17.3323 5 17.5139 5.07526 17.6479 5.20921C17.7819 5.34316 17.8571 5.52485 17.8571 5.71429C17.8571 5.90373 17.7819 6.08541 17.6479 6.21936C17.5139 6.35332 17.3323 6.42857 17.1428 6.42857H2.85711C2.66767 6.42857 2.48599 6.35332 2.35203 6.21936C2.21808 6.08541 2.14282 5.90373 2.14282 5.71429C2.14282 5.52485 2.21808 5.34316 2.35203 5.20921C2.48599 5.07526 2.66767 5 2.85711 5H17.1428Z" fill="white"/>
</svg>
