<svg width="17" height="11" viewBox="0 0 17 11" fill="none" xmlns="http://www.w3.org/2000/svg">
<path fill-rule="evenodd" clip-rule="evenodd" d="M0.1875 1.25C0.1875 1.05109 0.266518 0.860322 0.40717 0.71967C0.547822 0.579018 0.738588 0.5 0.9375 0.5H15.4375C15.6364 0.5 15.8272 0.579018 15.9678 0.71967C16.1085 0.860322 16.1875 1.05109 16.1875 1.25C16.1875 1.44891 16.1085 1.63968 15.9678 1.78033C15.8272 1.92098 15.6364 2 15.4375 2H0.9375C0.738588 2 0.547822 1.92098 0.40717 1.78033C0.266518 1.63968 0.1875 1.44891 0.1875 1.25ZM0.1875 5.5C0.1875 5.30109 0.266518 5.11032 0.40717 4.96967C0.547822 4.82902 0.738588 4.75 0.9375 4.75H15.4375C15.6364 4.75 15.8272 4.82902 15.9678 4.96967C16.1085 5.11032 16.1875 5.30109 16.1875 5.5C16.1875 5.69891 16.1085 5.88968 15.9678 6.03033C15.8272 6.17098 15.6364 6.25 15.4375 6.25H0.9375C0.738588 6.25 0.547822 6.17098 0.40717 6.03033C0.266518 5.88968 0.1875 5.69891 0.1875 5.5ZM0.9375 9C0.738588 9 0.547822 9.07902 0.40717 9.21967C0.266518 9.36032 0.1875 9.55109 0.1875 9.75C0.1875 9.94891 0.266518 10.1397 0.40717 10.2803C0.547822 10.421 0.738588 10.5 0.9375 10.5H15.4375C15.6364 10.5 15.8272 10.421 15.9678 10.2803C16.1085 10.1397 16.1875 9.94891 16.1875 9.75C16.1875 9.55109 16.1085 9.36032 15.9678 9.21967C15.8272 9.07902 15.6364 9 15.4375 9H0.9375Z" fill="black"/>
</svg>
