<svg width="12" height="13" viewBox="0 0 12 13" fill="none" xmlns="http://www.w3.org/2000/svg">
<path d="M7.55658 8.69141C7.55658 8.69141 7.06766 8.55427 6.93944 8.4857C6.67886 8.31632 6.51635 7.97827 6.51635 7.64021C6.51635 7.26855 6.80915 6.9641 7.00458 6.72753C7.49349 6.1193 7.75406 5.3081 7.75406 4.3961C7.75406 2.50285 6.45121 0.981934 4.85487 0.981934C3.25853 0.981934 1.9543 2.53987 1.9543 4.43244C1.94588 5.27012 2.20881 6.08802 2.70378 6.76387C2.99658 6.93324 3.19201 7.3049 3.19201 7.67724C3.19093 7.84106 3.15222 8.00244 3.07886 8.14892C3.00551 8.2954 2.89946 8.42306 2.76893 8.52204V8.55564C2.74283 8.55844 2.71856 8.57034 2.70036 8.58924C2.54659 8.69525 2.36524 8.75412 2.17853 8.75861C0.770072 9.21735 1.62282e-05 10.4818 1.62282e-05 11.4973C-0.00181488 11.8887 0.151381 12.2648 0.426108 12.5436C0.700835 12.8223 1.07474 12.9809 1.46607 12.9847H8.35269C9.20023 12.9847 9.85166 12.3421 9.85166 11.4973C9.85166 10.5737 8.83269 9.12889 7.55658 8.69141ZM10.3584 8.3561C10.2441 8.26938 10.152 8.1568 10.0897 8.02758C10.0273 7.89837 9.99652 7.75621 9.99977 7.61278C9.99977 7.27473 10.261 7.00455 10.4235 6.83518C10.8773 6.24444 11.1189 5.51808 11.1093 4.77324C11.1093 3.11725 9.96892 1.73073 8.53509 1.73073C8.31389 1.72907 8.09388 1.76334 7.88366 1.83222C8.37258 2.57622 8.63315 3.4553 8.63315 4.43793C8.62409 5.48619 8.28188 6.5044 7.65601 7.34535L7.59086 7.41393V7.44753C7.50764 7.52344 7.44089 7.61563 7.39475 7.71838C7.39475 7.75198 7.39475 7.75198 7.42766 7.75198C7.5082 7.7943 7.5973 7.81775 7.68823 7.82055H7.72115L7.85143 7.88913C9.15018 8.36227 9.51498 9.01507 10.2418 9.85164C10.6176 10.3556 10.8994 11.2381 10.6347 12.3853H11.8766C11.9589 12.1728 12 11.7449 12 11.1017C11.9006 9.97095 10.9289 8.89369 10.3584 8.36227V8.3561Z" fill="#64748B"/>
</svg>
