<svg width="20" height="20" viewBox="0 0 20 20" fill="none" xmlns="http://www.w3.org/2000/svg">
<path d="M18.0407 16.5646C16.8508 14.5076 15.0172 13.0326 12.8774 12.3334C13.9358 11.7033 14.7582 10.7431 15.2182 9.6004C15.6781 8.45768 15.7503 7.19556 15.4235 6.00787C15.0968 4.82018 14.3892 3.77259 13.4094 3.02597C12.4296 2.27936 11.2318 1.875 10 1.875C8.76821 1.875 7.57044 2.27936 6.59067 3.02597C5.6109 3.77259 4.90331 4.82018 4.57654 6.00787C4.24978 7.19556 4.32193 8.45768 4.78189 9.6004C5.24186 10.7431 6.06422 11.7033 7.12268 12.3334C4.98284 13.0318 3.14925 14.5068 1.9594 16.5646C1.91577 16.6358 1.88683 16.7149 1.87429 16.7975C1.86174 16.88 1.86585 16.9642 1.88638 17.0451C1.9069 17.126 1.94341 17.2019 1.99377 17.2685C2.04413 17.335 2.10731 17.3908 2.17958 17.4326C2.25185 17.4743 2.33175 17.5012 2.41457 17.5115C2.49738 17.5219 2.58143 17.5156 2.66176 17.4929C2.74209 17.4703 2.81708 17.4318 2.88228 17.3797C2.94749 17.3276 3.00161 17.263 3.04143 17.1896C4.51331 14.6459 7.11487 13.1271 10 13.1271C12.8852 13.1271 15.4867 14.6459 16.9586 17.1896C16.9985 17.263 17.0526 17.3276 17.1178 17.3797C17.183 17.4318 17.258 17.4703 17.3383 17.4929C17.4186 17.5156 17.5027 17.5219 17.5855 17.5115C17.6683 17.5012 17.7482 17.4743 17.8205 17.4326C17.8927 17.3908 17.9559 17.335 18.0063 17.2685C18.0566 17.2019 18.0932 17.126 18.1137 17.0451C18.1342 16.9642 18.1383 16.88 18.1258 16.7975C18.1132 16.7149 18.0843 16.6358 18.0407 16.5646ZM5.62503 7.50213C5.62503 6.63683 5.88162 5.79097 6.36235 5.07151C6.84308 4.35204 7.52636 3.79129 8.32579 3.46015C9.12522 3.12902 10.0049 3.04238 10.8535 3.21119C11.7022 3.38 12.4818 3.79668 13.0936 4.40853C13.7055 5.02039 14.1222 5.79994 14.291 6.64861C14.4598 7.49727 14.3731 8.37694 14.042 9.17637C13.7109 9.97579 13.1501 10.6591 12.4306 11.1398C11.7112 11.6205 10.8653 11.8771 10 11.8771C8.84009 11.8759 7.72801 11.4146 6.90781 10.5943C6.0876 9.77415 5.62627 8.66207 5.62503 7.50213Z" fill="black"/>
</svg>
