<svg width="38" height="14" viewBox="0 0 38 14" fill="none" xmlns="http://www.w3.org/2000/svg">
<path d="M0.875 2.33398V3.20898C0.875 5.62982 2.16417 7.74732 4.08333 8.92565V11.6673H12.8333V10.5007C12.8333 8.94898 9.72417 8.16732 8.16667 8.16732H8.02083C5.25 8.16732 2.91667 5.83398 2.91667 3.20898V2.33398M8.16667 2.33398C7.54783 2.33398 6.95434 2.57982 6.51675 3.0174C6.07917 3.45499 5.83333 4.04848 5.83333 4.66732C5.83333 5.28616 6.07917 5.87965 6.51675 6.31723C6.95434 6.75482 7.54783 7.00065 8.16667 7.00065C8.7855 7.00065 9.379 6.75482 9.81658 6.31723C10.2542 5.87965 10.5 5.28616 10.5 4.66732C10.5 4.04848 10.2542 3.45499 9.81658 3.0174C9.379 2.57982 8.7855 2.33398 8.16667 2.33398Z" fill="black"/>
<g clip-path="url(#clip0_2510_42695)">
<g clip-path="url(#clip1_2510_42695)">
<g clip-path="url(#clip2_2510_42695)">
<path d="M37.3625 4.11667L35 5.3V3.66667C35 3.48986 34.921 3.32029 34.7803 3.19526C34.6397 3.07024 34.4489 3 34.25 3H27.5C27.1022 3 26.7206 3.14048 26.4393 3.39052C26.158 3.64057 26 3.97971 26 4.33333V9.66667C26 10.0203 26.158 10.3594 26.4393 10.6095C26.7206 10.8595 27.1022 11 27.5 11H34.25C34.4489 11 34.6397 10.9298 34.7803 10.8047C34.921 10.6797 35 10.5101 35 10.3333V8.69333L37.3625 9.87667C37.4231 9.91187 37.4931 9.93227 37.5654 9.93582C37.6377 9.93937 37.7097 9.92595 37.7743 9.8969C37.8389 9.86785 37.8938 9.82419 37.9334 9.77032C37.973 9.71645 37.996 9.65426 38 9.59V4.4C37.9954 4.33603 37.972 4.27425 37.9321 4.22083C37.8922 4.1674 37.8373 4.1242 37.7728 4.09554C37.7083 4.06687 37.6365 4.05373 37.5645 4.05744C37.4925 4.06115 37.4228 4.08157 37.3625 4.11667Z" fill="black"/>
</g>
</g>
</g>
<path d="M18.4219 9.44602V3.68466H19.5682V9.44602H18.4219ZM16.1165 7.13636V5.99006H21.8778V7.13636H16.1165Z" fill="black"/>
<defs>
<clipPath id="clip0_2510_42695">
<rect width="14" height="14" fill="white" transform="translate(24)"/>
</clipPath>
<clipPath id="clip1_2510_42695">
<rect width="16" height="12" fill="white" transform="translate(23 1)"/>
</clipPath>
<clipPath id="clip2_2510_42695">
<rect width="16" height="12" fill="white" transform="translate(23 1)"/>
</clipPath>
</defs>
</svg>
