<svg width="25" height="25" viewBox="0 0 25 25" fill="none" xmlns="http://www.w3.org/2000/svg">
<rect x="0.75" y="0.869629" width="23" height="23" rx="3.5" fill="#F2E9F9"/>
<path d="M19.4608 6.30427L17.3623 7.09967V6.28514C17.3623 6.12512 17.2736 5.97164 17.1157 5.85849C16.9578 5.74533 16.7437 5.68176 16.5204 5.68176H14.0181C13.5715 5.68176 13.1432 5.8089 12.8274 6.03521C12.5116 6.26152 12.3342 6.56847 12.3342 6.88852V10.379C12.3342 10.6991 12.5116 11.006 12.8274 11.2323C13.1432 11.4586 13.5715 11.5858 14.0181 11.5858H16.5204C16.7437 11.5858 16.9578 11.5222 17.1157 11.4091C17.2736 11.2959 17.3623 11.1424 17.3623 10.9824V10.1709L19.4608 11.169C19.5288 11.2009 19.6073 11.2194 19.6885 11.2226C19.7696 11.2258 19.8506 11.2136 19.9231 11.1873C19.9956 11.161 20.0572 11.1215 20.1017 11.0728C20.1461 11.024 20.1719 10.9677 20.1764 10.9096V6.5607C20.1712 6.5028 20.1449 6.44689 20.1002 6.39854C20.0554 6.35019 19.9938 6.31109 19.9214 6.28514C19.849 6.25919 19.7683 6.24731 19.6875 6.25066C19.6067 6.25402 19.5285 6.2725 19.4608 6.30427Z" fill="#8F3EF5"/>
<path d="M4.32349 11.5858V12.2863C4.32349 14.2242 5.35551 15.9194 6.89187 16.8627V19.0575H13.8966V18.1235C13.8966 16.8814 11.4076 16.2556 10.1607 16.2556H10.044C7.82583 16.2556 5.95791 14.3877 5.95791 12.2863V11.5858M10.1607 11.5858C9.66532 11.5858 9.19021 11.7826 8.83991 12.1329C8.4896 12.4832 8.29281 12.9583 8.29281 13.4537C8.29281 13.9491 8.4896 14.4242 8.83991 14.7745C9.19021 15.1248 9.66532 15.3216 10.1607 15.3216C10.6561 15.3216 11.1312 15.1248 11.4815 14.7745C11.8318 14.4242 12.0286 13.9491 12.0286 13.4537C12.0286 12.9583 11.8318 12.4832 11.4815 12.1329C11.1312 11.7826 10.6561 11.5858 10.1607 11.5858Z" fill="#8F3EF5"/>
<rect x="0.75" y="0.869629" width="23" height="23" rx="3.5" stroke="#8F3EF5"/>
</svg>
