<svg width="24" height="25" viewBox="0 0 24 25" fill="none" xmlns="http://www.w3.org/2000/svg">
<rect x="0.5" y="1.03955" width="23" height="23" rx="11.5" fill="#F2E9F9"/>
<path d="M19.1265 6.82294L17.0281 7.61834V6.80382C17.0281 6.64379 16.9394 6.49032 16.7815 6.37716C16.6236 6.26401 16.4095 6.20044 16.1862 6.20044H13.6839C13.2373 6.20044 12.809 6.32758 12.4932 6.55389C12.1774 6.7802 12 7.08714 12 7.4072V10.8977C12 11.2178 12.1774 11.5247 12.4932 11.751C12.809 11.9773 13.2373 12.1045 13.6839 12.1045H16.1862C16.4095 12.1045 16.6236 12.0409 16.7815 11.9277C16.9394 11.8146 17.0281 11.6611 17.0281 11.5011V10.6895L19.1265 11.6877C19.1946 11.7196 19.2731 11.738 19.3543 11.7413C19.4354 11.7445 19.5163 11.7323 19.5888 11.706C19.6614 11.6797 19.723 11.6402 19.7674 11.5915C19.8119 11.5427 19.8377 11.4864 19.8422 11.4283V7.07938C19.837 7.02148 19.8107 6.96556 19.766 6.91721C19.7212 6.86886 19.6596 6.82976 19.5872 6.80382C19.5147 6.77787 19.4341 6.76598 19.3533 6.76934C19.2725 6.77269 19.1943 6.79118 19.1265 6.82294Z" fill="#8F3EF5"/>
<path d="M3.98926 12.1045V12.805C3.98926 14.7429 5.02128 16.4381 6.55764 17.3814V19.5762H13.5623V18.6422C13.5623 17.4 11.0733 16.7743 9.82649 16.7743H9.70975C7.4916 16.7743 5.62368 14.9064 5.62368 12.805V12.1045M9.82649 12.1045C9.33109 12.1045 8.85598 12.3013 8.50568 12.6516C8.15538 13.0019 7.95858 13.477 7.95858 13.9724C7.95858 14.4678 8.15538 14.9429 8.50568 15.2932C8.85598 15.6435 9.33109 15.8403 9.82649 15.8403C10.3219 15.8403 10.797 15.6435 11.1473 15.2932C11.4976 14.9429 11.6944 14.4678 11.6944 13.9724C11.6944 13.477 11.4976 13.0019 11.1473 12.6516C10.797 12.3013 10.3219 12.1045 9.82649 12.1045Z" fill="#8F3EF5"/>
<rect x="0.5" y="1.03955" width="23" height="23" rx="11.5" stroke="#8F3EF5"/>
</svg>
