<svg width="16" height="17" viewBox="0 0 16 17" fill="none" xmlns="http://www.w3.org/2000/svg">
<g clip-path="url(#clip0_1377_17575)">
<g clip-path="url(#clip1_1377_17575)">
<path d="M7.99967 11.8333C8.18856 11.8333 8.34701 11.7693 8.47501 11.6413C8.60301 11.5133 8.66679 11.355 8.66634 11.1666V8.48325C8.66634 8.29436 8.60234 8.13881 8.47434 8.01659C8.34634 7.89436 8.18812 7.83325 7.99967 7.83325C7.81079 7.83325 7.65234 7.89725 7.52434 8.02525C7.39634 8.15325 7.33256 8.31147 7.33301 8.49992V11.1833C7.33301 11.3721 7.39701 11.5277 7.52501 11.6499C7.65301 11.7721 7.81123 11.8333 7.99967 11.8333ZM7.99967 6.49992C8.18856 6.49992 8.34701 6.43592 8.47501 6.30792C8.60301 6.17992 8.66679 6.0217 8.66634 5.83325C8.66634 5.64436 8.60234 5.48592 8.47434 5.35792C8.34634 5.22992 8.18812 5.16614 7.99967 5.16659C7.81079 5.16659 7.65234 5.23059 7.52434 5.35859C7.39634 5.48659 7.33256 5.64481 7.33301 5.83325C7.33301 6.02214 7.39701 6.18059 7.52501 6.30859C7.65301 6.43659 7.81123 6.50036 7.99967 6.49992ZM7.99967 15.1666C7.07745 15.1666 6.21079 14.9915 5.39967 14.6413C4.58856 14.291 3.88301 13.8161 3.28301 13.2166C2.68301 12.6166 2.20812 11.911 1.85834 11.0999C1.50856 10.2888 1.33345 9.42214 1.33301 8.49992C1.33301 7.5777 1.50812 6.71103 1.85834 5.89992C2.20856 5.08881 2.68345 4.38325 3.28301 3.78325C3.88301 3.18325 4.58856 2.70836 5.39967 2.35859C6.21079 2.00881 7.07745 1.8337 7.99967 1.83325C8.9219 1.83325 9.78856 2.00836 10.5997 2.35859C11.4108 2.70881 12.1163 3.1837 12.7163 3.78325C13.3163 4.38325 13.7915 5.08881 14.1417 5.89992C14.4919 6.71103 14.6668 7.5777 14.6663 8.49992C14.6663 9.42214 14.4912 10.2888 14.141 11.0999C13.7908 11.911 13.3159 12.6166 12.7163 13.2166C12.1163 13.8166 11.4108 14.2917 10.5997 14.6419C9.78856 14.9921 8.9219 15.167 7.99967 15.1666Z" fill="#64748B"/>
</g>
</g>
<defs>
<clipPath id="clip0_1377_17575">
<rect width="16" height="16" fill="white" transform="translate(0 0.5)"/>
</clipPath>
<clipPath id="clip1_1377_17575">
<rect width="16" height="16" fill="white" transform="translate(0 0.5)"/>
</clipPath>
</defs>
</svg>
