<svg width="20" height="20" viewBox="0 0 20 20" fill="none" xmlns="http://www.w3.org/2000/svg">
<g id="fluent:filter-28-filled">
<rect width="20" height="20" rx="10" fill="white"/>
<path id="Vector" fill-rule="evenodd" clip-rule="evenodd" d="M2 10C2 5.5816 5.5816 2 10 2C14.4184 2 18 5.5816 18 10C18 14.4184 14.4184 18 10 18C5.5816 18 2 14.4184 2 10ZM10 10.8C9.78783 10.8 9.58434 10.7157 9.43431 10.5657C9.28429 10.4157 9.2 10.2122 9.2 10V6.8C9.2 6.58783 9.28429 6.38434 9.43431 6.23431C9.58434 6.08429 9.78783 6 10 6C10.2122 6 10.4157 6.08429 10.5657 6.23431C10.7157 6.38434 10.8 6.58783 10.8 6.8V10C10.8 10.2122 10.7157 10.4157 10.5657 10.5657C10.4157 10.7157 10.2122 10.8 10 10.8ZM8.8 13.2C8.8 12.8817 8.92643 12.5765 9.15147 12.3515C9.37652 12.1264 9.68174 12 10 12H10.008C10.3263 12 10.6315 12.1264 10.8565 12.3515C11.0816 12.5765 11.208 12.8817 11.208 13.2V13.208C11.208 13.5263 11.0816 13.8315 10.8565 14.0565C10.6315 14.2816 10.3263 14.408 10.008 14.408H10C9.68174 14.408 9.37652 14.2816 9.15147 14.0565C8.92643 13.8315 8.8 13.5263 8.8 13.208V13.2Z" fill="#156FF7"/>
</g>
</svg>
