<svg width="14" height="14" viewBox="0 0 14 14" fill="none" xmlns="http://www.w3.org/2000/svg">
<path d="M0.875 2.33398V3.20898C0.875 5.62982 2.16417 7.74732 4.08333 8.92565V11.6673H12.8333V10.5007C12.8333 8.94898 9.72417 8.16732 8.16667 8.16732H8.02083C5.25 8.16732 2.91667 5.83398 2.91667 3.20898V2.33398M8.16667 2.33398C7.54783 2.33398 6.95434 2.57982 6.51675 3.0174C6.07917 3.45499 5.83333 4.04848 5.83333 4.66732C5.83333 5.28616 6.07917 5.87965 6.51675 6.31723C6.95434 6.75482 7.54783 7.00065 8.16667 7.00065C8.7855 7.00065 9.379 6.75482 9.81658 6.31723C10.2542 5.87965 10.5 5.28616 10.5 4.66732C10.5 4.04848 10.2542 3.45499 9.81658 3.0174C9.379 2.57982 8.7855 2.33398 8.16667 2.33398Z" fill="white"/>
</svg>
