<svg width="26" height="26" viewBox="0 0 26 26" fill="none" xmlns="http://www.w3.org/2000/svg">
<g clip-path="url(#clip0_1916_7564)">
<g filter="url(#filter0_d_1916_7564)">
<path d="M13 26C20.1797 26 26 20.1797 26 13C26 5.82031 20.1797 0 13 0C5.82031 0 0 5.82031 0 13C0 20.1797 5.82031 26 13 26Z" fill="black"/>
</g>
<g clip-path="url(#clip1_1916_7564)">
<path d="M19.9062 0H6.09375C2.72826 0 0 2.72826 0 6.09375V19.9062C0 23.2717 2.72826 26 6.09375 26H19.9062C23.2717 26 26 23.2717 26 19.9062V6.09375C26 2.72826 23.2717 0 19.9062 0Z" fill="url(#paint0_radial_1916_7564)"/>
<path d="M19.9062 0H6.09375C2.72826 0 0 2.72826 0 6.09375V19.9062C0 23.2717 2.72826 26 6.09375 26H19.9062C23.2717 26 26 23.2717 26 19.9062V6.09375C26 2.72826 23.2717 0 19.9062 0Z" fill="url(#paint1_radial_1916_7564)"/>
<path d="M13.0007 5C10.8281 5 10.5554 5.00952 9.70208 5.04832C8.8504 5.08736 8.26904 5.22216 7.7604 5.42C7.23416 5.62431 6.78784 5.89767 6.3432 6.34247C5.89816 6.78718 5.6248 7.2335 5.41984 7.75949C5.22144 8.26829 5.08648 8.84988 5.04816 9.70115C5.01 10.5545 5 10.8273 5 13C5 15.1727 5.0096 15.4445 5.04832 16.2978C5.08752 17.1495 5.22232 17.7308 5.42 18.2395C5.62448 18.7657 5.89784 19.212 6.34264 19.6567C6.7872 20.1017 7.23352 20.3757 7.75936 20.58C8.2684 20.7778 8.84984 20.9126 9.70136 20.9517C10.5547 20.9905 10.8272 21 12.9998 21C15.1726 21 15.4445 20.9905 16.2978 20.9517C17.1494 20.9126 17.7314 20.7778 18.2405 20.58C18.7665 20.3757 19.2122 20.1017 19.6566 19.6567C20.1017 19.212 20.375 18.7657 20.58 18.2397C20.7766 17.7308 20.9117 17.1493 20.9517 16.298C20.99 15.4447 21 15.1727 21 13C21 10.8273 20.99 10.5547 20.9517 9.70131C20.9117 8.84964 20.7766 8.26837 20.58 7.75973C20.375 7.2335 20.1017 6.78718 19.6566 6.34247C19.2117 5.89751 18.7666 5.62415 18.24 5.42008C17.73 5.22216 17.1483 5.08728 16.2966 5.04832C15.4433 5.00952 15.1716 5 12.9982 5H13.0007ZM12.283 6.44167C12.4961 6.44135 12.7338 6.44167 13.0007 6.44167C15.1368 6.44167 15.3899 6.44935 16.2334 6.48767C17.0134 6.52334 17.4368 6.65366 17.7188 6.76318C18.0922 6.90814 18.3583 7.0815 18.6382 7.36158C18.9182 7.64157 19.0914 7.90821 19.2368 8.28157C19.3463 8.56316 19.4768 8.98652 19.5123 9.76651C19.5506 10.6099 19.559 10.8631 19.559 12.9982C19.559 15.1332 19.5506 15.3865 19.5123 16.2298C19.4766 17.0098 19.3463 17.4332 19.2368 17.7148C19.0918 18.0882 18.9182 18.354 18.6382 18.6339C18.3582 18.9139 18.0923 19.0871 17.7188 19.2322C17.4371 19.3422 17.0134 19.4722 16.2334 19.5079C15.3901 19.5462 15.1368 19.5545 13.0007 19.5545C10.8646 19.5545 10.6114 19.5462 9.76808 19.5079C8.98808 19.4719 8.56472 19.3415 8.28248 19.232C7.9092 19.087 7.64248 18.9137 7.36248 18.6337C7.08248 18.3537 6.9092 18.0877 6.76384 17.7142C6.65432 17.4325 6.52384 17.0092 6.48832 16.2292C6.45 15.3858 6.44232 15.1325 6.44232 12.9962C6.44232 10.8598 6.45 10.6079 6.48832 9.76451C6.524 8.98452 6.65432 8.56116 6.76384 8.27917C6.90888 7.90581 7.08248 7.63917 7.36256 7.35918C7.64264 7.07918 7.9092 6.90582 8.28256 6.76054C8.56456 6.65054 8.98808 6.52054 9.76808 6.48471C10.5061 6.45135 10.7921 6.44135 12.283 6.43967V6.44167ZM17.2711 7.76997C16.7411 7.76997 16.3111 8.19957 16.3111 8.72964C16.3111 9.25964 16.7411 9.68963 17.2711 9.68963C17.8011 9.68963 18.2311 9.25964 18.2311 8.72964C18.2311 8.19965 17.8011 7.76965 17.2711 7.76965V7.76997ZM13.0007 8.89164C10.7319 8.89164 8.8924 10.7311 8.8924 13C8.8924 15.2689 10.7319 17.1075 13.0007 17.1075C15.2696 17.1075 17.1085 15.2689 17.1085 13C17.1085 10.7312 15.2694 8.89164 13.0006 8.89164H13.0007ZM13.0007 10.3333C14.4734 10.3333 15.6674 11.5271 15.6674 13C15.6674 14.4727 14.4734 15.6667 13.0007 15.6667C11.528 15.6667 10.3341 14.4727 10.3341 13C10.3341 11.5271 11.5279 10.3333 13.0007 10.3333Z" fill="white"/>
</g>
</g>
<defs>
<filter id="filter0_d_1916_7564" x="-1" y="-1" width="28" height="28" filterUnits="userSpaceOnUse" color-interpolation-filters="sRGB">
<feFlood flood-opacity="0" result="BackgroundImageFix"/>
<feColorMatrix in="SourceAlpha" type="matrix" values="0 0 0 0 0 0 0 0 0 0 0 0 0 0 0 0 0 0 127 0" result="hardAlpha"/>
<feOffset/>
<feGaussianBlur stdDeviation="0.5"/>
<feComposite in2="hardAlpha" operator="out"/>
<feColorMatrix type="matrix" values="0 0 0 0 0 0 0 0 0 0 0 0 0 0 0 0 0 0 0.17 0"/>
<feBlend mode="normal" in2="BackgroundImageFix" result="effect1_dropShadow_1916_7564"/>
<feBlend mode="normal" in="SourceGraphic" in2="effect1_dropShadow_1916_7564" result="shape"/>
</filter>
<radialGradient id="paint0_radial_1916_7564" cx="0" cy="0" r="1" gradientUnits="userSpaceOnUse" gradientTransform="translate(6.90625 28.0025) rotate(-90) scale(25.7679 23.9662)">
<stop stop-color="#FFDD55"/>
<stop offset="0.1" stop-color="#FFDD55"/>
<stop offset="0.5" stop-color="#FF543E"/>
<stop offset="1" stop-color="#C837AB"/>
</radialGradient>
<radialGradient id="paint1_radial_1916_7564" cx="0" cy="0" r="1" gradientUnits="userSpaceOnUse" gradientTransform="translate(-4.3551 1.87291) rotate(78.681) scale(11.5184 47.4792)">
<stop stop-color="#3771C8"/>
<stop offset="0.128" stop-color="#3771C8"/>
<stop offset="1" stop-color="#6600FF" stop-opacity="0"/>
</radialGradient>
<clipPath id="clip0_1916_7564">
<rect width="26" height="26" fill="white"/>
</clipPath>
<clipPath id="clip1_1916_7564">
<rect width="26" height="26" rx="13" fill="white"/>
</clipPath>
</defs>
</svg>
