<svg width="25" height="25" viewBox="0 0 25 25" fill="none" xmlns="http://www.w3.org/2000/svg">
<rect x="0.75" y="0.890625" width="23" height="23" rx="3.5" fill="#F9F3E9"/>
<g clip-path="url(#clip0_6810_46278)">
<path d="M8.23791 7.09802H16.1411C16.2286 7.09801 16.3149 7.1187 16.3928 7.1584C16.4708 7.19811 16.5382 7.25569 16.5897 7.32646L18.7088 10.2407C18.7465 10.2925 18.765 10.3558 18.7613 10.4198C18.7576 10.4838 18.7318 10.5445 18.6883 10.5917L12.393 17.4115C12.367 17.4396 12.3355 17.4621 12.3005 17.4774C12.2654 17.4928 12.2275 17.5007 12.1892 17.5007C12.151 17.5007 12.1131 17.4928 12.078 17.4774C12.0429 17.4621 12.0114 17.4396 11.9855 17.4115L5.69018 10.5922C5.64671 10.5451 5.62091 10.4844 5.61717 10.4204C5.61343 10.3564 5.63198 10.2931 5.66966 10.2412L7.78935 7.32701C7.84079 7.25625 7.90825 7.19866 7.98621 7.15896C8.06417 7.11926 8.15042 7.09801 8.23791 7.09802Z" fill="#F19100"/>
</g>
<rect x="0.75" y="0.890625" width="23" height="23" rx="3.5" stroke="#F19100"/>
<defs>
<clipPath id="clip0_6810_46278">
<rect width="14" height="14" fill="white" transform="translate(5.25 5.39062)"/>
</clipPath>
</defs>
</svg>
