<svg width="25" height="24" viewBox="0 0 25 24" fill="none" xmlns="http://www.w3.org/2000/svg">
<rect x="1.22656" y="0.5" width="23" height="23" rx="11.5" fill="#F9F3E9"/>
<path d="M9.11943 7.5H16.3342C16.4141 7.49999 16.4928 7.51789 16.564 7.55224C16.6351 7.58659 16.6967 7.63641 16.7437 7.69763L18.6782 10.2189C18.7126 10.2638 18.7295 10.3185 18.7261 10.3739C18.7227 10.4293 18.6992 10.4818 18.6595 10.5226L12.9126 16.4228C12.8889 16.4471 12.8601 16.4666 12.8281 16.4798C12.7961 16.4931 12.7615 16.5 12.7266 16.5C12.6916 16.5 12.657 16.4931 12.625 16.4798C12.593 16.4666 12.5642 16.4471 12.5405 16.4228L6.79364 10.523C6.75396 10.4823 6.73041 10.4297 6.72699 10.3744C6.72358 10.319 6.74051 10.2642 6.77491 10.2194L8.70995 7.69811C8.75691 7.63689 8.8185 7.58707 8.88966 7.55272C8.96083 7.51837 9.03957 7.49999 9.11943 7.5Z" fill="#F19100"/>
<rect x="1.22656" y="0.5" width="23" height="23" rx="11.5" stroke="#F19100"/>
</svg>
