<svg width="56" height="61" viewBox="0 0 56 61" fill="none" xmlns="http://www.w3.org/2000/svg">
<g filter="url(#filter0_d_5703_25024)">
<path d="M25.4023 8.10352C26.7076 7.34991 28.2969 7.30252 29.6377 7.96191L29.9023 8.10352L45.5527 17.1396C46.945 17.9435 47.8027 19.4285 47.8027 21.0361V39.1084C47.8027 40.716 46.945 42.2011 45.5527 43.0049L29.9023 52.041C28.51 52.8449 26.7946 52.8449 25.4023 52.041L9.75195 43.0049C8.35972 42.2011 7.50204 40.716 7.50195 39.1084V21.0361C7.50204 19.4285 8.35972 17.9435 9.75195 17.1396L25.4023 8.10352Z" fill="#EE4F1D" stroke="white" stroke-width="3"/>
</g>
<g clip-path="url(#clip0_5703_25024)">
<path d="M27.4327 17.8496C24.1323 17.8496 20.967 19.1607 18.6332 21.4945C16.2994 23.8283 14.9883 26.9936 14.9883 30.2941C14.9883 30.6941 14.9883 31.0852 15.0505 31.4763C15.2796 33.8765 16.201 36.1585 17.7027 38.0449C19.2044 39.9312 21.2218 41.3407 23.5096 42.102C25.7974 42.8632 28.2571 42.9435 30.5897 42.333C32.9222 41.7224 35.0272 40.4475 36.6487 38.663C38.2702 36.8785 39.3384 34.6614 39.7234 32.2813C40.1084 29.9011 39.7937 27.4603 38.8175 25.2556C37.8413 23.0509 36.2457 21.1773 34.2245 19.8626C32.2034 18.5478 29.8439 17.8485 27.4327 17.8496ZM27.4327 19.6274C30.2433 19.6298 32.9394 20.7415 34.9349 22.7207V23.6096C31.4217 22.4006 27.6026 22.4162 24.0994 23.6541C23.8195 23.3813 23.4682 23.1934 23.0861 23.1118H22.8638C22.7572 22.7385 22.6594 22.3652 22.5794 21.9829C22.4994 21.6007 22.4549 21.2629 22.4105 20.8985C23.9536 20.0658 25.6793 19.629 27.4327 19.6274ZM24.7661 24.8452C27.9942 23.7642 31.4928 23.8049 34.6949 24.9607C34.2618 27.219 33.3161 29.3478 31.9305 31.1829C31.543 31.0188 31.1139 30.9794 30.703 31.0702C30.292 31.161 29.9195 31.3775 29.6372 31.6896C29.3261 31.5118 29.0149 31.3341 28.7483 31.1296C26.9539 29.9324 25.4553 28.3426 24.3661 26.4807C24.5421 26.2624 24.6703 26.0095 24.7423 25.7385C24.8142 25.4674 24.8284 25.1843 24.7838 24.9074L24.7661 24.8452ZM21.2105 21.6452C21.2105 21.8318 21.2638 22.0274 21.2994 22.2141C21.3794 22.6052 21.4861 22.9874 21.5927 23.3696C21.2523 23.5712 20.9784 23.8679 20.8046 24.2233C20.6309 24.5787 20.565 24.9772 20.6149 25.3696C19.2118 26.2859 17.9586 27.4132 16.8994 28.7118C17.1119 27.3054 17.6036 25.9557 18.3455 24.7421C19.0874 23.5285 20.0645 22.4755 21.2194 21.6452H21.2105ZM21.2105 35.6096C20.8635 35.7261 20.5534 35.9321 20.3115 36.2068C20.0696 36.4815 19.9044 36.8151 19.8327 37.1741H19.2638C17.8283 35.4619 16.9698 33.3404 16.8105 31.1118L16.9083 30.9429C18.0214 29.217 19.4765 27.7377 21.1838 26.5963C21.4398 26.8636 21.7633 27.0568 22.1201 27.1554C22.4768 27.2539 22.8536 27.2543 23.2105 27.1563C24.3994 29.1655 26.0247 30.8818 27.9661 32.1785C28.3305 32.4185 28.7038 32.6407 29.0772 32.8541C29.0473 33.194 29.1023 33.5361 29.2372 33.8496C27.6105 35.1414 25.7341 36.0826 23.7261 36.6141C23.4932 36.179 23.1132 35.8409 22.654 35.6601C22.1948 35.4794 21.6863 35.4678 21.2194 35.6274L21.2105 35.6096ZM27.4327 40.9429C25.6249 40.9434 23.8471 40.4814 22.2683 39.6007L22.5172 39.5474C22.8709 39.4313 23.187 39.2225 23.4324 38.9426C23.6779 38.6627 23.8438 38.3221 23.9127 37.9563C26.1856 37.3767 28.3075 36.3157 30.1349 34.8452C30.569 35.0989 31.0816 35.1829 31.574 35.0812C32.0664 34.9794 32.5037 34.699 32.8016 34.2941C34.0557 34.6201 35.3458 34.7873 36.6416 34.7918H37.1127C36.2552 36.6359 34.8883 38.1964 33.1733 39.2894C31.4582 40.3823 29.4664 40.9622 27.4327 40.9607V40.9429ZM33.2194 33.0318C33.2185 32.6593 33.1172 32.2938 32.9261 31.9741C34.4054 30.0417 35.4348 27.8036 35.9394 25.4229C36.3838 25.6304 36.8224 25.8615 37.2549 26.1163C38.2326 28.4264 38.3648 31.0072 37.6283 33.4052C36.1525 33.5193 34.668 33.4023 33.2283 33.0585L33.2194 33.0318Z" fill="white"/>
</g>
<defs>
<filter id="filter0_d_5703_25024" x="0" y="0" width="55.3047" height="60.1445" filterUnits="userSpaceOnUse" color-interpolation-filters="sRGB">
<feFlood flood-opacity="0" result="BackgroundImageFix"/>
<feColorMatrix in="SourceAlpha" type="matrix" values="0 0 0 0 0 0 0 0 0 0 0 0 0 0 0 0 0 0 127 0" result="hardAlpha"/>
<feOffset/>
<feGaussianBlur stdDeviation="3"/>
<feComposite in2="hardAlpha" operator="out"/>
<feColorMatrix type="matrix" values="0 0 0 0 0 0 0 0 0 0 0 0 0 0 0 0 0 0 0.4 0"/>
<feBlend mode="normal" in2="BackgroundImageFix" result="effect1_dropShadow_5703_25024"/>
<feBlend mode="normal" in="SourceGraphic" in2="effect1_dropShadow_5703_25024" result="shape"/>
</filter>
<clipPath id="clip0_5703_25024">
<rect width="32" height="32" fill="white" transform="translate(11.6523 16.0723)"/>
</clipPath>
</defs>
</svg>
