<svg width="56" height="61" viewBox="0 0 56 61" fill="none" xmlns="http://www.w3.org/2000/svg">
<g filter="url(#filter0_d_5703_24942)">
<path d="M25.4023 8.10352C26.7076 7.34991 28.2969 7.30252 29.6377 7.96191L29.9023 8.10352L45.5527 17.1396C46.945 17.9435 47.8027 19.4285 47.8027 21.0361V39.1084C47.8027 40.716 46.945 42.2011 45.5527 43.0049L29.9023 52.041C28.51 52.8449 26.7946 52.8449 25.4023 52.041L9.75195 43.0049C8.35972 42.2011 7.50204 40.716 7.50195 39.1084V21.0361C7.50204 19.4285 8.35972 17.9435 9.75195 17.1396L25.4023 8.10352Z" fill="#156FF7" stroke="white" stroke-width="3"/>
<path fill-rule="evenodd" clip-rule="evenodd" d="M28.3741 30.6087V34.4985C28.3741 34.587 28.5069 34.6754 28.5954 34.6312L32.0041 32.6862C32.0483 32.6421 32.0926 32.5978 32.0926 32.5536V28.6196C32.0926 28.5311 31.9598 28.4427 31.8713 28.487L28.5512 30.3877C28.4626 30.4319 28.3741 30.5203 28.3741 30.6087Z" fill="#156FF7"/>
<path fill-rule="evenodd" clip-rule="evenodd" d="M22.9064 32.9269L19.542 30.9819C19.4535 30.9377 19.3207 31.0261 19.3207 31.1145V35.0043C19.3207 35.137 19.3649 35.2255 19.4535 35.2697L22.8178 37.2146C22.9064 37.2586 23.0392 37.1704 23.0392 37.0819V33.1921C23.0392 33.0594 22.9949 32.9711 22.9064 32.9269Z" fill="#156FF7"/>
<path fill-rule="evenodd" clip-rule="evenodd" d="M22.9064 27.744L19.542 25.799C19.4535 25.7548 19.3207 25.8432 19.3207 25.9316V29.8214C19.3207 29.9541 19.3649 30.0425 19.4535 30.0868L22.8178 32.0317C22.9064 32.0757 23.0392 31.9875 23.0392 31.899V28.0092C23.0392 27.8765 22.9949 27.7882 22.9064 27.744Z" fill="#156FF7"/>
<path fill-rule="evenodd" clip-rule="evenodd" d="M27.4331 30.3442L24.0687 28.3992C23.9802 28.355 23.8474 28.4434 23.8474 28.5318V32.4216C23.8474 32.5543 23.8917 32.6428 23.9802 32.687L27.3446 34.6319C27.4331 34.676 27.5659 34.5877 27.5659 34.4993V30.6094C27.5659 30.4767 27.5216 30.3885 27.4331 30.3442Z" fill="#156FF7"/>
<path fill-rule="evenodd" clip-rule="evenodd" d="M28.317 41.0365V44.9264C28.317 45.0148 28.4498 45.1032 28.5383 45.059L31.947 43.1141C31.9912 43.0699 32.0355 43.0257 32.0355 42.9815V39.0474C32.0355 38.959 31.9027 38.8706 31.8142 38.9148L28.494 40.8155C28.4055 40.8597 28.317 40.9481 28.317 41.0365Z" fill="#D9DEE2"/>
<path fill-rule="evenodd" clip-rule="evenodd" d="M32.8455 38.4264V42.3162C32.8455 42.4047 32.9783 42.4931 33.0668 42.4489L36.4755 40.504C36.5197 40.4598 36.564 40.4155 36.564 40.3713V36.4373C36.564 36.3488 36.4312 36.2605 36.3427 36.3047L33.0226 38.2054C32.934 38.2496 32.8455 38.338 32.8455 38.4264Z" fill="#D9DEE2"/>
<path fill-rule="evenodd" clip-rule="evenodd" d="M37.374 35.9139V39.8038C37.374 39.8922 37.5068 39.9806 37.5953 39.9364L41.004 37.9915C41.0483 37.9473 41.0925 37.9031 41.0925 37.8588V33.9248C41.0925 33.8364 40.9597 33.748 40.8712 33.7922L37.5511 35.6929C37.4625 35.7371 37.374 35.8255 37.374 35.9139Z" fill="#D9DEE2"/>
<path fill-rule="evenodd" clip-rule="evenodd" d="M37.374 30.7838V34.6736C37.374 34.762 37.5068 34.8505 37.5953 34.8063L41.004 32.8613C41.0483 32.8171 41.0925 32.7729 41.0925 32.7287V28.7946C41.0925 28.7062 40.9597 28.6178 40.8712 28.662L37.5511 30.5628C37.4625 30.6069 37.374 30.6954 37.374 30.7838Z" fill="#D9DEE2"/>
<path fill-rule="evenodd" clip-rule="evenodd" d="M37.374 25.5369V29.4268C37.374 29.5152 37.5068 29.6036 37.5953 29.5594L41.004 27.6145C41.0483 27.5703 41.0925 27.5261 41.0925 27.4819V23.5478C41.0925 23.4594 40.9597 23.371 40.8712 23.4152L37.5511 25.3159C37.4625 25.3601 37.374 25.4485 37.374 25.5369Z" fill="#D9DEE2"/>
<path fill-rule="evenodd" clip-rule="evenodd" d="M24.4593 22.2736L27.8237 20.3729C27.9123 20.3287 28.045 20.3287 28.0893 20.3729L31.4979 22.3178C31.5864 22.4062 31.5864 22.5388 31.4979 22.583L28.1335 24.4838C28.045 24.528 27.9564 24.528 27.868 24.4838L24.4593 22.5388C24.3707 22.4504 24.3707 22.3178 24.4593 22.2736Z" fill="#D9DEE2"/>
<path fill-rule="evenodd" clip-rule="evenodd" d="M28.8414 19.6393L32.2058 17.7386C32.2944 17.6943 32.427 17.6943 32.4713 17.7386L35.8799 19.6835C35.9685 19.7719 35.9685 19.9045 35.8799 19.9487L32.5156 21.8494C32.427 21.8936 32.3385 21.8936 32.2501 21.8494L28.8414 19.9045C28.7528 19.8161 28.7528 19.6835 28.8414 19.6393Z" fill="#D9DEE2"/>
<path fill-rule="evenodd" clip-rule="evenodd" d="M33.3784 22.2736L36.7428 20.3729C36.8314 20.3287 36.9641 20.3287 37.0084 20.3729L40.417 22.3178C40.5056 22.4062 40.5056 22.5388 40.417 22.583L37.0527 24.4838C36.9641 24.528 36.8755 24.528 36.7871 24.4838L33.3784 22.5388C33.2899 22.4504 33.2899 22.3178 33.3784 22.2736Z" fill="#D9DEE2"/>
<path fill-rule="evenodd" clip-rule="evenodd" d="M20.0905 19.6405L23.4549 17.7397C23.5435 17.6955 23.6762 17.6955 23.7205 17.7397L27.1291 19.6847C27.2177 19.7731 27.2177 19.9057 27.1291 19.9499L23.7648 21.8506C23.6762 21.8948 23.5876 21.8948 23.4992 21.8506L20.0905 19.9057C20.002 19.8173 20.002 19.6847 20.0905 19.6405Z" fill="#D9DEE2"/>
<path fill-rule="evenodd" clip-rule="evenodd" d="M24.4726 17.0061L27.837 15.1054C27.9256 15.0612 28.0583 15.0612 28.1025 15.1054L31.5111 17.0504C31.5997 17.1388 31.5997 17.2714 31.5111 17.3156L28.1468 19.2163C28.0583 19.2605 27.9697 19.2605 27.8813 19.2163L24.4726 17.2714C24.384 17.183 24.384 17.0504 24.4726 17.0061Z" fill="#D9DEE2"/>
<path fill-rule="evenodd" clip-rule="evenodd" d="M15.5402 22.2736L18.9046 20.3729C18.9932 20.3287 19.1258 20.3287 19.1701 20.3729L22.5787 22.3178C22.6673 22.4062 22.6673 22.5388 22.5787 22.583L19.2144 24.4838C19.1258 24.528 19.0373 24.528 18.9489 24.4838L15.5402 22.5388C15.4516 22.4504 15.4516 22.3178 15.5402 22.2736Z" fill="#D9DEE2"/>
<path fill-rule="evenodd" clip-rule="evenodd" d="M18.492 30.5201L15.1276 28.5751C15.0391 28.5309 14.9063 28.6193 14.9063 28.7077L14.9062 32.5975C14.9062 32.7302 14.9505 32.8187 15.0391 32.8629L18.4034 34.8078C18.492 34.8518 18.6248 34.7636 18.6248 34.6751V30.7853C18.6248 30.6526 18.5805 30.5643 18.492 30.5201Z" fill="#D9DEE2"/>
<path fill-rule="evenodd" clip-rule="evenodd" d="M18.492 35.7011L15.1276 33.7561C15.0391 33.7119 14.9063 33.8003 14.9063 33.8887L14.9062 37.7785C14.9062 37.9112 14.9505 37.9996 15.0391 38.0438L18.4034 39.9888C18.492 40.0328 18.6248 39.9445 18.6248 39.8561V35.9662C18.6248 35.8335 18.5805 35.7453 18.492 35.7011Z" fill="#D9DEE2"/>
<path fill-rule="evenodd" clip-rule="evenodd" d="M22.9241 38.1401L19.5597 36.1951C19.4711 36.1509 19.3383 36.2393 19.3383 36.3277V40.2175C19.3383 40.3502 19.3826 40.4387 19.4711 40.4829L22.8355 42.4278C22.924 42.4719 23.0568 42.3836 23.0568 42.2952V38.4053C23.0568 38.2726 23.0126 38.1844 22.9241 38.1401Z" fill="#D9DEE2"/>
<path fill-rule="evenodd" clip-rule="evenodd" d="M27.4115 40.7729L24.0471 38.8279C23.9586 38.7837 23.8258 38.8721 23.8258 38.9605V42.8503C23.8258 42.983 23.87 43.0714 23.9586 43.1156L27.3229 45.0606C27.4115 45.1046 27.5443 45.0164 27.5443 44.9279V41.038C27.5443 40.9054 27.5 40.8171 27.4115 40.7729Z" fill="#D9DEE2"/>
<path fill-rule="evenodd" clip-rule="evenodd" d="M18.492 25.2598L15.1276 23.3148C15.0391 23.2706 14.9063 23.359 14.9063 23.4474L14.9062 27.3372C14.9062 27.4699 14.9505 27.5583 15.0391 27.6026L18.4034 29.5475C18.492 29.5915 18.6248 29.5033 18.6248 29.4148V25.525C18.6248 25.3923 18.5805 25.304 18.492 25.2598Z" fill="#D9DEE2"/>
<path fill-rule="evenodd" clip-rule="evenodd" d="M19.9626 24.8489L23.327 22.9482C23.4156 22.904 23.5482 22.904 23.5925 22.9482L27.0011 24.8932C27.0897 24.9816 27.0897 25.1142 27.0011 25.1584L23.6368 27.0591C23.5482 27.1033 23.4597 27.1033 23.3713 27.0591L19.9626 25.1142C19.874 25.0258 19.874 24.8931 19.9626 24.8489Z" fill="#156FF7"/>
<path fill-rule="evenodd" clip-rule="evenodd" d="M24.4577 27.3685L27.8221 25.4677C27.9107 25.4235 28.0434 25.4235 28.0877 25.4677L31.4963 27.4127C31.5848 27.5011 31.5848 27.6337 31.4963 27.6779L28.132 29.5786C28.0434 29.6228 27.9548 29.6228 27.8664 29.5786L24.4577 27.6337C24.3692 27.5453 24.3692 27.4127 24.4577 27.3685Z" fill="#156FF7"/>
<path fill-rule="evenodd" clip-rule="evenodd" d="M28.9037 24.8489L32.2681 22.9482C32.3567 22.904 32.4894 22.904 32.5337 22.9482L35.9423 24.8932C36.0308 24.9816 36.0308 25.1142 35.9423 25.1584L32.578 27.0591C32.4894 27.1033 32.4008 27.1033 32.3124 27.0591L28.9037 25.1142C28.8152 25.0258 28.8152 24.8931 28.9037 24.8489Z" fill="#4AE68D"/>
<path fill-rule="evenodd" clip-rule="evenodd" d="M32.771 28.0085V31.8983C32.771 31.9867 32.9038 32.0752 32.9923 32.0309L36.4009 30.086C36.4452 30.0418 36.4895 29.9976 36.4895 29.9534V26.0193C36.4895 25.9309 36.3567 25.8425 36.2681 25.8867L32.948 27.7875C32.8595 27.8316 32.771 27.9201 32.771 28.0085Z" fill="#4AE68D"/>
<path fill-rule="evenodd" clip-rule="evenodd" d="M32.771 33.1914V37.0812C32.771 37.1696 32.9038 37.2581 32.9923 37.2139L36.4009 35.2689C36.4452 35.2247 36.4895 35.1805 36.4895 35.1363V31.2022C36.4895 31.1138 36.3567 31.0254 36.2681 31.0696L32.948 32.9704C32.8595 33.0145 32.771 33.103 32.771 33.1914Z" fill="#4AE68D"/>
<path fill-rule="evenodd" clip-rule="evenodd" d="M28.3285 35.674V39.5639C28.3285 39.6523 28.4613 39.7407 28.5498 39.6965L31.9585 37.7516C32.0027 37.7074 32.047 37.6632 32.047 37.619V33.6849C32.047 33.5965 31.9142 33.5081 31.8257 33.5523L28.5055 35.453C28.417 35.4972 28.3285 35.5856 28.3285 35.674Z" fill="#4AE68D"/>
<path fill-rule="evenodd" clip-rule="evenodd" d="M27.4331 35.4973L24.0687 33.5523C23.9802 33.5081 23.8474 33.5965 23.8474 33.6849V37.5747C23.8474 37.7074 23.8917 37.7959 23.9802 37.8401L27.3446 39.785C27.4331 39.829 27.5659 39.7408 27.5659 39.6523V35.7625C27.5659 35.6298 27.5216 35.5415 27.4331 35.4973Z" fill="#4AE68D"/>
</g>
<defs>
<filter id="filter0_d_5703_24942" x="0" y="0" width="55.3047" height="60.1445" filterUnits="userSpaceOnUse" color-interpolation-filters="sRGB">
<feFlood flood-opacity="0" result="BackgroundImageFix"/>
<feColorMatrix in="SourceAlpha" type="matrix" values="0 0 0 0 0 0 0 0 0 0 0 0 0 0 0 0 0 0 127 0" result="hardAlpha"/>
<feOffset/>
<feGaussianBlur stdDeviation="3"/>
<feComposite in2="hardAlpha" operator="out"/>
<feColorMatrix type="matrix" values="0 0 0 0 0 0 0 0 0 0 0 0 0 0 0 0 0 0 0.4 0"/>
<feBlend mode="normal" in2="BackgroundImageFix" result="effect1_dropShadow_5703_24942"/>
<feBlend mode="normal" in="SourceGraphic" in2="effect1_dropShadow_5703_24942" result="shape"/>
</filter>
</defs>
</svg>
