<svg width="58" height="68" viewBox="0 0 58 68" fill="none" xmlns="http://www.w3.org/2000/svg">
<g filter="url(#filter0_d_103_44)">
<path d="M35.3536 41.1973H22.4016C19.3441 41.1973 17.417 44.4883 18.9132 47.1547L25.6377 59.1384C27.1942 61.9122 31.2088 61.8478 32.6754 59.0255L38.903 47.0417C40.2867 44.379 38.3545 41.1973 35.3536 41.1973Z" fill="white"/>
<rect x="7.5" y="7.5" width="42.5078" height="42.5078" rx="21.2539" stroke="white" stroke-width="3"/>
</g>
<circle cx="42.5371" cy="10.7598" r="8.7793" fill="url(#paint0_linear_103_44)"/>
<path d="M42.2063 5.59815C42.3339 5.31183 42.7403 5.31183 42.868 5.59815L44.083 8.32395C44.1356 8.44204 44.2472 8.52312 44.3758 8.53669L47.3436 8.84993C47.6554 8.88284 47.781 9.26936 47.5481 9.47922L45.3312 11.4771C45.2351 11.5636 45.1925 11.6948 45.2193 11.8213L45.8385 14.7407C45.9036 15.0474 45.5748 15.2863 45.3032 15.1296L42.7181 13.6386C42.6061 13.574 42.4681 13.574 42.3561 13.6386L39.771 15.1296C39.4994 15.2863 39.1706 15.0474 39.2357 14.7407L39.8549 11.8213C39.8817 11.6948 39.8391 11.5636 39.743 11.4771L37.5261 9.47922C37.2933 9.26936 37.4188 8.88284 37.7306 8.84993L40.6984 8.53669C40.827 8.52312 40.9386 8.44204 40.9913 8.32395L42.2063 5.59815Z" fill="white"/>
<defs>
<filter id="filter0_d_103_44" x="0" y="0" width="57.5078" height="67.1812" filterUnits="userSpaceOnUse" color-interpolation-filters="sRGB">
<feFlood flood-opacity="0" result="BackgroundImageFix"/>
<feColorMatrix in="SourceAlpha" type="matrix" values="0 0 0 0 0 0 0 0 0 0 0 0 0 0 0 0 0 0 127 0" result="hardAlpha"/>
<feOffset/>
<feGaussianBlur stdDeviation="3"/>
<feComposite in2="hardAlpha" operator="out"/>
<feColorMatrix type="matrix" values="0 0 0 0 0 0 0 0 0 0 0 0 0 0 0 0 0 0 0.4 0"/>
<feBlend mode="normal" in2="BackgroundImageFix" result="effect1_dropShadow_103_44"/>
<feBlend mode="normal" in="SourceGraphic" in2="effect1_dropShadow_103_44" result="shape"/>
</filter>
<linearGradient id="paint0_linear_103_44" x1="33.7578" y1="1.98047" x2="54.834" y2="12.4741" gradientUnits="userSpaceOnUse">
<stop stop-color="#E942FF"/>
<stop offset="1" stop-color="#8044D5"/>
</linearGradient>
</defs>
</svg>
