<svg width="16" height="17" viewBox="0 0 16 17" fill="none" xmlns="http://www.w3.org/2000/svg">
<g clip-path="url(#clip0_2857_1316)">
<rect width="16" height="16" transform="translate(0 0.981934)" fill="white"/>
<path fill-rule="evenodd" clip-rule="evenodd" d="M4.04006 3.62222C5.09032 2.57196 6.51477 1.98193 8.00006 1.98193C9.48535 1.98193 10.9098 2.57196 11.9601 3.62222C13.0103 4.67248 13.6003 6.09693 13.6003 7.58222C13.6003 9.06751 13.0103 10.492 11.9601 11.5422L8.00006 15.5022L4.04006 11.5422C3.51999 11.0222 3.10745 10.4048 2.82599 9.72538C2.54453 9.04592 2.39966 8.31767 2.39966 7.58222C2.39966 6.84677 2.54453 6.11852 2.82599 5.43906C3.10745 4.7596 3.51999 4.14223 4.04006 3.62222ZM8.00006 9.18222C8.42441 9.18222 8.83137 9.01365 9.13143 8.71359C9.43149 8.41353 9.60006 8.00657 9.60006 7.58222C9.60006 7.15787 9.43149 6.75091 9.13143 6.45085C8.83137 6.15079 8.42441 5.98222 8.00006 5.98222C7.57572 5.98222 7.16875 6.15079 6.86869 6.45085C6.56863 6.75091 6.40006 7.15787 6.40006 7.58222C6.40006 8.00657 6.56863 8.41353 6.86869 8.71359C7.16875 9.01365 7.57572 9.18222 8.00006 9.18222Z" fill="#64748B"/>
</g>
<defs>
<clipPath id="clip0_2857_1316">
<rect width="16" height="16" fill="white" transform="translate(0 0.981934)"/>
</clipPath>
</defs>
</svg>
