<svg width="12" height="15" viewBox="0 0 12 15" fill="none" xmlns="http://www.w3.org/2000/svg">
<path fill-rule="evenodd" clip-rule="evenodd" d="M2.03982 2.13247C3.09008 1.08222 4.51453 0.492188 5.99982 0.492188C7.48511 0.492188 8.90956 1.08222 9.95982 2.13247C11.0101 3.18273 11.6001 4.60718 11.6001 6.09247C11.6001 7.57776 11.0101 9.00222 9.95982 10.0525L5.99982 14.0125L2.03982 10.0525C1.51975 9.53246 1.10721 8.91509 0.825743 8.23563C0.544281 7.55617 0.399414 6.82792 0.399414 6.09247C0.399414 5.35702 0.544281 4.62877 0.825743 3.94931C1.10721 3.26985 1.51975 2.65249 2.03982 2.13247ZM5.99982 7.69247C6.42416 7.69247 6.83113 7.5239 7.13119 7.22384C7.43125 6.92378 7.59982 6.51682 7.59982 6.09247C7.59982 5.66813 7.43125 5.26116 7.13119 4.9611C6.83113 4.66104 6.42416 4.49247 5.99982 4.49247C5.57547 4.49247 5.16851 4.66104 4.86845 4.9611C4.56839 5.26116 4.39982 5.66813 4.39982 6.09247C4.39982 6.51682 4.56839 6.92378 4.86845 7.22384C5.16851 7.5239 5.57547 7.69247 5.99982 7.69247Z" fill="#94A3B8"/>
</svg>
