<svg width="12" height="14" viewBox="0 0 12 14" fill="none" xmlns="http://www.w3.org/2000/svg">
<path fill-rule="evenodd" clip-rule="evenodd" d="M2.04006 1.64029C3.09032 0.590029 4.51477 0 6.00006 0C7.48535 0 8.9098 0.590029 9.96006 1.64029C11.0103 2.69054 11.6003 4.115 11.6003 5.60029C11.6003 7.08557 11.0103 8.51003 9.96006 9.56029L6.00006 13.5203L2.04006 9.56029C1.51999 9.04027 1.10745 8.4229 0.825987 7.74344C0.544525 7.06398 0.399658 6.33574 0.399658 5.60029C0.399658 4.86483 0.544525 4.13659 0.825987 3.45713C1.10745 2.77767 1.51999 2.1603 2.04006 1.64029ZM6.00006 7.20028C6.42441 7.20028 6.83137 7.03171 7.13143 6.73166C7.43149 6.4316 7.60006 6.02463 7.60006 5.60029C7.60006 5.17594 7.43149 4.76897 7.13143 4.46891C6.83137 4.16886 6.42441 4.00029 6.00006 4.00029C5.57572 4.00029 5.16875 4.16886 4.86869 4.46891C4.56863 4.76897 4.40006 5.17594 4.40006 5.60029C4.40006 6.02463 4.56863 6.4316 4.86869 6.73166C5.16875 7.03171 5.57572 7.20028 6.00006 7.20028Z" fill="#0F172A"/>
</svg>
