<svg width="58" height="68" viewBox="0 0 58 68" fill="none" xmlns="http://www.w3.org/2000/svg">
<g filter="url(#filter0_d_9158_80685)">
<path d="M35.3536 41.1973H22.4016C19.3441 41.1973 17.417 44.4883 18.9132 47.1547L25.6377 59.1384C27.1942 61.9122 31.2088 61.8478 32.6754 59.0255L38.903 47.0417C40.2867 44.379 38.3545 41.1973 35.3536 41.1973Z" fill="white"/>
<rect x="7.5" y="7.5" width="42.5078" height="42.5078" rx="21.2539" fill="#EE4F1D" stroke="white" stroke-width="3"/>
<path d="M28.7491 16.3086C25.4487 16.3086 22.2834 17.6197 19.9496 19.9535C17.6158 22.2873 16.3047 25.4526 16.3047 28.753C16.3047 29.153 16.3047 29.5442 16.3669 29.9353C16.596 32.3355 17.5174 34.6175 19.0191 36.5039C20.5208 38.3902 22.5382 39.7997 24.826 40.561C27.1138 41.3222 29.5735 41.4025 31.9061 40.7919C34.2386 40.1814 36.3436 38.9064 37.9651 37.122C39.5866 35.3375 40.6548 33.1204 41.0398 30.7402C41.4249 28.36 41.1101 25.9193 40.1339 23.7146C39.1577 21.5099 37.5621 19.6363 35.5409 18.3215C33.5198 17.0068 31.1603 16.3074 28.7491 16.3086ZM28.7491 18.0864C31.5597 18.0888 34.2558 19.2005 36.2514 21.1797V22.0686C32.7381 20.8595 28.919 20.8752 25.4158 22.113C25.1359 21.8403 24.7846 21.6523 24.4025 21.5708H24.1802C24.0736 21.1975 23.9758 20.8242 23.8958 20.4419C23.8158 20.0597 23.7714 19.7219 23.7269 19.3575C25.27 18.5247 26.9957 18.088 28.7491 18.0864ZM26.0825 23.3042C29.3106 22.2231 32.8092 22.2639 36.0114 23.4197C35.5782 25.678 34.6325 27.8068 33.2469 29.6419C32.8594 29.4778 32.4303 29.4384 32.0194 29.5292C31.6084 29.62 31.2359 29.8365 30.9536 30.1486C30.6425 29.9708 30.3314 29.793 30.0647 29.5886C28.2703 28.3914 26.7717 26.8016 25.6825 24.9397C25.8585 24.7214 25.9867 24.4685 26.0587 24.1975C26.1306 23.9264 26.1448 23.6433 26.1002 23.3664L26.0825 23.3042ZM22.5269 20.1042C22.5269 20.2908 22.5802 20.4864 22.6158 20.673C22.6958 21.0642 22.8025 21.4464 22.9091 21.8286C22.5687 22.0302 22.2948 22.3269 22.121 22.6823C21.9473 23.0377 21.8814 23.4362 21.9314 23.8286C20.5282 24.7449 19.275 25.8722 18.2158 27.1708C18.4283 25.7644 18.92 24.4147 19.6619 23.2011C20.4038 21.9875 21.3809 20.9345 22.5358 20.1042H22.5269ZM22.5269 34.0686C22.1799 34.1851 21.8698 34.3911 21.6279 34.6658C21.386 34.9404 21.2208 35.2741 21.1491 35.633H20.5802C19.1448 33.9209 18.2862 31.7994 18.1269 29.5708L18.2247 29.4019C19.3378 27.676 20.7929 26.1967 22.5002 25.0553C22.7562 25.3226 23.0797 25.5158 23.4365 25.6144C23.7932 25.7129 24.17 25.7132 24.5269 25.6153C25.7159 27.6244 27.3411 29.3408 29.2825 30.6375C29.6469 30.8775 30.0202 31.0997 30.3936 31.313C30.3637 31.653 30.4187 31.9951 30.5536 32.3086C28.9269 33.6003 27.0505 34.5415 25.0425 35.073C24.8096 34.638 24.4296 34.2998 23.9704 34.1191C23.5112 33.9383 23.0028 33.9268 22.5358 34.0864L22.5269 34.0686ZM28.7491 39.4019C26.9413 39.4024 25.1635 38.9404 23.5847 38.0597L23.8336 38.0064C24.1873 37.8903 24.5034 37.6815 24.7488 37.4016C24.9943 37.1217 25.1602 36.7811 25.2291 36.4153C27.502 35.8356 29.6239 34.7747 31.4514 33.3042C31.8854 33.5578 32.398 33.6419 32.8904 33.5401C33.3828 33.4384 33.8201 33.158 34.118 32.753C35.3721 33.0791 36.6622 33.2463 37.958 33.2508H38.4291C37.5716 35.0949 36.2047 36.6554 34.4897 37.7484C32.7746 38.8413 30.7828 39.4212 28.7491 39.4197V39.4019ZM34.5358 31.4908C34.5349 31.1183 34.4336 30.7528 34.2425 30.433C35.7218 28.5007 36.7512 26.2626 37.2558 23.8819C37.7002 24.0893 38.1388 24.3204 38.5714 24.5753C39.549 26.8854 39.6812 29.4662 38.9447 31.8642C37.4689 31.9783 35.9844 31.8613 34.5447 31.5175L34.5358 31.4908Z" fill="white"/>
</g>
<defs>
<filter id="filter0_d_9158_80685" x="0" y="0" width="57.5078" height="67.1816" filterUnits="userSpaceOnUse" color-interpolation-filters="sRGB">
<feFlood flood-opacity="0" result="BackgroundImageFix"/>
<feColorMatrix in="SourceAlpha" type="matrix" values="0 0 0 0 0 0 0 0 0 0 0 0 0 0 0 0 0 0 127 0" result="hardAlpha"/>
<feOffset/>
<feGaussianBlur stdDeviation="3"/>
<feComposite in2="hardAlpha" operator="out"/>
<feColorMatrix type="matrix" values="0 0 0 0 0 0 0 0 0 0 0 0 0 0 0 0 0 0 0.4 0"/>
<feBlend mode="normal" in2="BackgroundImageFix" result="effect1_dropShadow_9158_80685"/>
<feBlend mode="normal" in="SourceGraphic" in2="effect1_dropShadow_9158_80685" result="shape"/>
</filter>
</defs>
</svg>
