<svg width="22" height="22" viewBox="0 0 22 22" fill="none" xmlns="http://www.w3.org/2000/svg">
<rect x="0.75" y="0.75" width="20.5" height="20.5" rx="10.25" fill="#1E3A8A"/>
<path fill-rule="evenodd" clip-rule="evenodd" d="M10.9824 11.0352V13.047C10.9824 13.0928 11.0512 13.1385 11.0971 13.1156L12.8643 12.1097C12.8872 12.0869 12.9102 12.064 12.9102 12.0411V10.0065C12.9102 9.96076 12.8413 9.91505 12.7954 9.93791L11.0741 10.9209C11.0282 10.9438 10.9824 10.9895 10.9824 11.0352Z" fill="#16161F"/>
<path fill-rule="evenodd" clip-rule="evenodd" d="M8.14764 12.2342L6.40339 11.2283C6.3575 11.2054 6.28864 11.2511 6.28864 11.2969V13.3086C6.28864 13.3772 6.31159 13.423 6.3575 13.4459L8.10174 14.4517C8.14764 14.4745 8.21649 14.4289 8.21649 14.3831V12.3713C8.21649 12.3027 8.19355 12.2571 8.14764 12.2342Z" fill="#16161F"/>
<path fill-rule="evenodd" clip-rule="evenodd" d="M8.14764 9.55367L6.40339 8.54773C6.3575 8.52488 6.28864 8.57059 6.28864 8.61632V10.6281C6.28864 10.6967 6.31159 10.7424 6.3575 10.7653L8.10174 11.7712C8.14764 11.794 8.21649 11.7483 8.21649 11.7026V9.6908C8.21649 9.62218 8.19355 9.57654 8.14764 9.55367Z" fill="#16161F"/>
<path fill-rule="evenodd" clip-rule="evenodd" d="M10.4945 10.8985L8.75025 9.89253C8.70435 9.86968 8.6355 9.9154 8.6355 9.96112V11.9729C8.6355 12.0415 8.65845 12.0872 8.70435 12.1101L10.4486 13.116C10.4945 13.1388 10.5633 13.0931 10.5633 13.0474V11.0356C10.5633 10.967 10.5404 10.9213 10.4945 10.8985Z" fill="#16161F"/>
<path fill-rule="evenodd" clip-rule="evenodd" d="M10.9527 16.4284V18.4402C10.9527 18.4859 11.0216 18.5316 11.0675 18.5088L12.8347 17.5029C12.8576 17.48 12.8806 17.4571 12.8806 17.4343V15.3996C12.8806 15.3539 12.8117 15.3082 12.7658 15.3311L11.0445 16.3141C10.9986 16.3369 10.9527 16.3827 10.9527 16.4284Z" fill="#D9DEE2"/>
<path fill-rule="evenodd" clip-rule="evenodd" d="M13.3005 15.0785V17.0902C13.3005 17.136 13.3694 17.1817 13.4153 17.1588L15.1825 16.153C15.2054 16.1301 15.2284 16.1072 15.2284 16.0844V14.0497C15.2284 14.004 15.1595 13.9583 15.1136 13.9811L13.3923 14.9642C13.3464 14.987 13.3005 15.0327 13.3005 15.0785Z" fill="#D9DEE2"/>
<path fill-rule="evenodd" clip-rule="evenodd" d="M15.6483 13.779V15.7908C15.6483 15.8365 15.7172 15.8823 15.7631 15.8594L17.5303 14.8535C17.5532 14.8307 17.5762 14.8078 17.5762 14.7849V12.7503C17.5762 12.7046 17.5073 12.6588 17.4614 12.6817L15.7401 13.6647C15.6942 13.6876 15.6483 13.7333 15.6483 13.779Z" fill="#D9DEE2"/>
<path fill-rule="evenodd" clip-rule="evenodd" d="M15.6483 11.1258V13.1376C15.6483 13.1833 15.7172 13.229 15.7631 13.2062L17.5303 12.2003C17.5532 12.1774 17.5762 12.1546 17.5762 12.1317V10.097C17.5762 10.0513 17.5073 10.0056 17.4614 10.0285L15.7401 11.0115C15.6942 11.0343 15.6483 11.0801 15.6483 11.1258Z" fill="#D9DEE2"/>
<path fill-rule="evenodd" clip-rule="evenodd" d="M15.6483 8.4122V10.424C15.6483 10.4697 15.7172 10.5154 15.7631 10.4926L17.5303 9.48668C17.5532 9.46383 17.5762 9.44096 17.5762 9.4181V7.38344C17.5762 7.33772 17.5073 7.292 17.4614 7.31486L15.7401 8.2979C15.6942 8.32075 15.6483 8.36647 15.6483 8.4122Z" fill="#D9DEE2"/>
<path fill-rule="evenodd" clip-rule="evenodd" d="M8.95273 6.72444L10.697 5.74141C10.7429 5.71855 10.8117 5.71855 10.8347 5.74141L12.6018 6.74732C12.6478 6.79303 12.6478 6.86161 12.6018 6.88447L10.8576 7.8675C10.8117 7.89037 10.7658 7.89037 10.72 7.8675L8.95273 6.86162C8.90683 6.81589 8.90683 6.74731 8.95273 6.72444Z" fill="#D9DEE2"/>
<path fill-rule="evenodd" clip-rule="evenodd" d="M11.2246 5.362L12.9689 4.37897C13.0148 4.35611 13.0836 4.35611 13.1065 4.37897L14.8737 5.38488C14.9196 5.43059 14.9196 5.49917 14.8737 5.52203L13.1295 6.50506C13.0836 6.52793 13.0377 6.52793 12.9918 6.50506L11.2246 5.49918C11.1787 5.45345 11.1787 5.38487 11.2246 5.362Z" fill="#D9DEE2"/>
<path fill-rule="evenodd" clip-rule="evenodd" d="M13.5768 6.72444L15.3211 5.74141C15.367 5.71855 15.4358 5.71855 15.4588 5.74141L17.2259 6.74732C17.2719 6.79303 17.2719 6.86161 17.2259 6.88447L15.4817 7.8675C15.4358 7.89037 15.3899 7.89037 15.3441 7.8675L13.5768 6.86162C13.5309 6.81589 13.5309 6.74731 13.5768 6.72444Z" fill="#D9DEE2"/>
<path fill-rule="evenodd" clip-rule="evenodd" d="M6.68776 5.36262L8.43203 4.37959C8.47795 4.35673 8.54674 4.35673 8.5697 4.37959L10.3369 5.38549C10.3828 5.43121 10.3828 5.49979 10.3369 5.52265L8.59266 6.50568C8.54674 6.52854 8.50081 6.52854 8.45499 6.50568L6.68776 5.4998C6.64185 5.45407 6.64185 5.38548 6.68776 5.36262Z" fill="#D9DEE2"/>
<path fill-rule="evenodd" clip-rule="evenodd" d="M8.95963 4.00018L10.7039 3.01715C10.7498 2.99428 10.8186 2.99428 10.8416 3.01715L12.6087 4.02305C12.6547 4.06877 12.6547 4.13735 12.6087 4.16021L10.8645 5.14324C10.8186 5.1661 10.7727 5.1661 10.7269 5.14324L8.95963 4.13736C8.91372 4.09163 8.91372 4.02304 8.95963 4.00018Z" fill="#D9DEE2"/>
<path fill-rule="evenodd" clip-rule="evenodd" d="M4.32865 6.72444L6.07292 5.74141C6.11885 5.71855 6.18763 5.71855 6.21059 5.74141L7.97776 6.74732C8.02369 6.79303 8.02369 6.86161 7.97776 6.88447L6.23355 7.8675C6.18763 7.89037 6.1417 7.89037 6.09588 7.8675L4.32865 6.86162C4.28274 6.81589 4.28274 6.74731 4.32865 6.72444Z" fill="#D9DEE2"/>
<path fill-rule="evenodd" clip-rule="evenodd" d="M5.859 10.9894L4.11475 9.9835C4.06886 9.96065 4 10.0064 4 10.0521L4 12.0639C4 12.1325 4.02295 12.1782 4.06886 12.2011L5.8131 13.207C5.859 13.2298 5.92785 13.1841 5.92785 13.1384V11.1266C5.92785 11.058 5.90491 11.0123 5.859 10.9894Z" fill="#D9DEE2"/>
<path fill-rule="evenodd" clip-rule="evenodd" d="M5.859 13.669L4.11475 12.663C4.06886 12.6402 4 12.6859 4 12.7316L4 14.7434C4 14.812 4.02295 14.8577 4.06886 14.8806L5.8131 15.8865C5.859 15.9093 5.92785 15.8636 5.92785 15.8179V13.8061C5.92785 13.7375 5.90491 13.6918 5.859 13.669Z" fill="#D9DEE2"/>
<path fill-rule="evenodd" clip-rule="evenodd" d="M8.1568 14.9304L6.41254 13.9245C6.36665 13.9016 6.29779 13.9473 6.29779 13.9931V16.0048C6.29779 16.0734 6.32075 16.1192 6.36665 16.1421L8.11089 17.148C8.1568 17.1707 8.22564 17.1251 8.22564 17.0793L8.22564 15.0676C8.22564 14.9989 8.2027 14.9533 8.1568 14.9304Z" fill="#D9DEE2"/>
<path fill-rule="evenodd" clip-rule="evenodd" d="M10.4833 16.292L8.73904 15.2861C8.69315 15.2632 8.62429 15.309 8.62429 15.3547V17.3664C8.62429 17.4351 8.64724 17.4808 8.69315 17.5037L10.4374 18.5096C10.4833 18.5323 10.5521 18.4867 10.5521 18.441V16.4292C10.5521 16.3606 10.5292 16.3149 10.4833 16.292Z" fill="#D9DEE2"/>
<path fill-rule="evenodd" clip-rule="evenodd" d="M5.859 8.26887L4.11475 7.26293C4.06886 7.24008 4 7.28579 4 7.33152L4 9.34328C4 9.4119 4.02295 9.45765 4.06886 9.48052L5.8131 10.4864C5.859 10.5092 5.92785 10.4635 5.92785 10.4178V8.406C5.92785 8.33739 5.90491 8.29174 5.859 8.26887Z" fill="#D9DEE2"/>
<path fill-rule="evenodd" clip-rule="evenodd" d="M6.62143 8.05637L8.3657 7.07334C8.41163 7.05048 8.48041 7.05048 8.50337 7.07334L10.2705 8.07925C10.3165 8.12496 10.3165 8.19354 10.2705 8.2164L8.52633 9.19943C8.48041 9.2223 8.43448 9.2223 8.38866 9.19943L6.62143 8.19355C6.57552 8.14782 6.57552 8.07924 6.62143 8.05637Z" fill="#16161F"/>
<path fill-rule="evenodd" clip-rule="evenodd" d="M8.95191 9.35944L10.6962 8.37641C10.7421 8.35354 10.8109 8.35354 10.8339 8.37641L12.601 9.38231C12.647 9.42803 12.647 9.4966 12.601 9.51947L10.8568 10.5025C10.8109 10.5254 10.765 10.5254 10.7191 10.5025L8.95191 9.49661C8.90601 9.45089 8.90601 9.3823 8.95191 9.35944Z" fill="#16161F"/>
<path fill-rule="evenodd" clip-rule="evenodd" d="M11.2569 8.05637L13.0012 7.07334C13.0471 7.05048 13.1159 7.05048 13.1389 7.07334L14.906 8.07925C14.952 8.12496 14.952 8.19354 14.906 8.2164L13.1618 9.19943C13.1159 9.2223 13.07 9.2223 13.0242 9.19943L11.2569 8.19355C11.211 8.14782 11.211 8.07924 11.2569 8.05637Z" fill="#4AE68D"/>
<path fill-rule="evenodd" clip-rule="evenodd" d="M13.2619 9.69044V11.7022C13.2619 11.7479 13.3307 11.7937 13.3766 11.7708L15.1438 10.7649C15.1668 10.7421 15.1897 10.7192 15.1897 10.6963V8.66168C15.1897 8.61596 15.1209 8.57024 15.075 8.5931L13.3537 9.57614C13.3078 9.59899 13.2619 9.64472 13.2619 9.69044Z" fill="#4AE68D"/>
<path fill-rule="evenodd" clip-rule="evenodd" d="M13.2619 12.371V14.3828C13.2619 14.4285 13.3307 14.4742 13.3766 14.4514L15.1438 13.4455C15.1668 13.4226 15.1897 13.3997 15.1897 13.3769V11.3422C15.1897 11.2965 15.1209 11.2508 15.075 11.2736L13.3537 12.2567C13.3078 12.2795 13.2619 12.3253 13.2619 12.371Z" fill="#4AE68D"/>
<path fill-rule="evenodd" clip-rule="evenodd" d="M10.9587 13.655V15.6668C10.9587 15.7125 11.0275 15.7582 11.0735 15.7354L12.8406 14.7295C12.8636 14.7066 12.8865 14.6837 12.8865 14.6609V12.6262C12.8865 12.5805 12.8177 12.5348 12.7718 12.5576L11.0505 13.5407C11.0046 13.5635 10.9587 13.6093 10.9587 13.655Z" fill="#4AE68D"/>
<path fill-rule="evenodd" clip-rule="evenodd" d="M10.4945 13.5636L8.75025 12.5576C8.70435 12.5348 8.6355 12.5805 8.6355 12.6262V14.638C8.6355 14.7066 8.65845 14.7524 8.70435 14.7752L10.4486 15.7811C10.4945 15.8039 10.5633 15.7583 10.5633 15.7125V13.7007C10.5633 13.6321 10.5404 13.5865 10.4945 13.5636Z" fill="#4AE68D"/>
<path fill-rule="evenodd" clip-rule="evenodd" d="M10.9614 11.0361V13.0479C10.9614 13.0936 11.0302 13.1393 11.0761 13.1165L12.8433 12.1106C12.8663 12.0877 12.8892 12.0648 12.8892 12.042V10.0073C12.8892 9.96159 12.8204 9.91587 12.7745 9.93873L11.0532 10.9218C11.0073 10.9446 10.9614 10.9903 10.9614 11.0361Z" fill="#156FF7"/>
<path fill-rule="evenodd" clip-rule="evenodd" d="M8.12668 12.235L6.38243 11.2291C6.33654 11.2062 6.26768 11.252 6.26768 11.2977V13.3094C6.26768 13.3781 6.29063 13.4238 6.33654 13.4467L8.08078 14.4526C8.12668 14.4753 8.19553 14.4297 8.19553 14.384V12.3722C8.19553 12.3035 8.17259 12.2579 8.12668 12.235Z" fill="#156FF7"/>
<path fill-rule="evenodd" clip-rule="evenodd" d="M8.12668 9.55449L6.38243 8.54855C6.33654 8.5257 6.26768 8.57142 6.26768 8.61714V10.6289C6.26768 10.6975 6.29063 10.7433 6.33654 10.7661L8.08078 11.772C8.12668 11.7948 8.19553 11.7492 8.19553 11.7034V9.69163C8.19553 9.62301 8.17259 9.57736 8.12668 9.55449Z" fill="#156FF7"/>
<path fill-rule="evenodd" clip-rule="evenodd" d="M10.4735 10.8993L8.72929 9.89336C8.68339 9.87051 8.61454 9.91622 8.61454 9.96195V11.9737C8.61454 12.0423 8.63749 12.0881 8.68339 12.1109L10.4276 13.1168C10.4735 13.1396 10.5424 13.094 10.5424 13.0482V11.0364C10.5424 10.9678 10.5194 10.9222 10.4735 10.8993Z" fill="#156FF7"/>
<path fill-rule="evenodd" clip-rule="evenodd" d="M6.60047 8.0572L8.34474 7.07417C8.39067 7.0513 8.45945 7.0513 8.48241 7.07417L10.2496 8.08007C10.2955 8.12579 10.2955 8.19436 10.2496 8.21723L8.50537 9.20026C8.45945 9.22312 8.41352 9.22312 8.3677 9.20026L6.60047 8.19437C6.55456 8.14865 6.55456 8.08006 6.60047 8.0572Z" fill="#156FF7"/>
<path fill-rule="evenodd" clip-rule="evenodd" d="M8.93095 9.36026L10.6752 8.37723C10.7211 8.35437 10.7899 8.35437 10.8129 8.37723L12.5801 9.38314C12.626 9.42885 12.626 9.49743 12.5801 9.52029L10.8359 10.5033C10.7899 10.5262 10.744 10.5262 10.6982 10.5033L8.93095 9.49744C8.88505 9.45171 8.88505 9.38313 8.93095 9.36026Z" fill="#156FF7"/>
<path fill-rule="evenodd" clip-rule="evenodd" d="M12.7745 9.93873C12.7803 9.93585 12.7864 9.93406 12.7928 9.93322C12.7929 9.9332 12.793 9.93319 12.7931 9.93318C12.7985 9.93249 12.804 9.93249 12.8095 9.9331C12.8542 9.92402 12.9102 9.96525 12.9102 10.0065V12.0411C12.9102 12.0414 12.9102 12.0417 12.9102 12.042C12.9096 12.0646 12.887 12.0872 12.8643 12.1097L11.0971 13.1156C11.0913 13.1185 11.0851 13.1203 11.0788 13.1211C11.0787 13.1212 11.0786 13.1212 11.0785 13.1212C11.0731 13.1219 11.0676 13.1219 11.0621 13.1213C11.0174 13.1303 10.9614 13.0891 10.9614 13.0479V11.0361C10.9614 11.0358 10.9614 11.0355 10.9614 11.0352C10.9619 10.9898 11.0076 10.9445 11.0532 10.9218L12.7745 9.93873ZM11.144 12.8919L12.7276 11.9905V10.1628L11.1503 11.0636L11.1462 11.0656C11.1455 11.066 11.1448 11.0664 11.144 11.0668V12.8919ZM6.40339 11.2283L8.14764 12.2342C8.19355 12.2571 8.21649 12.3027 8.21649 12.3713V14.3831C8.21649 14.3834 8.21649 14.3837 8.21648 14.384C8.21577 14.4233 8.16459 14.4622 8.12125 14.4574C8.11365 14.4587 8.10602 14.459 8.09863 14.458C8.09848 14.458 8.09832 14.458 8.09817 14.4579C8.09215 14.4571 8.0863 14.4553 8.08078 14.4526L6.33654 13.4467C6.29063 13.4238 6.26768 13.3781 6.26768 13.3094V11.2977C6.26768 11.2974 6.26768 11.2971 6.26769 11.2969C6.2684 11.2576 6.31956 11.2186 6.36288 11.2234C6.3705 11.2221 6.37815 11.2218 6.38555 11.2228C6.38571 11.2228 6.38586 11.2229 6.38601 11.2229C6.39203 11.2238 6.39788 11.2255 6.40339 11.2283ZM8.03391 14.2261V12.3722C8.03391 12.3707 8.03388 12.3693 8.03385 12.3681L6.45026 11.4548V13.3086C6.45026 13.3101 6.45028 13.3115 6.45032 13.3128L8.03391 14.2261ZM6.40339 8.54773L8.14764 9.55367C8.19355 9.57654 8.21649 9.62218 8.21649 9.6908V11.7026C8.21649 11.7029 8.21649 11.7031 8.21648 11.7034C8.21577 11.7427 8.16458 11.7817 8.12125 11.7768C8.11365 11.7782 8.10602 11.7785 8.09863 11.7775C8.09848 11.7774 8.09832 11.7774 8.09817 11.7774C8.09215 11.7765 8.0863 11.7748 8.08078 11.772L6.33654 10.7661C6.29063 10.7433 6.26768 10.6975 6.26768 10.6289V8.61714C6.26768 8.61687 6.26768 8.61659 6.26769 8.61632C6.2684 8.57702 6.31956 8.53804 6.36288 8.54289C6.3705 8.54152 6.37815 8.54124 6.38555 8.54228C6.38571 8.5423 6.38586 8.54232 6.38601 8.54234C6.39203 8.54323 6.39788 8.54498 6.40339 8.54773ZM8.03391 11.5455V9.69163C8.03391 9.69015 8.03388 9.68878 8.03385 9.68752L6.45026 8.77425V10.6281C6.45026 10.6296 6.45028 10.631 6.45032 10.6323L8.03391 11.5455ZM8.75025 9.89253L10.4945 10.8985C10.5404 10.9213 10.5633 10.967 10.5633 11.0356V13.0474C10.5633 13.0477 10.5633 13.048 10.5633 13.0482C10.5626 13.0875 10.5114 13.1265 10.4681 13.1217C10.4605 13.123 10.4529 13.1233 10.4455 13.1223C10.4453 13.1223 10.4452 13.1222 10.445 13.1222C10.439 13.1213 10.4332 13.1196 10.4276 13.1168L8.68339 12.1109C8.63749 12.0881 8.61454 12.0423 8.61454 11.9737V9.96195C8.61454 9.96167 8.61454 9.9614 8.61454 9.96112C8.61525 9.92183 8.66641 9.88284 8.70974 9.88769C8.71735 9.88633 8.72501 9.88605 8.73241 9.88708C8.73256 9.8871 8.73272 9.88713 8.73287 9.88715C8.73889 9.88803 8.74473 9.88979 8.75025 9.89253ZM10.3808 12.8903V11.0364C10.3808 11.035 10.3807 11.0336 10.3807 11.0323L8.79712 10.1191V11.9729C8.79712 11.9744 8.79714 11.9758 8.79718 11.9771L10.3808 12.8903ZM11.1207 16.4567L11.1166 16.4588C11.1159 16.4591 11.1152 16.4595 11.1144 16.46V18.2961L12.719 17.3828V15.5439L11.1207 16.4567ZM12.7658 15.3311C12.8117 15.3082 12.8806 15.3539 12.8806 15.3996V17.4343C12.8806 17.4571 12.8576 17.48 12.8347 17.5029L11.0675 18.5088C11.0216 18.5316 10.9527 18.4859 10.9527 18.4402V16.4284C10.9527 16.3827 10.9986 16.3369 11.0445 16.3141L12.7658 15.3311ZM13.4685 15.1068L13.4644 15.1088C13.4637 15.1092 13.4629 15.1096 13.4622 15.11V16.9462L15.0668 16.0328V14.194L13.4685 15.1068ZM15.1136 13.9811L13.3923 14.9642C13.3464 14.987 13.3005 15.0327 13.3005 15.0785V17.0902C13.3005 17.136 13.3694 17.1817 13.4153 17.1588L15.1825 16.153C15.2054 16.1301 15.2284 16.1072 15.2284 16.0844V14.0497C15.2284 14.004 15.1595 13.9583 15.1136 13.9811ZM15.8163 13.8074L15.8121 13.8094C15.8115 13.8098 15.8107 13.8102 15.8099 13.8106V15.6468L17.4145 14.7334V12.8946L15.8163 13.8074ZM17.4614 12.6817C17.5073 12.6588 17.5762 12.7046 17.5762 12.7503V14.7849C17.5762 14.8078 17.5532 14.8307 17.5303 14.8535L15.7631 15.8594C15.7172 15.8823 15.6483 15.8365 15.6483 15.7908V13.779C15.6483 13.7333 15.6942 13.6876 15.7401 13.6647L17.4614 12.6817ZM15.8163 11.1541L15.8121 11.1562C15.8115 11.1565 15.8107 11.1569 15.8099 11.1574V12.9935L17.4145 12.0802V10.2413L15.8163 11.1541ZM17.4614 10.0285L15.7401 11.0115C15.6942 11.0343 15.6483 11.0801 15.6483 11.1258V13.1376C15.6483 13.1833 15.7172 13.229 15.7631 13.2062L17.5303 12.2003C17.5532 12.1774 17.5762 12.1546 17.5762 12.1317V10.097C17.5762 10.0513 17.5073 10.0056 17.4614 10.0285ZM15.8163 8.44053L15.8121 8.44258C15.8115 8.44291 15.8107 8.44331 15.8099 8.44377V10.2799L17.4145 9.36658V7.52775L15.8163 8.44053ZM17.4614 7.31486C17.5073 7.292 17.5762 7.33772 17.5762 7.38344V9.4181C17.5762 9.44096 17.5532 9.46383 17.5303 9.48668L15.7631 10.4926C15.7172 10.5154 15.6483 10.4697 15.6483 10.424V8.4122C15.6483 8.36647 15.6942 8.32075 15.7401 8.2979L17.4614 7.31486ZM9.15958 6.79339L10.7658 5.88817L12.395 6.81554L10.7889 7.72075L9.15958 6.79339ZM10.72 7.8675L8.95273 6.86162C8.90683 6.81589 8.90683 6.74731 8.95273 6.72444L10.697 5.74141C10.7429 5.71855 10.8117 5.71855 10.8347 5.74141L12.6018 6.74732C12.6478 6.79303 12.6478 6.86161 12.6018 6.88447L10.8576 7.8675C10.8117 7.89037 10.7658 7.89037 10.72 7.8675ZM11.4315 5.43095L13.0607 6.35831L14.6669 5.4531L13.0377 4.52573L11.4315 5.43095ZM14.8737 5.38488L13.1065 4.37897C13.0836 4.35611 13.0148 4.35611 12.9689 4.37897L11.2246 5.362C11.1787 5.38487 11.1787 5.45345 11.2246 5.49918L12.9918 6.50506C13.0377 6.52793 13.0836 6.52793 13.1295 6.50506L14.8737 5.52203C14.9196 5.49917 14.9196 5.43059 14.8737 5.38488ZM13.7837 6.79339L15.4129 7.72075L17.0191 6.81554L15.3899 5.88817L13.7837 6.79339ZM17.2259 6.74732C17.2719 6.79303 17.2719 6.86161 17.2259 6.88447L15.4817 7.8675C15.4358 7.89037 15.3899 7.89037 15.3441 7.8675L13.5768 6.86162C13.5309 6.81589 13.5309 6.74731 13.5768 6.72444L15.3211 5.74141C15.367 5.71855 15.4358 5.71855 15.4588 5.74141L17.2259 6.74732ZM6.68776 5.4998L8.45499 6.50568C8.50081 6.52854 8.54674 6.52854 8.59266 6.50568L10.3369 5.52265C10.3828 5.49979 10.3828 5.43121 10.3369 5.38549L8.5697 4.37959C8.54674 4.35673 8.47795 4.35673 8.43203 4.37959L6.68776 5.36262C6.64185 5.38548 6.64185 5.45407 6.68776 5.4998ZM8.50081 4.52635L6.89461 5.43157L8.52388 6.35893L10.13 5.45371L8.50081 4.52635ZM8.51003 4.52408C8.51005 4.52408 8.50995 4.52408 8.50972 4.52406C8.50991 4.52407 8.51001 4.52407 8.51003 4.52408ZM9.16648 4.06912L10.7727 3.1639L12.4019 4.09127L10.7957 4.99648L9.16648 4.06912ZM10.7269 5.14324L8.95963 4.13736C8.91372 4.09163 8.91372 4.02304 8.95963 4.00018L10.7039 3.01715C10.7498 2.99428 10.8186 2.99428 10.8416 3.01715L12.6087 4.02305C12.6547 4.06877 12.6547 4.13735 12.6087 4.16021L10.8645 5.14324C10.8186 5.1661 10.7727 5.1661 10.7269 5.14324ZM4.5355 6.79339L6.16477 7.72075L7.7709 6.81554L6.1417 5.88817L4.5355 6.79339ZM6.15092 5.8859C6.15095 5.8859 6.15085 5.8859 6.15061 5.88589C6.15079 5.88589 6.1509 5.8859 6.15092 5.8859ZM7.97776 6.74732C8.02369 6.79303 8.02369 6.86161 7.97776 6.88447L6.23355 7.8675C6.18763 7.89037 6.1417 7.89037 6.09588 7.8675L4.32865 6.86162C4.28274 6.81589 4.28274 6.74731 4.32865 6.72444L6.07292 5.74141C6.11885 5.71855 6.18763 5.71855 6.21059 5.74141L7.97776 6.74732ZM5.76617 11.1225L4.16162 10.1971L4.16162 12.0639C4.16162 12.0654 4.16164 12.0668 4.16168 12.0681L5.76623 12.9934V11.1266C5.76623 11.1251 5.76621 11.1237 5.76617 11.1225ZM5.8131 13.207L4.06886 12.2011C4.02295 12.1782 4 12.1325 4 12.0639V10.0521C4 10.0064 4.06886 9.96065 4.11475 9.9835L5.859 10.9894C5.90491 11.0123 5.92785 11.058 5.92785 11.1266V13.1384C5.92785 13.1841 5.859 13.2298 5.8131 13.207ZM5.76617 13.802C5.76621 13.8032 5.76623 13.8046 5.76623 13.8061V15.6729L4.16168 14.7476C4.16164 14.7463 4.16162 14.7449 4.16162 14.7434L4.16162 12.8766L5.76617 13.802ZM4.11475 12.663L5.859 13.669C5.90491 13.6918 5.92785 13.7375 5.92785 13.8061V15.8179C5.92785 15.8636 5.859 15.9093 5.8131 15.8865L4.06886 14.8806C4.02295 14.8577 4 14.812 4 14.7434V12.7316C4 12.6859 4.06886 12.6402 4.11475 12.663ZM8.06396 15.0634C8.064 15.0647 8.06402 15.0661 8.06402 15.0676L8.06402 16.9344L6.45948 16.009C6.45944 16.0077 6.45942 16.0063 6.45942 16.0048V14.1381L8.06396 15.0634ZM6.41254 13.9245L8.1568 14.9304C8.2027 14.9533 8.22564 14.9989 8.22564 15.0676L8.22564 17.0793C8.22564 17.1251 8.1568 17.1707 8.11089 17.148L6.36665 16.1421C6.32075 16.1192 6.29779 16.0734 6.29779 16.0048V13.9931C6.29779 13.9473 6.36665 13.9016 6.41254 13.9245ZM10.3905 16.4251L8.78591 15.4997V17.3664C8.78591 17.368 8.78593 17.3694 8.78598 17.3706L10.3905 18.296V16.4292C10.3905 16.4277 10.3905 16.4263 10.3905 16.4251ZM10.4374 18.5096L8.69315 17.5037C8.64724 17.4808 8.62429 17.4351 8.62429 17.3664V15.3547C8.62429 15.309 8.69315 15.2632 8.73904 15.2861L10.4833 16.292C10.5292 16.3149 10.5521 16.3606 10.5521 16.4292V18.441C10.5521 18.4867 10.4833 18.5323 10.4374 18.5096ZM5.76617 8.4019L4.16162 7.47654L4.16162 9.34328C4.16162 9.3448 4.16164 9.3462 4.16168 9.34748L5.76623 10.2728V8.406C5.76623 8.40453 5.76621 8.40316 5.76617 8.4019ZM4.11475 7.26293L5.859 8.26887C5.90491 8.29174 5.92785 8.33738 5.92785 8.406V10.4178C5.92785 10.4635 5.859 10.5092 5.8131 10.4864L4.06886 9.48052C4.02295 9.45765 4 9.4119 4 9.34328V7.33152C4 7.28579 4.06886 7.24008 4.11475 7.26293ZM6.60047 8.19437C6.55456 8.14865 6.55456 8.08006 6.60047 8.0572L8.34474 7.07417C8.35024 7.07143 8.35606 7.06902 8.36209 7.06694C8.36221 7.0669 8.36233 7.06686 8.36245 7.06682C8.38262 7.05991 8.4051 7.05666 8.42551 7.05705C8.44921 7.05478 8.47216 7.05703 8.48832 7.06379C8.48937 7.06422 8.49039 7.06468 8.49138 7.06516C8.49613 7.06745 8.50019 7.07018 8.50337 7.07334L10.2705 8.07925C10.3165 8.12496 10.3165 8.19354 10.2705 8.2164L8.52633 9.19943C8.5206 9.20229 8.51487 9.20479 8.50913 9.20693C8.50901 9.20698 8.50889 9.20702 8.50876 9.20707C8.48998 9.21403 8.4712 9.21717 8.45242 9.21649C8.42979 9.2191 8.40717 9.21615 8.38457 9.20764C8.38441 9.20758 8.38425 9.20752 8.38409 9.20746C8.37863 9.20539 8.37317 9.20299 8.3677 9.20026L6.60047 8.19437ZM6.82828 8.12532L8.42322 7.22644L10.0427 8.14829L8.44785 9.04716L6.82828 8.12532ZM8.93095 9.49744C8.88505 9.45171 8.88505 9.38313 8.93095 9.36026L10.6752 8.37723C10.6807 8.37449 10.6865 8.37209 10.6926 8.37C10.6927 8.36996 10.6928 8.36992 10.6929 8.36988C10.7131 8.36298 10.7356 8.35972 10.756 8.36011C10.7797 8.35784 10.8026 8.36009 10.8188 8.36685C10.8199 8.36729 10.8209 8.36775 10.8219 8.36822C10.8266 8.37051 10.8307 8.37324 10.8339 8.37641L12.601 9.38231C12.647 9.42803 12.647 9.4966 12.601 9.51947L10.8568 10.5025C10.8511 10.5054 10.8453 10.5079 10.8396 10.51C10.8395 10.51 10.8394 10.5101 10.8392 10.5101C10.8205 10.5171 10.8017 10.5202 10.7829 10.5196C10.7603 10.5222 10.7377 10.5192 10.7151 10.5107C10.7149 10.5106 10.7147 10.5106 10.7146 10.5105C10.7091 10.5084 10.7036 10.506 10.6982 10.5033L8.93095 9.49744ZM9.15876 9.42838L10.7537 8.52951L12.3732 9.45136L10.7783 10.3502L9.15876 9.42838ZM11.4638 8.12532L13.093 9.05268L14.6992 8.14747L13.07 7.2201L11.4638 8.12532ZM14.906 8.07925L13.1389 7.07334C13.1159 7.05048 13.0471 7.05048 13.0012 7.07334L11.2569 8.05637C11.211 8.07924 11.211 8.14782 11.2569 8.19355L13.0242 9.19943C13.07 9.2223 13.1159 9.2223 13.1618 9.19943L14.906 8.2164C14.952 8.19354 14.952 8.12496 14.906 8.07925ZM13.4298 9.71877L13.4257 9.72082C13.4251 9.72115 13.4243 9.72155 13.4235 9.72201V11.5582L15.0281 10.6448V8.80599L13.4298 9.71877ZM15.075 8.5931L13.3537 9.57614C13.3078 9.59899 13.2619 9.64472 13.2619 9.69044V11.7022C13.2619 11.7479 13.3307 11.7937 13.3766 11.7708L15.1438 10.7649C15.1668 10.7421 15.1897 10.7192 15.1897 10.6963V8.66168C15.1897 8.61596 15.1209 8.57024 15.075 8.5931ZM13.4298 12.3993L13.4257 12.4014C13.4251 12.4017 13.4243 12.4021 13.4235 12.4025V14.2387L15.0281 13.3254V11.4865L13.4298 12.3993ZM15.075 11.2736C15.1209 11.2508 15.1897 11.2965 15.1897 11.3422V13.3769C15.1897 13.3997 15.1668 13.4226 15.1438 13.4455L13.3766 14.4514C13.3307 14.4742 13.2619 14.4285 13.2619 14.3828V12.371C13.2619 12.3253 13.3078 12.2795 13.3537 12.2567L15.075 11.2736ZM11.1266 13.6833L11.1225 13.6854C11.1219 13.6857 11.1211 13.6861 11.1203 13.6866V15.5227L12.7249 14.6094V12.7705L11.1266 13.6833ZM12.7718 12.5576L11.0505 13.5407C11.0046 13.5635 10.9587 13.6093 10.9587 13.655V15.6668C10.9587 15.7125 11.0275 15.7582 11.0735 15.7354L12.8406 14.7295C12.8636 14.7066 12.8865 14.6837 12.8865 14.6609V12.6262C12.8865 12.5805 12.8177 12.5348 12.7718 12.5576ZM10.4017 13.6966C10.4017 13.6979 10.4017 13.6992 10.4017 13.7007V15.5675L8.79718 14.6422C8.79714 14.6409 8.79712 14.6395 8.79712 14.638V12.7712L10.4017 13.6966ZM8.75025 12.5576L10.4945 13.5636C10.5404 13.5865 10.5633 13.6321 10.5633 13.7007V15.7125C10.5633 15.7583 10.4945 15.8039 10.4486 15.7811L8.70435 14.7752C8.65845 14.7524 8.6355 14.7066 8.6355 14.638V12.6262C8.6355 12.5805 8.70435 12.5348 8.75025 12.5576Z" fill="#D9DEE2"/>
<rect x="0.75" y="0.75" width="20.5" height="20.5" rx="10.25" stroke="#CBD5E1" stroke-width="0.5"/>
</svg>
