<svg width="22" height="22" viewBox="0 0 22 22" fill="none" xmlns="http://www.w3.org/2000/svg">
<rect x="0.75" y="0.75" width="20.5" height="20.5" rx="10.25" fill="white"/>
<g clip-path="url(#clip0_359_6812)">
<path d="M8.44598 6.69128H7.51189L7.04517 7.50236L7.51189 8.31344H8.44598L8.91302 7.50236L8.44598 6.69128Z" fill="#1F6CE0"/>
<path d="M8.44598 4.94641H7.51189L7.04517 5.75749L7.51189 6.56856H8.44598L8.91302 5.75749L8.44598 4.94641Z" fill="#D9DEE2"/>
<path d="M8.44598 8.4375H7.51189L7.04517 9.24858L7.51189 10.0597H8.44598L8.91302 9.24858L8.44598 8.4375Z" fill="#1F6CE0"/>
<path d="M8.44598 10.1836H7.51189L7.04517 10.9944L7.51189 11.8054H8.44598L8.91302 10.9944L8.44598 10.1836Z" fill="#1F6CE0"/>
<path d="M8.44525 11.9303H7.51147L7.04443 12.7414L7.51147 13.5521H8.44525L8.91229 12.7414L8.44525 11.9303Z" fill="#1F6CE0"/>
<path d="M8.44525 13.6768H7.51147L7.04443 14.4878L7.51147 15.2989H8.44525L8.91229 14.4878L8.44525 13.6768Z" fill="#1F6CE0"/>
<path d="M5.42822 6.69128H4.49414L4.0271 7.50236L4.49414 8.31344H5.42822L5.89496 7.50236L5.42822 6.69128Z" fill="#D9DEE2"/>
<path d="M5.42822 8.4375H4.49414L4.0271 9.24858L4.49414 10.0597H5.42822L5.89496 9.24858L5.42822 8.4375Z" fill="#D9DEE2"/>
<path d="M5.42822 10.1836H4.49414L4.0271 10.9944L4.49414 11.8054H5.42822L5.89496 10.9944L5.42822 10.1836Z" fill="#D9DEE2"/>
<path d="M5.42767 11.9303H4.49359L4.02686 12.7414L4.49359 13.5521H5.42767L5.89471 12.7414L5.42767 11.9303Z" fill="#D9DEE2"/>
<path d="M5.42767 13.6768H4.49359L4.02686 14.4878L4.49359 15.2989H5.42767L5.89471 14.4878L5.42767 13.6768Z" fill="#D9DEE2"/>
<path d="M8.44525 15.4236H7.51147L7.04443 16.2347L7.51147 17.0454H8.44525L8.91229 16.2347L8.44525 15.4236Z" fill="#D9DEE2"/>
<path d="M11.4592 6.69128H10.5254L10.0583 7.50236L10.5254 8.31344H11.4592L11.9262 7.50236L11.4592 6.69128Z" fill="#D9DEE2"/>
<path d="M11.4592 4.94641H10.5254L10.0583 5.75749L10.5254 6.56856H11.4592L11.9262 5.75749L11.4592 4.94641Z" fill="#D9DEE2"/>
<path d="M11.4592 3.19995H10.5254L10.0583 4.01103L10.5254 4.8221H11.4592L11.9262 4.01103L11.4592 3.19995Z" fill="#D9DEE2"/>
<path d="M11.4592 8.4375H10.5254L10.0583 9.24858L10.5254 10.0597H11.4592L11.9262 9.24858L11.4592 8.4375Z" fill="#1F6CE0"/>
<path d="M11.4592 10.1836H10.5254L10.0583 10.9944L10.5254 11.8054H11.4592L11.9262 10.9944L11.4592 10.1836Z" fill="#33A3BB"/>
<path d="M11.4587 11.9303H10.5249L10.0579 12.7414L10.5249 13.5521H11.4587L11.9257 12.7414L11.4587 11.9303Z" fill="#33A3BB"/>
<path d="M11.4587 13.6768H10.5249L10.0579 14.4878L10.5249 15.2989H11.4587L11.9257 14.4878L11.4587 13.6768Z" fill="#3FC399"/>
<path d="M11.4587 15.4236H10.5249L10.0579 16.2347L10.5249 17.0454H11.4587L11.9257 16.2347L11.4587 15.4236Z" fill="#3FC399"/>
<path d="M14.4729 6.69128H13.5388L13.0718 7.50236L13.5388 8.31344H14.4729L14.9396 7.50236L14.4729 6.69128Z" fill="#4AE68D"/>
<path d="M14.4729 4.94641H13.5388L13.0718 5.75749L13.5388 6.56856H14.4729L14.9396 5.75749L14.4729 4.94641Z" fill="#D9DEE2"/>
<path d="M14.4729 8.4375H13.5388L13.0718 9.24858L13.5388 10.0597H14.4729L14.9396 9.24858L14.4729 8.4375Z" fill="#4AE68D"/>
<path d="M14.4729 10.1836H13.5388L13.0718 10.9944L13.5388 11.8054H14.4729L14.9396 10.9944L14.4729 10.1836Z" fill="#4AE68D"/>
<path d="M14.4721 11.9303H13.538L13.0713 12.7414L13.538 13.5521H14.4721L14.9391 12.7414L14.4721 11.9303Z" fill="#4AE68D"/>
<path d="M14.4721 13.6768H13.538L13.0713 14.4878L13.538 15.2989H14.4721L14.9391 14.4878L14.4721 13.6768Z" fill="#4AE68D"/>
<path d="M17.4878 6.69128H16.5537L16.0867 7.50236L16.5537 8.31344H17.4878L17.9545 7.50236L17.4878 6.69128Z" fill="#D9DEE2"/>
<path d="M17.4878 8.4375H16.5537L16.0867 9.24858L16.5537 10.0597H17.4878L17.9545 9.24858L17.4878 8.4375Z" fill="#D9DEE2"/>
<path d="M17.4878 10.1836H16.5537L16.0867 10.9944L16.5537 11.8054H17.4878L17.9545 10.9944L17.4878 10.1836Z" fill="#D9DEE2"/>
<path d="M17.4871 11.9303H16.553L16.0859 12.7414L16.553 13.5521H17.4871L17.9538 12.7414L17.4871 11.9303Z" fill="#D9DEE2"/>
<path d="M17.4871 13.6768H16.553L16.0859 14.4878L16.553 15.2989H17.4871L17.9538 14.4878L17.4871 13.6768Z" fill="#D9DEE2"/>
<path d="M14.4721 15.4236H13.538L13.0713 16.2347L13.538 17.0454H14.4721L14.9391 16.2347L14.4721 15.4236Z" fill="#D9DEE2"/>
<path d="M11.4587 17.1678H10.5249L10.0579 17.9789L10.5249 18.7897H11.4587L11.9257 17.9789L11.4587 17.1678Z" fill="#D9DEE2"/>
<path d="M9.9516 7.56458H9.01782L8.55078 8.37565L9.01782 9.18642H9.9516L10.4186 8.37565L9.9516 7.56458Z" fill="#1F6CE0"/>
<path d="M9.9516 5.81873H9.01782L8.55078 6.6298L9.01782 7.44088H9.9516L10.4186 6.6298L9.9516 5.81873Z" fill="#D9DEE2"/>
<path d="M9.9516 4.07349H9.01782L8.55078 4.88456L9.01782 5.69564H9.9516L10.4186 4.88456L9.9516 4.07349Z" fill="#D9DEE2"/>
<path d="M9.95306 9.31006H9.01898L8.55225 10.1211L9.01898 10.9322H9.95306L10.4198 10.1211L9.95306 9.31006Z" fill="#1F6CE0"/>
<path d="M9.95306 11.0568H9.01898L8.55225 11.8678L9.01898 12.6789H9.95306L10.4198 11.8678L9.95306 11.0568Z" fill="#1F6CE0"/>
<path d="M9.95306 12.8024H9.01898L8.55225 13.6134L9.01898 14.4245H9.95306L10.4198 13.6134L9.95306 12.8024Z" fill="#3FC399"/>
<path d="M9.95306 14.5491H9.01898L8.55225 15.3601L9.01898 16.1712H9.95306L10.4198 15.3601L9.95306 14.5491Z" fill="#3FC399"/>
<path d="M6.93548 7.56458H6.00171L5.53467 8.37565L6.00171 9.18642H6.93548L7.40253 8.37565L6.93548 7.56458Z" fill="#1F6CE0"/>
<path d="M6.93548 5.81873H6.00171L5.53467 6.6298L6.00171 7.44088H6.93548L7.40253 6.6298L6.93548 5.81873Z" fill="#D9DEE2"/>
<path d="M6.93694 9.31006H6.00286L5.53613 10.1211L6.00286 10.9322H6.93694L7.40399 10.1211L6.93694 9.31006Z" fill="#1F6CE0"/>
<path d="M6.93694 11.0568H6.00286L5.53613 11.8678L6.00286 12.6789H6.93694L7.40399 11.8678L6.93694 11.0568Z" fill="#1F6CE0"/>
<path d="M6.93694 12.8024H6.00286L5.53613 13.6134L6.00286 14.4245H6.93694L7.40399 13.6134L6.93694 12.8024Z" fill="#1F6CE0"/>
<path d="M6.93694 14.5491H6.00286L5.53613 15.3601L6.00286 16.1712H6.93694L7.40399 15.3601L6.93694 14.5491Z" fill="#D9DEE2"/>
<path d="M9.95306 16.2959H9.01898L8.55225 17.107L9.01898 17.918H9.95306L10.4198 17.107L9.95306 16.2959Z" fill="#D9DEE2"/>
<path d="M12.9643 7.56458H12.0302L11.5635 8.37565L12.0302 9.18642H12.9643L13.4313 8.37565L12.9643 7.56458Z" fill="#4AE68D"/>
<path d="M12.9643 5.81873H12.0302L11.5635 6.6298L12.0302 7.44088H12.9643L13.4313 6.6298L12.9643 5.81873Z" fill="#D9DEE2"/>
<path d="M12.9643 4.07349H12.0302L11.5635 4.88456L12.0302 5.69564H12.9643L13.4313 4.88456L12.9643 4.07349Z" fill="#D9DEE2"/>
<path d="M12.9658 9.31006H12.0317L11.5647 10.1211L12.0317 10.9322H12.9658L13.4326 10.1211L12.9658 9.31006Z" fill="#33A3BB"/>
<path d="M12.9658 11.0568H12.0317L11.5647 11.8678L12.0317 12.6789H12.9658L13.4326 11.8678L12.9658 11.0568Z" fill="#33A3BB"/>
<path d="M12.9658 12.8024H12.0317L11.5647 13.6134L12.0317 14.4245H12.9658L13.4326 13.6134L12.9658 12.8024Z" fill="#4AE68D"/>
<path d="M12.9658 14.5491H12.0317L11.5647 15.3601L12.0317 16.1712H12.9658L13.4326 15.3601L12.9658 14.5491Z" fill="#4AE68D"/>
<path d="M15.9785 7.56458H15.0444L14.5774 8.37565L15.0444 9.18642H15.9785L16.4456 8.37565L15.9785 7.56458Z" fill="#4AE68D"/>
<path d="M15.9785 5.81873H15.0444L14.5774 6.6298L15.0444 7.44088H15.9785L16.4456 6.6298L15.9785 5.81873Z" fill="#D9DEE2"/>
<path d="M15.9797 9.31006H15.0459L14.5789 10.1211L15.0459 10.9322H15.9797L16.4467 10.1211L15.9797 9.31006Z" fill="#4AE68D"/>
<path d="M15.9797 11.0568H15.0459L14.5789 11.8678L15.0459 12.6789H15.9797L16.4467 11.8678L15.9797 11.0568Z" fill="#4AE68D"/>
<path d="M15.9797 12.8024H15.0459L14.5789 13.6134L15.0459 14.4245H15.9797L16.4467 13.6134L15.9797 12.8024Z" fill="#4AE68D"/>
<path d="M15.9797 14.5491H15.0459L14.5789 15.3601L15.0459 16.1712H15.9797L16.4467 15.3601L15.9797 14.5491Z" fill="#D9DEE2"/>
<path d="M12.9658 16.2959H12.0317L11.5647 17.107L12.0317 17.918H12.9658L13.4326 17.107L12.9658 16.2959Z" fill="#D9DEE2"/>
</g>
<rect x="0.75" y="0.75" width="20.5" height="20.5" rx="10.25" stroke="#CBD5E1" stroke-width="0.5"/>
<defs>
<clipPath id="clip0_359_6812">
<rect width="13.9462" height="15.6" fill="white" transform="translate(4.02686 3.19995)"/>
</clipPath>
</defs>
</svg>
