<svg width="10" height="10" viewBox="0 0 10 10" fill="none" xmlns="http://www.w3.org/2000/svg">
<path d="M8.51939 1.04944V1.43165V1.58954C8.51939 1.96828 8.21129 2.27649 7.83244 2.27649H7.71118C7.33244 2.27649 7.02423 1.96839 7.02423 1.58954V1.43165V1.04944H3.0256V1.43165V1.58954C3.0256 1.96828 2.7175 2.27649 2.33865 2.27649H2.21739C1.83865 2.27649 1.53044 1.96839 1.53044 1.58954V1.43165V1.04944H1.29855C0.75676 1.04944 0.315918 1.49028 0.315918 2.03207V8.70165C0.315918 9.24344 0.75676 9.68428 1.29855 9.68428H7.7436H7.83465V9.67196C7.90265 9.65533 7.96718 9.62112 8.01929 9.56702L9.57097 7.9547C9.6336 7.88954 9.70813 7.80797 9.71581 7.72449V2.03207C9.71581 1.49028 9.27508 1.04944 8.73318 1.04944H8.51939ZM1.08097 8.70154V3.06239H8.95065V7.33428H8.09339C7.76329 7.33428 7.49329 7.60428 7.49329 7.93439V8.91912H1.29855C1.18065 8.91902 1.08097 8.81944 1.08097 8.70154Z" fill="#0992F5"/>
<path d="M2.21758 1.98135H2.33884C2.55495 1.98135 2.73074 1.80556 2.73074 1.58946V0.602405C2.73074 0.3863 2.55495 0.21051 2.33884 0.21051H2.21758C2.00147 0.21051 1.82568 0.3863 1.82568 0.602405V1.58946C1.82568 1.80556 2.00147 1.98135 2.21758 1.98135Z" fill="#0992F5"/>
<path d="M7.71123 1.98135H7.83249C8.0486 1.98135 8.22439 1.80556 8.22439 1.58946V0.602405C8.22428 0.3863 8.04849 0.21051 7.83249 0.21051H7.71123C7.49513 0.21051 7.31934 0.3863 7.31934 0.602405V1.58946C7.31934 1.80556 7.49513 1.98135 7.71123 1.98135Z" fill="#0992F5"/>
<path d="M7.46654 4.81714L6.98233 4.33293C6.91443 4.26504 6.80454 4.26409 6.73548 4.33072L4.61948 6.37388C4.55201 6.43904 4.44517 6.43988 4.37664 6.37567L3.33369 5.39788C3.25927 5.32819 3.14148 5.33598 3.07696 5.41483L2.57106 6.03304C2.51106 6.10641 2.5198 6.2142 2.59106 6.27683L4.37654 7.84809C4.44559 7.90883 4.5498 7.9063 4.6158 7.84209L7.46496 5.06788C7.53527 4.99935 7.53601 4.88662 7.46654 4.81714Z" fill="#0992F5"/>
</svg>
