<svg width="387" height="318" viewBox="0 0 387 318" fill="none" xmlns="http://www.w3.org/2000/svg">
<g filter="url(#filter0_d_2118_25730)">
<rect x="10" y="11.6562" width="366.605" height="296.104" rx="36" fill="white"/>
<path d="M107 8C105.895 8 105 8.89543 105 10C105 11.1046 105.895 12 107 12V8ZM107 12H193.675V8H107V12ZM193.675 12H340.977V8H193.675V12ZM374.977 46V158.052H378.977V46H374.977ZM340.977 12C359.755 12 374.977 27.2223 374.977 46H378.977C378.977 25.0132 361.964 8 340.977 8V12Z" fill="#156FF7"/>
<path d="M10 254V271.913C10 291.795 26.1177 307.913 46 307.913H193.303" stroke="#4AE68D" stroke-width="4" stroke-linecap="round"/>
<path d="M232.54 71.6094H150.064L108.813 140.573L150.064 209.511H232.54L273.792 140.573L232.54 71.6094Z" fill="url(#paint0_angular_2118_25730)"/>
<path d="M232.54 71.6094H150.064L108.813 140.573L150.064 209.511H232.54L273.792 140.573L232.54 71.6094Z" fill="url(#paint1_linear_2118_25730)"/>
<path d="M108.423 155.793L107.554 154.305H105.831H95.4003H93.6772L92.8089 155.793L87.5918 164.737L86.7098 166.249L87.592 167.761L92.8092 176.701L93.6775 178.189H95.4003H105.831H107.554L108.422 176.701L113.639 167.761L114.522 166.249L113.64 164.737L108.423 155.793Z" fill="url(#paint2_angular_2118_25730)"/>
<path d="M108.423 155.793L107.554 154.305H105.831H95.4003H93.6772L92.8089 155.793L87.5918 164.737L86.7098 166.249L87.592 167.761L92.8092 176.701L93.6775 178.189H95.4003H105.831H107.554L108.422 176.701L113.639 167.761L114.522 166.249L113.64 164.737L108.423 155.793Z" fill="#156FF7"/>
<path d="M108.423 155.793L107.554 154.305H105.831H95.4003H93.6772L92.8089 155.793L87.5918 164.737L86.7098 166.249L87.592 167.761L92.8092 176.701L93.6775 178.189H95.4003H105.831H107.554L108.422 176.701L113.639 167.761L114.522 166.249L113.64 164.737L108.423 155.793Z" stroke="white" stroke-width="6"/>
<path d="M235.85 212.434L234.982 210.945H233.258H222.828H221.104L220.236 212.434L215.019 221.378L214.137 222.89L215.019 224.401L220.236 233.342L221.105 234.83H222.828H233.258H234.981L235.85 233.342L241.067 224.401L241.949 222.89L241.067 221.378L235.85 212.434Z" fill="url(#paint3_angular_2118_25730)"/>
<path d="M235.85 212.434L234.982 210.945H233.258H222.828H221.104L220.236 212.434L215.019 221.378L214.137 222.89L215.019 224.401L220.236 233.342L221.105 234.83H222.828H233.258H234.981L235.85 233.342L241.067 224.401L241.949 222.89L241.067 221.378L235.85 212.434Z" fill="#156FF7"/>
<path d="M235.85 212.434L234.982 210.945H233.258H222.828H221.104L220.236 212.434L215.019 221.378L214.137 222.89L215.019 224.401L220.236 233.342L221.105 234.83H222.828H233.258H234.981L235.85 233.342L241.067 224.401L241.949 222.89L241.067 221.378L235.85 212.434Z" stroke="white" stroke-width="6"/>
<path d="M142.133 155.779L141.262 154.305H139.55H125.022H123.31L122.439 155.779L115.172 168.076L114.27 169.603L115.172 171.129L122.439 183.422L123.31 184.896H125.022H139.55H141.262L142.133 183.422L149.4 171.129L150.302 169.603L149.4 168.076L142.133 155.779Z" fill="url(#paint4_angular_2118_25730)"/>
<path d="M142.133 155.779L141.262 154.305H139.55H125.022H123.31L122.439 155.779L115.172 168.076L114.27 169.603L115.172 171.129L122.439 183.422L123.31 184.896H125.022H139.55H141.262L142.133 183.422L149.4 171.129L150.302 169.603L149.4 168.076L142.133 155.779Z" fill="#156FF7"/>
<path d="M142.133 155.779L141.262 154.305H139.55H125.022H123.31L122.439 155.779L115.172 168.076L114.27 169.603L115.172 171.129L122.439 183.422L123.31 184.896H125.022H139.55H141.262L142.133 183.422L149.4 171.129L150.302 169.603L149.4 168.076L142.133 155.779Z" stroke="white" stroke-width="6"/>
<path d="M262.854 164.724L261.983 163.25H260.271H245.742H244.03L243.16 164.724L235.893 177.022L234.991 178.548L235.893 180.075L243.16 192.368L244.031 193.841H245.742H260.271H261.983L262.854 192.368L270.12 180.075L271.023 178.548L270.121 177.022L262.854 164.724Z" fill="url(#paint5_angular_2118_25730)"/>
<path d="M262.854 164.724L261.983 163.25H260.271H245.742H244.03L243.16 164.724L235.893 177.022L234.991 178.548L235.893 180.075L243.16 192.368L244.031 193.841H245.742H260.271H261.983L262.854 192.368L270.12 180.075L271.023 178.548L270.121 177.022L262.854 164.724Z" fill="#156FF7"/>
<path d="M262.854 164.724L261.983 163.25H260.271H245.742H244.03L243.16 164.724L235.893 177.022L234.991 178.548L235.893 180.075L243.16 192.368L244.031 193.841H245.742H260.271H261.983L262.854 192.368L270.12 180.075L271.023 178.548L270.121 177.022L262.854 164.724Z" stroke="white" stroke-width="6"/>
<path d="M240.498 64.8645L239.628 63.3906H237.916H223.387H221.675L220.804 64.8645L213.537 77.1624L212.635 78.6889L213.538 80.2152L220.804 92.5084L221.675 93.9818H223.387H237.916H239.627L240.498 92.5084L247.765 80.2152L248.667 78.6889L247.765 77.1624L240.498 64.8645Z" fill="url(#paint6_angular_2118_25730)"/>
<path d="M240.498 64.8645L239.628 63.3906H237.916H223.387H221.675L220.804 64.8645L213.537 77.1624L212.635 78.6889L213.538 80.2152L220.804 92.5084L221.675 93.9818H223.387H237.916H239.627L240.498 92.5084L247.765 80.2152L248.667 78.6889L247.765 77.1624L240.498 64.8645Z" fill="#6DF1A5"/>
<path d="M240.498 64.8645L239.628 63.3906H237.916H223.387H221.675L220.804 64.8645L213.537 77.1624L212.635 78.6889L213.538 80.2152L220.804 92.5084L221.675 93.9818H223.387H237.916H239.627L240.498 92.5084L247.765 80.2152L248.667 78.6889L247.765 77.1624L240.498 64.8645Z" stroke="white" stroke-width="6"/>
<path d="M211.436 199.747L210.565 198.273H208.853H194.324H192.612L191.742 199.747L184.475 212.045L183.573 213.571L184.475 215.098L191.742 227.391L192.613 228.864H194.324H208.853H210.565L211.436 227.391L218.703 215.098L219.605 213.571L218.703 212.045L211.436 199.747Z" fill="url(#paint7_angular_2118_25730)"/>
<path d="M211.436 199.747L210.565 198.273H208.853H194.324H192.612L191.742 199.747L184.475 212.045L183.573 213.571L184.475 215.098L191.742 227.391L192.613 228.864H194.324H208.853H210.565L211.436 227.391L218.703 215.098L219.605 213.571L218.703 212.045L211.436 199.747Z" fill="#6DF1A5"/>
<path d="M211.436 199.747L210.565 198.273H208.853H194.324H192.612L191.742 199.747L184.475 212.045L183.573 213.571L184.475 215.098L191.742 227.391L192.613 228.864H194.324H208.853H210.565L211.436 227.391L218.703 215.098L219.605 213.571L218.703 212.045L211.436 199.747Z" stroke="white" stroke-width="6"/>
<path d="M265.458 58.8953L264.585 57.4297H262.88H253.566H251.861L250.989 58.8953L246.33 66.7212L245.417 68.2559L246.331 69.7905L250.989 77.6135L251.861 79.0786H253.566H262.88H264.585L265.457 77.6135L270.116 69.7905L271.029 68.2559L270.116 66.7212L265.458 58.8953Z" fill="url(#paint8_angular_2118_25730)"/>
<path d="M265.458 58.8953L264.585 57.4297H262.88H253.566H251.861L250.989 58.8953L246.33 66.7212L245.417 68.2559L246.331 69.7905L250.989 77.6135L251.861 79.0786H253.566H262.88H264.585L265.457 77.6135L270.116 69.7905L271.029 68.2559L270.116 66.7212L265.458 58.8953Z" fill="#6DF1A5"/>
<path d="M265.458 58.8953L264.585 57.4297H262.88H253.566H251.861L250.989 58.8953L246.33 66.7212L245.417 68.2559L246.331 69.7905L250.989 77.6135L251.861 79.0786H253.566H262.88H264.585L265.457 77.6135L270.116 69.7905L271.029 68.2559L270.116 66.7212L265.458 58.8953Z" stroke="white" stroke-width="6"/>
<path d="M244.579 48.4431L243.703 47H242.015H235.682H233.993L233.117 48.4431L229.95 53.6604L229.004 55.2176L229.95 56.7747L233.118 61.99L233.994 63.4326H235.682H242.015H243.703L244.579 61.99L247.746 56.7747L248.692 55.2176L247.747 53.6604L244.579 48.4431Z" fill="url(#paint9_angular_2118_25730)"/>
<path d="M244.579 48.4431L243.703 47H242.015H235.682H233.993L233.117 48.4431L229.95 53.6604L229.004 55.2176L229.95 56.7747L233.118 61.99L233.994 63.4326H235.682H242.015H243.703L244.579 61.99L247.746 56.7747L248.692 55.2176L247.747 53.6604L244.579 48.4431Z" fill="#6DF1A5"/>
<path d="M244.579 48.4431L243.703 47H242.015H235.682H233.993L233.117 48.4431L229.95 53.6604L229.004 55.2176L229.95 56.7747L233.118 61.99L233.994 63.4326H235.682H242.015H243.703L244.579 61.99L247.746 56.7747L248.692 55.2176L247.747 53.6604L244.579 48.4431Z" stroke="white" stroke-width="6"/>
<path d="M261.718 195.248L260.842 193.805H259.154H252.821H251.133L250.257 195.248L247.089 200.465L246.144 202.022L247.089 203.579L250.257 208.795L251.133 210.237H252.821H259.154H260.842L261.718 208.795L264.886 203.579L265.831 202.022L264.886 200.465L261.718 195.248Z" fill="url(#paint10_angular_2118_25730)"/>
<path d="M261.718 195.248L260.842 193.805H259.154H252.821H251.133L250.257 195.248L247.089 200.465L246.144 202.022L247.089 203.579L250.257 208.795L251.133 210.237H252.821H259.154H260.842L261.718 208.795L264.886 203.579L265.831 202.022L264.886 200.465L261.718 195.248Z" fill="#6DF1A5"/>
<path d="M261.718 195.248L260.842 193.805H259.154H252.821H251.133L250.257 195.248L247.089 200.465L246.144 202.022L247.089 203.579L250.257 208.795L251.133 210.237H252.821H259.154H260.842L261.718 208.795L264.886 203.579L265.831 202.022L264.886 200.465L261.718 195.248Z" stroke="white" stroke-width="6"/>
<path fill-rule="evenodd" clip-rule="evenodd" d="M167.124 138.613C167.124 126.815 176.688 117.251 188.486 117.251C200.284 117.251 209.848 126.815 209.848 138.613C209.848 150.411 200.284 159.975 188.486 159.975C176.688 159.975 167.124 150.411 167.124 138.613ZM188.486 111.289C173.396 111.289 161.163 123.522 161.163 138.613C161.163 153.703 173.396 165.936 188.486 165.936C194.957 165.936 200.903 163.687 205.584 159.927L216.807 171.149C217.971 172.313 219.858 172.313 221.022 171.149C222.186 169.985 222.186 168.098 221.022 166.934L209.8 155.711C213.56 151.03 215.81 145.084 215.81 138.613C215.81 123.522 203.577 111.289 188.486 111.289Z" fill="#234230"/>
<path d="M205.584 159.927L206.291 159.22C205.931 158.859 205.356 158.827 204.958 159.147L205.584 159.927ZM216.807 171.149L217.514 170.442V170.442L216.807 171.149ZM221.022 171.149L220.315 170.442L220.315 170.442L221.022 171.149ZM221.022 166.934L220.315 167.641H220.315L221.022 166.934ZM209.8 155.711L209.02 155.085C208.701 155.483 208.732 156.058 209.093 156.418L209.8 155.711ZM188.486 116.251C176.136 116.251 166.124 126.262 166.124 138.613H168.124C168.124 127.367 177.241 118.251 188.486 118.251V116.251ZM210.848 138.613C210.848 126.262 200.836 116.251 188.486 116.251V118.251C199.732 118.251 208.848 127.367 208.848 138.613H210.848ZM188.486 160.975C200.836 160.975 210.848 150.963 210.848 138.613H208.848C208.848 149.858 199.732 158.975 188.486 158.975V160.975ZM166.124 138.613C166.124 150.963 176.136 160.975 188.486 160.975V158.975C177.241 158.975 168.124 149.858 168.124 138.613H166.124ZM162.163 138.613C162.163 124.075 173.948 112.289 188.486 112.289V110.289C172.843 110.289 160.163 122.97 160.163 138.613H162.163ZM188.486 164.936C173.948 164.936 162.163 153.151 162.163 138.613H160.163C160.163 154.255 172.843 166.936 188.486 166.936V164.936ZM204.958 159.147C200.448 162.769 194.722 164.936 188.486 164.936V166.936C195.193 166.936 201.358 164.604 206.21 160.706L204.958 159.147ZM217.514 170.442L206.291 159.22L204.877 160.634L216.1 171.856L217.514 170.442ZM220.315 170.442C219.542 171.216 218.288 171.216 217.514 170.442L216.1 171.856C217.654 173.411 220.175 173.411 221.729 171.856L220.315 170.442ZM220.315 167.641C221.089 168.415 221.089 169.669 220.315 170.442L221.729 171.856C223.284 170.302 223.284 167.781 221.729 166.227L220.315 167.641ZM209.093 156.418L220.315 167.641L221.729 166.227L210.507 155.004L209.093 156.418ZM214.81 138.613C214.81 144.848 212.643 150.575 209.02 155.085L210.579 156.338C214.477 151.485 216.81 145.32 216.81 138.613H214.81ZM188.486 112.289C203.024 112.289 214.81 124.075 214.81 138.613H216.81C216.81 122.97 204.129 110.289 188.486 110.289V112.289Z" fill="#76F3AC"/>
<path d="M197.485 130.485L180.515 147.456" stroke="#234230" stroke-width="3" stroke-linecap="round"/>
<path d="M197.485 147.456L180.515 130.485" stroke="#234230" stroke-width="3" stroke-linecap="round"/>
<path d="M141.245 260.914L136.349 251.81C136.37 252.45 136.386 253.106 136.397 253.778C136.407 254.439 136.413 255.058 136.413 255.634V260.914H134.653V249.874H137.133L142.077 259.042C142.055 258.413 142.039 257.757 142.029 257.074C142.029 256.391 142.029 255.762 142.029 255.186V249.874H143.757L143.773 260.914H141.245ZM149.698 252.194C150.412 252.194 151.036 252.311 151.57 252.546C152.114 252.781 152.562 253.101 152.914 253.506C153.276 253.901 153.548 254.37 153.73 254.914C153.911 255.458 154.002 256.039 154.002 256.658C154.002 257.277 153.911 257.858 153.73 258.402C153.548 258.946 153.276 259.421 152.914 259.826C152.562 260.231 152.114 260.551 151.57 260.786C151.036 261.021 150.412 261.138 149.698 261.138C148.983 261.138 148.354 261.021 147.81 260.786C147.276 260.551 146.828 260.231 146.466 259.826C146.114 259.421 145.847 258.946 145.666 258.402C145.484 257.858 145.394 257.277 145.394 256.658C145.394 256.039 145.484 255.458 145.666 254.914C145.847 254.37 146.114 253.901 146.466 253.506C146.828 253.101 147.276 252.781 147.81 252.546C148.354 252.311 148.983 252.194 149.698 252.194ZM149.698 259.858C150.466 259.858 151.063 259.57 151.49 258.994C151.916 258.407 152.13 257.629 152.13 256.658C152.13 255.687 151.916 254.914 151.49 254.338C151.063 253.762 150.466 253.474 149.698 253.474C148.919 253.474 148.316 253.762 147.89 254.338C147.463 254.914 147.25 255.687 147.25 256.658C147.25 257.629 147.463 258.407 147.89 258.994C148.316 259.57 148.919 259.858 149.698 259.858ZM162.638 252.21C162.862 252.21 163.06 252.242 163.23 252.306V253.682C162.42 253.629 161.78 253.821 161.31 254.258C160.841 254.695 160.606 255.442 160.606 256.498V260.914H158.846V252.418H160.606V253.858L161.326 252.69C161.518 252.541 161.732 252.423 161.966 252.338C162.201 252.253 162.425 252.21 162.638 252.21ZM171.658 256.45C171.658 256.535 171.658 256.637 171.658 256.754C171.658 256.871 171.648 257.005 171.626 257.154H165.53C165.562 257.666 165.642 258.093 165.77 258.434C165.898 258.775 166.058 259.053 166.25 259.266C166.453 259.479 166.682 259.634 166.938 259.73C167.194 259.815 167.466 259.858 167.754 259.858C168.266 259.858 168.704 259.714 169.066 259.426C169.44 259.127 169.669 258.706 169.754 258.162H171.53C171.434 258.663 171.269 259.101 171.034 259.474C170.8 259.847 170.512 260.157 170.17 260.402C169.829 260.647 169.445 260.829 169.018 260.946C168.602 261.074 168.16 261.138 167.69 261.138C167.125 261.138 166.597 261.047 166.106 260.866C165.626 260.685 165.205 260.413 164.842 260.05C164.49 259.677 164.213 259.213 164.01 258.658C163.808 258.093 163.706 257.437 163.706 256.69C163.706 256.018 163.808 255.405 164.01 254.85C164.213 254.295 164.496 253.826 164.858 253.442C165.232 253.047 165.674 252.743 166.186 252.53C166.698 252.306 167.258 252.194 167.866 252.194C168.485 252.194 169.029 252.306 169.498 252.53C169.968 252.743 170.362 253.042 170.682 253.426C171.002 253.81 171.242 254.263 171.402 254.786C171.573 255.298 171.658 255.853 171.658 256.45ZM167.802 253.474C167.194 253.474 166.688 253.677 166.282 254.082C165.888 254.487 165.642 255.101 165.546 255.922H169.85C169.786 255.133 169.584 254.53 169.242 254.114C168.901 253.687 168.421 253.474 167.802 253.474ZM176.067 252.194C177.048 252.194 177.805 252.445 178.339 252.946C178.883 253.437 179.203 254.071 179.299 254.85H177.507C177.421 254.402 177.245 254.055 176.979 253.81C176.723 253.554 176.376 253.426 175.939 253.426C175.523 253.426 175.213 253.533 175.011 253.746C174.808 253.949 174.707 254.21 174.707 254.53C174.707 254.914 174.861 255.207 175.171 255.41C175.48 255.602 175.955 255.783 176.595 255.954C177.533 256.199 178.237 256.525 178.707 256.93C179.187 257.335 179.427 257.917 179.427 258.674C179.427 259.09 179.341 259.453 179.171 259.762C179 260.061 178.765 260.317 178.467 260.53C178.168 260.733 177.816 260.882 177.411 260.978C177.016 261.085 176.584 261.138 176.115 261.138C175.176 261.138 174.381 260.919 173.731 260.482C173.091 260.034 172.712 259.33 172.595 258.37H174.371C174.477 258.914 174.691 259.303 175.011 259.538C175.341 259.773 175.731 259.89 176.179 259.89C176.584 259.89 176.931 259.805 177.219 259.634C177.507 259.453 177.651 259.175 177.651 258.802C177.651 258.429 177.496 258.13 177.187 257.906C176.877 257.682 176.36 257.474 175.635 257.282C175.251 257.186 174.893 257.069 174.563 256.93C174.232 256.791 173.944 256.621 173.699 256.418C173.464 256.215 173.277 255.981 173.139 255.714C173 255.437 172.931 255.111 172.931 254.738C172.931 253.938 173.213 253.314 173.779 252.866C174.355 252.418 175.117 252.194 176.067 252.194ZM188.348 260.914H186.604V259.458L186.012 260.514C185.671 260.759 185.335 260.925 185.004 261.01C184.673 261.095 184.295 261.138 183.868 261.138C183.431 261.138 183.036 261.079 182.684 260.962C182.343 260.845 182.044 260.69 181.788 260.498C181.543 260.295 181.345 260.066 181.196 259.81C181.047 259.543 180.945 259.266 180.892 258.978C180.86 258.765 180.839 258.546 180.828 258.322C180.817 258.098 180.812 257.815 180.812 257.474V252.418H182.556V257.122C182.556 257.261 182.561 257.437 182.572 257.65C182.583 257.863 182.599 258.077 182.62 258.29C182.684 258.759 182.865 259.133 183.164 259.41C183.473 259.687 183.9 259.826 184.444 259.826C184.753 259.826 185.036 259.767 185.292 259.65C185.559 259.522 185.788 259.325 185.98 259.058C186.172 258.781 186.321 258.429 186.428 258.002C186.545 257.565 186.604 257.037 186.604 256.418V252.418H188.348V260.914ZM192.292 258.322C192.292 258.471 192.292 258.61 192.292 258.738C192.292 258.866 192.298 258.994 192.308 259.122C192.33 259.367 192.41 259.533 192.548 259.618C192.687 259.703 192.943 259.73 193.316 259.698V260.93C193.135 260.951 192.948 260.967 192.756 260.978C192.564 260.999 192.367 261.01 192.164 261.01C191.695 261.01 191.316 260.909 191.028 260.706C190.74 260.503 190.58 260.13 190.548 259.586C190.538 259.426 190.532 259.25 190.532 259.058C190.532 258.855 190.532 258.626 190.532 258.37V249.154H192.292V258.322ZM196.88 258.162C196.88 258.311 196.88 258.439 196.88 258.546C196.88 258.642 196.885 258.749 196.896 258.866C196.928 259.282 197.045 259.549 197.248 259.666C197.461 259.783 197.856 259.815 198.432 259.762V260.978C197.984 261.042 197.552 261.074 197.136 261.074C196.464 261.074 195.973 260.946 195.664 260.69C195.365 260.434 195.194 260.023 195.152 259.458C195.141 259.309 195.136 259.143 195.136 258.962C195.136 258.781 195.136 258.567 195.136 258.322V253.714H193.936V252.482H195.136V250.45H196.88V252.482H198.544V253.714H196.88V258.162ZM202.879 252.194C203.86 252.194 204.618 252.445 205.151 252.946C205.695 253.437 206.015 254.071 206.111 254.85H204.319C204.234 254.402 204.058 254.055 203.791 253.81C203.535 253.554 203.188 253.426 202.751 253.426C202.335 253.426 202.026 253.533 201.823 253.746C201.62 253.949 201.519 254.21 201.519 254.53C201.519 254.914 201.674 255.207 201.983 255.41C202.292 255.602 202.767 255.783 203.407 255.954C204.346 256.199 205.05 256.525 205.519 256.93C205.999 257.335 206.239 257.917 206.239 258.674C206.239 259.09 206.154 259.453 205.983 259.762C205.812 260.061 205.578 260.317 205.279 260.53C204.98 260.733 204.628 260.882 204.223 260.978C203.828 261.085 203.396 261.138 202.927 261.138C201.988 261.138 201.194 260.919 200.543 260.482C199.903 260.034 199.524 259.33 199.407 258.37H201.183C201.29 258.914 201.503 259.303 201.823 259.538C202.154 259.773 202.543 259.89 202.991 259.89C203.396 259.89 203.743 259.805 204.031 259.634C204.319 259.453 204.463 259.175 204.463 258.802C204.463 258.429 204.308 258.13 203.999 257.906C203.69 257.682 203.172 257.474 202.447 257.282C202.063 257.186 201.706 257.069 201.375 256.93C201.044 256.791 200.756 256.621 200.511 256.418C200.276 256.215 200.09 255.981 199.951 255.714C199.812 255.437 199.743 255.111 199.743 254.738C199.743 253.938 200.026 253.314 200.591 252.866C201.167 252.418 201.93 252.194 202.879 252.194ZM212.985 251.026C212.964 251.143 212.948 251.282 212.937 251.442C212.937 251.591 212.937 251.725 212.937 251.842V252.482H214.681V253.714H212.937V260.914H211.193V253.714H210.281V252.482H211.193V251.938C211.193 251.789 211.193 251.623 211.193 251.442C211.193 251.25 211.204 251.079 211.225 250.93C211.3 250.269 211.556 249.757 211.993 249.394C212.431 249.031 213.049 248.85 213.849 248.85C214.212 248.85 214.537 248.882 214.825 248.946V250.258C214.303 250.162 213.876 250.178 213.545 250.306C213.225 250.434 213.039 250.674 212.985 251.026ZM219.698 252.194C220.412 252.194 221.036 252.311 221.57 252.546C222.114 252.781 222.562 253.101 222.914 253.506C223.276 253.901 223.548 254.37 223.73 254.914C223.911 255.458 224.002 256.039 224.002 256.658C224.002 257.277 223.911 257.858 223.73 258.402C223.548 258.946 223.276 259.421 222.914 259.826C222.562 260.231 222.114 260.551 221.57 260.786C221.036 261.021 220.412 261.138 219.698 261.138C218.983 261.138 218.354 261.021 217.81 260.786C217.276 260.551 216.828 260.231 216.466 259.826C216.114 259.421 215.847 258.946 215.666 258.402C215.484 257.858 215.394 257.277 215.394 256.658C215.394 256.039 215.484 255.458 215.666 254.914C215.847 254.37 216.114 253.901 216.466 253.506C216.828 253.101 217.276 252.781 217.81 252.546C218.354 252.311 218.983 252.194 219.698 252.194ZM219.698 259.858C220.466 259.858 221.063 259.57 221.49 258.994C221.916 258.407 222.13 257.629 222.13 256.658C222.13 255.687 221.916 254.914 221.49 254.338C221.063 253.762 220.466 253.474 219.698 253.474C218.919 253.474 218.316 253.762 217.89 254.338C217.463 254.914 217.25 255.687 217.25 256.658C217.25 257.629 217.463 258.407 217.89 258.994C218.316 259.57 218.919 259.858 219.698 259.858ZM232.957 260.914H231.213V259.458L230.621 260.514C230.28 260.759 229.944 260.925 229.613 261.01C229.283 261.095 228.904 261.138 228.477 261.138C228.04 261.138 227.645 261.079 227.293 260.962C226.952 260.845 226.653 260.69 226.397 260.498C226.152 260.295 225.955 260.066 225.805 259.81C225.656 259.543 225.555 259.266 225.501 258.978C225.469 258.765 225.448 258.546 225.437 258.322C225.427 258.098 225.421 257.815 225.421 257.474V252.418H227.165V257.122C227.165 257.261 227.171 257.437 227.181 257.65C227.192 257.863 227.208 258.077 227.229 258.29C227.293 258.759 227.475 259.133 227.773 259.41C228.083 259.687 228.509 259.826 229.053 259.826C229.363 259.826 229.645 259.767 229.901 259.65C230.168 259.522 230.397 259.325 230.589 259.058C230.781 258.781 230.931 258.429 231.037 258.002C231.155 257.565 231.213 257.037 231.213 256.418V252.418H232.957V260.914ZM242.71 254.626C242.731 254.839 242.742 255.058 242.742 255.282C242.752 255.506 242.758 255.789 242.758 256.13V260.914H240.998V256.322C240.998 256.119 240.998 255.922 240.998 255.73C240.998 255.538 240.987 255.335 240.966 255.122C240.923 254.642 240.763 254.253 240.486 253.954C240.219 253.645 239.782 253.49 239.174 253.49C238.875 253.49 238.587 253.554 238.31 253.682C238.043 253.81 237.808 254.018 237.606 254.306C237.414 254.594 237.259 254.967 237.142 255.426C237.024 255.885 236.966 256.445 236.966 257.106V260.914H235.206V252.418H236.966V253.826L237.542 252.85C237.883 252.594 238.219 252.423 238.55 252.338C238.88 252.242 239.259 252.194 239.686 252.194C240.603 252.194 241.312 252.413 241.814 252.85C242.326 253.287 242.624 253.879 242.71 254.626ZM252.717 260.914H250.957V259.57L250.317 260.498C250.071 260.69 249.746 260.845 249.341 260.962C248.946 261.079 248.53 261.138 248.093 261.138C247.485 261.138 246.941 261.031 246.461 260.818C245.991 260.594 245.591 260.29 245.261 259.906C244.941 259.522 244.695 259.063 244.525 258.53C244.354 257.997 244.269 257.421 244.269 256.802C244.269 256.023 244.381 255.346 244.605 254.77C244.829 254.194 245.127 253.714 245.501 253.33C245.874 252.946 246.311 252.663 246.813 252.482C247.314 252.29 247.837 252.194 248.381 252.194C248.733 252.194 249.101 252.242 249.485 252.338C249.879 252.423 250.183 252.551 250.397 252.722L250.957 253.57V249.154H252.717V260.914ZM248.493 259.858C248.823 259.858 249.138 259.805 249.437 259.698C249.735 259.581 249.997 259.399 250.221 259.154C250.445 258.909 250.621 258.589 250.749 258.194C250.887 257.799 250.957 257.319 250.957 256.754V256.306C250.957 255.794 250.882 255.357 250.733 254.994C250.594 254.631 250.413 254.338 250.189 254.114C249.965 253.89 249.709 253.73 249.421 253.634C249.143 253.527 248.861 253.474 248.573 253.474C247.879 253.474 247.298 253.741 246.829 254.274C246.359 254.807 246.125 255.602 246.125 256.658C246.125 257.117 246.178 257.543 246.285 257.938C246.391 258.322 246.541 258.658 246.733 258.946C246.935 259.234 247.181 259.458 247.469 259.618C247.767 259.778 248.109 259.858 248.493 259.858Z" fill="#0F172A"/>
</g>
<defs>
<filter id="filter0_d_2118_25730" x="0" y="0" width="386.978" height="317.913" filterUnits="userSpaceOnUse" color-interpolation-filters="sRGB">
<feFlood flood-opacity="0" result="BackgroundImageFix"/>
<feColorMatrix in="SourceAlpha" type="matrix" values="0 0 0 0 0 0 0 0 0 0 0 0 0 0 0 0 0 0 127 0" result="hardAlpha"/>
<feOffset/>
<feGaussianBlur stdDeviation="4"/>
<feComposite in2="hardAlpha" operator="out"/>
<feColorMatrix type="matrix" values="0 0 0 0 0 0 0 0 0 0 0 0 0 0 0 0 0 0 0.14 0"/>
<feBlend mode="normal" in2="BackgroundImageFix" result="effect1_dropShadow_2118_25730"/>
<feBlend mode="normal" in="SourceGraphic" in2="effect1_dropShadow_2118_25730" result="shape"/>
</filter>
<radialGradient id="paint0_angular_2118_25730" cx="0" cy="0" r="1" gradientUnits="userSpaceOnUse" gradientTransform="translate(191.302 140.56) rotate(58.8447) scale(122.161 146.147)">
<stop stop-color="#156FF7"/>
<stop offset="1" stop-color="#66A1FA"/>
</radialGradient>
<linearGradient id="paint1_linear_2118_25730" x1="146.817" y1="71.6094" x2="262.221" y2="256.771" gradientUnits="userSpaceOnUse">
<stop stop-color="#4AE68D"/>
<stop offset="1" stop-color="#9FFFC8"/>
</linearGradient>
<radialGradient id="paint2_angular_2118_25730" cx="0" cy="0" r="1" gradientUnits="userSpaceOnUse" gradientTransform="translate(100.616 166.247) rotate(59.4782) scale(15.7389 18.6061)">
<stop stop-color="#156FF7"/>
<stop offset="1" stop-color="#66A1FA"/>
</radialGradient>
<radialGradient id="paint3_angular_2118_25730" cx="0" cy="0" r="1" gradientUnits="userSpaceOnUse" gradientTransform="translate(228.043 222.888) rotate(59.4782) scale(15.7389 18.6061)">
<stop stop-color="#156FF7"/>
<stop offset="1" stop-color="#66A1FA"/>
</radialGradient>
<radialGradient id="paint4_angular_2118_25730" cx="0" cy="0" r="1" gradientUnits="userSpaceOnUse" gradientTransform="translate(132.286 169.6) rotate(59.1538) scale(21.7138 25.8286)">
<stop stop-color="#156FF7"/>
<stop offset="1" stop-color="#66A1FA"/>
</radialGradient>
<radialGradient id="paint5_angular_2118_25730" cx="0" cy="0" r="1" gradientUnits="userSpaceOnUse" gradientTransform="translate(253.007 178.546) rotate(59.1538) scale(21.7138 25.8286)">
<stop stop-color="#156FF7"/>
<stop offset="1" stop-color="#66A1FA"/>
</radialGradient>
<radialGradient id="paint6_angular_2118_25730" cx="0" cy="0" r="1" gradientUnits="userSpaceOnUse" gradientTransform="translate(230.651 78.6862) rotate(59.1538) scale(21.7138 25.8286)">
<stop stop-color="#156FF7"/>
<stop offset="1" stop-color="#66A1FA"/>
</radialGradient>
<radialGradient id="paint7_angular_2118_25730" cx="0" cy="0" r="1" gradientUnits="userSpaceOnUse" gradientTransform="translate(201.589 213.569) rotate(59.1538) scale(21.7138 25.8286)">
<stop stop-color="#156FF7"/>
<stop offset="1" stop-color="#66A1FA"/>
</radialGradient>
<radialGradient id="paint8_angular_2118_25730" cx="0" cy="0" r="1" gradientUnits="userSpaceOnUse" gradientTransform="translate(258.223 68.2542) rotate(58.9693) scale(13.8445 16.5249)">
<stop stop-color="#156FF7"/>
<stop offset="1" stop-color="#66A1FA"/>
</radialGradient>
<radialGradient id="paint9_angular_2118_25730" cx="0" cy="0" r="1" gradientUnits="userSpaceOnUse" gradientTransform="translate(238.848 55.2163) rotate(58.4659) scale(9.2791 11.1771)">
<stop stop-color="#156FF7"/>
<stop offset="1" stop-color="#66A1FA"/>
</radialGradient>
<radialGradient id="paint10_angular_2118_25730" cx="0" cy="0" r="1" gradientUnits="userSpaceOnUse" gradientTransform="translate(255.987 202.021) rotate(58.4659) scale(9.2791 11.1771)">
<stop stop-color="#156FF7"/>
<stop offset="1" stop-color="#66A1FA"/>
</radialGradient>
</defs>
</svg>
