<svg width="16" height="16" viewBox="0 0 16 16" fill="none" xmlns="http://www.w3.org/2000/svg">
<g clip-path="url(#clip0_6779_41104)">
<path d="M7.99967 11.332C8.18856 11.332 8.34701 11.268 8.47501 11.14C8.60301 11.012 8.66679 10.8538 8.66634 10.6654V7.98203C8.66634 7.79314 8.60234 7.63759 8.47434 7.51536C8.34634 7.39314 8.18812 7.33203 7.99967 7.33203C7.81079 7.33203 7.65234 7.39603 7.52434 7.52403C7.39634 7.65203 7.33256 7.81025 7.33301 7.9987V10.682C7.33301 10.8709 7.39701 11.0265 7.52501 11.1487C7.65301 11.2709 7.81123 11.332 7.99967 11.332ZM7.99967 5.9987C8.18856 5.9987 8.34701 5.9347 8.47501 5.8067C8.60301 5.6787 8.66679 5.52048 8.66634 5.33203C8.66634 5.14314 8.60234 4.9847 8.47434 4.8567C8.34634 4.7287 8.18812 4.66492 7.99967 4.66536C7.81079 4.66536 7.65234 4.72936 7.52434 4.85736C7.39634 4.98536 7.33256 5.14359 7.33301 5.33203C7.33301 5.52092 7.39701 5.67936 7.52501 5.80736C7.65301 5.93536 7.81123 5.99914 7.99967 5.9987ZM7.99967 14.6654C7.07745 14.6654 6.21079 14.4903 5.39967 14.14C4.58856 13.7898 3.88301 13.3149 3.28301 12.7154C2.68301 12.1154 2.20812 11.4098 1.85834 10.5987C1.50856 9.78759 1.33345 8.92092 1.33301 7.9987C1.33301 7.07648 1.50812 6.20981 1.85834 5.3987C2.20856 4.58759 2.68345 3.88203 3.28301 3.28203C3.88301 2.68203 4.58856 2.20714 5.39967 1.85736C6.21079 1.50759 7.07745 1.33248 7.99967 1.33203C8.9219 1.33203 9.78856 1.50714 10.5997 1.85736C11.4108 2.20759 12.1163 2.68248 12.7163 3.28203C13.3163 3.88203 13.7915 4.58759 14.1417 5.3987C14.4919 6.20981 14.6668 7.07648 14.6663 7.9987C14.6663 8.92092 14.4912 9.78759 14.141 10.5987C13.7908 11.4098 13.3159 12.1154 12.7163 12.7154C12.1163 13.3154 11.4108 13.7905 10.5997 14.1407C9.78856 14.4909 8.9219 14.6658 7.99967 14.6654Z" fill="#DD2C5A"/>
</g>
<defs>
<clipPath id="clip0_6779_41104">
<rect width="16" height="16" fill="white"/>
</clipPath>
</defs>
</svg>
