<svg width="24" height="24" viewBox="0 0 24 24" fill="none" xmlns="http://www.w3.org/2000/svg">
<rect x="0.5" y="0.5" width="23" height="23" rx="11.5" fill="#E9F9EE"/>
<rect x="0.5" y="0.5" width="23" height="23" rx="11.5" stroke="#15B066"/>
<g clip-path="url(#clip0_586_18696)">
<path d="M11.3175 5.00002V6.75002H10.005C8.81495 6.75002 7.81745 7.74752 7.81745 8.93752V9.81252C7.81745 11.0025 8.58745 11.9825 9.72495 12.28L14.205 13.435C14.45 13.505 14.8 13.9425 14.8 14.205V15.08C14.8 15.325 14.6075 15.5175 14.3625 15.5175H9.98745C9.83545 15.5169 9.68567 15.481 9.54995 15.4125V13.7675H7.79995V15.5175C7.79995 16.1125 8.14995 16.62 8.56995 16.8825C8.97245 17.1625 9.47995 17.2675 9.98745 17.2675H11.3V19.0175H13.05V17.2675H14.3625C15.57 17.2675 16.5499 16.2875 16.5499 15.08V14.205C16.5499 13.015 15.78 12.035 14.6425 11.7375L10.1625 10.5825C9.91745 10.5125 9.56745 10.075 9.56745 9.81252V8.93752C9.56745 8.69252 9.75995 8.50002 10.005 8.50002H14.38C14.5725 8.50002 14.7475 8.57002 14.8175 8.60502V10.25H16.5675V8.50002C16.5675 7.90502 16.2174 7.39752 15.7975 7.13502C15.3949 6.85502 14.8875 6.75002 14.38 6.75002H13.0675V5.00002H11.3175Z" fill="#15B066"/>
<path fill-rule="evenodd" clip-rule="evenodd" d="M11.2175 4.90002H13.1675V6.65002H14.38C14.8987 6.65002 15.4279 6.75696 15.8525 7.05153C16.2965 7.32994 16.6675 7.86667 16.6675 8.50002V10.35H14.7175V8.66986C14.6387 8.6382 14.513 8.60002 14.38 8.60002H10.005C9.81518 8.60002 9.66745 8.74775 9.66745 8.93752V9.81252C9.66745 9.85793 9.6832 9.91945 9.71669 9.99167C9.74958 10.0626 9.79665 10.1376 9.85183 10.2081C9.90698 10.2786 9.96862 10.3425 10.0294 10.3922C10.0908 10.4423 10.146 10.4735 10.1888 10.486L14.6674 11.6407C15.8485 11.9496 16.65 12.9691 16.65 14.205V15.08C16.65 16.3428 15.6252 17.3675 14.3625 17.3675H13.15V19.1175H11.2V17.3675H9.98745C9.46865 17.3675 8.9395 17.2606 8.51486 16.966C8.07093 16.6876 7.69995 16.1509 7.69995 15.5175V13.6675H9.64995V15.3486C9.75668 15.3935 9.87142 15.417 9.98761 15.4175C9.98753 15.4175 9.98769 15.4175 9.98761 15.4175H14.3625C14.5522 15.4175 14.7 15.2698 14.7 15.08V14.205C14.7 14.1596 14.6842 14.0981 14.6507 14.0259C14.6178 13.955 14.5707 13.88 14.5156 13.8095C14.4604 13.739 14.3988 13.6751 14.338 13.6254C14.2766 13.5752 14.2214 13.544 14.1786 13.5315L9.69999 12.3769C8.51895 12.068 7.71745 11.0485 7.71745 9.81252V8.93752C7.71745 7.6923 8.75972 6.65002 10.005 6.65002H11.2175V4.90002ZM14.205 13.435C14.45 13.505 14.8 13.9425 14.8 14.205V15.08C14.8 15.325 14.6075 15.5175 14.3625 15.5175H9.98745C9.83545 15.5169 9.68567 15.481 9.54995 15.4125V13.7675H7.79995V15.5175C7.79995 16.1125 8.14995 16.62 8.56995 16.8825C8.97245 17.1625 9.47995 17.2675 9.98745 17.2675H11.3V19.0175H13.05V17.2675H14.3625C15.57 17.2675 16.5499 16.2875 16.5499 15.08V14.205C16.5499 13.015 15.78 12.035 14.6425 11.7375L10.1625 10.5825C9.91745 10.5125 9.56745 10.075 9.56745 9.81252V8.93752C9.56745 8.69252 9.75995 8.50002 10.005 8.50002H14.38C14.5725 8.50002 14.7475 8.57002 14.8175 8.60502V10.25H16.5675V8.50002C16.5675 7.90502 16.2174 7.39752 15.7975 7.13502C15.3949 6.85502 14.8875 6.75002 14.38 6.75002H13.0675V5.00002H11.3175V6.75002H10.005C8.81495 6.75002 7.81745 7.74752 7.81745 8.93752V9.81252C7.81745 11.0025 8.58745 11.9825 9.72495 12.28L14.205 13.435Z" fill="#15B066"/>
</g>
<defs>
<clipPath id="clip0_586_18696">
<rect width="14" height="14" fill="white" transform="translate(5 5)"/>
</clipPath>
</defs>
</svg>
