<svg width="14" height="15" viewBox="0 0 14 15" fill="none" xmlns="http://www.w3.org/2000/svg">
<g clip-path="url(#clip0_2571_47179)">
<path d="M6.31755 0.859375V2.60938H5.00505C3.81505 2.60938 2.81755 3.60688 2.81755 4.79688V5.67188C2.81755 6.86188 3.58755 7.84188 4.72505 8.13938L9.20505 9.29438C9.45005 9.36438 9.80005 9.80188 9.80005 10.0644V10.9394C9.80005 11.1844 9.60755 11.3769 9.36255 11.3769H4.98755C4.83555 11.3763 4.68577 11.3403 4.55005 11.2719V9.62688H2.80005V11.3769C2.80005 11.9719 3.15005 12.4794 3.57005 12.7419C3.97255 13.0219 4.48005 13.1269 4.98755 13.1269H6.30005V14.8769H8.05005V13.1269H9.36255C10.57 13.1269 11.55 12.1469 11.55 10.9394V10.0644C11.55 8.87438 10.78 7.89438 9.64255 7.59688L5.16255 6.44188C4.91755 6.37188 4.56755 5.93438 4.56755 5.67188V4.79688C4.56755 4.55188 4.76005 4.35938 5.00505 4.35938H9.38005C9.57255 4.35938 9.74755 4.42938 9.81755 4.46438V6.10938H11.5675V4.35938C11.5675 3.76438 11.2175 3.25688 10.7975 2.99438C10.395 2.71438 9.88755 2.60938 9.38005 2.60938H8.06755V0.859375H6.31755Z" fill="#15B066"/>
<path fill-rule="evenodd" clip-rule="evenodd" d="M6.21745 0.759277H8.16745V2.50928H9.37995C9.89875 2.50928 10.4279 2.61621 10.8525 2.91079C11.2965 3.1892 11.6675 3.72592 11.6675 4.35928V6.20928H9.71745V4.52911C9.63871 4.49745 9.51297 4.45928 9.37995 4.45928H5.00495C4.81518 4.45928 4.66745 4.60701 4.66745 4.79678V5.67178C4.66745 5.71718 4.6832 5.7787 4.71669 5.85092C4.74958 5.92185 4.79665 5.99684 4.85183 6.06733C4.90698 6.13781 4.96862 6.20175 5.0294 6.25141C5.09077 6.30156 5.14597 6.3328 5.18879 6.3453L9.66742 7.49994C10.8485 7.80883 11.65 8.82832 11.65 10.0643V10.9393C11.65 12.202 10.6252 13.2268 9.36245 13.2268H8.14995V14.9768H6.19995V13.2268H4.98745C4.46865 13.2268 3.9395 13.1198 3.51486 12.8253C3.07093 12.5469 2.69995 12.0101 2.69995 11.3768V9.52678H4.64995V11.2079C4.75668 11.2528 4.87142 11.2763 4.98761 11.2768C4.98753 11.2768 4.98769 11.2768 4.98761 11.2768H9.36245C9.55222 11.2768 9.69995 11.1291 9.69995 10.9393V10.0643C9.69995 10.0189 9.6842 9.95736 9.65071 9.88513C9.61782 9.8142 9.57075 9.73922 9.51557 9.66872C9.46042 9.59825 9.39878 9.5343 9.33801 9.48465C9.27662 9.43449 9.22142 9.40325 9.17859 9.39075L4.69999 8.23611C3.51895 7.92722 2.71745 6.90774 2.71745 5.67178V4.79678C2.71745 3.55155 3.75972 2.50928 5.00495 2.50928H6.21745V0.759277ZM9.20495 9.29428C9.44995 9.36428 9.79995 9.80178 9.79995 10.0643V10.9393C9.79995 11.1843 9.60745 11.3768 9.36245 11.3768H4.98745C4.83545 11.3762 4.68567 11.3402 4.54995 11.2718V9.62678H2.79995V11.3768C2.79995 11.9718 3.14995 12.4793 3.56995 12.7418C3.97245 13.0218 4.47995 13.1268 4.98745 13.1268H6.29995V14.8768H8.04995V13.1268H9.36245C10.57 13.1268 11.55 12.1468 11.55 10.9393V10.0643C11.55 8.87428 10.78 7.89428 9.64245 7.59678L5.16245 6.44178C4.91745 6.37178 4.56745 5.93428 4.56745 5.67178V4.79678C4.56745 4.55178 4.75995 4.35928 5.00495 4.35928H9.37995C9.57245 4.35928 9.74745 4.42928 9.81745 4.46428V6.10928H11.5675V4.35928C11.5675 3.76428 11.2174 3.25678 10.7975 2.99428C10.3949 2.71428 9.88745 2.60928 9.37995 2.60928H8.06745V0.859277H6.31745V2.60928H5.00495C3.81495 2.60928 2.81745 3.60678 2.81745 4.79678V5.67178C2.81745 6.86178 3.58745 7.84178 4.72495 8.13928L9.20495 9.29428Z" fill="#15B066"/>
</g>
<defs>
<clipPath id="clip0_2571_47179">
<rect width="14" height="14" fill="white" transform="translate(0 0.859375)"/>
</clipPath>
</defs>
</svg>
