<svg width="17" height="16" viewBox="0 0 17 16" fill="none" xmlns="http://www.w3.org/2000/svg">
<g clip-path="url(#clip0_485_2930)">
<path d="M8.5 9.33339C8.31111 9.33339 8.15289 9.26939 8.02533 9.14139C7.89733 9.01383 7.83333 8.85561 7.83333 8.66672C7.83333 8.47783 7.89733 8.31939 8.02533 8.19139C8.15289 8.06383 8.31111 8.00006 8.5 8.00006C8.68889 8.00006 8.84733 8.06383 8.97533 8.19139C9.10289 8.31939 9.16667 8.47783 9.16667 8.66672C9.16667 8.85561 9.10289 9.01383 8.97533 9.14139C8.84733 9.26939 8.68889 9.33339 8.5 9.33339ZM5.83333 9.33339C5.64444 9.33339 5.486 9.26939 5.358 9.14139C5.23044 9.01383 5.16667 8.85561 5.16667 8.66672C5.16667 8.47783 5.23044 8.31939 5.358 8.19139C5.486 8.06383 5.64444 8.00006 5.83333 8.00006C6.02222 8.00006 6.18067 8.06383 6.30867 8.19139C6.43622 8.31939 6.5 8.47783 6.5 8.66672C6.5 8.85561 6.43622 9.01383 6.30867 9.14139C6.18067 9.26939 6.02222 9.33339 5.83333 9.33339ZM11.1667 9.33339C10.9778 9.33339 10.8196 9.26939 10.692 9.14139C10.564 9.01383 10.5 8.85561 10.5 8.66672C10.5 8.47783 10.564 8.31939 10.692 8.19139C10.8196 8.06383 10.9778 8.00006 11.1667 8.00006C11.3556 8.00006 11.5138 8.06383 11.6413 8.19139C11.7693 8.31939 11.8333 8.47783 11.8333 8.66672C11.8333 8.85561 11.7693 9.01383 11.6413 9.14139C11.5138 9.26939 11.3556 9.33339 11.1667 9.33339ZM8.5 12.0001C8.31111 12.0001 8.15289 11.9361 8.02533 11.8081C7.89733 11.6805 7.83333 11.5223 7.83333 11.3334C7.83333 11.1445 7.89733 10.9863 8.02533 10.8587C8.15289 10.7307 8.31111 10.6667 8.5 10.6667C8.68889 10.6667 8.84733 10.7307 8.97533 10.8587C9.10289 10.9863 9.16667 11.1445 9.16667 11.3334C9.16667 11.5223 9.10289 11.6805 8.97533 11.8081C8.84733 11.9361 8.68889 12.0001 8.5 12.0001ZM5.83333 12.0001C5.64444 12.0001 5.486 11.9361 5.358 11.8081C5.23044 11.6805 5.16667 11.5223 5.16667 11.3334C5.16667 11.1445 5.23044 10.9863 5.358 10.8587C5.486 10.7307 5.64444 10.6667 5.83333 10.6667C6.02222 10.6667 6.18067 10.7307 6.30867 10.8587C6.43622 10.9863 6.5 11.1445 6.5 11.3334C6.5 11.5223 6.43622 11.6805 6.30867 11.8081C6.18067 11.9361 6.02222 12.0001 5.83333 12.0001ZM11.1667 12.0001C10.9778 12.0001 10.8196 11.9361 10.692 11.8081C10.564 11.6805 10.5 11.5223 10.5 11.3334C10.5 11.1445 10.564 10.9863 10.692 10.8587C10.8196 10.7307 10.9778 10.6667 11.1667 10.6667C11.3556 10.6667 11.5138 10.7307 11.6413 10.8587C11.7693 10.9863 11.8333 11.1445 11.8333 11.3334C11.8333 11.5223 11.7693 11.6805 11.6413 11.8081C11.5138 11.9361 11.3556 12.0001 11.1667 12.0001ZM3.83333 14.6667C3.46667 14.6667 3.15267 14.5363 2.89133 14.2754C2.63044 14.0141 2.5 13.7001 2.5 13.3334V4.00006C2.5 3.63339 2.63044 3.31961 2.89133 3.05872C3.15267 2.79739 3.46667 2.66672 3.83333 2.66672H4.5V2.00006C4.5 1.81117 4.56378 1.65272 4.69133 1.52472C4.81933 1.39717 4.97778 1.33339 5.16667 1.33339C5.35556 1.33339 5.514 1.39717 5.642 1.52472C5.76956 1.65272 5.83333 1.81117 5.83333 2.00006V2.66672H11.1667V2.00006C11.1667 1.81117 11.2307 1.65272 11.3587 1.52472C11.4862 1.39717 11.6444 1.33339 11.8333 1.33339C12.0222 1.33339 12.1804 1.39717 12.308 1.52472C12.436 1.65272 12.5 1.81117 12.5 2.00006V2.66672H13.1667C13.5333 2.66672 13.8473 2.79739 14.1087 3.05872C14.3696 3.31961 14.5 3.63339 14.5 4.00006V13.3334C14.5 13.7001 14.3696 14.0141 14.1087 14.2754C13.8473 14.5363 13.5333 14.6667 13.1667 14.6667H3.83333ZM3.83333 13.3334H13.1667V6.66672H3.83333V13.3334Z" fill="#64748B"/>
</g>
<defs>
<clipPath id="clip0_485_2930">
<rect width="16" height="16" fill="white" transform="translate(0.5 6.10352e-05)"/>
</clipPath>
</defs>
</svg>
