<svg width="17" height="16" viewBox="0 0 17 16" fill="none" xmlns="http://www.w3.org/2000/svg">
<g clip-path="url(#clip0_498_2941)">
<path fill-rule="evenodd" clip-rule="evenodd" d="M4.53982 2.64033C5.59008 1.59007 7.01453 1.00005 8.49982 1.00005C9.98511 1.00005 11.4096 1.59007 12.4598 2.64033C13.5101 3.69059 14.1001 5.11504 14.1001 6.60033C14.1001 8.08562 13.5101 9.51007 12.4598 10.5603L8.49982 14.5203L4.53982 10.5603C4.01975 10.0403 3.60721 9.42295 3.32574 8.74349C3.04428 8.06403 2.89941 7.33578 2.89941 6.60033C2.89941 5.86488 3.04428 5.13663 3.32574 4.45717C3.60721 3.77771 4.01975 3.16035 4.53982 2.64033ZM8.49982 8.20033C8.92416 8.20033 9.33113 8.03176 9.63119 7.7317C9.93125 7.43164 10.0998 7.02468 10.0998 6.60033C10.0998 6.17598 9.93125 5.76902 9.63119 5.46896C9.33113 5.1689 8.92416 5.00033 8.49982 5.00033C8.07547 5.00033 7.66851 5.1689 7.36845 5.46896C7.06839 5.76902 6.89982 6.17598 6.89982 6.60033C6.89982 7.02468 7.06839 7.43164 7.36845 7.7317C7.66851 8.03176 8.07547 8.20033 8.49982 8.20033Z" fill="#64748B"/>
</g>
<defs>
<clipPath id="clip0_498_2941">
<rect width="16" height="16" fill="white" transform="translate(0.5 4.57764e-05)"/>
</clipPath>
</defs>
</svg>
