<svg width="152" height="33" viewBox="0 0 152 33" fill="none" xmlns="http://www.w3.org/2000/svg">
<path d="M16.2291 24.6073L9.64786 20.8232C9.4693 20.6954 9.23972 20.8232 9.23972 21.0533V28.6216C9.23972 28.8261 9.34175 29.0051 9.52031 29.1074L16.1016 32.8915C16.2801 32.9937 16.5097 32.8659 16.5097 32.6613V25.0931C16.5097 24.8886 16.4077 24.7096 16.2291 24.6073ZM16.5352 15.0192L16.5097 22.6897C16.5097 22.8687 16.3311 22.9198 16.2036 22.8687L8.16835 18.2664C7.98979 18.1641 7.76021 18.292 7.76021 18.4965V27.5733C7.76021 27.7778 7.50513 27.9312 7.35207 27.8034L0.770832 24.0704C0.592271 23.9681 0.490234 23.7891 0.490234 23.5846V5.96805C0.490234 5.7635 0.745323 5.61009 0.898375 5.73793L16.2291 14.4823C16.4077 14.6357 16.5352 14.8147 16.5352 15.0192ZM33.473 5.89134L26.9683 9.59874C26.7897 9.70102 26.6877 9.87999 26.6622 10.0845L26.6877 19.4681C26.6877 19.6727 26.5856 19.8516 26.4071 19.9539L18.2698 24.6329C18.0912 24.7352 17.9892 24.9141 17.9892 25.1187V32.6613C17.9892 32.8659 18.2188 33.0193 18.3973 32.8915L33.6005 24.1982C33.7791 24.096 33.8811 23.917 33.8811 23.7124V6.14702C33.8811 5.91691 33.6515 5.78907 33.473 5.89134ZM17.9892 15.0448V22.5874C17.9892 22.792 18.2188 22.9454 18.3973 22.8175L25.0551 19.0079C25.1316 18.9823 25.1827 18.88 25.1827 18.7778V11.1073C25.1827 10.9027 24.9531 10.7493 24.7745 10.8772L18.2698 14.5846C18.0912 14.6613 17.9892 14.8402 17.9892 15.0448ZM1.74016 3.87145L8.21937 0.138472C8.39793 0.0617676 8.602 0.0617676 8.80607 0.138472L24.1368 8.88283C24.3154 8.98511 24.3154 9.26636 24.1368 9.36863L17.6321 13.1016C17.4535 13.2039 17.2494 13.2039 17.0709 13.1016L1.74016 4.35724C1.58711 4.25497 1.58711 3.97372 1.74016 3.87145ZM19.1371 3.87145L25.6928 0.138472C25.8714 0.0361993 26.0755 0.0361993 26.254 0.138472L32.8608 3.92259C33.0393 4.02486 33.0393 4.30611 32.8608 4.40838L26.305 8.14135C26.1265 8.24363 25.9224 8.24363 25.7438 8.14135L19.1371 4.35724C18.9585 4.25497 18.9585 3.97372 19.1371 3.87145Z" fill="black"/>
<path d="M43.8631 15.3516H45.9293C47.4854 15.3516 48.7098 14.968 48.7098 13.2805C48.7098 11.1839 47.1283 11.005 45.7508 11.005H43.8631V15.3516ZM51.2862 13.255C51.2862 16.5021 48.6843 17.2948 45.7763 17.2948H43.8631V21.7692H41.3633V9.06177H45.6998C48.3016 9.06177 51.2862 9.41972 51.2862 13.255Z" fill="black"/>
<path d="M56.4891 14.6098C55.2902 14.6098 54.5249 15.0445 54.5249 16.8087V21.7434H52.1016V12.3342H54.4739V13.9706C55.0096 12.82 55.8768 12.3342 56.9482 12.3342C57.1013 12.3342 57.3053 12.3598 57.4839 12.3598V14.6354C57.1523 14.6354 56.8462 14.6098 56.4891 14.6098Z" fill="black"/>
<path d="M62.6646 20.1074C63.9911 20.1074 64.9349 19.0336 64.9349 17.0648C64.9349 15.096 63.9911 14.0222 62.6646 14.0222C61.3382 14.0222 60.3944 15.096 60.3944 17.0648C60.3688 19.0336 61.3127 20.1074 62.6646 20.1074ZM62.6646 12.1301C65.0369 12.1301 67.3837 13.7665 67.3837 17.0648C67.3837 20.3887 65.0369 21.9995 62.6646 21.9995C60.2923 21.9995 57.9455 20.3887 57.9455 17.0648C57.92 13.7409 60.2668 12.1301 62.6646 12.1301Z" fill="black"/>
<path d="M71.4899 9.77759V12.3344H73.4541V13.9964H71.4899V18.8799C71.4899 19.8515 71.8215 20.0305 72.6888 20.0305H73.4286V21.7691H71.6685C69.5257 21.7691 69.0921 21.1043 69.0921 19.2379V14.0219H67.7656V12.3344H69.0921V9.77759H71.4899Z" fill="black"/>
<path d="M78.9125 20.1074C80.2389 20.1074 81.1827 19.0336 81.1827 17.0648C81.1827 15.096 80.2389 14.0222 78.9125 14.0222C77.586 14.0222 76.6422 15.096 76.6422 17.0648C76.6422 19.0336 77.586 20.1074 78.9125 20.1074ZM78.9125 12.1301C81.2848 12.1301 83.6316 13.7665 83.6316 17.0648C83.6316 20.3887 81.2848 21.9995 78.9125 21.9995C76.5402 21.9995 74.1934 20.3887 74.1934 17.0648C74.1934 13.7409 76.5402 12.1301 78.9125 12.1301Z" fill="black"/>
<path d="M91.2085 15.5563C91.03 14.6614 90.1627 13.9966 89.2444 13.9966C87.9945 13.9966 86.9996 15.0705 86.9996 17.0392C86.9996 19.008 87.9434 20.133 89.2699 20.133C90.0862 20.133 90.979 19.7239 91.3106 18.5733H93.6319C93.0707 21.1557 91.1065 21.9995 89.1678 21.9995C86.3619 21.9995 84.5508 19.9029 84.5508 17.0648C84.5508 14.2267 86.4639 12.1301 89.2699 12.1301C91.2341 12.1301 93.2237 13.2296 93.5298 15.5563H91.2085Z" fill="black"/>
<path d="M99.0394 20.1074C100.366 20.1074 101.31 19.0336 101.31 17.0648C101.31 15.096 100.366 14.0222 99.0394 14.0222C97.713 14.0222 96.7691 15.096 96.7691 17.0648C96.7691 19.0336 97.713 20.1074 99.0394 20.1074ZM99.0394 12.1301C101.412 12.1301 103.759 13.7665 103.759 17.0648C103.759 20.3887 101.412 21.9995 99.0394 21.9995C96.6671 21.9995 94.3203 20.3887 94.3203 17.0648C94.3203 13.7409 96.6671 12.1301 99.0394 12.1301Z" fill="black"/>
<path d="M105.135 21.7692V9.06177H107.558V21.7692H105.135Z" fill="black"/>
<path d="M122.048 19.7237V21.7692H113.375V9.06177H115.875V19.7237H122.048Z" fill="black"/>
<path d="M125.16 19.1097C125.16 19.8 125.696 20.3625 126.793 20.3625C128.298 20.3625 128.935 19.5443 128.935 18.1636V17.4477C126.231 17.729 125.16 18.0358 125.16 19.1097ZM122.66 19.2119C122.66 16.9875 125.16 16.3227 128.859 15.888V15.7346C128.859 14.2772 128.068 13.7659 127.099 13.7659C126.18 13.7659 125.39 14.2517 125.339 15.3H123.094C123.272 13.4335 124.803 12.0784 127.226 12.0784C129.471 12.0784 131.282 13.05 131.282 16.246C131.282 16.5528 131.257 17.7801 131.257 18.6494C131.257 20.1324 131.359 20.9761 131.537 21.7688H129.318C129.241 21.4619 129.19 21.0528 129.165 20.5926C128.502 21.5642 127.507 21.9989 126.078 21.9989C124.267 21.9989 122.66 20.9506 122.66 19.2119Z" fill="black"/>
<path d="M137.632 13.9709C136.306 13.9709 135.438 15.147 135.438 17.0391C135.438 18.9311 136.306 20.1328 137.632 20.1328C138.882 20.1328 139.775 18.9056 139.775 17.0646C139.8 15.2237 138.882 13.9709 137.632 13.9709ZM133.117 9.06177H135.541V13.5618C136.051 12.6925 137.071 12.13 138.244 12.13C140.515 12.13 142.326 14.0987 142.326 17.0646C142.326 20.0306 140.464 21.9993 138.244 21.9993C137.275 21.9993 136.127 21.6158 135.541 20.5675V21.7692H133.117V9.06177Z" fill="black"/>
<path d="M147.073 13.817C146.18 13.817 145.542 14.1494 145.542 14.7375C145.542 15.2488 145.899 15.6324 146.792 15.8369L148.042 16.1182C149.904 16.5273 151.511 17.013 151.511 18.9562C151.511 20.8994 149.573 21.9989 147.43 21.9989C145.109 21.9989 143.374 20.7972 143.145 18.6494H145.466C145.619 19.5699 146.257 20.2347 147.507 20.2347C148.527 20.2347 149.216 19.8511 149.216 19.1608C149.216 18.4704 148.476 18.1892 147.685 18.0102L146.282 17.7034C144.522 17.3454 143.349 16.604 143.349 14.8909C143.349 13.1778 145.16 12.0784 147.2 12.0784C149.241 12.0784 151.027 12.9988 151.358 15.1721H149.114C148.909 14.3795 148.17 13.817 147.073 13.817Z" fill="black"/>
</svg>
