<svg width="17" height="16" viewBox="0 0 17 16" fill="none" xmlns="http://www.w3.org/2000/svg">
<g clip-path="url(#clip0_507_13787)">
<path d="M14.8225 4.74995L8.80788 1.41662C8.70905 1.36217 8.59805 1.33362 8.48521 1.33362C8.37238 1.33362 8.26138 1.36217 8.16255 1.41662L2.17721 4.72329C2.07324 4.78086 1.98654 4.86519 1.92611 4.96753C1.86568 5.06988 1.8337 5.18651 1.8335 5.30537C1.83329 5.42422 1.86487 5.54097 1.92495 5.64352C1.98503 5.74607 2.07144 5.83069 2.17521 5.88862L8.18988 9.24862C8.2889 9.30426 8.40055 9.33354 8.51413 9.33365C8.62771 9.33377 8.73941 9.30472 8.83855 9.24929L14.8239 5.91595C14.9279 5.85813 15.0145 5.77354 15.0747 5.67096C15.135 5.56837 15.1667 5.45153 15.1665 5.33256C15.1664 5.21359 15.1344 5.09683 15.0739 4.99438C15.0135 4.89193 14.9267 4.80754 14.8225 4.74995Z" fill="#64748B"/>
<path d="M8.50003 10.5707L2.82336 7.41736L2.17603 8.58269L8.17603 11.916C8.27504 11.971 8.38643 11.9999 8.49969 11.9999C8.61295 11.9999 8.72434 11.971 8.82336 11.916L14.8234 8.58269L14.176 7.41736L8.50003 10.5707Z" fill="#64748B"/>
<path d="M8.50003 13.2373L2.82336 10.084L2.17603 11.2493L8.17603 14.5827C8.27504 14.6376 8.38643 14.6665 8.49969 14.6665C8.61295 14.6665 8.72434 14.6376 8.82336 14.5827L14.8234 11.2493L14.176 10.084L8.50003 13.2373Z" fill="#64748B"/>
</g>
<defs>
<clipPath id="clip0_507_13787">
<rect width="16" height="16" fill="white" transform="translate(0.5)"/>
</clipPath>
</defs>
</svg>
