<svg width="16" height="16" viewBox="0 0 16 16" fill="none" xmlns="http://www.w3.org/2000/svg">
<g clip-path="url(#clip0_645_8251)">
<rect width="16" height="16" fill="white"/>
<g clip-path="url(#clip1_645_8251)">
<path fill-rule="evenodd" clip-rule="evenodd" d="M0 3.75C0 3.55109 0.0790176 3.36032 0.21967 3.21967C0.360322 3.07902 0.551088 3 0.75 3H15.25C15.4489 3 15.6397 3.07902 15.7803 3.21967C15.921 3.36032 16 3.55109 16 3.75C16 3.94891 15.921 4.13968 15.7803 4.28033C15.6397 4.42098 15.4489 4.5 15.25 4.5H0.75C0.551088 4.5 0.360322 4.42098 0.21967 4.28033C0.0790176 4.13968 0 3.94891 0 3.75ZM0 8C0 7.80109 0.0790176 7.61032 0.21967 7.46967C0.360322 7.32902 0.551088 7.25 0.75 7.25H15.25C15.4489 7.25 15.6397 7.32902 15.7803 7.46967C15.921 7.61032 16 7.80109 16 8C16 8.19891 15.921 8.38968 15.7803 8.53033C15.6397 8.67098 15.4489 8.75 15.25 8.75H0.75C0.551088 8.75 0.360322 8.67098 0.21967 8.53033C0.0790176 8.38968 0 8.19891 0 8ZM0.75 11.5C0.551088 11.5 0.360322 11.579 0.21967 11.7197C0.0790176 11.8603 0 12.0511 0 12.25C0 12.4489 0.0790176 12.6397 0.21967 12.7803C0.360322 12.921 0.551088 13 0.75 13H15.25C15.4489 13 15.6397 12.921 15.7803 12.7803C15.921 12.6397 16 12.4489 16 12.25C16 12.0511 15.921 11.8603 15.7803 11.7197C15.6397 11.579 15.4489 11.5 15.25 11.5H0.75Z" fill="#64748B"/>
</g>
</g>
<defs>
<clipPath id="clip0_645_8251">
<rect width="16" height="16" fill="white"/>
</clipPath>
<clipPath id="clip1_645_8251">
<rect width="16" height="16" fill="white"/>
</clipPath>
</defs>
</svg>
