<svg width="17" height="16" viewBox="0 0 17 16" fill="none" xmlns="http://www.w3.org/2000/svg">
<g clip-path="url(#clip0_712_4765)">
<g clip-path="url(#clip1_712_4765)">
<path d="M10.9 4.80002C10.9 5.43654 10.6472 6.04699 10.1971 6.49708C9.74702 6.94717 9.13657 7.20002 8.50005 7.20002C7.86353 7.20002 7.25308 6.94717 6.80299 6.49708C6.35291 6.04699 6.10005 5.43654 6.10005 4.80002C6.10005 4.1635 6.35291 3.55306 6.80299 3.10297C7.25308 2.65288 7.86353 2.40002 8.50005 2.40002C9.13657 2.40002 9.74702 2.65288 10.1971 3.10297C10.6472 3.55306 10.9 4.1635 10.9 4.80002ZM14.9 6.40002C14.9 6.82437 14.7315 7.23134 14.4314 7.53139C14.1314 7.83145 13.7244 8.00002 13.3 8.00002C12.8757 8.00002 12.4687 7.83145 12.1687 7.53139C11.8686 7.23134 11.7 6.82437 11.7 6.40002C11.7 5.97568 11.8686 5.56871 12.1687 5.26865C12.4687 4.9686 12.8757 4.80002 13.3 4.80002C13.7244 4.80002 14.1314 4.9686 14.4314 5.26865C14.7315 5.56871 14.9 5.97568 14.9 6.40002ZM11.7 12C11.7 11.1513 11.3629 10.3374 10.7628 9.73728C10.1627 9.13717 9.34874 8.80002 8.50005 8.80002C7.65136 8.80002 6.83742 9.13717 6.23731 9.73728C5.63719 10.3374 5.30005 11.1513 5.30005 12V14.4H11.7V12ZM5.30005 6.40002C5.30005 6.82437 5.13148 7.23134 4.83142 7.53139C4.53136 7.83145 4.1244 8.00002 3.70005 8.00002C3.2757 8.00002 2.86874 7.83145 2.56868 7.53139C2.26862 7.23134 2.10005 6.82437 2.10005 6.40002C2.10005 5.97568 2.26862 5.56871 2.56868 5.26865C2.86874 4.9686 3.2757 4.80002 3.70005 4.80002C4.1244 4.80002 4.53136 4.9686 4.83142 5.26865C5.13148 5.56871 5.30005 5.97568 5.30005 6.40002ZM13.3 14.4V12C13.3012 11.1867 13.0947 10.3864 12.7 9.67522C13.0547 9.58446 13.4254 9.5759 13.7839 9.6502C14.1424 9.7245 14.4792 9.8797 14.7686 10.104C15.058 10.3282 15.2923 10.6156 15.4537 10.9442C15.6152 11.2728 15.6994 11.6339 15.7 12V14.4H13.3ZM4.30005 9.67522C3.90545 10.3865 3.69893 11.1867 3.70005 12V14.4H1.30005V12C1.29989 11.6337 1.38362 11.2721 1.54481 10.9431C1.70599 10.6141 1.94036 10.3264 2.22996 10.102C2.51955 9.87754 2.85667 9.72241 3.2155 9.64844C3.57432 9.57447 3.94531 9.58363 4.30005 9.67522Z" fill="#64748B"/>
</g>
</g>
<defs>
<clipPath id="clip0_712_4765">
<rect width="16" height="16" fill="white" transform="translate(0.5)"/>
</clipPath>
<clipPath id="clip1_712_4765">
<rect width="16" height="16" fill="white" transform="translate(0.5)"/>
</clipPath>
</defs>
</svg>
