<svg width="14" height="14" viewBox="0 0 14 14" fill="none" xmlns="http://www.w3.org/2000/svg">
<path fill-rule="evenodd" clip-rule="evenodd" d="M6.2001 1.79999C5.03315 1.79999 3.91399 2.26356 3.08883 3.08872C2.26367 3.91388 1.8001 5.03304 1.8001 6.19999C1.8001 7.36694 2.26367 8.4861 3.08883 9.31126C3.91399 10.1364 5.03315 10.6 6.2001 10.6C7.36705 10.6 8.48621 10.1364 9.31137 9.31126C10.1365 8.4861 10.6001 7.36694 10.6001 6.19999C10.6001 5.03304 10.1365 3.91388 9.31137 3.08872C8.48621 2.26356 7.36705 1.79999 6.2001 1.79999ZM0.600098 6.19999C0.600173 5.30453 0.814988 4.42214 1.22652 3.62684C1.63805 2.83155 2.23431 2.14653 2.96526 1.62927C3.69621 1.112 4.54056 0.777571 5.42746 0.654022C6.31436 0.530474 7.21795 0.621412 8.06245 0.91921C8.90694 1.21701 9.66771 1.71298 10.2809 2.36552C10.8942 3.01807 11.342 3.80815 11.5868 4.66951C11.8316 5.53086 11.8662 6.43835 11.6879 7.31588C11.5095 8.1934 11.1233 9.01535 10.5617 9.71279L13.2241 12.376C13.283 12.4309 13.3303 12.4972 13.3631 12.5708C13.3959 12.6444 13.4135 12.7238 13.415 12.8044C13.4164 12.8849 13.4016 12.965 13.3714 13.0397C13.3412 13.1144 13.2963 13.1822 13.2393 13.2392C13.1824 13.2962 13.1145 13.3411 13.0398 13.3713C12.9651 13.4015 12.885 13.4163 12.8045 13.4149C12.7239 13.4134 12.6445 13.3958 12.5709 13.363C12.4973 13.3302 12.431 13.2829 12.3761 13.224L9.7129 10.5616C8.89013 11.2243 7.89669 11.6407 6.8473 11.7628C5.79792 11.8849 4.7354 11.7077 3.78246 11.2516C2.82952 10.7955 2.02503 10.0792 1.46192 9.18528C0.898801 8.2914 0.600026 7.25646 0.600098 6.19999Z" fill="#64748B"/>
</svg>
