<svg width="16" height="16" viewBox="0 0 16 16" fill="none" xmlns="http://www.w3.org/2000/svg">
<g clip-path="url(#clip0_249_675)">
<rect width="16" height="16" fill="white"/>
<path fill-rule="evenodd" clip-rule="evenodd" d="M4.03982 2.64029C5.09008 1.59003 6.51453 1 7.99982 1C9.48511 1 10.9096 1.59003 11.9598 2.64029C13.0101 3.69054 13.6001 5.115 13.6001 6.60029C13.6001 8.08557 13.0101 9.51003 11.9598 10.5603L7.99982 14.5203L4.03982 10.5603C3.51975 10.0403 3.10721 9.4229 2.82574 8.74344C2.54428 8.06398 2.39941 7.33574 2.39941 6.60029C2.39941 5.86483 2.54428 5.13659 2.82574 4.45713C3.10721 3.77767 3.51975 3.1603 4.03982 2.64029ZM7.99982 8.20028C8.42416 8.20028 8.83113 8.03171 9.13119 7.73166C9.43125 7.4316 9.59982 7.02463 9.59982 6.60029C9.59982 6.17594 9.43125 5.76897 9.13119 5.46891C8.83113 5.16886 8.42416 5.00029 7.99982 5.00029C7.57547 5.00029 7.16851 5.16886 6.86845 5.46891C6.56839 5.76897 6.39982 6.17594 6.39982 6.60029C6.39982 7.02463 6.56839 7.4316 6.86845 7.73166C7.16851 8.03171 7.57547 8.20028 7.99982 8.20028Z" fill="#64748B"/>
</g>
<defs>
<clipPath id="clip0_249_675">
<rect width="16" height="16" fill="white"/>
</clipPath>
</defs>
</svg>
