<svg width="20" height="20" viewBox="0 0 20 20" fill="none" xmlns="http://www.w3.org/2000/svg">
<path opacity="0.4" d="M10 10.1624C10.4813 10.1624 10.8934 9.99264 11.2364 9.65307C11.5794 9.3135 11.7506 8.90579 11.75 8.42994C11.75 7.9535 11.5785 7.5455 11.2355 7.20594C10.8925 6.86637 10.4807 6.69687 10 6.69745C9.51875 6.69745 9.10663 6.86724 8.76363 7.2068C8.42063 7.54637 8.24942 7.95408 8.25 8.42994C8.25 8.90637 8.4215 9.31437 8.7645 9.65394C9.1075 9.9935 9.51933 10.163 10 10.1624ZM10 18.5C9.88333 18.5 9.76667 18.4783 9.65 18.435C9.53333 18.3917 9.43125 18.334 9.34375 18.2618C7.21458 16.3994 5.625 14.6703 4.575 13.0747C3.525 11.4791 3 9.98859 3 8.60318C3 6.43758 3.70379 4.71231 5.11138 3.42739C6.51896 2.14246 8.1485 1.5 10 1.5C11.8521 1.5 13.4819 2.14246 14.8895 3.42739C16.2971 4.71231 17.0006 6.43758 17 8.60318C17 9.98917 16.475 11.48 15.425 13.0756C14.375 14.6712 12.7854 16.3999 10.6563 18.2618C10.5688 18.334 10.4667 18.3917 10.35 18.435C10.2333 18.4783 10.1167 18.5 10 18.5Z" fill="#64748B"/>
</svg>
