<svg width="34" height="34" viewBox="0 0 34 34" fill="none" xmlns="http://www.w3.org/2000/svg">
<g filter="url(#filter0_d_700_31644)">
<circle cx="17" cy="17" r="13" fill="#E4B845"/>
</g>
<path d="M20.3334 17.3335H19V16.0002H20.3334M17.6667 17.3335H16.3334V16.0002H17.6667M15 17.3335H13.6667V16.0002H15M22.3334 11.3335H11.6667C11.3131 11.3335 10.9739 11.474 10.7239 11.724C10.4738 11.9741 10.3334 12.3132 10.3334 12.6668V24.6668L13 22.0002H22.3334C22.687 22.0002 23.0261 21.8597 23.2762 21.6096C23.5262 21.3596 23.6667 21.0205 23.6667 20.6668V12.6668C23.6667 12.3132 23.5262 11.9741 23.2762 11.724C23.0261 11.474 22.687 11.3335 22.3334 11.3335Z" fill="white"/>
<defs>
<filter id="filter0_d_700_31644" x="0" y="0" width="34" height="34" filterUnits="userSpaceOnUse" color-interpolation-filters="sRGB">
<feFlood flood-opacity="0" result="BackgroundImageFix"/>
<feColorMatrix in="SourceAlpha" type="matrix" values="0 0 0 0 0 0 0 0 0 0 0 0 0 0 0 0 0 0 127 0" result="hardAlpha"/>
<feOffset/>
<feGaussianBlur stdDeviation="2"/>
<feComposite in2="hardAlpha" operator="out"/>
<feColorMatrix type="matrix" values="0 0 0 0 0 0 0 0 0 0 0 0 0 0 0 0 0 0 0.17 0"/>
<feBlend mode="normal" in2="BackgroundImageFix" result="effect1_dropShadow_700_31644"/>
<feBlend mode="normal" in="SourceGraphic" in2="effect1_dropShadow_700_31644" result="shape"/>
</filter>
</defs>
</svg>
