<svg width="34" height="34" viewBox="0 0 34 34" fill="none" xmlns="http://www.w3.org/2000/svg">
<g filter="url(#filter0_d_698_31633)">
<circle cx="17" cy="17" r="13" fill="#5865F2"/>
<g clip-path="url(#clip0_698_31633)">
<path d="M23.1433 12.0564C24.9842 14.771 25.8934 17.8329 25.5535 21.3579C25.5521 21.3729 25.5443 21.3866 25.5321 21.3955C24.138 22.4222 22.7874 23.0453 21.4556 23.4584C21.4452 23.4616 21.4342 23.4614 21.4239 23.4579C21.4136 23.4545 21.4047 23.4479 21.3984 23.439C21.0907 23.0097 20.8111 22.5571 20.5662 22.0817C20.5522 22.0538 20.565 22.02 20.5939 22.009C21.0379 21.8412 21.4601 21.6402 21.8662 21.4021C21.8982 21.3833 21.9002 21.3373 21.8707 21.3152C21.7845 21.2511 21.6991 21.1836 21.6174 21.1162C21.6021 21.1037 21.5815 21.1013 21.5642 21.1097C18.9279 22.3306 16.0398 22.3306 13.3723 21.1097C13.355 21.1019 13.3344 21.1046 13.3195 21.1168C13.238 21.1843 13.1524 21.2511 13.0671 21.3152C13.0375 21.3373 13.04 21.3833 13.0722 21.4021C13.4783 21.6357 13.9004 21.8412 14.3438 22.0098C14.3725 22.0209 14.3862 22.0538 14.3719 22.0817C14.1323 22.5577 13.8528 23.0103 13.5394 23.4396C13.5257 23.457 13.5033 23.465 13.4821 23.4584C12.1567 23.0453 10.806 22.4222 9.41194 21.3955C9.40032 21.3866 9.39197 21.3723 9.39075 21.3573C9.10671 18.3083 9.68558 15.221 11.7987 12.0558C11.8038 12.0474 11.8115 12.0409 11.8205 12.037C12.8603 11.5584 13.9742 11.2063 15.1384 11.0053C15.1596 11.002 15.1808 11.0118 15.1918 11.0306C15.3357 11.286 15.5001 11.6136 15.6113 11.8813C16.8386 11.6933 18.0849 11.6933 19.3378 11.8813C19.4491 11.6193 19.6078 11.286 19.751 11.0306C19.7561 11.0213 19.764 11.0138 19.7736 11.0092C19.7832 11.0047 19.794 11.0033 19.8044 11.0053C20.9693 11.2069 22.0832 11.559 23.1221 12.037C23.1313 12.0409 23.1388 12.0474 23.1433 12.0564ZM16.2352 17.8538C16.2481 16.9524 15.5928 16.2065 14.7703 16.2065C13.9544 16.2065 13.3055 16.9459 13.3055 17.8538C13.3055 18.7615 13.9673 19.5008 14.7703 19.5008C15.5863 19.5008 16.2352 18.7615 16.2352 17.8538ZM21.6514 17.8538C21.6643 16.9524 21.009 16.2065 20.1866 16.2065C19.3706 16.2065 18.7217 16.9459 18.7217 17.8538C18.7217 18.7615 19.3834 19.5008 20.1866 19.5008C21.009 19.5008 21.6514 18.7615 21.6514 17.8538Z" fill="white"/>
</g>
</g>
<defs>
<filter id="filter0_d_698_31633" x="0" y="0" width="34" height="34" filterUnits="userSpaceOnUse" color-interpolation-filters="sRGB">
<feFlood flood-opacity="0" result="BackgroundImageFix"/>
<feColorMatrix in="SourceAlpha" type="matrix" values="0 0 0 0 0 0 0 0 0 0 0 0 0 0 0 0 0 0 127 0" result="hardAlpha"/>
<feOffset/>
<feGaussianBlur stdDeviation="2"/>
<feComposite in2="hardAlpha" operator="out"/>
<feColorMatrix type="matrix" values="0 0 0 0 0 0 0 0 0 0 0 0 0 0 0 0 0 0 0.17 0"/>
<feBlend mode="normal" in2="BackgroundImageFix" result="effect1_dropShadow_698_31633"/>
<feBlend mode="normal" in="SourceGraphic" in2="effect1_dropShadow_698_31633" result="shape"/>
</filter>
<clipPath id="clip0_698_31633">
<rect width="17" height="12.4667" fill="white" transform="translate(9 11)"/>
</clipPath>
</defs>
</svg>
