<svg width="20" height="20" viewBox="0 0 20 20" fill="none" xmlns="http://www.w3.org/2000/svg">
<rect width="20" height="20" fill="white"/>
<path opacity="0.4" d="M19.0466 5.85714V15.5714C19.0466 16.9071 17.9421 18 16.5921 18H3.50127C2.1513 18 1.04678 16.9071 1.04678 15.5714V9.90488C1.04678 9.45969 1.41495 9.0954 1.8649 9.0954C2.31484 9.0954 2.68301 9.45969 2.68301 9.90488V15.5714C2.68301 16.0166 3.05119 16.3809 3.50113 16.3809H16.5916C17.0416 16.3809 17.4098 16.0166 17.4098 15.5714L17.41 8.28571H3.50112C2.84655 8.28571 2.23292 8.04286 1.78298 7.59767C1.29208 7.11195 1.04663 6.50481 1.04663 5.85714C1.04663 4.52143 2.15115 3.42857 3.50112 3.42857H4.72837V1.80948C4.72837 1.36429 5.09655 1 5.54649 1C5.99643 1 6.36461 1.36429 6.36461 1.80948V3.42857H13.7281L13.7282 1.80948C13.7282 1.36429 14.0964 1 14.5463 1C14.9963 1 15.3645 1.36429 15.3645 1.80948V3.42857H16.5917C17.9418 3.42857 19.0463 4.52143 19.0463 5.85714H19.0466Z" fill="#64748B"/>
</svg>
