<svg width="20" height="20" viewBox="0 0 20 20" fill="none" xmlns="http://www.w3.org/2000/svg">
<path d="M19.0466 6.52414V16.2384C19.0466 17.5741 17.9421 18.667 16.5921 18.667H3.50127C2.1513 18.667 1.04678 17.5741 1.04678 16.2384V10.5719C1.04678 10.1267 1.41495 9.76239 1.8649 9.76239C2.31484 9.76239 2.68301 10.1267 2.68301 10.5719V16.2384C2.68301 16.6836 3.05119 17.0479 3.50113 17.0479H16.5916C17.0416 17.0479 17.4098 16.6836 17.4098 16.2384L17.41 8.95271H3.50112C2.84655 8.95271 2.23292 8.70985 1.78298 8.26466C1.29208 7.77894 1.04663 7.1718 1.04663 6.52414C1.04663 5.18842 2.15115 4.09556 3.50112 4.09556H4.72837V2.47647C4.72837 2.03128 5.09655 1.66699 5.54649 1.66699C5.99643 1.66699 6.36461 2.03128 6.36461 2.47647V4.09556H13.7281L13.7282 2.47647C13.7282 2.03128 14.0964 1.66699 14.5463 1.66699C14.9963 1.66699 15.3645 2.03128 15.3645 2.47647V4.09556H16.5917C17.9418 4.09556 19.0463 5.18842 19.0463 6.52414H19.0466Z" fill="#156FF7"/>
</svg>
