<svg width="34" height="34" viewBox="0 0 34 34" fill="none" xmlns="http://www.w3.org/2000/svg">
<g filter="url(#filter0_d_698_28014)">
<path d="M17 30C24.1797 30 30 24.1797 30 17C30 9.82031 24.1797 4 17 4C9.82031 4 4 9.82031 4 17C4 24.1797 9.82031 30 17 30Z" fill="#00ACEE"/>
<path d="M24.8001 12.6511C24.2264 12.9053 23.6101 13.077 22.9622 13.1547C23.6232 12.759 24.1302 12.131 24.3693 11.3835C23.7509 11.7504 23.066 12.0169 22.337 12.1598C21.753 11.5388 20.9217 11.1499 20.0011 11.1499C18.234 11.1499 16.8008 12.5831 16.8008 14.3515C16.8009 14.5966 16.8286 14.8409 16.8833 15.0798C14.2224 14.9458 11.8651 13.6713 10.2863 11.7353C10.0115 12.2093 9.85345 12.759 9.85345 13.3443C9.85345 14.4545 10.4189 15.435 11.277 16.0087C10.7688 15.9925 10.2718 15.8552 9.82735 15.6081V15.6493C9.82735 17.2 10.9301 18.4937 12.3948 18.7878C12.12 18.8619 11.8365 18.8993 11.5518 18.899C11.3497 18.8992 11.1479 18.8803 10.9493 18.8427C11.3567 20.1137 12.5384 21.0399 13.9393 21.0646C12.8435 21.9234 11.4632 22.4352 9.96407 22.4352C9.70574 22.4352 9.45084 22.4201 9.20007 22.3906C10.6168 23.2996 12.2987 23.8286 14.1056 23.8286C19.9935 23.8286 23.2123 18.9519 23.2123 14.7225C23.2123 14.5851 23.2089 14.4463 23.2027 14.3089C23.8279 13.8568 24.3707 13.2942 24.7987 12.6531L24.8001 12.6511Z" fill="white"/>
</g>
<defs>
<filter id="filter0_d_698_28014" x="0" y="0" width="34" height="34" filterUnits="userSpaceOnUse" color-interpolation-filters="sRGB">
<feFlood flood-opacity="0" result="BackgroundImageFix"/>
<feColorMatrix in="SourceAlpha" type="matrix" values="0 0 0 0 0 0 0 0 0 0 0 0 0 0 0 0 0 0 127 0" result="hardAlpha"/>
<feOffset/>
<feGaussianBlur stdDeviation="2"/>
<feComposite in2="hardAlpha" operator="out"/>
<feColorMatrix type="matrix" values="0 0 0 0 0 0 0 0 0 0 0 0 0 0 0 0 0 0 0.17 0"/>
<feBlend mode="normal" in2="BackgroundImageFix" result="effect1_dropShadow_698_28014"/>
<feBlend mode="normal" in="SourceGraphic" in2="effect1_dropShadow_698_28014" result="shape"/>
</filter>
</defs>
</svg>
