<svg width="20" height="20" viewBox="0 0 20 20" fill="none" xmlns="http://www.w3.org/2000/svg">
<g opacity="0.4">
<path d="M0.498535 15.2336C0.498535 14.3729 1.19628 13.6752 2.057 13.6752H2.23615C3.09686 13.6752 3.79461 14.3729 3.79461 15.2336V15.2336C3.79461 16.0943 3.09686 16.7921 2.23615 16.7921H2.057C1.19628 16.7921 0.498535 16.0943 0.498535 15.2336V15.2336Z" fill="#64748B"/>
<path d="M6.19733 15.2336C6.19733 14.3729 6.89507 13.6752 7.75579 13.6752H17.2289C18.0896 13.6752 18.7873 14.3729 18.7873 15.2336V15.2336C18.7873 16.0943 18.0896 16.7921 17.2289 16.7921H7.75579C6.89508 16.7921 6.19733 16.0943 6.19733 15.2336V15.2336Z" fill="#64748B"/>
<path d="M0.498535 9.99962C0.498535 9.13891 1.19628 8.44116 2.057 8.44116H2.23615C3.09686 8.44116 3.79461 9.13891 3.79461 9.99962V9.99962C3.79461 10.8603 3.09686 11.5581 2.23615 11.5581H2.057C1.19628 11.5581 0.498535 10.8603 0.498535 9.99962V9.99962Z" fill="#64748B"/>
<path d="M6.19733 9.99962C6.19733 9.13891 6.89507 8.44116 7.75579 8.44116H17.2289C18.0896 8.44116 18.7873 9.13891 18.7873 9.99962V9.99962C18.7873 10.8603 18.0896 11.5581 17.2289 11.5581H7.75579C6.89508 11.5581 6.19733 10.8603 6.19733 9.99962V9.99962Z" fill="#64748B"/>
<path d="M0.498535 4.76623C0.498535 3.90551 1.19628 3.20776 2.057 3.20776H2.23615C3.09686 3.20776 3.79461 3.90551 3.79461 4.76623V4.76623C3.79461 5.62694 3.09686 6.32469 2.23615 6.32469H2.057C1.19628 6.32469 0.498535 5.62694 0.498535 4.76623V4.76623Z" fill="#64748B"/>
<path d="M6.19727 4.76623C6.19727 3.90551 6.89501 3.20776 7.75573 3.20776H17.2288C18.0895 3.20776 18.7873 3.90551 18.7873 4.76623V4.76623C18.7873 5.62694 18.0895 6.32469 17.2288 6.32469H7.75573C6.89501 6.32469 6.19727 5.62694 6.19727 4.76623V4.76623Z" fill="#64748B"/>
</g>
</svg>
