<svg width="15" height="13" viewBox="0 0 15 13" fill="none" xmlns="http://www.w3.org/2000/svg">
<path d="M4 2.5V0.5C4 0.367392 4.05268 0.240215 4.14645 0.146447C4.24021 0.0526784 4.36739 0 4.5 0C4.63261 0 4.75979 0.0526784 4.85355 0.146447C4.94732 0.240215 5 0.367392 5 0.5V2.5C5 2.63261 4.94732 2.75979 4.85355 2.85355C4.75979 2.94732 4.63261 3 4.5 3C4.36739 3 4.24021 2.94732 4.14645 2.85355C4.05268 2.75979 4 2.63261 4 2.5ZM6.5 3C6.63261 3 6.75979 2.94732 6.85355 2.85355C6.94732 2.75979 7 2.63261 7 2.5V0.5C7 0.367392 6.94732 0.240215 6.85355 0.146447C6.75979 0.0526784 6.63261 0 6.5 0C6.36739 0 6.24021 0.0526784 6.14645 0.146447C6.05268 0.240215 6 0.367392 6 0.5V2.5C6 2.63261 6.05268 2.75979 6.14645 2.85355C6.24021 2.94732 6.36739 3 6.5 3ZM8.5 3C8.63261 3 8.75979 2.94732 8.85355 2.85355C8.94732 2.75979 9 2.63261 9 2.5V0.5C9 0.367392 8.94732 0.240215 8.85355 0.146447C8.75979 0.0526784 8.63261 0 8.5 0C8.36739 0 8.24021 0.0526784 8.14645 0.146447C8.05268 0.240215 8 0.367392 8 0.5V2.5C8 2.63261 8.05268 2.75979 8.14645 2.85355C8.24021 2.94732 8.36739 3 8.5 3ZM14.5 6.5V7C14.4997 7.63576 14.2571 8.2475 13.8217 8.71077C13.3863 9.17403 12.7908 9.45401 12.1562 9.49375C11.8119 10.457 11.2317 11.3186 10.4688 12H12C12.1326 12 12.2598 12.0527 12.3536 12.1464C12.4473 12.2402 12.5 12.3674 12.5 12.5C12.5 12.6326 12.4473 12.7598 12.3536 12.8536C12.2598 12.9473 12.1326 13 12 13H1C0.867392 13 0.740215 12.9473 0.646447 12.8536C0.552678 12.7598 0.5 12.6326 0.5 12.5C0.5 12.3674 0.552678 12.2402 0.646447 12.1464C0.740215 12.0527 0.867392 12 1 12H2.53125C1.89408 11.4359 1.38363 10.7432 1.03352 9.96762C0.683409 9.19199 0.501578 8.35099 0.5 7.5V4.5C0.5 4.36739 0.552678 4.24021 0.646447 4.14645C0.740215 4.05268 0.867392 4 1 4H12C12.663 4 13.2989 4.26339 13.7678 4.73223C14.2366 5.20107 14.5 5.83696 14.5 6.5ZM13.5 6.5C13.4996 6.1901 13.4033 5.88792 13.2243 5.63499C13.0452 5.38206 12.7922 5.1908 12.5 5.0875V7.5C12.5004 7.81401 12.4753 8.12754 12.425 8.4375C12.7352 8.34585 13.0075 8.15636 13.2013 7.8973C13.395 7.63824 13.4998 7.32349 13.5 7V6.5Z" fill="#64748B"/>
</svg>
