<svg width="34" height="34" viewBox="0 0 34 34" fill="none" xmlns="http://www.w3.org/2000/svg">
<g filter="url(#filter0_d_890_30001)">
<circle cx="17" cy="17" r="13" fill="#1E3A8A"/>
</g>
<path d="M22.6 17C22.5999 15.7518 22.1827 14.5395 21.4148 13.5554C20.6469 12.5714 19.5723 11.8721 18.3616 11.5687C17.1509 11.2652 15.8735 11.3749 14.7322 11.8803C13.5909 12.3858 12.6513 13.2581 12.0624 14.3586C11.4735 15.4592 11.2692 16.7249 11.4819 17.9548C11.6946 19.1847 12.3121 20.3084 13.2363 21.1472C14.1606 21.9861 15.3386 22.4922 16.5833 22.5851C17.828 22.6779 19.0681 22.3523 20.1066 21.6599L20.8836 22.8247C19.7343 23.5931 18.3825 24.0022 17 24C13.1339 24 10 20.8661 10 17C10 13.1339 13.1339 10 17 10C20.8661 10 24 13.1339 24 17V18.05C24.0001 18.5741 23.8321 19.0845 23.5207 19.506C23.2092 19.9276 22.7708 20.2382 22.2698 20.3922C21.7688 20.5462 21.2317 20.5355 20.7372 20.3616C20.2428 20.1877 19.8171 19.8599 19.5228 19.4262C19.0556 19.912 18.4581 20.2526 17.802 20.407C17.1459 20.5614 16.4592 20.5231 15.8244 20.2967C15.1896 20.0703 14.6336 19.6654 14.2233 19.1307C13.813 18.5959 13.5659 17.9541 13.5115 17.2823C13.4572 16.6105 13.5979 15.9373 13.9169 15.3436C14.2359 14.7498 14.7196 14.2608 15.3098 13.9353C15.8999 13.6098 16.5716 13.4616 17.2439 13.5086C17.9163 13.5555 18.5608 13.7956 19.1 14.2H20.5V18.05C20.5 18.3285 20.6106 18.5955 20.8075 18.7925C21.0045 18.9894 21.2715 19.1 21.55 19.1C21.8285 19.1 22.0955 18.9894 22.2925 18.7925C22.4894 18.5955 22.6 18.3285 22.6 18.05V17ZM17 14.9C16.443 14.9 15.9089 15.1212 15.5151 15.5151C15.1212 15.9089 14.9 16.443 14.9 17C14.9 17.5569 15.1212 18.0911 15.5151 18.4849C15.9089 18.8787 16.443 19.1 17 19.1C17.557 19.1 18.0911 18.8787 18.4849 18.4849C18.8788 18.0911 19.1 17.5569 19.1 17C19.1 16.443 18.8788 15.9089 18.4849 15.5151C18.0911 15.1212 17.557 14.9 17 14.9Z" fill="white"/>
<defs>
<filter id="filter0_d_890_30001" x="0" y="0" width="34" height="34" filterUnits="userSpaceOnUse" color-interpolation-filters="sRGB">
<feFlood flood-opacity="0" result="BackgroundImageFix"/>
<feColorMatrix in="SourceAlpha" type="matrix" values="0 0 0 0 0 0 0 0 0 0 0 0 0 0 0 0 0 0 127 0" result="hardAlpha"/>
<feOffset/>
<feGaussianBlur stdDeviation="2"/>
<feComposite in2="hardAlpha" operator="out"/>
<feColorMatrix type="matrix" values="0 0 0 0 0 0 0 0 0 0 0 0 0 0 0 0 0 0 0.17 0"/>
<feBlend mode="normal" in2="BackgroundImageFix" result="effect1_dropShadow_890_30001"/>
<feBlend mode="normal" in="SourceGraphic" in2="effect1_dropShadow_890_30001" result="shape"/>
</filter>
</defs>
</svg>
