<svg width="16" height="16" viewBox="0 0 16 16" fill="none" xmlns="http://www.w3.org/2000/svg">
<g clip-path="url(#clip0_102_621)">
<path d="M14.7131 4.88465C14.7131 4.02052 14.0349 3.30743 13.1898 3.30743C12.7457 3.30743 12.3505 3.50855 12.075 3.81982L9.45119 2.24514C9.49738 2.09523 9.52303 1.9354 9.52303 1.7693C9.52303 0.905193 8.84522 0.192079 7.99977 0.192079C7.15432 0.192079 6.4765 0.905193 6.4765 1.7693C6.4765 1.93554 6.50227 2.09519 6.54863 2.24519L3.92465 3.81996C3.64843 3.5088 3.25412 3.30743 2.8093 3.30743C1.96422 3.30743 1.28604 4.02094 1.28604 4.88465C1.28604 5.63317 1.79377 6.25909 2.47589 6.41737V9.58297C1.7937 9.74101 1.28604 10.3677 1.28604 11.1154C1.28604 11.9795 1.96385 12.6926 2.8093 12.6926C3.25409 12.6926 3.64876 12.4912 3.92508 12.1797L6.54894 13.7544C6.50252 13.9045 6.47688 14.0646 6.47688 14.2307C6.47688 15.0948 7.15469 15.8079 8.00014 15.8079C8.84562 15.8079 9.5234 15.0944 9.5234 14.2307C9.5234 14.0645 9.49764 13.9046 9.45126 13.7544L12.0749 12.1797C12.3512 12.4912 12.7458 12.6926 13.1903 12.6926C14.0357 12.6926 14.7139 11.9791 14.7139 11.1154C14.7139 10.3665 14.2058 9.74086 13.5237 9.58296V6.41734C14.2051 6.25898 14.7131 5.63275 14.7131 4.88465ZM12.8561 9.58303C12.5492 9.6543 12.2793 9.82092 12.0742 10.0514L9.45089 8.47629C9.4971 8.32623 9.52274 8.16614 9.52274 8.00003C9.52274 7.83362 9.4967 7.67402 9.4507 7.5243L12.0742 5.94939C12.2794 6.17998 12.5495 6.346 12.8561 6.41734V9.58303ZM3.92467 10.0515C3.71943 9.82103 3.44946 9.65438 3.14256 9.58303V6.41732C3.44955 6.34593 3.71958 6.17966 3.92472 5.94931L6.54867 7.52406C6.50226 7.67406 6.47662 7.83392 6.47662 8C6.47662 8.16645 6.50245 8.32598 6.54884 8.47625L3.92467 10.0515ZM9.11482 2.83428L11.7389 4.40877C11.6925 4.55905 11.6671 4.71889 11.6671 4.88465C11.6671 5.05136 11.6931 5.21102 11.7391 5.36077L9.11517 6.93573C8.91002 6.70537 8.63994 6.53911 8.33302 6.46772V3.3023C8.63998 3.23089 8.90977 3.06461 9.11482 2.83428ZM4.25939 4.40834L6.88376 2.83385C7.08875 3.06422 7.35898 3.23043 7.66561 3.30182V6.46726C7.35863 6.53866 7.0886 6.70492 6.88346 6.93528L4.25951 5.36053C4.30592 5.2105 4.33156 5.05057 4.33156 4.88419C4.33156 4.71815 4.30576 4.5585 4.25939 4.40834ZM6.8843 13.1657L4.26037 11.5916C4.30677 11.4416 4.33241 11.2818 4.33241 11.1157C4.33241 10.9494 4.30661 10.7897 4.26023 10.6395L6.88431 9.06462C7.0895 9.29497 7.3596 9.46095 7.66646 9.53228V12.698C7.35952 12.7693 7.08948 12.9353 6.8843 13.1657ZM11.7387 11.5922L9.11467 13.1669C8.9095 12.9365 8.63941 12.7702 8.33251 12.6986V9.5334C8.6395 9.462 8.90953 9.29573 9.11467 9.06537L11.7387 10.64C11.6919 10.7904 11.6666 10.9506 11.6666 11.1165C11.6666 11.283 11.6927 11.4424 11.7387 11.5922Z" fill="#64748B" stroke="#64748B" stroke-width="0.3"/>
</g>
<defs>
<clipPath id="clip0_102_621">
<rect width="16" height="16" fill="white"/>
</clipPath>
</defs>
</svg>
