<svg width="16" height="16" viewBox="0 0 16 16" fill="none" xmlns="http://www.w3.org/2000/svg">
<g clip-path="url(#clip0_102_603)">
<path d="M7.59893 11.4524L4.83957 9.84099C4.76471 9.78655 4.66845 9.84099 4.66845 9.93899V13.1618C4.66845 13.2489 4.71123 13.3251 4.7861 13.3687L7.54545 14.9801C7.62032 15.0236 7.71658 14.9692 7.71658 14.8821V11.6593C7.71658 11.5722 7.6738 11.496 7.59893 11.4524ZM7.72727 7.36943L7.71658 10.6358C7.71658 10.712 7.64171 10.7338 7.58824 10.712L4.21925 8.7522C4.14439 8.70865 4.04813 8.76309 4.04813 8.85019V12.7154C4.04813 12.8025 3.94118 12.8678 3.87701 12.8134L1.11765 11.2238C1.04278 11.1802 1 11.104 1 11.0169V3.51511C1 3.42801 1.10695 3.36268 1.17112 3.41712L7.59893 7.14079C7.6738 7.20612 7.72727 7.28233 7.72727 7.36943ZM14.8289 3.48245L12.1016 5.06119C12.0267 5.10475 11.984 5.18096 11.9733 5.26806L11.984 9.26393C11.984 9.35104 11.9412 9.42725 11.8663 9.47081L8.45455 11.4633C8.37968 11.5068 8.3369 11.5831 8.3369 11.6702V14.8821C8.3369 14.9692 8.43315 15.0345 8.50802 14.9801L14.8824 11.2782C14.9572 11.2346 15 11.1584 15 11.0713V3.59133C15 3.49333 14.9037 3.43889 14.8289 3.48245ZM8.3369 7.38032V10.5923C8.3369 10.6794 8.43315 10.7447 8.50802 10.6902L11.2995 9.06795C11.3316 9.05706 11.3529 9.01351 11.3529 8.96996V5.70358C11.3529 5.61648 11.2567 5.55115 11.1818 5.60559L8.45455 7.18434C8.37968 7.21701 8.3369 7.29322 8.3369 7.38032ZM1.52406 2.6223L4.24064 1.03266C4.31551 1 4.40107 1 4.48663 1.03266L10.9144 4.75633C10.9893 4.79989 10.9893 4.91965 10.9144 4.9632L8.18716 6.55284C8.1123 6.59639 8.02674 6.59639 7.95187 6.55284L1.52406 2.82917C1.45989 2.78562 1.45989 2.66585 1.52406 2.6223ZM8.81818 2.6223L11.5668 1.03266C11.6417 0.989112 11.7273 0.989112 11.8021 1.03266L14.5722 2.64408C14.6471 2.68763 14.6471 2.8074 14.5722 2.85095L11.8235 4.44059C11.7487 4.48414 11.6631 4.48414 11.5882 4.44059L8.81818 2.82917C8.74332 2.78562 8.74332 2.66585 8.81818 2.6223Z" fill="#64748B"/>
</g>
<defs>
<clipPath id="clip0_102_603">
<rect width="16" height="16" fill="white"/>
</clipPath>
</defs>
</svg>
