<svg width="16" height="16" viewBox="0 0 16 16" fill="none" xmlns="http://www.w3.org/2000/svg">
<path d="M11.3166 4.80724C11.8571 5.34776 12.6347 5.5037 13.3141 5.27945C13.6394 5.91399 13.8394 6.5964 13.9121 7.29041H15.1238C15.0416 6.34224 14.7642 5.40863 14.2942 4.55371C14.8364 3.79007 14.7672 2.72573 14.0827 2.04127C13.3985 1.35702 12.3342 1.2878 11.5703 1.82983C10.7151 1.35957 9.78134 1.08244 8.83334 1.0001V2.21176C9.52735 2.28465 10.2101 2.48441 10.8446 2.80979C10.6198 3.48915 10.7759 4.26683 11.3165 4.80735L11.3166 4.80724ZM2.54775 7.29041C2.62094 6.5964 2.8204 5.91368 3.14578 5.27945C3.82514 5.5037 4.60282 5.34776 5.14334 4.80724C5.68386 4.26672 5.83979 3.48907 5.61554 2.80969C6.24978 2.48439 6.93249 2.28442 7.6265 2.21165L7.6266 1C6.67855 1.08234 5.74475 1.35944 4.88965 1.82973C4.126 1.2878 3.06167 1.35702 2.37721 2.04127C1.69265 2.72583 1.62374 3.79006 2.16577 4.55371C1.69541 5.40873 1.41828 6.34245 1.33594 7.2904L2.54775 7.29041ZM5.61573 12.9782C5.83998 12.2989 5.68404 11.5212 5.14352 10.9807C4.603 10.4401 3.82535 10.2842 3.14597 10.5085C2.82066 9.87423 2.62101 9.19151 2.54793 8.4975H1.3361C1.41844 9.44535 1.69554 10.3792 2.16582 11.2342C1.62358 11.9978 1.69312 13.0622 2.37737 13.7466C3.06193 14.4309 4.12616 14.5001 4.88981 13.9581C5.74483 14.4283 6.67865 14.7056 7.6265 14.7877L7.6264 13.5762C6.93259 13.503 6.24996 13.3035 5.61562 12.9782L5.61573 12.9782ZM13.9122 8.4974C13.841 9.17473 13.6483 9.8418 13.3364 10.4633C12.634 10.1864 11.8033 10.331 11.2352 10.8993C10.6671 11.4671 10.5224 12.2978 10.7995 13.0003C10.1777 13.3122 9.51088 13.5047 8.83355 13.576V14.7876C9.79004 14.7048 10.7318 14.4236 11.5931 13.946C12.3471 14.4113 13.3476 14.3192 14.0014 13.6653C14.6551 13.0114 14.7474 12.0106 14.282 11.2571C14.7596 10.3957 15.0409 9.45389 15.124 8.49748L13.9122 8.4974Z" fill="#63A93E"/>
</svg>
