<svg width="16" height="16" viewBox="0 0 16 16" fill="none" xmlns="http://www.w3.org/2000/svg">
<g clip-path="url(#clip0_491_4935)">
<g clip-path="url(#clip1_491_4935)">
<g clip-path="url(#clip2_491_4935)">
<path d="M14.3553 4.15555L11.5553 5.73332V3.55555C11.5553 3.3198 11.4617 3.0937 11.295 2.92701C11.1283 2.76031 10.9022 2.66666 10.6664 2.66666H2.66645C2.19495 2.66666 1.74277 2.85396 1.40937 3.18736C1.07597 3.52075 0.888672 3.97294 0.888672 4.44443V11.5555C0.888672 12.027 1.07597 12.4792 1.40937 12.8126C1.74277 13.146 2.19495 13.3333 2.66645 13.3333H10.6664C10.9022 13.3333 11.1283 13.2397 11.295 13.073C11.4617 12.9063 11.5553 12.6802 11.5553 12.4444V10.2578L14.3553 11.8355C14.4272 11.8825 14.5101 11.9097 14.5958 11.9144C14.6815 11.9192 14.7669 11.9013 14.8434 11.8625C14.92 11.8238 14.985 11.7656 15.032 11.6938C15.0789 11.6219 15.1061 11.539 15.1109 11.4533V4.53332C15.1054 4.44803 15.0777 4.36566 15.0304 4.29443C14.9832 4.2232 14.9181 4.1656 14.8416 4.12737C14.7652 4.08915 14.6801 4.07163 14.5947 4.07658C14.5094 4.08152 14.4269 4.10875 14.3553 4.15555Z" fill="#64748B"/>
</g>
</g>
</g>
<defs>
<clipPath id="clip0_491_4935">
<rect width="16" height="16" fill="white"/>
</clipPath>
<clipPath id="clip1_491_4935">
<rect width="16" height="16" fill="white"/>
</clipPath>
<clipPath id="clip2_491_4935">
<rect width="16" height="16" fill="white"/>
</clipPath>
</defs>
</svg>
