<svg width="16" height="16" viewBox="0 0 16 16" fill="none" xmlns="http://www.w3.org/2000/svg">
<path fill-rule="evenodd" clip-rule="evenodd" d="M13.3633 3.32235C13.4261 3.37005 13.4789 3.42968 13.5187 3.49781C13.5584 3.56595 13.5844 3.64126 13.595 3.71943C13.6056 3.7976 13.6007 3.8771 13.5806 3.95338C13.5605 4.02965 13.5255 4.10121 13.4777 4.16395L7.07767 12.564C7.02576 12.632 6.95989 12.6881 6.88449 12.7286C6.80908 12.7691 6.72589 12.793 6.6405 12.7987C6.5551 12.8044 6.46948 12.7917 6.38937 12.7616C6.30927 12.7314 6.23654 12.6845 6.17607 12.624L2.57607 9.02395C2.47009 8.91021 2.41239 8.75978 2.41513 8.60434C2.41788 8.44889 2.48084 8.30059 2.59078 8.19066C2.70071 8.08073 2.84901 8.01776 3.00445 8.01501C3.1599 8.01227 3.31033 8.06997 3.42407 8.17595L6.53927 11.2904L12.5233 3.43675C12.6196 3.31032 12.7621 3.22726 12.9196 3.20581C13.0771 3.18436 13.2367 3.22628 13.3633 3.32235Z" fill="white"/>
</svg>
