<svg width="28" height="28" viewBox="0 0 28 28" fill="none" xmlns="http://www.w3.org/2000/svg">
<g filter="url(#filter0_d_194_9906)">
<path d="M14 24C19.5228 24 24 19.5228 24 14C24 8.47716 19.5228 4 14 4C8.47716 4 4 8.47716 4 14C4 19.5228 8.47716 24 14 24Z" fill="#0088CC"/>
<path d="M8.16185 13.9132C8.16185 13.9132 13.1618 11.8612 14.8959 11.1387C15.5607 10.8497 17.815 9.9248 17.815 9.9248C17.815 9.9248 18.8555 9.5202 18.7688 10.5028C18.7398 10.9075 18.5086 12.3236 18.2774 13.8554C17.9306 16.0231 17.5549 18.393 17.5549 18.393C17.5549 18.393 17.4971 19.0578 17.0058 19.1734C16.5144 19.289 15.7052 18.7688 15.5607 18.6531C15.445 18.5664 13.393 17.2658 12.6416 16.63C12.4393 16.4566 12.2081 16.1098 12.6705 15.7052C13.711 14.7514 14.9537 13.5664 15.7052 12.815C16.052 12.4682 16.3988 11.6589 14.9537 12.6416C12.9017 14.0578 10.8786 15.3872 10.8786 15.3872C10.8786 15.3872 10.4162 15.6762 9.54913 15.4161C8.68205 15.156 7.67049 14.8092 7.67049 14.8092C7.67049 14.8092 6.97689 14.3757 8.16185 13.9132Z" fill="white"/>
</g>
<defs>
<filter id="filter0_d_194_9906" x="0" y="0" width="28" height="28" filterUnits="userSpaceOnUse" color-interpolation-filters="sRGB">
<feFlood flood-opacity="0" result="BackgroundImageFix"/>
<feColorMatrix in="SourceAlpha" type="matrix" values="0 0 0 0 0 0 0 0 0 0 0 0 0 0 0 0 0 0 127 0" result="hardAlpha"/>
<feOffset/>
<feGaussianBlur stdDeviation="2"/>
<feComposite in2="hardAlpha" operator="out"/>
<feColorMatrix type="matrix" values="0 0 0 0 0 0 0 0 0 0 0 0 0 0 0 0 0 0 0.24 0"/>
<feBlend mode="normal" in2="BackgroundImageFix" result="effect1_dropShadow_194_9906"/>
<feBlend mode="normal" in="SourceGraphic" in2="effect1_dropShadow_194_9906" result="shape"/>
</filter>
</defs>
</svg>
