<svg width="20" height="20" viewBox="0 0 20 20" fill="none" xmlns="http://www.w3.org/2000/svg">
<circle cx="10" cy="10" r="9.5" fill="url(#paint0_linear_309_21961)" stroke="#CBD5E1"/>
<path d="M14 11.4016H11.3333C11.1565 11.4016 10.987 11.4753 10.8619 11.6066C10.7369 11.7379 10.6667 11.9159 10.6667 12.1015C10.6667 12.2872 10.7369 12.4652 10.8619 12.5965C10.987 12.7277 11.1565 12.8015 11.3333 12.8015H13.7727C13.572 13.3951 13.2471 13.9339 12.8218 14.3782C12.3965 14.8225 11.8817 15.161 11.3153 15.3688C11.3474 15.5694 11.3373 15.7749 11.286 15.9711C11.2347 16.1672 11.1432 16.3492 11.0181 16.5045C10.8929 16.6598 10.737 16.7845 10.5613 16.8701C10.3855 16.9557 10.1941 17 10.0003 17C9.80659 17 9.61518 16.9557 9.43941 16.8701C9.26365 16.7845 9.10776 16.6598 8.9826 16.5045C8.85743 16.3492 8.766 16.1672 8.71466 15.9711C8.66332 15.7749 8.65332 15.5694 8.68533 15.3688C8.11869 15.1612 7.60363 14.8228 7.17811 14.3785C6.75259 13.9341 6.42746 13.3952 6.22667 12.8015H8.66667C8.84348 12.8015 9.01305 12.7277 9.13807 12.5965C9.2631 12.4652 9.33333 12.2872 9.33333 12.1015C9.33333 11.9159 9.2631 11.7379 9.13807 11.6066C9.01305 11.4753 8.84348 11.4016 8.66667 11.4016H6V10.0017H8.66667C8.84348 10.0017 9.01305 9.92799 9.13807 9.79673C9.2631 9.66547 9.33333 9.48744 9.33333 9.30181C9.33333 9.11617 9.2631 8.93814 9.13807 8.80688C9.01305 8.67562 8.84348 8.60188 8.66667 8.60188H6V7.20202H8.66667C8.84348 7.20202 9.01305 7.12828 9.13807 6.99701C9.2631 6.86575 9.33333 6.68772 9.33333 6.50209C9.33333 6.31646 9.2631 6.13843 9.13807 6.00716C9.01305 5.8759 8.84348 5.80216 8.66667 5.80216H6.22733C6.50294 4.98274 7.01381 4.27321 7.68954 3.77136C8.36528 3.2695 9.17262 3 10.0003 3C10.828 3 11.6354 3.2695 12.3111 3.77136C12.9869 4.27321 13.4977 4.98274 13.7733 5.80216H11.3333C11.1565 5.80216 10.987 5.8759 10.8619 6.00716C10.7369 6.13843 10.6667 6.31646 10.6667 6.50209C10.6667 6.68772 10.7369 6.86575 10.8619 6.99701C10.987 7.12828 11.1565 7.20202 11.3333 7.20202H14V8.60188H11.3333C11.1565 8.60188 10.987 8.67562 10.8619 8.80688C10.7369 8.93814 10.6667 9.11617 10.6667 9.30181C10.6667 9.48744 10.7369 9.66547 10.8619 9.79673C10.987 9.92799 11.1565 10.0017 11.3333 10.0017H14V11.4016Z" fill="white"/>
<defs>
<linearGradient id="paint0_linear_309_21961" x1="0" y1="10" x2="20" y2="10" gradientUnits="userSpaceOnUse">
<stop stop-color="#427DFF"/>
<stop offset="1" stop-color="#44D5BB"/>
</linearGradient>
</defs>
</svg>
