<svg width="15" height="14" viewBox="0 0 15 14" fill="none" xmlns="http://www.w3.org/2000/svg">
<path d="M10.3166 3.80724C10.8571 4.34776 11.6348 4.5037 12.3141 4.27945C12.6394 4.91399 12.8394 5.5964 12.9122 6.29041H14.1238C14.0416 5.34224 13.7643 4.40863 13.2942 3.55371C13.8364 2.79007 13.7672 1.72573 13.0828 1.04127C12.3985 0.357024 11.3343 0.2878 10.5703 0.829829C9.71509 0.359574 8.78137 0.0824442 7.83337 0.000104089V1.21176C8.52738 1.28465 9.2101 1.48441 9.84464 1.80979C9.61988 2.48915 9.77592 3.26683 10.3165 3.80735L10.3166 3.80724ZM1.54778 6.29041C1.62097 5.5964 1.82043 4.91368 2.14581 4.27945C2.82517 4.5037 3.60285 4.34776 4.14337 3.80724C4.68389 3.26672 4.83982 2.48907 4.61557 1.80969C5.24981 1.48439 5.93252 1.28442 6.62653 1.21165L6.62663 0C5.67858 0.0823427 4.74478 0.359444 3.88968 0.829725C3.12603 0.2878 2.0617 0.357024 1.37724 1.04127C0.69268 1.72583 0.623768 2.79006 1.1658 3.55371C0.695438 4.40873 0.418308 5.34245 0.335968 6.2904L1.54778 6.29041ZM4.61576 11.9782C4.84001 11.2989 4.68407 10.5212 4.14355 9.98067C3.60303 9.44015 2.82538 9.28421 2.146 9.50846C1.82069 8.87423 1.62104 8.19151 1.54796 7.4975H0.336126C0.418469 8.44535 0.695571 9.37917 1.16585 10.2342C0.623614 10.9978 0.693151 12.0622 1.3774 12.7466C2.06196 13.4309 3.12619 13.5001 3.88984 12.9581C4.74486 13.4283 5.67868 13.7056 6.62653 13.7877L6.62643 12.5762C5.93263 12.503 5.24999 12.3035 4.61565 11.9782L4.61576 11.9782ZM12.9122 7.4974C12.8411 8.17473 12.6483 8.8418 12.3364 9.46334C11.634 9.18641 10.8034 9.33098 10.2352 9.89934C9.66716 10.4671 9.52238 11.2978 9.79951 12.0003C9.17777 12.3122 8.51091 12.5047 7.83358 12.576V13.7876C8.79007 13.7048 9.7318 13.4236 10.5932 12.946C11.3472 13.4113 12.3477 13.3192 13.0014 12.6653C13.6552 12.0114 13.7475 11.0106 13.2821 10.2571C13.7597 9.39573 14.0409 8.45389 14.124 7.49748L12.9122 7.4974Z" fill="#64748B"/>
</svg>
