<svg width="16" height="16" viewBox="0 0 16 16" fill="none" xmlns="http://www.w3.org/2000/svg">
<g clip-path="url(#clip0_881_53542)">
<g clip-path="url(#clip1_881_53542)">
<g clip-path="url(#clip2_881_53542)">
<path d="M14.3556 4.1549L11.5556 5.73268V3.5549C11.5556 3.31916 11.4619 3.09306 11.2952 2.92637C11.1285 2.75967 10.9024 2.66602 10.6667 2.66602H2.66669C2.1952 2.66602 1.74301 2.85332 1.40962 3.18671C1.07622 3.52011 0.888916 3.9723 0.888916 4.44379V11.5549C0.888916 12.0264 1.07622 12.4786 1.40962 12.812C1.74301 13.1454 2.1952 13.3327 2.66669 13.3327H10.6667C10.9024 13.3327 11.1285 13.239 11.2952 13.0723C11.4619 12.9056 11.5556 12.6795 11.5556 12.4438V10.2571L14.3556 11.8349C14.4274 11.8818 14.5103 11.909 14.596 11.9138C14.6817 11.9185 14.7671 11.9006 14.8437 11.8619C14.9203 11.8231 14.9853 11.7649 15.0322 11.6931C15.0792 11.6213 15.1064 11.5384 15.1111 11.4527V4.53268C15.1057 4.44739 15.0779 4.36501 15.0307 4.29378C14.9834 4.22255 14.9183 4.16496 14.8419 4.12673C14.7654 4.08851 14.6803 4.07099 14.595 4.07594C14.5096 4.08088 14.4271 4.10811 14.3556 4.1549Z" fill="#67AED7"/>
</g>
</g>
</g>
<defs>
<clipPath id="clip0_881_53542">
<rect width="16" height="16" fill="white"/>
</clipPath>
<clipPath id="clip1_881_53542">
<rect width="16" height="16" fill="white"/>
</clipPath>
<clipPath id="clip2_881_53542">
<rect width="16" height="16" fill="white"/>
</clipPath>
</defs>
</svg>
