<svg width="34" height="35" viewBox="0 0 34 35" fill="none" xmlns="http://www.w3.org/2000/svg">
<g filter="url(#filter0_d_698_28007)">
<path d="M10.8469 26.6578L11.2717 26.8702C13.004 27.9006 14.9844 28.4391 16.9999 28.4279C23.2046 28.4138 28.3026 23.3037 28.3026 17.099C28.3026 14.1004 27.1117 11.2207 24.9939 9.09798C22.8789 6.95328 19.9893 5.74463 16.978 5.74463C10.8016 5.74463 5.71985 10.8271 5.71985 17.0027C5.71985 17.0516 5.71985 17.0997 5.72056 17.1486C5.73916 19.2483 6.32642 21.3037 7.4199 23.0963L7.70311 23.5211L6.57023 27.6986L10.8469 26.6578Z" fill="#00E676"/>
<path d="M26.2542 7.82369C23.8433 5.36389 20.5359 3.98391 17.092 4.00014H17.07C9.97743 4.00016 4.14092 9.8367 4.14092 16.9293C4.14092 16.9626 4.14163 16.9951 4.14163 17.0284C4.16834 19.2834 4.75211 21.4969 5.84097 23.4717L4 30.1983L10.8611 28.4281C12.7565 29.4687 14.8873 30.0051 17.0495 29.9859C24.1683 29.9469 30.0041 24.0771 29.9998 16.9576C30.0168 13.537 28.668 10.2474 26.2542 7.82369ZM17.092 27.7909C15.1754 27.8009 13.2925 27.2867 11.647 26.304L11.2222 26.0915L7.13669 27.1536L8.19877 23.1177L7.91556 22.6929C6.86352 20.9942 6.30616 19.0357 6.30613 17.0376C6.30613 11.1452 11.1549 6.29638 17.0474 6.29638C22.9398 6.29638 27.7886 11.1452 27.7886 17.0376C27.7886 20.7479 25.8662 24.2046 22.7139 26.1623C21.0467 27.2303 19.1073 27.7957 17.1274 27.7909M23.3512 19.9315L22.5723 19.5774C22.5723 19.5774 21.4394 19.0818 20.7314 18.7278C20.6606 18.7278 20.5898 18.657 20.519 18.657C20.3444 18.6613 20.1738 18.71 20.0233 18.7986C19.8725 18.8871 19.9525 18.8694 18.9612 20.0023C18.894 20.1347 18.7559 20.2175 18.6072 20.2147H18.5364C18.43 20.1969 18.3313 20.1475 18.2532 20.0731L17.8992 19.9315C17.1395 19.6099 16.444 19.1542 15.8458 18.5862C15.7042 18.4445 15.4918 18.3029 15.3501 18.1613C14.826 17.6592 14.3733 17.0874 14.0048 16.462L13.934 16.3204C13.8725 16.2338 13.8248 16.1383 13.7924 16.0371C13.7739 15.9145 13.799 15.7892 13.8632 15.6831C13.9277 15.5769 14.1465 15.3291 14.3589 15.1167C14.5713 14.9043 14.5713 14.7627 14.7129 14.621C14.7857 14.52 14.836 14.4045 14.8604 14.2823C14.8848 14.1602 14.8828 14.0343 14.8545 13.913C14.5245 12.9968 14.1464 12.0986 13.7216 11.2224C13.6078 11.0453 13.4304 10.9186 13.226 10.8683H12.4471C12.3055 10.8683 12.1639 10.9391 12.0223 10.9391L11.9515 11.0099C11.8099 11.0807 11.6683 11.2224 11.5266 11.2932C11.385 11.364 11.3142 11.5764 11.1726 11.718C10.6776 12.3435 10.4037 13.1154 10.3938 13.913C10.4016 14.474 10.522 15.0278 10.7478 15.5415L10.8186 15.7539C11.4544 17.1132 12.3435 18.3388 13.4384 19.365L13.7216 19.6482C13.9277 19.8189 14.1174 20.0086 14.2881 20.2147C15.7551 21.4913 17.4977 22.4118 19.379 22.9053C19.5914 22.9761 19.8746 22.9761 20.087 23.0469H20.7951C21.1652 23.0287 21.5272 22.9321 21.8572 22.7637C22.0306 22.6851 22.1963 22.5902 22.3528 22.4805L22.4944 22.3388C22.6361 22.1972 22.7777 22.1264 22.9193 21.9848C23.0577 21.8615 23.177 21.7184 23.2733 21.56C23.4093 21.2428 23.5048 20.91 23.5565 20.5687V20.0731C23.4929 20.0159 23.4214 19.9682 23.3441 19.9315" fill="white"/>
</g>
<defs>
<filter id="filter0_d_698_28007" x="0" y="0" width="34" height="34.1982" filterUnits="userSpaceOnUse" color-interpolation-filters="sRGB">
<feFlood flood-opacity="0" result="BackgroundImageFix"/>
<feColorMatrix in="SourceAlpha" type="matrix" values="0 0 0 0 0 0 0 0 0 0 0 0 0 0 0 0 0 0 127 0" result="hardAlpha"/>
<feOffset/>
<feGaussianBlur stdDeviation="2"/>
<feComposite in2="hardAlpha" operator="out"/>
<feColorMatrix type="matrix" values="0 0 0 0 0 0 0 0 0 0 0 0 0 0 0 0 0 0 0.17 0"/>
<feBlend mode="normal" in2="BackgroundImageFix" result="effect1_dropShadow_698_28007"/>
<feBlend mode="normal" in="SourceGraphic" in2="effect1_dropShadow_698_28007" result="shape"/>
</filter>
</defs>
</svg>
