<svg width="34" height="34" viewBox="0 0 34 34" fill="none" xmlns="http://www.w3.org/2000/svg">
<g filter="url(#filter0_d_698_31622)">
<path fill-rule="evenodd" clip-rule="evenodd" d="M17 4C24.1796 4 29.9999 9.82029 29.9999 17C29.9999 24.1796 24.1796 29.9999 17 29.9999C9.82029 29.9999 4 24.1796 4 17C4 9.82029 9.82029 4 17 4Z" fill="#586ACB"/>
<path d="M18.6891 29.8908V19.8494H21.52L21.8952 16.3153H18.6891L18.6939 14.5463C18.6939 13.6246 18.7815 13.1309 20.1055 13.1309H21.8754V9.59619H19.0439C15.6428 9.59619 14.4458 11.3105 14.4458 14.1939V16.3156H12.3257V19.85H14.4458V29.7485C15.2718 29.913 16.1257 29.9999 17 29.9999C17.5648 30 18.129 29.9635 18.6891 29.8908Z" fill="white"/>
</g>
<defs>
<filter id="filter0_d_698_31622" x="0" y="0" width="33.9999" height="34" filterUnits="userSpaceOnUse" color-interpolation-filters="sRGB">
<feFlood flood-opacity="0" result="BackgroundImageFix"/>
<feColorMatrix in="SourceAlpha" type="matrix" values="0 0 0 0 0 0 0 0 0 0 0 0 0 0 0 0 0 0 127 0" result="hardAlpha"/>
<feOffset/>
<feGaussianBlur stdDeviation="2"/>
<feComposite in2="hardAlpha" operator="out"/>
<feColorMatrix type="matrix" values="0 0 0 0 0 0 0 0 0 0 0 0 0 0 0 0 0 0 0.17 0"/>
<feBlend mode="normal" in2="BackgroundImageFix" result="effect1_dropShadow_698_31622"/>
<feBlend mode="normal" in="SourceGraphic" in2="effect1_dropShadow_698_31622" result="shape"/>
</filter>
</defs>
</svg>
