<svg width="16" height="16" viewBox="0 0 16 16" fill="none" xmlns="http://www.w3.org/2000/svg">
<g clip-path="url(#clip0_3791_98537)">
<g clip-path="url(#clip1_3791_98537)">
<path d="M9.33335 10.6667H12.6667V14M6.66669 5.33333H3.33335V2M12.9454 6.002C12.5716 5.07679 11.9457 4.27501 11.1389 3.68778C10.3322 3.10055 9.37684 2.75143 8.38153 2.68011C7.38622 2.60878 6.39087 2.81812 5.50861 3.28432C4.62635 3.75052 3.89257 4.45488 3.39069 5.31733M3.05469 9.998C3.42855 10.923 4.0544 11.7247 4.86111 12.3118C5.66781 12.8989 6.62303 13.2479 7.61821 13.3192C8.61339 13.3905 9.60862 13.1813 10.4908 12.7152C11.373 12.2491 12.1067 11.5449 12.6087 10.6827" stroke="#156FF7" stroke-width="1.3" stroke-linecap="round" stroke-linejoin="round"/>
</g>
</g>
<defs>
<clipPath id="clip0_3791_98537">
<rect width="16" height="16" fill="white"/>
</clipPath>
<clipPath id="clip1_3791_98537">
<rect width="16" height="16" fill="white"/>
</clipPath>
</defs>
</svg>
