<svg width="8" height="17" viewBox="0 0 8 17" fill="none" xmlns="http://www.w3.org/2000/svg">
<g clip-path="url(#clip0_6441_59172)">
<path d="M0.666899 4.89844C0.84371 4.89844 1.01328 4.96868 1.1383 5.0937C1.26333 5.21872 1.33357 5.38829 1.33357 5.5651L1.33357 8.23177C1.33357 8.40858 1.4038 8.57815 1.52883 8.70318C1.65385 8.8282 1.82342 8.89844 2.00023 8.89844L5.39357 8.89844L4.5269 8.03844C4.40136 7.9129 4.33084 7.74264 4.33084 7.5651C4.33084 7.38757 4.40136 7.21731 4.5269 7.09177C4.65243 6.96624 4.8227 6.89571 5.00023 6.89571C5.17777 6.89571 5.34803 6.96624 5.47357 7.09177L7.47357 9.09177C7.53426 9.15517 7.58184 9.22994 7.61357 9.31177C7.68024 9.47408 7.68024 9.65613 7.61357 9.81844C7.58184 9.90027 7.53426 9.97503 7.47357 10.0384L5.47357 12.0384C5.41159 12.1009 5.33786 12.1505 5.25662 12.1844C5.17538 12.2182 5.08824 12.2356 5.00023 12.2356C4.91222 12.2356 4.82509 12.2182 4.74385 12.1844C4.66261 12.1505 4.58887 12.1009 4.5269 12.0384C4.46441 11.9765 4.41482 11.9027 4.38097 11.8215C4.34713 11.7402 4.3297 11.6531 4.3297 11.5651C4.3297 11.4771 4.34713 11.39 4.38097 11.3087C4.41482 11.2275 4.46441 11.1537 4.5269 11.0918L5.39357 10.2318L2.00023 10.2318C1.4698 10.2318 0.961091 10.0211 0.586018 9.64598C0.210945 9.27091 0.000232369 8.7622 0.000232345 8.23177L0.000232229 5.5651C0.000232221 5.38829 0.0704698 5.21872 0.195494 5.0937C0.320518 4.96868 0.490088 4.89844 0.666899 4.89844Z" fill="black"/>
</g>
<defs>
<clipPath id="clip0_6441_59172">
<rect width="16" height="8" fill="white" transform="matrix(0 1 1 0 0 0.890625)"/>
</clipPath>
</defs>
</svg>
