<svg width="14" height="14" viewBox="0 0 14 14" fill="none" xmlns="http://www.w3.org/2000/svg">
<path fill-rule="evenodd" clip-rule="evenodd" d="M6.53463 1.41047C5.36768 1.41047 4.24852 1.87404 3.42336 2.6992C2.5982 3.52436 2.13463 4.64351 2.13463 5.81047C2.13463 6.97742 2.5982 8.09658 3.42336 8.92174C4.24852 9.7469 5.36768 10.2105 6.53463 10.2105C7.70158 10.2105 8.82074 9.7469 9.6459 8.92174C10.4711 8.09658 10.9346 6.97742 10.9346 5.81047C10.9346 4.64351 10.4711 3.52436 9.6459 2.6992C8.82074 1.87404 7.70158 1.41047 6.53463 1.41047ZM0.934631 5.81047C0.934707 4.915 1.14952 4.03261 1.56105 3.23732C1.97259 2.44202 2.56884 1.75701 3.29979 1.23974C4.03075 0.722478 4.87509 0.388045 5.76199 0.264496C6.64889 0.140947 7.55249 0.231886 8.39698 0.529684C9.24148 0.827482 10.0022 1.32345 10.6155 1.976C11.2287 2.62854 11.6765 3.41863 11.9213 4.27998C12.1661 5.14133 12.2008 6.04883 12.0224 6.92635C11.8441 7.80387 11.4579 8.62583 10.8962 9.32327L13.5586 11.9865C13.6176 12.0414 13.6649 12.1076 13.6977 12.1812C13.7304 12.2548 13.7481 12.3343 13.7495 12.4148C13.7509 12.4954 13.7361 12.5754 13.7059 12.6501C13.6758 12.7249 13.6308 12.7927 13.5739 12.8497C13.5169 12.9067 13.449 12.9516 13.3743 12.9818C13.2996 13.0119 13.2196 13.0268 13.139 13.0253C13.0585 13.0239 12.979 13.0063 12.9054 12.9735C12.8318 12.9407 12.7656 12.8934 12.7106 12.8345L10.0474 10.1721C9.22467 10.8348 8.23122 11.2512 7.18184 11.3733C6.13245 11.4954 5.06993 11.3182 4.11699 10.8621C3.16405 10.406 2.35957 9.68963 1.79645 8.79575C1.23333 7.90187 0.93456 6.86693 0.934631 5.81047Z" fill="#64748B"/>
</svg>
