<svg width="32" height="33" viewBox="0 0 32 33" fill="none" xmlns="http://www.w3.org/2000/svg">
<rect y="0.500977" width="32" height="32" rx="16" fill="#F1F5F9"/>
<path d="M16.7032 20.8101C16.793 20.8996 16.8643 21.0059 16.9129 21.123C16.9615 21.2401 16.9866 21.3657 16.9866 21.4925C16.9866 21.6193 16.9615 21.7449 16.9129 21.862C16.8643 21.9791 16.793 22.0854 16.7032 22.175L16.2263 22.6519C15.3226 23.5556 14.0969 24.0633 12.8188 24.0633C11.5408 24.0633 10.3151 23.5556 9.41141 22.6519C8.5077 21.7482 8 20.5225 8 19.2444C8 17.9664 8.5077 16.7407 9.41141 15.837L11.348 13.9012C12.2163 13.0308 13.3845 12.5253 14.6135 12.4883C15.8424 12.4512 17.039 12.8855 17.9581 13.7021C18.053 13.7865 18.1303 13.8887 18.1857 14.0029C18.2411 14.1172 18.2735 14.2412 18.2809 14.368C18.2884 14.4947 18.2708 14.6217 18.2292 14.7416C18.1876 14.8616 18.1227 14.9721 18.0384 15.067C17.954 15.1619 17.8518 15.2393 17.7376 15.2947C17.6233 15.3501 17.4993 15.3824 17.3726 15.3899C17.2458 15.3973 17.1188 15.3797 16.9989 15.3381C16.879 15.2965 16.7684 15.2317 16.6735 15.1473C16.1223 14.6578 15.405 14.3974 14.6681 14.4194C13.9313 14.4413 13.2307 14.7439 12.7096 15.2653L10.7747 17.1987C10.2326 17.7408 9.92799 18.4761 9.92799 19.2428C9.92799 20.0095 10.2326 20.7448 10.7747 21.287C11.3168 21.8291 12.0521 22.1337 12.8188 22.1337C13.5855 22.1337 14.3208 21.8291 14.863 21.287L15.3399 20.8101C15.4294 20.7205 15.5356 20.6494 15.6526 20.6009C15.7696 20.5524 15.8949 20.5275 16.0215 20.5275C16.1482 20.5275 16.2735 20.5524 16.3905 20.6009C16.5075 20.6494 16.6137 20.7205 16.7032 20.8101ZM22.6509 9.40912C21.7465 8.5068 20.5211 8.00006 19.2435 8.00006C17.9659 8.00006 16.7405 8.5068 15.8361 9.40912L15.3592 9.88603C15.1782 10.067 15.0765 10.3125 15.0765 10.5685C15.0765 10.8244 15.1782 11.0699 15.3592 11.2509C15.5402 11.4319 15.7856 11.5336 16.0416 11.5336C16.2976 11.5336 16.5431 11.4319 16.7241 11.2509L17.201 10.774C17.7431 10.2319 18.4784 9.92731 19.2451 9.92731C20.0118 9.92731 20.7471 10.2319 21.2893 10.774C21.8314 11.3162 22.136 12.0515 22.136 12.8182C22.136 13.5849 21.8314 14.3202 21.2893 14.8623L19.3535 16.7989C18.832 17.3201 18.131 17.6222 17.394 17.6436C16.657 17.6649 15.9397 17.4038 15.3889 16.9137C15.294 16.8293 15.1834 16.7645 15.0635 16.7229C14.9435 16.6813 14.8165 16.6637 14.6898 16.6711C14.563 16.6786 14.439 16.7109 14.3248 16.7663C14.2105 16.8217 14.1083 16.8991 14.024 16.994C13.9396 17.0888 13.8748 17.1994 13.8332 17.3194C13.7916 17.4393 13.774 17.5663 13.7814 17.693C13.7889 17.8198 13.8212 17.9438 13.8766 18.058C13.932 18.1723 14.0094 18.2745 14.1043 18.3589C15.0227 19.1753 16.2185 19.6098 17.4469 19.5736C18.6752 19.5373 19.8433 19.033 20.712 18.1638L22.6485 16.228C23.5519 15.3238 24.0595 14.098 24.06 12.8199C24.0605 11.5417 23.5537 10.3156 22.6509 9.41072V9.40912Z" fill="#156FF7"/>
</svg>
