<svg width="26" height="26" viewBox="0 0 26 26" fill="none" xmlns="http://www.w3.org/2000/svg">
<g clip-path="url(#clip0_1916_7496)">
<g filter="url(#filter0_d_1916_7496)">
<path d="M13 26C20.1797 26 26 20.1797 26 13C26 5.82031 20.1797 0 13 0C5.82031 0 0 5.82031 0 13C0 20.1797 5.82031 26 13 26Z" fill="#2AABEE"/>
</g>
<g clip-path="url(#clip1_1916_7496)">
<path d="M13 0C9.55297 0 6.24406 1.37048 3.80859 3.80758C1.37063 6.24565 0.00069763 9.55212 0 13C0 16.4464 1.37109 19.7553 3.80859 22.1924C6.24406 24.6295 9.55297 26 13 26C16.447 26 19.7559 24.6295 22.1914 22.1924C24.6289 19.7553 26 16.4464 26 13C26 9.55358 24.6289 6.24467 22.1914 3.80758C19.7559 1.37048 16.447 0 13 0Z" fill="url(#paint0_linear_1916_7496)"/>
<path d="M5.88442 12.8627C9.67473 11.2117 12.2016 10.1232 13.465 9.59723C17.0766 8.09553 17.8261 7.83472 18.3157 7.82588C18.4233 7.82416 18.663 7.85077 18.8194 7.97721C18.9494 8.08385 18.986 8.22807 19.0043 8.32933C19.0205 8.43048 19.0429 8.66103 19.0246 8.841C18.8296 10.8966 17.9825 15.885 17.5519 18.1874C17.3711 19.1616 17.0116 19.4882 16.6643 19.5201C15.9086 19.5896 15.3358 19.0212 14.6046 18.542C13.461 17.7919 12.815 17.3251 11.7039 16.5933C10.4202 15.7475 11.253 15.2825 11.9843 14.5228C12.1752 14.324 15.5024 11.2984 15.5654 11.024C15.5735 10.9897 15.5816 10.8617 15.5044 10.7942C15.4293 10.7266 15.3175 10.7498 15.2363 10.768C15.1205 10.794 13.2944 12.0022 9.75192 14.3924C9.23395 14.7487 8.76473 14.9224 8.34223 14.9132C7.8791 14.9033 6.98535 14.6508 6.32113 14.4351C5.50863 14.1704 4.86067 14.0304 4.91754 13.5809C4.94598 13.3469 5.26895 13.1074 5.88442 12.8627Z" fill="white"/>
</g>
</g>
<defs>
<filter id="filter0_d_1916_7496" x="-1" y="-1" width="28" height="28" filterUnits="userSpaceOnUse" color-interpolation-filters="sRGB">
<feFlood flood-opacity="0" result="BackgroundImageFix"/>
<feColorMatrix in="SourceAlpha" type="matrix" values="0 0 0 0 0 0 0 0 0 0 0 0 0 0 0 0 0 0 127 0" result="hardAlpha"/>
<feOffset/>
<feGaussianBlur stdDeviation="0.5"/>
<feComposite in2="hardAlpha" operator="out"/>
<feColorMatrix type="matrix" values="0 0 0 0 0 0 0 0 0 0 0 0 0 0 0 0 0 0 0.17 0"/>
<feBlend mode="normal" in2="BackgroundImageFix" result="effect1_dropShadow_1916_7496"/>
<feBlend mode="normal" in="SourceGraphic" in2="effect1_dropShadow_1916_7496" result="shape"/>
</filter>
<linearGradient id="paint0_linear_1916_7496" x1="1300" y1="0" x2="1300" y2="2600" gradientUnits="userSpaceOnUse">
<stop stop-color="#2AABEE"/>
<stop offset="1" stop-color="#229ED9"/>
</linearGradient>
<clipPath id="clip0_1916_7496">
<rect width="26" height="26" fill="white"/>
</clipPath>
<clipPath id="clip1_1916_7496">
<rect width="26" height="26" fill="white"/>
</clipPath>
</defs>
</svg>
