<svg width="26" height="26" viewBox="0 0 26 26" fill="none" xmlns="http://www.w3.org/2000/svg">
<path d="M13 26C20.1797 26 26 20.1797 26 13C26 5.82031 20.1797 0 13 0C5.82031 0 0 5.82031 0 13C0 20.1797 5.82031 26 13 26Z" fill="#0088CC"/>
<path d="M5.4108 12.8865C5.4108 12.8865 11.9108 10.2189 14.1651 9.27955C15.0293 8.90385 17.9599 7.70151 17.9599 7.70151C17.9599 7.70151 19.3125 7.17553 19.1998 8.45296C19.1622 8.97899 18.8616 10.82 18.5611 12.8113C18.1102 15.6293 17.6217 18.7102 17.6217 18.7102C17.6217 18.7102 17.5466 19.5744 16.9079 19.7246C16.2692 19.8749 15.2171 19.1987 15.0293 19.0483C14.879 18.9356 12.2114 17.2449 11.2345 16.4183C10.9715 16.1928 10.6709 15.742 11.272 15.216C12.6247 13.9761 14.2402 12.4356 15.2171 11.4588C15.668 11.0079 16.1188 9.95586 14.2402 11.2333C11.5726 13.0744 8.94258 14.8027 8.94258 14.8027C8.94258 14.8027 8.34141 15.1784 7.21426 14.8402C6.08706 14.5021 4.77203 14.0512 4.77203 14.0512C4.77203 14.0512 3.87035 13.4877 5.4108 12.8865Z" fill="white"/>
</svg>
