<svg xmlns="http://www.w3.org/2000/svg" width="12" height="11" viewBox="0 0 12 11" fill="none">
  <path fill-rule="evenodd" clip-rule="evenodd" d="M11.3623 0.929165C11.4251 0.976866 11.4779 1.03649 11.5177 1.10463C11.5575 1.17276 11.5834 1.24807 11.594 1.32624C11.6047 1.40441 11.5998 1.48391 11.5796 1.56019C11.5595 1.63646 11.5245 1.70802 11.4767 1.77076L5.0767 10.1708C5.02478 10.2388 4.95891 10.295 4.88351 10.3354C4.80811 10.3759 4.72492 10.3998 4.63952 10.4055C4.55412 10.4112 4.4685 10.3985 4.3884 10.3684C4.3083 10.3383 4.23557 10.2913 4.1751 10.2308L0.575096 6.63076C0.469112 6.51702 0.411413 6.36659 0.414156 6.21115C0.416899 6.05571 0.479868 5.9074 0.589799 5.79747C0.699729 5.68754 0.848037 5.62457 1.00348 5.62182C1.15892 5.61908 1.30936 5.67678 1.4231 5.78276L4.5383 8.89716L10.5223 1.04356C10.6186 0.917127 10.7611 0.834068 10.9186 0.812619C11.0761 0.791171 11.2357 0.833087 11.3623 0.929165Z" fill="white"/>
</svg>