<svg width="14" height="14" viewBox="0 0 14 14" fill="none" xmlns="http://www.w3.org/2000/svg">
<g clip-path="url(#clip0_2510_42709)">
<g clip-path="url(#clip1_2510_42709)">
<g clip-path="url(#clip2_2510_42709)">
<path d="M13.3625 4.11667L11 5.3V3.66667C11 3.48986 10.921 3.32029 10.7803 3.19526C10.6397 3.07024 10.4489 3 10.25 3H3.5C3.10218 3 2.72064 3.14048 2.43934 3.39052C2.15804 3.64057 2 3.97971 2 4.33333V9.66667C2 10.0203 2.15804 10.3594 2.43934 10.6095C2.72064 10.8595 3.10218 11 3.5 11H10.25C10.4489 11 10.6397 10.9298 10.7803 10.8047C10.921 10.6797 11 10.5101 11 10.3333V8.69333L13.3625 9.87667C13.4231 9.91187 13.4931 9.93227 13.5654 9.93582C13.6377 9.93937 13.7097 9.92595 13.7743 9.8969C13.8389 9.86785 13.8938 9.82419 13.9334 9.77032C13.973 9.71645 13.996 9.65426 14 9.59V4.4C13.9954 4.33603 13.972 4.27425 13.9321 4.22083C13.8922 4.1674 13.8373 4.1242 13.7728 4.09554C13.7083 4.06687 13.6365 4.05373 13.5645 4.05744C13.4925 4.06115 13.4228 4.08157 13.3625 4.11667Z" fill="black"/>
</g>
</g>
</g>
<defs>
<clipPath id="clip0_2510_42709">
<rect width="14" height="14" fill="white"/>
</clipPath>
<clipPath id="clip1_2510_42709">
<rect width="16" height="12" fill="white" transform="translate(-1 1)"/>
</clipPath>
<clipPath id="clip2_2510_42709">
<rect width="16" height="12" fill="white" transform="translate(-1 1)"/>
</clipPath>
</defs>
</svg>
