<svg width="25" height="25" viewBox="0 0 25 25" fill="none" xmlns="http://www.w3.org/2000/svg">
<rect x="0.75" y="0.890625" width="23" height="23" rx="3.5" fill="#F2E9F9"/>
<rect x="0.75" y="0.890625" width="23" height="23" rx="3.5" stroke="#8F3EF5"/>
<g clip-path="url(#clip0_6810_46262)">
<g clip-path="url(#clip1_6810_46262)">
<g clip-path="url(#clip2_6810_46262)">
<path d="M17.6125 9.50729L15.25 10.6906V9.05729C15.25 8.88048 15.171 8.71091 15.0303 8.58589C14.8897 8.46086 14.6989 8.39062 14.5 8.39062H7.75C7.35218 8.39062 6.97064 8.5311 6.68934 8.78115C6.40804 9.0312 6.25 9.37034 6.25 9.72396V15.0573C6.25 15.4109 6.40804 15.7501 6.68934 16.0001C6.97064 16.2501 7.35218 16.3906 7.75 16.3906H14.5C14.6989 16.3906 14.8897 16.3204 15.0303 16.1954C15.171 16.0703 15.25 15.9008 15.25 15.724V14.084L17.6125 15.2673C17.6731 15.3025 17.7431 15.3229 17.8154 15.3264C17.8877 15.33 17.9597 15.3166 18.0243 15.2875C18.0889 15.2585 18.1438 15.2148 18.1834 15.1609C18.223 15.1071 18.246 15.0449 18.25 14.9806V9.79062C18.2454 9.72665 18.222 9.66487 18.1821 9.61145C18.1422 9.55803 18.0873 9.51483 18.0228 9.48616C17.9583 9.45749 17.8865 9.44436 17.8145 9.44807C17.7425 9.45177 17.6728 9.47219 17.6125 9.50729Z" fill="#8F3EF5"/>
</g>
</g>
</g>
<defs>
<clipPath id="clip0_6810_46262">
<rect width="14" height="14" fill="white" transform="translate(5.25 5.39062)"/>
</clipPath>
<clipPath id="clip1_6810_46262">
<rect width="16" height="12" fill="white" transform="translate(4.25 6.39062)"/>
</clipPath>
<clipPath id="clip2_6810_46262">
<rect width="16" height="12" fill="white" transform="translate(4.25 6.39062)"/>
</clipPath>
</defs>
</svg>
