<svg width="16" height="12" viewBox="0 0 16 12" fill="none" xmlns="http://www.w3.org/2000/svg">
<g clip-path="url(#clip0_2510_42716)">
<g clip-path="url(#clip1_2510_42716)">
<path d="M14.3625 3.11667L12 4.3V2.66667C12 2.48986 11.921 2.32029 11.7803 2.19526C11.6397 2.07024 11.4489 2 11.25 2H4.5C4.10218 2 3.72064 2.14048 3.43934 2.39052C3.15804 2.64057 3 2.97971 3 3.33333V8.66667C3 9.02029 3.15804 9.35943 3.43934 9.60948C3.72064 9.85952 4.10218 10 4.5 10H11.25C11.4489 10 11.6397 9.92976 11.7803 9.80474C11.921 9.67971 12 9.51014 12 9.33333V7.69333L14.3625 8.87667C14.4231 8.91187 14.4931 8.93227 14.5654 8.93582C14.6377 8.93937 14.7097 8.92595 14.7743 8.8969C14.8389 8.86785 14.8938 8.82419 14.9334 8.77032C14.973 8.71645 14.996 8.65426 15 8.59V3.4C14.9954 3.33603 14.972 3.27425 14.9321 3.22083C14.8922 3.1674 14.8373 3.1242 14.7728 3.09554C14.7083 3.06687 14.6365 3.05373 14.5645 3.05744C14.4925 3.06115 14.4228 3.08157 14.3625 3.11667Z" fill="white"/>
</g>
</g>
<defs>
<clipPath id="clip0_2510_42716">
<rect width="16" height="12" fill="white"/>
</clipPath>
<clipPath id="clip1_2510_42716">
<rect width="16" height="12" fill="white"/>
</clipPath>
</defs>
</svg>
