<svg width="24" height="24" viewBox="0 0 24 24" fill="none" xmlns="http://www.w3.org/2000/svg">
<rect x="0.5" y="0.5" width="23" height="23" rx="11.5" fill="#F2E9F9"/>
<rect x="0.5" y="0.5" width="23" height="23" rx="11.5" stroke="#8F3EF5"/>
<g clip-path="url(#clip0_6810_46746)">
<g clip-path="url(#clip1_6810_46746)">
<g clip-path="url(#clip2_6810_46746)">
<path d="M17.3625 9.11667L15 10.3V8.66667C15 8.48986 14.921 8.32029 14.7803 8.19526C14.6397 8.07024 14.4489 8 14.25 8H7.5C7.10218 8 6.72064 8.14048 6.43934 8.39052C6.15804 8.64057 6 8.97971 6 9.33333V14.6667C6 15.0203 6.15804 15.3594 6.43934 15.6095C6.72064 15.8595 7.10218 16 7.5 16H14.25C14.4489 16 14.6397 15.9298 14.7803 15.8047C14.921 15.6797 15 15.5101 15 15.3333V13.6933L17.3625 14.8767C17.4231 14.9119 17.4931 14.9323 17.5654 14.9358C17.6377 14.9394 17.7097 14.9259 17.7743 14.8969C17.8389 14.8678 17.8938 14.8242 17.9334 14.7703C17.973 14.7164 17.996 14.6543 18 14.59V9.4C17.9954 9.33603 17.972 9.27425 17.9321 9.22083C17.8922 9.1674 17.8373 9.1242 17.7728 9.09554C17.7083 9.06687 17.6365 9.05373 17.5645 9.05744C17.4925 9.06115 17.4228 9.08157 17.3625 9.11667Z" fill="#8F3EF5"/>
</g>
</g>
</g>
<defs>
<clipPath id="clip0_6810_46746">
<rect width="14" height="14" fill="white" transform="translate(5 5)"/>
</clipPath>
<clipPath id="clip1_6810_46746">
<rect width="16" height="12" fill="white" transform="translate(4 6)"/>
</clipPath>
<clipPath id="clip2_6810_46746">
<rect width="16" height="12" fill="white" transform="translate(4 6)"/>
</clipPath>
</defs>
</svg>
