<svg width="26" height="26" viewBox="0 0 26 26" fill="none" xmlns="http://www.w3.org/2000/svg">
<g clip-path="url(#clip0_1916_7556)">
<g filter="url(#filter0_d_1916_7556)">
<path d="M13 26C20.1797 26 26 20.1797 26 13C26 5.82031 20.1797 0 13 0C5.82031 0 0 5.82031 0 13C0 20.1797 5.82031 26 13 26Z" fill="#60D769"/>
</g>
<path d="M5.0684 12.6188C5.068 14.0472 5.44412 15.4418 6.15932 16.6711L5 20.8711L9.33181 19.7441C10.5299 20.3913 11.8723 20.7304 13.2365 20.7305H13.2401C17.7434 20.7305 21.4092 17.0944 21.4112 12.6252C21.412 10.4596 20.5628 8.42313 19.02 6.89102C17.4773 5.35904 15.4257 4.5149 13.2398 4.51392C8.73588 4.51392 5.07032 8.14981 5.06846 12.6188" fill="url(#paint0_linear_1916_7556)"/>
<path d="M4.77711 12.6162C4.77664 14.0959 5.16625 15.5405 5.90695 16.8138L4.70605 21.1644L9.19319 19.997C10.4295 20.6658 11.8216 21.0185 13.238 21.019H13.2416C17.9066 21.019 21.7041 17.2521 21.7061 12.6229C21.7069 10.3795 20.8271 8.26981 19.2291 6.68281C17.6309 5.09602 15.5059 4.2215 13.2416 4.22058C8.57594 4.22058 4.77897 7.98694 4.77711 12.6162ZM7.44936 16.5945L7.28182 16.3306C6.57752 15.2194 6.20577 13.9353 6.2063 12.6167C6.20777 8.769 9.36366 5.63857 13.2443 5.63857C15.1236 5.63936 16.8897 6.36627 18.2181 7.68515C19.5465 9.00417 20.2774 10.7575 20.2769 12.6224C20.2752 16.4701 17.1192 19.601 13.2416 19.601H13.2389C11.9763 19.6003 10.738 19.2639 9.6581 18.6281L9.40111 18.4769L6.73835 19.1696L7.44936 16.5945Z" fill="url(#paint1_linear_1916_7556)"/>
<path d="M11.1259 9.10625C10.9674 8.75683 10.8007 8.74978 10.65 8.74365C10.5266 8.73838 10.3856 8.73878 10.2446 8.73878C10.1036 8.73878 9.87443 8.79142 9.68073 9.00129C9.48682 9.21135 8.94043 9.71898 8.94043 10.7514C8.94043 11.7839 9.69832 12.7817 9.80398 12.9219C9.90976 13.0618 11.2671 15.2483 13.4168 16.0895C15.2034 16.7885 15.567 16.6495 15.9547 16.6145C16.3425 16.5795 17.2061 16.107 17.3823 15.6169C17.5586 15.127 17.5586 14.707 17.5057 14.6192C17.4528 14.5318 17.3118 14.4792 17.1003 14.3743C16.8888 14.2694 15.8489 13.7617 15.6551 13.6916C15.4612 13.6217 15.3202 13.5867 15.1792 13.7969C15.0381 14.0067 14.6331 14.4792 14.5097 14.6192C14.3863 14.7595 14.2629 14.7769 14.0515 14.672C13.8398 14.5667 13.1587 14.3453 12.3506 13.6305C11.7219 13.0742 11.2974 12.3873 11.174 12.1772C11.0506 11.9674 11.1608 11.8537 11.2668 11.7491C11.3619 11.6551 11.4784 11.504 11.5843 11.3816C11.6897 11.259 11.7249 11.1716 11.7954 11.0316C11.866 10.8915 11.8307 10.769 11.7779 10.664C11.7249 10.559 11.3139 9.52117 11.1259 9.10625Z" fill="white"/>
</g>
<defs>
<filter id="filter0_d_1916_7556" x="-1" y="-1" width="28" height="28" filterUnits="userSpaceOnUse" color-interpolation-filters="sRGB">
<feFlood flood-opacity="0" result="BackgroundImageFix"/>
<feColorMatrix in="SourceAlpha" type="matrix" values="0 0 0 0 0 0 0 0 0 0 0 0 0 0 0 0 0 0 127 0" result="hardAlpha"/>
<feOffset/>
<feGaussianBlur stdDeviation="0.5"/>
<feComposite in2="hardAlpha" operator="out"/>
<feColorMatrix type="matrix" values="0 0 0 0 0 0 0 0 0 0 0 0 0 0 0 0 0 0 0.17 0"/>
<feBlend mode="normal" in2="BackgroundImageFix" result="effect1_dropShadow_1916_7556"/>
<feBlend mode="normal" in="SourceGraphic" in2="effect1_dropShadow_1916_7556" result="shape"/>
</filter>
<linearGradient id="paint0_linear_1916_7556" x1="825.559" y1="1640.24" x2="825.559" y2="4.51392" gradientUnits="userSpaceOnUse">
<stop stop-color="#1FAF38"/>
<stop offset="1" stop-color="#60D669"/>
</linearGradient>
<linearGradient id="paint1_linear_1916_7556" x1="854.706" y1="1698.6" x2="854.706" y2="4.22058" gradientUnits="userSpaceOnUse">
<stop stop-color="#F9F9F9"/>
<stop offset="1" stop-color="white"/>
</linearGradient>
<clipPath id="clip0_1916_7556">
<rect width="26" height="26" fill="white"/>
</clipPath>
</defs>
</svg>
