<svg width="26" height="26" viewBox="0 0 26 26" fill="none" xmlns="http://www.w3.org/2000/svg">
<g clip-path="url(#clip0_1916_7457)">
<g filter="url(#filter0_d_1916_7457)">
<path d="M13 26C20.1797 26 26 20.1797 26 13C26 5.82031 20.1797 0 13 0C5.82031 0 0 5.82031 0 13C0 20.1797 5.82031 26 13 26Z" fill="black"/>
</g>
<mask id="mask0_1916_7457" style="mask-type:luminance" maskUnits="userSpaceOnUse" x="6" y="6" width="14" height="14">
<path d="M20 6H6V20H20V6Z" fill="white"/>
</mask>
<g mask="url(#mask0_1916_7457)">
<path d="M17.025 6.65625H19.1722L14.4823 12.0305L20 19.3438H15.6801L12.2965 14.9075L8.42462 19.3438H6.2765L11.2929 13.595L6 6.65625H10.4301L13.4882 10.7101L17.025 6.65625ZM16.2725 18.0557H17.4625L9.78262 7.87687H8.50688L16.2725 18.0557Z" fill="white"/>
</g>
</g>
<defs>
<filter id="filter0_d_1916_7457" x="-1" y="-1" width="28" height="28" filterUnits="userSpaceOnUse" color-interpolation-filters="sRGB">
<feFlood flood-opacity="0" result="BackgroundImageFix"/>
<feColorMatrix in="SourceAlpha" type="matrix" values="0 0 0 0 0 0 0 0 0 0 0 0 0 0 0 0 0 0 127 0" result="hardAlpha"/>
<feOffset/>
<feGaussianBlur stdDeviation="0.5"/>
<feComposite in2="hardAlpha" operator="out"/>
<feColorMatrix type="matrix" values="0 0 0 0 0 0 0 0 0 0 0 0 0 0 0 0 0 0 0.17 0"/>
<feBlend mode="normal" in2="BackgroundImageFix" result="effect1_dropShadow_1916_7457"/>
<feBlend mode="normal" in="SourceGraphic" in2="effect1_dropShadow_1916_7457" result="shape"/>
</filter>
<clipPath id="clip0_1916_7457">
<rect width="26" height="26" fill="white"/>
</clipPath>
</defs>
</svg>
