<svg width="26" height="26" viewBox="0 0 26 26" fill="none" xmlns="http://www.w3.org/2000/svg">
<path d="M13 26C20.1797 26 26 20.1797 26 13C26 5.82031 20.1797 0 13 0C5.82031 0 0 5.82031 0 13C0 20.1797 5.82031 26 13 26Z" fill="black"/>
<g clip-path="url(#clip0_2036_23504)">
<path d="M17.025 6.65625H19.1722L14.4823 12.0305L20 19.3438H15.6801L12.2965 14.9075L8.42462 19.3438H6.2765L11.2929 13.595L6 6.65625H10.4301L13.4882 10.7101L17.025 6.65625ZM16.2725 18.0557H17.4625L9.78262 7.87687H8.50688L16.2725 18.0557Z" fill="white"/>
</g>
<defs>
<clipPath id="clip0_2036_23504">
<rect width="14" height="14" fill="white" transform="translate(6 6)"/>
</clipPath>
</defs>
</svg>
