<?xml version="1.0" encoding="UTF-8"?>
<!-- Generated by Pixelmator Pro 3.2.3 -->
<svg width="173" height="27" viewBox="0 0 173 27" xmlns="http://www.w3.org/2000/svg" xmlns:xlink="http://www.w3.org/1999/xlink">
    <g id="Group">
        <path id="Path" fill="#231f20" stroke="none" d="M 35.278999 17.6217 C 34.937901 18.454201 34.391102 19.1257 33.654598 19.617001 C 32.917 20.1084 31.9716 20.3578 30.843901 20.3578 C 29.716101 20.3578 28.792 20.111601 28.0193 19.625601 C 27.2465 19.1395 26.6528 18.473301 26.255199 17.6451 C 25.855499 16.8116 25.653 15.8704 25.653 14.8472 C 25.653 13.8239 25.855499 12.8657 26.255199 12.0386 C 26.651699 11.2178 27.245399 10.5548 28.0193 10.0688 C 28.7931 9.58276 29.7428 9.33654 30.843901 9.33654 C 31.944901 9.33654 32.917 9.58596 33.654598 10.077301 C 34.391102 10.568699 34.937901 11.2402 35.278999 12.0727 L 35.3195 12.1718 L 37.335098 12.1718 L 37.2626 11.9597 C 36.9589 11.0761 36.495201 10.2894 35.8866 9.62326 C 35.276901 8.956009 34.527599 8.423069 33.658901 8.039349 C 32.789101 7.65563 31.798901 7.460569 30.716 7.460569 C 29.2855 7.460569 28.0299 7.795259 26.9853 8.455051 C 25.941799 9.11483 25.129601 10.015499 24.572201 11.1304 C 24.0158 12.2422 23.7344 13.4924 23.7344 14.8472 C 23.7344 16.2019 24.0158 17.4533 24.572201 18.5639 C 25.129601 19.679899 25.941799 20.5795 26.9853 21.2393 C 28.0299 21.899099 29.2845 22.233801 30.716 22.233801 C 31.799999 22.233801 32.789101 22.0387 33.658901 21.655001 C 34.527599 21.271299 35.278 20.735201 35.887699 20.059401 C 36.4963 19.3857 36.9589 18.603399 37.2626 17.734699 L 37.337299 17.5215 L 35.320599 17.5215 L 35.280102 17.6206 L 35.278999 17.6217 Z"/>
        <path id="path1" fill="#231f20" stroke="none" d="M 42.917198 11.2594 C 42.4258 11.4864 42.012299 11.7668 41.688202 12.0908 C 41.364201 12.4148 41.115799 12.7378 40.9464 13.0554 C 40.936798 13.0746 40.926102 13.0927 40.9165 13.1109 L 40.9165 11.0846 L 38.997898 11.0846 L 38.997898 22.063299 L 40.9165 22.063299 L 40.9165 17.213499 C 40.9165 16.4578 41.0658 15.7372 41.361 15.0721 C 41.654099 14.4112 42.081501 13.8666 42.632599 13.4509 C 43.177299 13.0405 43.837101 12.8327 44.5938 12.8327 L 44.945599 12.8327 L 44.945599 10.914101 L 44.6791 10.914101 C 44.005501 10.914101 43.4128 11.0302 42.917198 11.2594 Z"/>
        <path id="path2" fill="#231f20" stroke="none" d="M 51.118198 19.551001 L 47.793701 11.0846 L 45.6758 11.0846 L 50.0896 21.752001 L 48.0783 26.284201 L 50.156799 26.284201 L 56.6022 11.0846 L 54.504501 11.0846 L 51.118198 19.551001 Z"/>
        <path id="path3" fill="#231f20" stroke="none" d="M 66.028297 11.674 C 65.231003 11.1699 64.287697 10.914101 63.224998 10.914101 C 62.322201 10.914101 61.533401 11.0889 60.880001 11.4332 C 60.371601 11.7018 59.932499 12.0514 59.569 12.4777 L 59.569 11.0846 L 57.650398 11.0846 L 57.650398 26.284201 L 59.569 26.284201 L 59.569 20.641399 C 59.9314 21.060301 60.370499 21.412001 60.877899 21.691299 C 61.530201 22.0515 62.320099 22.233801 63.224998 22.233801 C 64.287697 22.233801 65.231003 21.978001 66.028297 21.473801 C 66.824501 20.9697 67.449097 20.277901 67.886101 19.4177 C 68.322098 18.560801 68.542702 17.6036 68.542702 16.5739 C 68.542702 15.5443 68.322098 14.569 67.885101 13.7195 C 67.447998 12.8668 66.822403 12.1782 66.027199 11.6751 L 66.028297 11.674 Z M 66.625198 16.5739 C 66.625198 17.271 66.480202 17.925501 66.193497 18.519199 C 65.908897 19.108601 65.494301 19.5851 64.960297 19.9368 C 64.428398 20.2875 63.7729 20.464399 63.011799 20.464399 C 62.250801 20.464399 61.621899 20.2864 61.096401 19.9368 C 60.569901 19.5861 60.165901 19.109699 59.895199 18.521299 C 59.622299 17.927601 59.4837 17.2721 59.4837 16.5739 C 59.4837 15.8758 59.622299 15.2032 59.895199 14.6159 C 60.164799 14.035 60.569901 13.5617 61.096401 13.2111 C 61.621899 12.8614 62.265701 12.6834 63.011799 12.6834 C 63.7579 12.6834 64.427299 12.8614 64.960297 13.2111 C 65.4953 13.5628 65.910004 14.0371 66.194603 14.6191 C 66.4813 15.2053 66.626198 15.863 66.626198 16.5739 L 66.625198 16.5739 Z"/>
        <path id="path4" fill="#231f20" stroke="none" d="M 73.403702 7.268681 L 71.4851 7.268681 L 71.4851 11.0846 L 69.310699 11.0846 L 69.310699 12.8113 L 71.4851 12.8113 L 71.4851 22.0632 L 73.403702 22.0632 L 73.403702 12.8113 L 75.855202 12.8113 L 75.855202 11.0846 L 73.403702 11.0846 L 73.403702 7.268681 Z"/>
        <path id="path5" fill="#231f20" stroke="none" d="M 84.764801 11.674 C 83.953598 11.1699 82.975098 10.914101 81.856003 10.914101 C 80.736801 10.914101 79.775299 11.1699 78.957802 11.673 C 78.140297 12.1761 77.503899 12.8646 77.065903 13.7184 C 76.629898 14.569 76.408203 15.5294 76.408203 16.572901 C 76.408203 17.6164 76.628799 18.5597 77.064796 19.4167 C 77.502899 20.277901 78.139198 20.9697 78.956703 21.473801 C 79.7743 21.978001 80.749603 22.2327 81.854897 22.2327 C 82.960197 22.2327 83.952599 21.9769 84.763702 21.472799 C 85.573799 20.968599 86.206902 20.2768 86.643898 19.4167 C 87.079903 18.5597 87.300499 17.602501 87.300499 16.572901 C 87.300499 15.5432 87.079903 14.5679 86.642899 13.7184 C 86.204803 12.8646 85.572701 12.1771 84.762604 11.673 L 84.764801 11.674 Z M 83.780998 19.937901 C 83.264 20.2875 82.615898 20.464399 81.856003 20.464399 C 81.096001 20.464399 80.464996 20.2864 79.940598 19.9368 C 79.414001 19.5861 79.010002 19.109699 78.739304 18.521299 C 78.4664 17.927601 78.327904 17.2721 78.327904 16.5739 C 78.327904 15.8758 78.4664 15.2032 78.739304 14.6159 C 79.010002 14.035 79.414001 13.5617 79.940598 13.2111 C 80.466003 12.8614 81.109802 12.6834 81.856003 12.6834 C 82.602097 12.6834 83.262901 12.8604 83.780998 13.21 C 84.301102 13.5617 84.701897 14.035 84.972603 14.6159 C 85.245499 15.2032 85.384102 15.8619 85.384102 16.5739 C 85.384102 17.285999 85.245499 17.927601 84.972603 18.521299 C 84.701897 19.109699 84.301102 19.5861 83.780998 19.9368 L 83.780998 19.937901 Z"/>
        <path id="path6" fill="#231f20" stroke="none" d="M 89.4347 22.0632 L 100.136002 22.0632 L 100.136002 20.208599 L 91.353302 20.208599 L 91.353302 15.7745 L 99.198196 15.7745 L 99.198196 13.8985 L 91.353302 13.8985 L 91.353302 9.48575 L 100.136002 9.48575 L 100.136002 7.6311 L 89.4347 7.6311 L 89.4347 22.0632 Z"/>
        <path id="path7" fill="#231f20" stroke="none" d="M 104.730003 13.2132 C 105.283997 12.8614 105.944 12.6834 106.691002 12.6834 C 107.439003 12.6834 108.025002 12.8668 108.527 13.2292 C 109.031998 13.5926 109.403999 14.0712 109.633003 14.65 L 109.674004 14.7513 L 111.724998 14.7513 L 111.663002 14.5455 C 111.341003 13.4797 110.714996 12.5982 109.803001 11.9256 C 108.889999 11.2541 107.772003 10.914101 106.477997 10.914101 C 105.387001 10.914101 104.425003 11.1699 103.622002 11.674 C 102.819 12.1771 102.186996 12.8657 101.742996 13.7184 C 101.299004 14.569 101.073997 15.5294 101.073997 16.5739 C 101.073997 17.6185 101.299004 18.5618 101.742996 19.4188 C 102.186996 20.278999 102.819 20.970699 103.623001 21.473801 C 104.426003 21.978001 105.387001 22.233801 106.478996 22.233801 C 107.773003 22.233801 108.890999 21.893801 109.804001 21.2223 C 110.716003 20.5508 111.342003 19.6693 111.664001 18.602301 L 111.725998 18.396601 L 109.675003 18.396601 L 109.634003 18.4979 C 109.404999 19.0777 109.032997 19.555201 108.528 19.918699 C 108.026001 20.281099 107.407997 20.464399 106.693001 20.464399 C 105.976997 20.464399 105.286003 20.2864 104.731003 19.9347 C 104.176003 19.582899 103.742996 19.1054 103.445999 18.516001 C 103.146004 17.923401 102.994003 17.27 102.994003 16.5739 C 102.994003 15.8779 103.144997 15.2075 103.445999 14.6212 C 103.742996 14.0393 104.176003 13.5649 104.732002 13.2121 L 104.730003 13.2132 Z"/>
        <path id="path8" fill="#231f20" stroke="none" d="M 121.027 11.674 C 120.214996 11.1699 119.237 10.914101 118.117996 10.914101 C 116.999001 10.914101 116.037003 11.1699 115.220001 11.673 C 114.402 12.1761 113.765999 12.8646 113.328003 13.7184 C 112.891998 14.569 112.669998 15.5294 112.669998 16.572901 C 112.669998 17.6164 112.890999 18.5597 113.327003 19.4167 C 113.764999 20.277901 114.401001 20.9697 115.219002 21.473801 C 116.036003 21.978001 117.011002 22.2327 118.116997 22.2327 C 119.222 22.2327 120.213997 21.9769 121.026001 21.472799 C 121.835999 20.968599 122.469002 20.2768 122.905998 19.4167 C 123.342003 18.5597 123.561996 17.602501 123.561996 16.572901 C 123.561996 15.5432 123.342003 14.5679 122.904999 13.7184 C 122.467003 12.8646 121.834999 12.1771 121.024002 11.673 L 121.027 11.674 Z M 120.042999 19.937901 C 119.526001 20.2875 118.877998 20.464399 118.117996 20.464399 C 117.358002 20.464399 116.726997 20.2864 116.202003 19.9368 C 115.676003 19.5861 115.272003 19.109699 115.000999 18.521299 C 114.727997 17.927601 114.589996 17.2721 114.589996 16.5739 C 114.589996 15.8758 114.727997 15.2032 115.000999 14.6159 C 115.272003 14.035 115.676003 13.5617 116.202003 13.2111 C 116.727997 12.8614 117.372002 12.6834 118.117996 12.6834 C 118.863998 12.6834 119.525002 12.8604 120.042999 13.21 C 120.563004 13.5617 120.963997 14.035 121.234001 14.6159 C 121.507004 15.2032 121.646004 15.8619 121.646004 16.5739 C 121.646004 17.285999 121.507004 17.927601 121.234001 18.521299 C 120.963997 19.109699 120.563004 19.5861 120.042999 19.9368 L 120.042999 19.937901 Z"/>
        <path id="path9" fill="#231f20" stroke="none" d="M 132.806 11.4555 C 132.139008 11.0963 131.414001 10.914101 130.651993 10.914101 C 129.759003 10.914101 129.011993 11.1017 128.434006 11.4726 C 127.997002 11.7529 127.608002 12.0833 127.273003 12.4596 L 127.273003 11.0846 L 125.353996 11.0846 L 125.353996 22.063299 L 127.273003 22.063299 L 127.273003 15.7639 C 127.273003 15.1563 127.413002 14.6138 127.688004 14.1512 C 127.962997 13.6875 128.334 13.324 128.789993 13.0682 C 129.246994 12.8124 129.766006 12.6834 130.332001 12.6834 C 131.164001 12.6834 131.848007 12.9638 132.369003 13.518 C 132.891998 14.0744 133.156998 14.8227 133.156998 15.7425 L 133.156998 22.063299 L 135.074997 22.063299 L 135.074997 15.6999 C 135.074997 14.6671 134.863007 13.7824 134.445007 13.0714 C 134.028 12.3605 133.475998 11.8169 132.806 11.4555 Z"/>
        <path id="path10" fill="#231f20" stroke="none" d="M 139.679001 7.6311 L 137.761002 7.6311 L 137.761002 22.0632 L 147.375 22.0632 L 147.375 20.208599 L 139.679001 20.208599 L 139.679001 7.6311 Z"/>
        <path id="path11" fill="#231f20" stroke="none" d="M 156.862 12.499 C 156.498001 12.0727 156.059006 11.7188 155.552002 11.4449 C 154.897995 11.0931 154.108994 10.914101 153.205994 10.914101 C 152.141998 10.914101 151.197998 11.1699 150.401993 11.674 C 149.606995 12.1771 148.981003 12.8657 148.544006 13.7184 C 148.108002 14.569 147.886993 15.5294 147.886993 16.572901 C 147.886993 17.6164 148.106995 18.5597 148.542999 19.4167 C 148.979996 20.2768 149.606003 20.968599 150.401001 21.472799 C 151.197998 21.9769 152.141998 22.2327 153.203995 22.2327 C 154.108002 22.2327 154.897003 22.053699 155.550003 21.7019 C 156.057999 21.427999 156.496994 21.0795 156.860001 20.660601 L 156.860001 22.062201 L 158.779007 22.062201 L 158.779007 11.0846 L 156.860001 11.0846 L 156.860001 12.499 L 156.862 12.499 Z M 156.535004 14.6159 C 156.807999 15.2032 156.947006 15.8619 156.947006 16.5739 C 156.947006 17.285999 156.807999 17.927601 156.535004 18.521299 C 156.264999 19.109699 155.863998 19.5861 155.343994 19.9368 C 154.826996 20.2864 154.179001 20.4634 153.419006 20.4634 C 152.658997 20.4634 152.018997 20.2854 151.481003 19.9347 C 150.940002 19.582899 150.522003 19.106501 150.237 18.518101 C 149.949997 17.9244 149.804993 17.27 149.804993 16.572901 C 149.804993 15.8758 149.949997 15.2043 150.237 14.618 C 150.522003 14.0361 150.938995 13.5628 151.481003 13.2111 C 152.020004 12.8604 152.673004 12.6824 153.419006 12.6824 C 154.164993 12.6824 154.826004 12.8593 155.343994 13.2089 C 155.863998 13.5607 156.264999 14.0339 156.535004 14.6148 L 156.535004 14.6159 Z"/>
        <path id="path12" fill="#231f20" stroke="none" d="M 171.468002 13.7195 C 171.031006 12.8668 170.404999 12.1782 169.610001 11.6751 C 168.813004 11.1709 167.869995 10.9151 166.807007 10.9151 C 165.903 10.9151 165.113007 11.0942 164.460999 11.4459 C 163.953995 11.7199 163.514008 12.0727 163.151001 12.5001 L 163.151001 6.821041 L 161.231995 6.821041 L 161.231995 22.063299 L 163.151001 22.063299 L 163.151001 20.662701 C 163.514008 21.0805 163.953003 21.4291 164.460999 21.702999 C 165.113007 22.054701 165.903 22.233801 166.807007 22.233801 C 167.869995 22.233801 168.813004 21.978001 169.610001 21.473801 C 170.406998 20.9697 171.031006 20.277901 171.468002 19.4177 C 171.904007 18.560801 172.125 17.6036 172.125 16.5739 C 172.125 15.5443 171.904007 14.569 171.466995 13.7195 L 171.468002 13.7195 Z M 170.207001 16.5739 C 170.207001 17.271 170.061996 17.925501 169.776001 18.519199 C 169.490997 19.108601 169.076004 19.5851 168.542007 19.9368 C 168.009995 20.2875 167.354996 20.464399 166.593994 20.464399 C 165.832993 20.464399 165.203995 20.2864 164.677994 19.9368 C 164.151993 19.5861 163.748001 19.109699 163.477005 18.521299 C 163.203995 17.927601 163.065994 17.2721 163.065994 16.5739 C 163.065994 15.8758 163.203995 15.2032 163.477005 14.6159 C 163.746994 14.035 164.151993 13.5617 164.677994 13.2111 C 165.203995 12.8614 165.848007 12.6834 166.593994 12.6834 C 167.339996 12.6834 168.009003 12.8614 168.542007 13.2111 C 169.076996 13.5628 169.492004 14.0371 169.776993 14.6191 C 170.063004 15.2053 170.207993 15.863 170.207993 16.5739 L 170.207001 16.5739 Z"/>
    </g>
    <g id="g1">
        <path id="path13" fill="#0b8a44" stroke="none" d="M 11.9475 7.85108 C 11.9892 7.875019 12.0305 7.89994 12.0718 7.92552 C 12.2446 8.032421 12.4092 8.150791 12.5656 8.279011 L 16.1717 7.112619 C 16.268801 7.271 16.4055 7.40807 16.577299 7.507431 C 17.1285 7.82583 17.835899 7.635971 18.154301 7.084751 C 18.4727 6.533531 18.282801 5.82622 17.7316 5.50782 C 17.180401 5.189421 16.473 5.37895 16.1546 5.9305 C 16.030399 6.145611 15.9838 6.384659 16.0058 6.614849 L 12.365 7.792379 L 15.1863 2.90551 C 15.688 3.057659 16.247801 2.85141 16.520901 2.378231 C 16.8393 1.827009 16.649799 1.119699 16.0986 0.8013 C 15.5474 0.482899 14.84 0.672758 14.5216 1.22398 C 14.2485 1.697161 14.3498 2.284771 14.7322 2.643511 L 11.9426 7.47529 L 11.1287 3.672171 C 11.2907 3.57478 11.4311 3.436399 11.5321 3.261299 C 11.8505 2.710079 11.6606 2.002769 11.1094 1.68437 C 10.5582 1.365971 9.85087 1.5555 9.53246 2.10705 C 9.21406 2.65859 9.40359 3.36557 9.95481 3.683969 C 10.166 3.80596 10.4001 3.85318 10.6264 3.83416 L 11.4311 7.59465 C 11.6036 7.66745 11.776 7.75205 11.9472 7.85108 L 11.9475 7.85108 Z M 16.609501 6.193161 C 16.7829 5.89246 17.1689 5.789169 17.469601 5.962639 C 17.7703 6.136101 17.8736 6.522049 17.7001 6.82275 C 17.5266 7.12344 17.140699 7.22674 16.84 7.05327 C 16.539301 6.87981 16.436001 6.493851 16.609501 6.193161 Z M 14.9758 1.486309 C 15.1493 1.18561 15.5352 1.082319 15.8359 1.255791 C 16.1366 1.429251 16.239901 1.815201 16.066401 2.1159 C 15.893 2.416599 15.507 2.51989 15.2063 2.34642 C 14.9056 2.17296 14.8023 1.787001 14.9758 1.486309 Z M 10.2171 3.22949 C 9.91645 3.056021 9.81316 2.670071 9.98662 2.369381 C 10.1601 2.06868 10.546 1.965389 10.8467 2.138849 C 11.1474 2.312321 11.2507 2.698271 11.0773 2.99897 C 10.9038 3.29966 10.5178 3.40295 10.2171 3.22949 Z"/>
        <path id="path14" fill="#39b54a" stroke="none" d="M 16.84 7.053341 C 17.140699 7.22681 17.5266 7.12352 17.7001 6.822821 C 17.873501 6.52212 17.770201 6.136169 17.4695 5.962709 C 17.1689 5.78924 16.7829 5.89253 16.6094 6.19323 C 16.436001 6.493919 16.539301 6.879879 16.84 7.053341 Z"/>
        <path id="path15" fill="#39b54a" stroke="none" d="M 15.2063 2.3468 C 15.507 2.52026 15.8929 2.416969 16.066401 2.11628 C 16.239901 1.81558 16.1366 1.42963 15.8359 1.256161 C 15.5352 1.082701 15.1492 1.185989 14.9758 1.486691 C 14.8023 1.78738 14.9056 2.17333 15.2063 2.3468 Z"/>
        <path id="path16" fill="#39b54a" stroke="none" d="M 11.0781 2.999331 C 11.2516 2.698641 11.1483 2.312691 10.8476 2.139219 C 10.5469 1.965759 10.161 2.06905 9.98749 2.36974 C 9.81402 2.670441 9.91731 3.056391 10.218 3.22986 C 10.5187 3.40332 10.9047 3.30003 11.0781 2.999331 Z"/>
        <path id="path17" fill="#f48059" stroke="none" d="M 3.9705 23.9582 C 3.89147 23.6709 3.92295 23.353201 4.0833 23.075399 C 4.17971 22.908199 4.31218 22.774799 4.46499 22.677999 L 4.17741 21.35 L 2.97988 21.740499 C 2.98578 21.9471 2.93692 22.1576 2.82609 22.349501 C 2.64672 22.660299 2.3434 22.8561 2.01418 22.910801 C 1.95745 23.7047 1.91908 24.5114 1.90039 25.330799 C 2.61229 24.8822 3.30189 24.4245 3.9705 23.9582 Z"/>
        <path id="path18" fill="#f48059" stroke="none" d="M 2.40363 20.7728 C 2.59874 20.885201 2.74794 21.0466 2.84599 21.2325 L 4.06582 20.8347 L 3.07094 16.239401 C 3.05028 16.243 3.02962 16.2463 3.00863 16.248899 C 2.67285 17.672001 2.41183 19.1542 2.22656 20.6901 C 2.2869 20.7124 2.34592 20.739599 2.40363 20.7731 L 2.40363 20.7728 Z"/>
        <path id="path19" fill="#f48059" stroke="none" d="M 3.56177 14.1798 C 3.84279 14.3903 4.00478 14.7117 4.02183 15.0468 L 6.43264 15.2049 C 6.45723 15.0908 6.49953 14.9783 6.56118 14.8717 C 6.58971 14.8225 6.62119 14.776 6.65562 14.7327 L 4.69339 11.7959 C 4.58354 11.8369 4.46812 11.8612 4.35072 11.868 C 4.27596 12.0602 4.2048 12.252 4.13594 12.4419 C 3.93067 13.0095 3.73917 13.5892 3.56177 14.1801 L 3.56177 14.1798 Z"/>
        <path id="path20" fill="#f48059" stroke="none" d="M 7.87586 16.5585 C 7.58599 16.6408 7.26464 16.6106 6.98394 16.448299 C 6.70325 16.285999 6.51634 16.023001 6.44256 15.7309 L 3.92682 15.5659 C 3.90977 15.6046 3.89075 15.6426 3.8691 15.68 C 3.78844 15.8194 3.68318 15.9358 3.56152 16.0266 L 4.5669 20.6709 L 9.14718 19.176901 C 9.17013 19.0497 9.21506 18.924101 9.28326 18.806 C 9.29769 18.781099 9.3131 18.7572 9.32917 18.7335 L 7.87586 16.558201 L 7.87586 16.5585 Z"/>
        <path id="path21" fill="#f48059" stroke="none" d="M 12.2525 16.407301 C 12.2076 16.311199 12.1758 16.2099 12.1587 16.1056 L 8.63433 15.8748 C 8.614 15.9262 8.58973 15.9767 8.56121 16.0259 C 8.49956 16.1325 8.42348 16.2253 8.33691 16.303699 L 9.72136 18.3757 C 9.99156 18.225599 10.3172 18.186899 10.6208 18.279699 C 11.0487 17.8235 11.4593 17.362499 11.8515 16.895901 C 11.9853 16.7365 12.1197 16.5739 12.2525 16.407301 Z"/>
        <path id="path22" fill="#f48059" stroke="none" d="M 9.17918 19.718599 L 4.67859 21.186701 L 4.96387 22.505199 C 5.19767 22.4806 5.44098 22.526899 5.6597 22.653099 C 5.67741 22.6633 5.69512 22.674101 5.71217 22.6852 C 6.95791 21.731001 8.11576 20.744301 9.18213 19.7278 C 9.18115 19.724899 9.18049 19.7216 9.17951 19.718599 L 9.17918 19.718599 Z"/>
        <path id="path23" fill="#f48059" stroke="none" d="M 7.64857 8.03932 C 6.54745 8.421661 5.7939 9.16897 5.23285 10.054001 C 5.48108 10.410099 5.5178 10.8925 5.28695 11.2929 C 5.24203 11.3709 5.18891 11.4414 5.12988 11.5044 L 7.06817 14.4054 C 7.39903 14.2496 7.7981 14.2526 8.13815 14.449 C 8.47819 14.6454 8.68019 14.9894 8.71068 15.3537 L 12.1921 15.5819 C 12.2174 15.4993 12.2518 15.418 12.2967 15.3399 C 12.5194 14.9543 12.9325 14.7461 13.3497 14.7645 C 13.8179 13.8552 14.0809 12.8419 13.8838 11.6952 C 13.6323 10.2304 12.8906 9.05027 11.7957 8.37149 C 11.7593 8.34886 11.7222 8.326889 11.6855 8.30558 C 10.0135 7.34021 8.17979 7.85503 7.64857 8.03964 L 7.64857 8.03932 Z"/>
        <path id="path24" fill="#f26522" stroke="none" d="M 12.587 16.8277 C 12.6283 16.8598 12.6722 16.889999 12.7191 16.916901 C 13.2703 17.2353 13.9776 17.045799 14.296 16.4946 C 14.6144 15.9433 14.4246 15.236 13.8734 14.9176 C 13.8694 14.9153 13.8652 14.9134 13.8612 14.9111 C 13.8881 14.857 13.9147 14.8025 13.9403 14.7478 C 14.4318 13.6919 14.5823 12.6642 14.4006 11.6067 C 14.1622 10.219601 13.5182 9.060131 12.5656 8.279701 C 12.4092 8.151489 12.2446 8.03311 12.0718 7.92621 C 12.0305 7.900631 11.9888 7.87571 11.9475 7.85178 C 11.7764 7.753071 11.6039 7.66815 11.4314 7.59535 C 9.72429 6.87624 8.008 7.359909 7.47645 7.544519 C 6.47599 7.892109 5.66474 8.52006 4.99678 9.464451 C 4.94169 9.54216 4.8889 9.621521 4.83709 9.70186 C 4.29013 9.4051 3.60053 9.59692 3.28738 10.139301 C 2.97422 10.6817 3.15883 11.3978 3.71005 11.7162 C 3.74776 11.7379 3.78613 11.7572 3.82482 11.7739 C 3.76088 11.9402 3.70022 12.1041 3.6425 12.2635 C 3.44084 12.8206 3.25295 13.3896 3.07784 13.9686 C 2.61122 13.8834 2.12001 14.0929 1.86981 14.5268 C 1.55141 15.078 1.74094 15.7853 2.29249 16.103701 C 2.35414 16.1394 2.41808 16.168301 2.48301 16.191601 C 2.14985 17.614 1.8908 19.093599 1.70586 20.6259 C 1.35106 20.663601 1.0179 20.864 0.826396 21.196199 C 0.507994 21.7474 0.697527 22.4547 1.24907 22.7731 C 1.32679 22.818001 1.40778 22.8524 1.49042 22.877701 C 1.42188 23.8358 1.38024 24.812401 1.3668 25.806601 L 1.36024 26.2847 L 1.76685 26.033199 C 2.61483 25.5089 3.4333 24.971701 4.22193 24.422501 C 4.30161 24.5117 4.39605 24.59 4.50524 24.653 C 5.05646 24.971399 5.76377 24.7819 6.08217 24.2307 C 6.29728 23.858101 6.28023 23.414499 6.07627 23.067499 C 7.28594 22.138599 8.41428 21.178801 9.45704 20.1908 C 9.52918 20.264601 9.61181 20.330099 9.7056 20.3839 C 10.2568 20.702299 10.9641 20.5128 11.2825 19.961599 C 11.5531 19.493299 11.4566 18.912201 11.0835 18.5529 C 11.4888 18.118 11.879 17.6786 12.2525 17.234699 C 12.362 17.104099 12.4742 16.9687 12.587 16.828699 L 12.587 16.8277 Z M 10.828 19.698299 C 10.6546 19.998899 10.2686 20.1022 9.96793 19.928801 C 9.66723 19.755301 9.56394 19.3694 9.7374 19.068701 C 9.91087 18.768 10.2968 18.6647 10.5975 18.8381 C 10.8982 19.0116 11.0015 19.3976 10.828 19.698299 Z M 5.62768 23.967699 C 5.45422 24.2684 5.06827 24.3717 4.76757 24.1982 C 4.46688 24.0247 4.36358 23.6388 4.53705 23.3381 C 4.71051 23.037399 5.09647 22.934099 5.39716 23.107599 C 5.69786 23.281 5.80115 23.667 5.62768 23.967699 Z M 1.28055 21.4578 C 1.45402 21.157101 1.83997 21.053801 2.14067 21.227301 C 2.44136 21.400801 2.54466 21.786699 2.37119 22.0874 C 2.19772 22.3881 1.81177 22.4914 1.51108 22.3179 C 1.21038 22.144501 1.10709 21.758499 1.28055 21.4578 Z M 2.32397 14.7884 C 2.49744 14.4877 2.88339 14.3844 3.18408 14.5579 C 3.48478 14.7314 3.58807 15.1173 3.41461 15.418 C 3.24114 15.7187 2.85519 15.822 2.55449 15.6485 C 2.2538 15.4751 2.1505 15.0891 2.32397 14.7884 Z M 3.74186 10.401001 C 3.91533 10.1003 4.30128 9.996979 4.60198 10.170399 C 4.90267 10.343899 5.00596 10.7299 4.8325 11.0306 C 4.65903 11.3313 4.27308 11.4345 3.97238 11.2611 C 3.67169 11.0876 3.5684 10.7017 3.74186 10.401001 Z M 11.6855 8.305611 C 11.7223 8.32692 11.7593 8.34889 11.7957 8.371521 C 12.8906 9.050289 13.6323 10.230499 13.8839 11.6952 C 14.0809 12.8419 13.8176 13.8552 13.3497 14.7645 C 12.9329 14.7461 12.5197 14.9543 12.2968 15.34 C 12.2518 15.418 12.2171 15.4993 12.1922 15.582 L 8.71071 15.3537 C 8.68022 14.9894 8.4779 14.6451 8.13818 14.449 C 7.79846 14.2529 7.39907 14.25 7.0682 14.4054 L 5.12991 11.5044 C 5.18894 11.4414 5.24206 11.3709 5.28698 11.2929 C 5.51816 10.892799 5.48111 10.4105 5.23288 10.054001 C 5.79394 9.168999 6.54748 8.42169 7.64861 8.039341 C 8.17982 7.854731 10.0135 7.340229 11.6855 8.305279 L 11.6855 8.305611 Z M 13.6114 15.3718 C 13.9121 15.5452 14.0153 15.9312 13.8419 16.231899 C 13.6684 16.5326 13.2825 16.6359 12.9818 16.4624 C 12.6811 16.289 12.5778 15.903 12.7512 15.6023 C 12.9247 15.3016 13.3107 15.1983 13.6114 15.3718 Z M 9.14716 19.1772 L 4.56689 20.6712 L 3.56151 16.026899 C 3.68317 15.9361 3.78875 15.82 3.86909 15.6803 C 3.89073 15.643 3.90975 15.6049 3.9268 15.5662 L 6.44255 15.7312 C 6.51633 16.0233 6.70291 16.286301 6.98393 16.448601 C 7.26495 16.611 7.58597 16.6408 7.87585 16.5588 L 9.32915 18.7342 C 9.31309 18.7575 9.29768 18.781401 9.28325 18.8067 C 9.21504 18.924999 9.17012 19.050301 9.14716 19.1775 L 9.14716 19.1772 Z M 8.10604 15.7636 C 7.93258 16.064301 7.54663 16.167601 7.24593 15.9942 C 6.94523 15.8207 6.84194 15.4347 7.01541 15.134 C 7.18887 14.8334 7.57483 14.7301 7.87552 14.9035 C 8.17622 15.077 8.27951 15.4629 8.10604 15.7636 Z M 4.69346 11.7959 L 6.65569 14.7327 C 6.62126 14.776 6.58978 14.8225 6.56125 14.8717 C 6.4996 14.9783 6.4573 15.0904 6.43271 15.2049 L 4.0219 15.0468 C 4.00485 14.712 3.84286 14.3903 3.56184 14.1798 C 3.73924 13.5889 3.93041 13.0092 4.13601 12.4416 C 4.20455 12.2517 4.27603 12.0599 4.35079 11.8677 C 4.46819 11.8612 4.58394 11.8369 4.69346 11.7956 L 4.69346 11.7959 Z M 3.07063 16.239401 L 4.06551 20.834801 L 2.84568 21.232599 C 2.74763 21.0466 2.5981 20.8853 2.40333 20.7728 C 2.34594 20.7397 2.28659 20.7122 2.22625 20.689899 C 2.41152 19.153601 2.67254 17.671801 3.00832 16.2486 C 3.02931 16.246 3.04997 16.242701 3.07063 16.2391 L 3.07063 16.239401 Z M 2.82568 22.3501 C 2.93651 22.158199 2.98537 21.947701 2.97947 21.7411 L 4.177 21.350599 L 4.46458 22.6786 C 4.31177 22.775101 4.1793 22.9088 4.08289 23.076099 C 3.92254 23.3538 3.89106 23.6716 3.97009 23.958799 C 3.3018 24.4251 2.61188 24.8829 1.89998 25.331499 C 1.91867 24.511999 1.95704 23.705299 2.01377 22.911501 C 2.34299 22.857 2.64631 22.661301 2.82568 22.3501 Z M 5.65949 22.6534 C 5.44077 22.5271 5.19746 22.4809 4.96366 22.505501 L 4.67838 21.187 L 9.17897 19.718901 C 9.17995 19.721901 9.18061 19.7251 9.18159 19.7281 C 8.11522 20.7446 6.95737 21.7313 5.71163 22.685499 C 5.69458 22.6744 5.6772 22.663601 5.65916 22.6534 L 5.65949 22.6534 Z M 10.6201 18.280001 C 10.3162 18.187201 9.99088 18.225901 9.72068 18.376101 L 8.33624 16.304001 C 8.42281 16.2257 8.49888 16.1329 8.56053 16.0263 C 8.58906 15.9771 8.61332 15.9263 8.63365 15.8751 L 12.1581 16.106001 C 12.1754 16.2103 12.2072 16.311899 12.2518 16.4077 C 12.119 16.5742 11.9846 16.7372 11.8508 16.8962 C 11.4586 17.362499 11.0481 17.8239 10.6201 18.280001 Z"/>
        <path id="path25" fill="#f48059" stroke="none" d="M 10.5977 18.8382 C 10.297 18.6647 9.91107 18.768 9.73761 19.068701 C 9.56414 19.3694 9.66744 19.7554 9.96813 19.928801 C 10.2688 20.102301 10.6548 19.999001 10.8282 19.698299 C 11.0017 19.3976 10.8984 19.0117 10.5977 18.8382 Z"/>
        <path id="path26" fill="#f48059" stroke="none" d="M 4.83301 11.0306 C 5.00647 10.7299 4.90318 10.343899 4.60248 10.1705 C 4.30179 9.997009 3.91584 10.1003 3.74237 10.401001 C 3.5689 10.7017 3.6722 11.0876 3.97289 11.2611 C 4.27359 11.4346 4.65954 11.3313 4.83301 11.0306 Z"/>
        <path id="path27" fill="#f48059" stroke="none" d="M 3.41491 15.418 C 3.58838 15.1173 3.48509 14.7314 3.18439 14.5579 C 2.8837 14.3845 2.49774 14.4877 2.32428 14.7884 C 2.15081 15.0891 2.25411 15.4751 2.5548 15.6486 C 2.8555 15.822 3.24145 15.7187 3.41491 15.418 Z"/>
        <path id="path28" fill="#f48059" stroke="none" d="M 5.3974 23.107201 C 5.09671 22.9338 4.71076 23.0371 4.53729 23.337799 C 4.36383 23.6385 4.46712 24.024401 4.76781 24.197901 C 5.06851 24.3713 5.45446 24.268 5.62793 23.9674 C 5.80139 23.6667 5.6981 23.280701 5.3974 23.107201 Z"/>
        <path id="path29" fill="#f48059" stroke="none" d="M 2.37109 22.0875 C 2.54456 21.7868 2.44126 21.400801 2.14057 21.2274 C 1.83987 21.0539 1.45392 21.1572 1.28046 21.457899 C 1.10699 21.7586 1.21028 22.144501 1.51098 22.318001 C 1.81167 22.491501 2.19763 22.388201 2.37109 22.0875 Z"/>
        <path id="path30" fill="#f48059" stroke="none" d="M 12.7512 15.6023 C 12.5777 15.903 12.681 16.2889 12.9817 16.4624 C 13.2824 16.6359 13.6683 16.5326 13.8418 16.231899 C 14.0153 15.9312 13.912 15.5452 13.6113 15.3718 C 13.3106 15.1983 12.9246 15.3016 12.7512 15.6023 Z"/>
        <path id="path31" fill="#f48059" stroke="none" d="M 7.8758 14.9035 C 7.5751 14.73 7.18915 14.8333 7.01569 15.134 C 6.84222 15.4347 6.94551 15.8207 7.24621 15.9941 C 7.5469 16.167601 7.93286 16.064301 8.10632 15.7636 C 8.27979 15.4629 8.17649 15.077 7.8758 14.9035 Z"/>
    </g>
</svg>
