<svg width="961" height="233" viewBox="0 0 961 233" fill="none" xmlns="http://www.w3.org/2000/svg">
<path d="M309.771 50.4654C309.771 56.4341 305.832 59.5606 298.236 59.5606C287.263 59.5606 274.321 56.7184 261.66 54.1604C250.688 51.8866 239.152 49.3285 226.491 47.339C210.454 53.3077 196.387 63.5397 186.258 72.9191C169.377 88.8356 162.344 101.057 162.062 110.437C162.062 111.858 162.625 113.847 162.906 114.984C167.689 115.268 172.754 115.837 178.099 117.258C183.445 118.679 186.258 121.237 185.977 123.795C185.696 125.216 183.445 126.637 180.913 126.637C175.004 126.637 166.845 122.658 160.937 117.826C151.934 118.111 142.086 120.953 131.114 126.353C120.141 131.753 111.138 137.154 103.542 143.122C77.9387 161.597 61.3391 186.324 61.3391 204.799C61.3391 218.441 69.7796 225.831 86.3792 226.115C108.043 226.4 134.771 215.599 158.405 199.967C168.815 193.146 178.662 185.756 186.258 179.219C191.041 175.524 194.165 172.158 195.29 173.579C196.697 175 194.136 177.798 189.635 181.492C182.038 188.03 171.066 197.125 161.218 203.093C137.866 219.01 109.169 231.232 85.5352 231.232C73.4371 231.232 63.0272 228.673 54.3053 223.273C45.5835 217.873 41.3632 209.631 41.6446 198.262C28.4211 197.409 18.0112 192.009 10.6961 182.345C3.66234 172.397 0.00479574 161.028 0.00479574 148.238C-0.276554 119.816 11.8215 94.2358 36.2989 72.6349C52.3359 58.1395 71.1863 47.9074 92.2876 41.6545C113.67 35.4016 135.334 32.2752 157.561 32.2752C176.692 32.2752 199.763 35.4016 214.675 38.5281C226.773 35.1174 246.467 32.2752 265.318 32.2752C295.985 32.2752 309.771 40.2334 309.771 50.4654ZM297.954 56.7184C303.3 56.7184 306.676 55.013 306.676 50.7497C306.676 42.5072 293.453 37.107 274.602 37.107C259.691 37.107 245.342 39.9492 234.932 43.0756L263.067 50.1812C268.694 51.6023 274.884 53.0235 281.917 54.4446C288.951 55.8657 294.297 56.7184 297.954 56.7184ZM41.9259 194.851C43.3327 168.702 69.2169 142.838 93.6943 130.616C110.575 122.374 133.365 115.268 158.967 114.984C156.435 111.858 153.34 106.173 153.34 99.0676C153.34 91.9621 155.873 80.3089 166.845 67.8031C174.723 58.9921 186.54 50.1812 202.577 44.2125C191.041 42.7914 176.411 41.9387 160.656 41.9387C123.517 41.9387 75.6879 53.0235 43.3327 78.8878C18.5739 99.3519 5.35044 125.785 5.63179 149.944C5.63179 173.534 19.6993 192.577 41.9259 194.851Z" fill="black"/>
<path d="M246.784 158.576C245.801 158.772 245.063 158.87 244.572 158.87C243.293 158.87 242.359 158.625 241.769 158.133C241.179 157.642 240.736 157.102 240.441 156.512C237.884 150.912 234.836 146.835 231.296 144.28C227.755 141.726 222.937 140.448 216.84 140.448C214.48 140.448 212.218 140.792 210.054 141.48C207.989 142.07 206.17 143.003 204.596 144.28C203.023 145.459 201.745 146.933 200.761 148.701C199.876 150.47 199.434 152.435 199.434 154.596C199.434 159.214 201.351 162.997 205.186 165.944C209.12 168.892 214.873 171.888 222.445 174.934C231.886 178.668 238.819 182.843 243.244 187.461C247.768 191.981 250.029 197.581 250.029 204.262C250.029 208.29 249.39 212.073 248.112 215.61C246.932 219.048 245.014 222.094 242.359 224.747C239.802 227.302 236.459 229.316 232.328 230.789C228.198 232.263 223.232 233 217.43 233C211.333 233 205.776 232.361 200.761 231.084C195.844 229.807 191.665 228.137 188.223 226.073C187.928 221.947 187.485 217.968 186.895 214.136C186.305 210.304 185.617 206.472 184.83 202.641C185.518 202.346 186.354 202.199 187.338 202.199C188.518 202.199 189.403 202.493 189.993 203.083C190.681 203.574 191.271 204.409 191.763 205.588C194.221 212.662 197.368 217.869 201.204 221.21C205.137 224.55 210.595 226.221 217.577 226.221C220.724 226.221 223.478 225.779 225.838 224.894C228.198 224.01 230.165 222.782 231.738 221.21C233.312 219.638 234.492 217.869 235.278 215.904C236.065 213.939 236.459 211.827 236.459 209.567C236.459 204.458 234.688 200.43 231.148 197.483C227.706 194.535 222.74 191.882 216.25 189.524C212.021 187.952 208.186 186.331 204.744 184.661C201.302 182.892 198.352 180.878 195.893 178.619C193.435 176.359 191.517 173.755 190.14 170.808C188.862 167.762 188.223 164.176 188.223 160.049C188.223 156.414 188.862 153.024 190.14 149.88C191.517 146.638 193.435 143.838 195.893 141.48C198.45 139.122 201.499 137.255 205.039 135.88C208.579 134.504 212.562 133.817 216.987 133.817C221.609 133.817 226.035 134.259 230.263 135.143C234.492 136.027 239.261 137.501 244.572 139.564C244.768 142.512 245.014 145.705 245.309 149.144C245.703 152.484 246.194 155.628 246.784 158.576Z" fill="black"/>
<path d="M355.906 138.238C356.103 137.845 356.299 137.452 356.496 137.059C356.791 136.666 357.234 136.371 357.824 136.175C358.414 135.978 359.2 135.831 360.184 135.732C361.167 135.536 362.544 135.438 364.314 135.438C365.101 135.438 366.133 135.438 367.412 135.438C368.69 135.339 370.067 135.29 371.542 135.29C373.017 135.192 374.492 135.094 375.967 134.996C377.541 134.897 378.967 134.799 380.245 134.701C380.442 135.683 380.54 136.469 380.54 137.059C380.54 138.631 380.048 139.466 379.065 139.564C375.525 140.055 373.165 140.743 371.985 141.627C370.804 142.413 370.214 143.494 370.214 144.87C370.214 144.968 370.264 146.294 370.362 148.849C370.559 151.305 370.804 155.481 371.099 161.376C371.394 167.172 371.739 174.934 372.132 184.661C372.624 194.388 373.165 206.472 373.755 220.915C373.853 222.782 374.492 224.158 375.672 225.042C376.852 225.926 379.262 226.663 382.9 227.252C383.392 227.351 383.736 227.645 383.933 228.137C384.228 228.53 384.375 229.021 384.375 229.61C384.375 230.2 384.277 230.986 384.08 231.968C380.638 231.772 377.492 231.575 374.64 231.379C371.886 231.281 369.329 231.232 366.969 231.232C365.986 231.232 364.757 231.232 363.281 231.232C361.806 231.33 360.233 231.379 358.561 231.379C356.988 231.477 355.414 231.575 353.841 231.674C352.267 231.772 350.891 231.87 349.711 231.968C349.514 230.986 349.415 230.2 349.415 229.61C349.415 228.038 349.907 227.252 350.891 227.252C354.824 226.466 357.479 225.68 358.856 224.894C360.331 224.108 361.069 222.782 361.069 220.915C361.069 220.62 360.97 218.803 360.774 215.462C360.675 212.122 360.479 208.044 360.184 203.23C359.987 198.416 359.741 193.209 359.446 187.608C359.249 182.008 359.004 176.752 358.709 171.839C358.512 166.829 358.315 162.555 358.119 159.018C357.922 155.382 357.824 153.172 357.824 152.386L325.519 230.347C325.125 231.231 324.732 231.87 324.339 232.263C324.044 232.754 323.601 233 323.011 233C322.323 233 321.88 232.951 321.684 232.853L285.544 150.028C285.445 151.01 285.298 153.417 285.101 157.249C285.003 160.983 284.806 165.453 284.511 170.66C284.314 175.868 284.069 181.37 283.773 187.166C283.478 192.963 283.183 198.318 282.888 203.23C282.692 208.143 282.495 212.269 282.298 215.61C282.2 218.95 282.151 220.719 282.151 220.915C282.151 223.961 285.494 226.073 292.182 227.252C293.165 227.351 293.657 228.137 293.657 229.61C293.657 230.2 293.558 230.986 293.362 231.968C290.707 231.772 288.1 231.575 285.544 231.379C282.987 231.281 280.725 231.232 278.758 231.232C277.185 231.232 275.07 231.281 272.415 231.379C269.76 231.575 267.252 231.772 264.892 231.968C264.696 230.986 264.597 230.2 264.597 229.61C264.597 228.235 265.089 227.449 266.072 227.252C268.728 226.761 270.842 226.073 272.415 225.189C274.087 224.207 275.021 222.782 275.218 220.915C275.218 220.031 275.316 217.575 275.513 213.546C275.71 209.42 275.906 204.557 276.103 198.956C276.398 193.356 276.693 187.412 276.988 181.124C277.283 174.836 277.529 169.039 277.726 163.734C278.021 158.33 278.217 153.909 278.316 150.47C278.512 146.933 278.611 145.115 278.611 145.017C278.611 143.445 277.971 142.315 276.693 141.627C275.513 140.841 273.202 140.154 269.76 139.564C268.777 139.466 268.285 138.631 268.285 137.059C268.285 136.469 268.383 135.683 268.58 134.701C269.858 134.799 271.284 134.897 272.858 134.996C274.53 135.094 276.152 135.192 277.726 135.29C279.397 135.29 280.971 135.339 282.446 135.438C283.921 135.438 285.101 135.438 285.986 135.438C287.756 135.438 289.133 135.536 290.116 135.732C291.1 135.831 291.887 135.978 292.477 136.175C293.067 136.371 293.46 136.666 293.657 137.059C293.952 137.452 294.198 137.845 294.394 138.238L325.961 211.778L355.906 138.238Z" fill="black"/>
<path d="M423.818 141.48V179.208H446.83C448.797 179.208 450.173 178.275 450.96 176.408C451.845 174.443 452.533 172.085 453.025 169.334C453.32 168.057 454.205 167.418 455.68 167.418C455.975 167.418 456.369 167.467 456.86 167.565C457.352 167.664 457.745 167.762 458.04 167.86C457.844 170.022 457.647 172.478 457.45 175.229C457.352 177.98 457.303 180.387 457.303 182.45C457.303 184.121 457.352 186.184 457.45 188.64C457.549 190.998 457.745 193.7 458.04 196.746C457.254 196.942 456.516 197.04 455.828 197.04C454.254 197.04 453.32 196.402 453.025 195.125C452.533 192.374 451.845 190.065 450.96 188.198C450.173 186.233 448.797 185.25 446.83 185.25H423.818V220.031C423.818 222.094 425.146 223.47 427.801 224.158C430.456 224.845 434.832 225.189 440.929 225.189H449.042C451.894 225.189 454.353 224.796 456.418 224.01C458.581 223.126 460.45 221.996 462.023 220.62C463.695 219.147 465.17 217.427 466.449 215.462C467.727 213.497 468.956 211.336 470.136 208.978C470.431 208.29 471.169 207.946 472.349 207.946C472.841 207.946 473.332 208.094 473.824 208.388C474.414 208.683 474.955 208.978 475.447 209.273C474.562 211.139 473.775 213.399 473.086 216.052C472.496 218.606 471.906 221.063 471.316 223.421C470.726 225.779 470.087 227.793 469.399 229.463C468.809 231.133 468.022 231.968 467.039 231.968C466.252 231.968 465.121 231.919 463.646 231.821C462.171 231.723 460.548 231.625 458.778 231.526C457.106 231.526 455.385 231.477 453.615 231.379C451.845 231.281 450.321 231.232 449.042 231.232H416.738C413.886 231.232 410.837 231.281 407.592 231.379C404.347 231.575 401.249 231.772 398.299 231.968C398.102 230.986 398.004 230.2 398.004 229.61C398.004 228.235 398.496 227.449 399.479 227.252C403.216 226.565 405.871 225.828 407.445 225.042C409.116 224.256 409.952 222.88 409.952 220.915V145.901C409.952 143.936 409.215 142.61 407.74 141.922C406.363 141.136 403.609 140.35 399.479 139.564C398.496 139.368 398.004 138.533 398.004 137.059C398.004 136.568 398.004 136.175 398.004 135.88C398.102 135.487 398.201 135.094 398.299 134.701C402.527 134.996 406.068 135.192 408.92 135.29C411.772 135.389 414.328 135.438 416.59 135.438H445.65C450.075 135.438 453.91 135.29 457.155 134.996C460.401 134.701 462.564 134.553 463.646 134.553C464.924 134.553 465.76 135.389 466.154 137.059C466.645 138.631 467.039 140.547 467.334 142.806C467.629 145.066 467.973 147.473 468.366 150.028C468.76 152.582 469.497 154.744 470.579 156.512C469.792 157.102 468.907 157.397 467.924 157.397C466.645 157.397 465.809 156.954 465.416 156.07C464.236 153.516 463.105 151.354 462.023 149.586C460.942 147.719 459.663 146.196 458.188 145.017C456.811 143.838 455.09 142.954 453.025 142.364C451.058 141.775 448.6 141.48 445.65 141.48H423.818Z" fill="black"/>
<path d="M524.047 188.198H513.131V220.62C513.131 222.782 514.114 224.256 516.081 225.042C518.146 225.828 521.244 226.466 525.374 226.958C526.554 227.154 527.144 227.989 527.144 229.463C527.144 230.151 527.046 230.986 526.849 231.968C524.194 231.772 520.949 231.575 517.114 231.379C513.377 231.281 509.689 231.232 506.05 231.232C503.493 231.232 500.543 231.281 497.2 231.379C493.856 231.575 490.709 231.772 487.759 231.968C487.562 230.986 487.464 230.2 487.464 229.61C487.464 228.235 488.005 227.449 489.087 227.252C492.824 226.663 495.43 225.975 496.905 225.189C498.478 224.305 499.265 222.88 499.265 220.915V145.901C499.265 144.035 498.527 142.659 497.052 141.775C495.675 140.792 492.922 140.055 488.792 139.564C487.808 139.466 487.317 138.631 487.317 137.059C487.317 136.469 487.415 135.683 487.612 134.701C490.562 134.897 493.61 135.094 496.757 135.29C499.904 135.389 502.903 135.438 505.755 135.438H525.669C536.29 135.438 544.305 137.796 549.713 142.512C555.122 147.129 557.826 153.417 557.826 161.376C557.826 163.537 557.433 165.797 556.646 168.155C555.958 170.513 554.827 172.822 553.254 175.082C551.778 177.341 549.812 179.454 547.353 181.419C544.993 183.285 542.19 184.808 538.945 185.987L563.579 220.178C565.448 222.733 567.513 224.501 569.775 225.484C572.036 226.466 574.151 227.203 576.118 227.695C577.003 227.891 577.445 228.579 577.445 229.758C577.445 230.544 577.347 231.428 577.15 232.411C574.888 232.214 572.135 232.018 568.89 231.821C565.644 231.723 562.645 231.674 559.892 231.674C557.826 231.674 555.712 230.789 553.549 229.021C551.483 227.252 549.517 224.993 547.648 222.242L524.047 188.198ZM520.949 182.156C527.833 182.156 533.143 180.731 536.88 177.882C540.617 174.934 542.485 169.825 542.485 162.555C542.485 159.509 542.092 156.709 541.305 154.154C540.518 151.6 539.24 149.389 537.47 147.522C535.798 145.656 533.536 144.182 530.685 143.101C527.931 142.02 524.538 141.48 520.506 141.48H513.131V182.156H520.949Z" fill="black"/>
<path d="M639.608 196.156H606.713L597.273 219.884C596.781 221.063 596.535 222.045 596.535 222.831C596.535 224.894 599.534 226.368 605.533 227.252C606.221 227.351 606.664 227.645 606.861 228.137C607.156 228.53 607.303 229.021 607.303 229.61C607.303 230.2 607.205 230.986 607.008 231.968C604.353 231.772 601.55 231.575 598.6 231.379C595.65 231.281 592.749 231.232 589.897 231.232C587.93 231.232 585.914 231.281 583.849 231.379C581.784 231.477 579.621 231.674 577.359 231.968C577.162 231.182 577.064 230.396 577.064 229.61C577.064 228.923 577.162 228.333 577.359 227.842C577.654 227.351 578.195 227.056 578.981 226.958C582.03 226.466 584.292 225.877 585.767 225.189C587.34 224.403 588.471 223.224 589.16 221.652L624.709 136.175C625.398 134.504 626.332 133.669 627.512 133.669C627.906 133.669 628.496 133.767 629.282 133.964L664.98 222.094C665.57 223.47 666.897 224.551 668.962 225.337C671.028 226.122 673.044 226.663 675.01 226.958C675.6 227.154 676.043 227.449 676.338 227.842C676.731 228.137 676.928 228.726 676.928 229.61C676.928 230.2 676.83 230.986 676.633 231.968C673.486 231.772 670.388 231.575 667.34 231.379C664.291 231.281 661.439 231.232 658.784 231.232C656.031 231.232 652.884 231.281 649.344 231.379C645.803 231.575 642.607 231.772 639.755 231.968C639.559 230.986 639.46 230.2 639.46 229.61C639.46 228.726 639.608 228.137 639.903 227.842C640.296 227.449 640.641 227.252 640.936 227.252C643.492 226.761 645.558 226.221 647.131 225.631C648.704 224.944 649.491 223.961 649.491 222.684C649.491 222.094 649.294 221.357 648.901 220.473L639.608 196.156ZM637.248 190.114L623.529 154.007L609.221 190.114H637.248Z" fill="black"/>
<path d="M710.195 220.62C710.195 222.291 710.933 223.47 712.408 224.158C713.883 224.845 715.899 225.189 718.456 225.189H734.534C737.386 225.189 739.845 224.845 741.91 224.158C743.975 223.372 745.745 222.291 747.22 220.915C748.695 219.54 749.974 217.869 751.055 215.904C752.235 213.841 753.268 211.532 754.153 208.978C754.448 208.192 755.038 207.799 755.923 207.799C756.415 207.799 756.906 207.946 757.398 208.241C757.988 208.437 758.578 208.683 759.168 208.978C758.48 211.925 757.792 215.069 757.103 218.41C756.513 221.652 755.972 225.337 755.481 229.463C755.382 230.544 755.087 231.232 754.596 231.526C754.104 231.821 753.514 231.968 752.825 231.968C751.154 231.968 749.039 231.821 746.482 231.526C744.024 231.33 741.86 231.232 739.992 231.232H703.115C700.853 231.232 698.001 231.281 694.559 231.379C691.117 231.575 687.823 231.772 684.676 231.968C684.479 230.986 684.381 230.2 684.381 229.61C684.381 228.235 684.872 227.449 685.856 227.252C689.888 226.565 692.641 225.828 694.116 225.042C695.591 224.158 696.329 222.831 696.329 221.063V145.901C696.329 143.936 695.641 142.561 694.264 141.775C692.887 140.891 690.232 140.154 686.298 139.564C685.807 139.466 685.413 139.22 685.118 138.827C684.922 138.336 684.823 137.796 684.823 137.206C684.823 136.518 684.922 135.683 685.118 134.701C688.462 134.897 691.756 135.094 695.001 135.29C698.247 135.389 701 135.438 703.262 135.438C706.606 135.438 710.146 135.389 713.883 135.29C717.62 135.094 720.963 134.897 723.913 134.701C724.11 135.683 724.208 136.469 724.208 137.059C724.208 138.729 723.668 139.613 722.586 139.712C718.357 140.203 715.21 140.94 713.145 141.922C711.178 142.806 710.195 144.477 710.195 146.933V220.62Z" fill="black"/>
<path d="M849.388 186.135C849.388 171.004 845.602 159.804 838.03 152.533C830.556 145.164 819.591 141.48 805.135 141.48H792.302V219.884C792.302 220.866 792.547 221.701 793.039 222.389C793.531 223.077 794.367 223.617 795.547 224.01C796.727 224.403 798.349 224.698 800.415 224.894C802.48 225.091 805.086 225.189 808.233 225.189C815.805 225.189 822.197 224.305 827.409 222.536C832.621 220.67 836.85 218.066 840.095 214.725C843.34 211.287 845.7 207.16 847.175 202.346C848.65 197.532 849.388 192.128 849.388 186.135ZM864.876 183.335C864.876 189.131 863.844 194.879 861.779 200.577C859.812 206.276 856.763 211.434 852.633 216.052C848.601 220.571 843.438 224.256 837.145 227.105C830.949 229.856 823.672 231.232 815.313 231.232H785.074C782.517 231.232 779.616 231.281 776.37 231.379C773.125 231.575 769.978 231.772 766.93 231.968C766.733 230.986 766.635 230.2 766.635 229.61C766.635 228.235 767.176 227.449 768.257 227.252C771.896 226.368 774.502 225.533 776.075 224.747C777.649 223.961 778.436 222.684 778.436 220.915V145.901C778.436 143.936 777.698 142.561 776.223 141.775C774.748 140.989 772.093 140.252 768.257 139.564C767.667 139.466 767.225 139.171 766.93 138.68C766.733 138.189 766.635 137.648 766.635 137.059C766.635 136.469 766.733 135.683 766.93 134.701C768.995 134.897 770.765 135.045 772.24 135.143C773.814 135.143 775.289 135.192 776.666 135.29C778.042 135.389 779.37 135.438 780.648 135.438C782.025 135.438 783.451 135.438 784.926 135.438H815.166C823.426 135.438 830.654 136.715 836.85 139.269C843.143 141.824 848.355 145.263 852.486 149.586C856.616 153.909 859.714 158.969 861.779 164.765C863.844 170.562 864.876 176.752 864.876 183.335Z" fill="black"/>
<path d="M923.68 196.156H890.785L881.345 219.884C880.853 221.063 880.607 222.045 880.607 222.831C880.607 224.894 883.606 226.368 889.605 227.252C890.294 227.351 890.736 227.645 890.933 228.137C891.228 228.53 891.375 229.021 891.375 229.61C891.375 230.2 891.277 230.986 891.08 231.968C888.425 231.772 885.622 231.575 882.672 231.379C879.722 231.281 876.821 231.232 873.969 231.232C872.002 231.232 869.986 231.281 867.921 231.379C865.856 231.477 863.693 231.674 861.431 231.968C861.234 231.182 861.136 230.396 861.136 229.61C861.136 228.923 861.234 228.333 861.431 227.842C861.726 227.351 862.267 227.056 863.053 226.958C866.102 226.466 868.364 225.877 869.839 225.189C871.412 224.403 872.543 223.224 873.232 221.652L908.781 136.175C909.47 134.504 910.404 133.669 911.584 133.669C911.978 133.669 912.568 133.767 913.354 133.964L949.052 222.094C949.642 223.47 950.969 224.551 953.034 225.337C955.1 226.122 957.116 226.663 959.082 226.958C959.672 227.154 960.115 227.449 960.41 227.842C960.803 228.137 961 228.726 961 229.61C961 230.2 960.902 230.986 960.705 231.968C957.558 231.772 954.46 231.575 951.412 231.379C948.363 231.281 945.511 231.232 942.856 231.232C940.103 231.232 936.956 231.281 933.416 231.379C929.875 231.575 926.679 231.772 923.828 231.968C923.631 230.986 923.532 230.2 923.532 229.61C923.532 228.726 923.68 228.137 923.975 227.842C924.368 227.449 924.713 227.252 925.008 227.252C927.564 226.761 929.63 226.221 931.203 225.631C932.776 224.944 933.563 223.961 933.563 222.684C933.563 222.094 933.367 221.357 932.973 220.473L923.68 196.156ZM921.32 190.114L907.601 154.007L893.293 190.114H921.32Z" fill="black"/>
<path d="M355.019 105.963V2.06325H437.773V25.4959H382.014V42.8862H430.397V64.9924H382.014V82.5301H437.773V105.963H355.019Z" fill="black"/>
<path d="M452.975 105.963V2.06325H492.803C521.272 2.06325 550.774 9.28464 550.774 53.9393C550.774 98.7413 521.272 105.963 492.803 105.963H452.975ZM479.822 82.3827H492.803C510.652 82.3827 523.928 81.7932 523.928 53.9393C523.928 26.0854 510.504 25.4959 492.803 25.4959H479.822V82.3827Z" fill="black"/>
<path d="M611.205 107.879C580.523 107.879 561.494 86.8039 561.494 54.8235C561.494 20.9273 582.736 0 615.188 0C642.772 0 664.161 15.7691 667.701 39.2018H640.117C638.347 29.475 628.611 23.1379 616.663 23.1379C599.404 23.1379 589.226 34.7805 589.226 54.3814C589.226 72.8033 598.077 84.4459 618.138 84.4459C633.479 84.4459 643.215 77.814 644.247 67.6452H619.171V47.16H657.376C666.079 47.16 671.389 52.1708 671.389 61.1607V105.963H644.69V98.8887L649.853 80.1721H643.067C643.805 84.7407 642.625 107.879 611.205 107.879Z" fill="black"/>
<path d="M688.069 105.963V2.06325H770.822V25.4959H715.064V42.8862H763.447V64.9924H715.064V82.5301H770.822V105.963H688.069Z" fill="black"/>
</svg>
