<svg width="35" height="39" viewBox="0 0 35 39" fill="none" xmlns="http://www.w3.org/2000/svg">
<path fill-rule="evenodd" clip-rule="evenodd" d="M17.5071 20.147V25.1913C17.5071 25.3059 17.6797 25.4206 17.7948 25.3633L22.2258 22.8411C22.2833 22.7838 22.3408 22.7265 22.3408 22.6692V17.5676C22.3408 17.453 22.1682 17.3383 22.0531 17.3957L17.7373 19.8605C17.6222 19.9178 17.5071 20.0324 17.5071 20.147Z" fill="#16161F"/>
<path fill-rule="evenodd" clip-rule="evenodd" d="M10.3995 23.1532L6.0261 20.631C5.91103 20.5737 5.73839 20.6883 5.73839 20.803V25.8471C5.73839 26.0192 5.79593 26.1339 5.91103 26.1912L10.2844 28.7134C10.3995 28.7705 10.5721 28.656 10.5721 28.5413V23.4971C10.5721 23.325 10.5146 23.2106 10.3995 23.1532Z" fill="#16161F"/>
<path fill-rule="evenodd" clip-rule="evenodd" d="M10.3995 16.4322L6.0261 13.91C5.91103 13.8527 5.73839 13.9673 5.73839 14.082V19.1261C5.73839 19.2982 5.79593 19.4129 5.91103 19.4702L10.2844 21.9924C10.3995 22.0495 10.5721 21.935 10.5721 21.8203V16.7761C10.5721 16.604 10.5146 16.4896 10.3995 16.4322Z" fill="#16161F"/>
<path fill-rule="evenodd" clip-rule="evenodd" d="M16.2839 19.8041L11.9105 17.2819C11.7954 17.2246 11.6227 17.3392 11.6227 17.4539V22.498C11.6227 22.6701 11.6803 22.7848 11.7954 22.8421L16.1688 25.3642C16.2839 25.4213 16.4565 25.3069 16.4565 25.1922V20.148C16.4565 19.9759 16.399 19.8615 16.2839 19.8041Z" fill="#16161F"/>
<path fill-rule="evenodd" clip-rule="evenodd" d="M17.4328 33.6695V38.7137C17.4328 38.8283 17.6055 38.943 17.7206 38.8857L22.1515 36.3635C22.2091 36.3063 22.2666 36.2489 22.2666 36.1916V31.09C22.2666 30.9754 22.094 30.8608 21.9789 30.9181L17.663 33.3829C17.5479 33.4402 17.4328 33.5548 17.4328 33.6695Z" fill="#D9DEE2"/>
<path fill-rule="evenodd" clip-rule="evenodd" d="M23.3195 30.2848V35.329C23.3195 35.4436 23.4922 35.5583 23.6073 35.501L28.0382 32.9789C28.0958 32.9216 28.1533 32.8642 28.1533 32.8069V27.7053C28.1533 27.5907 27.9807 27.476 27.8656 27.5334L23.5497 29.9982C23.4346 30.0555 23.3195 30.1701 23.3195 30.2848Z" fill="#D9DEE2"/>
<path fill-rule="evenodd" clip-rule="evenodd" d="M29.2062 27.0267V32.0709C29.2062 32.1855 29.3789 32.3002 29.494 32.2429L33.9249 29.7208C33.9825 29.6635 34.04 29.6061 34.04 29.5488V24.4472C34.04 24.3326 33.8674 24.2179 33.7523 24.2753L29.4364 26.7401C29.3213 26.7974 29.2062 26.912 29.2062 27.0267Z" fill="#D9DEE2"/>
<path fill-rule="evenodd" clip-rule="evenodd" d="M29.2062 20.3741V25.4183C29.2062 25.5329 29.3789 25.6476 29.494 25.5903L33.9249 23.0682C33.9825 23.0109 34.04 22.9535 34.04 22.8962V17.7946C34.04 17.68 33.8674 17.5654 33.7523 17.6227L29.4364 20.0875C29.3213 20.1448 29.2062 20.2594 29.2062 20.3741Z" fill="#D9DEE2"/>
<path fill-rule="evenodd" clip-rule="evenodd" d="M29.2062 13.5702V18.6144C29.2062 18.7291 29.3789 18.8437 29.494 18.7864L33.9249 16.2643C33.9825 16.207 34.04 16.1496 34.04 16.0923V10.9908C34.04 10.8761 33.8674 10.7615 33.7523 10.8188L29.4364 13.2836C29.3213 13.3409 29.2062 13.4555 29.2062 13.5702Z" fill="#D9DEE2"/>
<path fill-rule="evenodd" clip-rule="evenodd" d="M12.4182 9.33843L16.7916 6.87363C16.9068 6.81631 17.0792 6.81631 17.1368 6.87363L21.5677 9.39578C21.6829 9.5104 21.6829 9.68235 21.5677 9.73967L17.1944 12.2045C17.0792 12.2618 16.9641 12.2618 16.8492 12.2045L12.4182 9.68237C12.3031 9.56772 12.3031 9.39575 12.4182 9.33843Z" fill="#D9DEE2"/>
<path fill-rule="evenodd" clip-rule="evenodd" d="M18.1145 5.92233L22.488 3.45754C22.6031 3.40022 22.7756 3.40022 22.8332 3.45754L27.2641 5.97968C27.3792 6.09431 27.3792 6.26625 27.2641 6.32358L22.8907 8.78837C22.7756 8.8457 22.6604 8.8457 22.5455 8.78837L18.1145 6.26628C17.9994 6.15163 17.9994 5.97966 18.1145 5.92233Z" fill="#D9DEE2"/>
<path fill-rule="evenodd" clip-rule="evenodd" d="M24.0123 9.33843L28.3858 6.87363C28.5009 6.81631 28.6734 6.81631 28.7309 6.87363L33.1618 9.39578C33.277 9.5104 33.277 9.68235 33.1618 9.73967L28.7885 12.2045C28.6734 12.2618 28.5582 12.2618 28.4433 12.2045L24.0123 9.68237C23.8972 9.56772 23.8972 9.39575 24.0123 9.33843Z" fill="#D9DEE2"/>
<path fill-rule="evenodd" clip-rule="evenodd" d="M6.7391 5.92388L11.1126 3.45909C11.2277 3.40176 11.4002 3.40176 11.4578 3.45909L15.8887 5.98123C16.0038 6.09585 16.0038 6.2678 15.8887 6.32512L11.5153 8.78992C11.4002 8.84724 11.285 8.84724 11.1702 8.78992L6.7391 6.26783C6.624 6.15318 6.624 5.9812 6.7391 5.92388Z" fill="#D9DEE2"/>
<path fill-rule="evenodd" clip-rule="evenodd" d="M12.4354 2.50779L16.8089 0.0429933C16.9241 -0.0143311 17.0965 -0.0143311 17.1541 0.0429933L21.585 2.56514C21.7001 2.67976 21.7001 2.85171 21.585 2.90903L17.2117 5.37382C17.0965 5.43115 16.9814 5.43115 16.8665 5.37382L12.4354 2.85173C12.3203 2.73708 12.3203 2.56511 12.4354 2.50779Z" fill="#D9DEE2"/>
<path fill-rule="evenodd" clip-rule="evenodd" d="M0.82403 9.33843L5.19751 6.87363C5.31266 6.81631 5.48512 6.81631 5.54269 6.87363L9.97359 9.39578C10.0887 9.5104 10.0887 9.68235 9.97359 9.73967L5.60027 12.2045C5.48512 12.2618 5.36997 12.2618 5.25508 12.2045L0.82403 9.68237C0.708933 9.56772 0.708933 9.39575 0.82403 9.33843Z" fill="#D9DEE2"/>
<path fill-rule="evenodd" clip-rule="evenodd" d="M4.66114 20.0322L0.287716 17.51C0.172645 17.4527 3.51585e-08 17.5673 3.43772e-08 17.6819L0 22.7261C-1.17256e-09 22.8982 0.0575482 23.0129 0.172645 23.0702L4.54604 25.5923C4.66114 25.6494 4.83376 25.535 4.83376 25.4203V20.376C4.83376 20.204 4.77624 20.0895 4.66114 20.0322Z" fill="#D9DEE2"/>
<path fill-rule="evenodd" clip-rule="evenodd" d="M4.66114 26.7506L0.287716 24.2284C0.172645 24.1711 3.51585e-08 24.2858 3.43772e-08 24.4004L0 29.4446C-1.17256e-09 29.6166 0.0575482 29.7313 0.172645 29.7887L4.54604 32.3108C4.66114 32.3679 4.83376 32.2534 4.83376 32.1387V27.0945C4.83376 26.9224 4.77624 26.808 4.66114 26.7506Z" fill="#D9DEE2"/>
<path fill-rule="evenodd" clip-rule="evenodd" d="M10.4225 29.9135L6.04906 27.3913C5.93398 27.334 5.76134 27.4486 5.76134 27.5633V32.6075C5.76134 32.7795 5.81889 32.8942 5.93398 32.9516L10.3074 35.4737C10.4225 35.5308 10.5951 35.4163 10.5951 35.3016L10.5951 30.2574C10.5951 30.0853 10.5376 29.9709 10.4225 29.9135Z" fill="#D9DEE2"/>
<path fill-rule="evenodd" clip-rule="evenodd" d="M16.2558 33.3276L11.8824 30.8054C11.7673 30.7481 11.5946 30.8627 11.5946 30.9773V36.0215C11.5946 36.1935 11.6522 36.3082 11.7673 36.3656L16.1407 38.8877C16.2558 38.9448 16.4284 38.8304 16.4284 38.7157V33.6714C16.4284 33.4994 16.3709 33.3849 16.2558 33.3276Z" fill="#D9DEE2"/>
<path fill-rule="evenodd" clip-rule="evenodd" d="M4.66114 13.2108L0.287716 10.6886C0.172645 10.6313 3.51585e-08 10.7459 3.43772e-08 10.8606L0 15.9047C-1.17256e-09 16.0768 0.0575482 16.1915 0.172645 16.2488L4.54604 18.7709C4.66114 18.828 4.83376 18.7136 4.83376 18.5989V13.5547C4.83376 13.3826 4.77624 13.2682 4.66114 13.2108Z" fill="#D9DEE2"/>
<path fill-rule="evenodd" clip-rule="evenodd" d="M6.5728 12.678L10.9463 10.2132C11.0614 10.1559 11.2339 10.1559 11.2915 10.2132L15.7224 12.7354C15.8375 12.85 15.8375 13.0219 15.7224 13.0793L11.349 15.5441C11.2339 15.6014 11.1187 15.6014 11.0038 15.5441L6.5728 13.022C6.4577 12.9073 6.4577 12.7353 6.5728 12.678Z" fill="#16161F"/>
<path fill-rule="evenodd" clip-rule="evenodd" d="M12.4161 15.9452L16.7896 13.4804C16.9047 13.4231 17.0772 13.4231 17.1348 13.4804L21.5657 16.0026C21.6808 16.1172 21.6808 16.2892 21.5657 16.3465L17.1923 18.8113C17.0772 18.8686 16.962 18.8686 16.8471 18.8113L12.4161 16.2892C12.301 16.1745 12.301 16.0026 12.4161 15.9452Z" fill="#16161F"/>
<path fill-rule="evenodd" clip-rule="evenodd" d="M18.1955 12.678L22.569 10.2132C22.6842 10.1559 22.8566 10.1559 22.9142 10.2132L27.3451 12.7354C27.4602 12.85 27.4602 13.0219 27.3451 13.0793L22.9718 15.5441C22.8566 15.6014 22.7415 15.6014 22.6266 15.5441L18.1955 13.022C18.0804 12.9073 18.0804 12.7353 18.1955 12.678Z" fill="#4AE68D"/>
<path fill-rule="evenodd" clip-rule="evenodd" d="M23.2227 16.7752V21.8194C23.2227 21.934 23.3953 22.0487 23.5104 21.9914L27.9413 19.4693C27.9989 19.412 28.0564 19.3546 28.0564 19.2973V14.1957C28.0564 14.0811 27.8838 13.9665 27.7687 14.0238L23.4528 16.4886C23.3377 16.5459 23.2227 16.6605 23.2227 16.7752Z" fill="#4AE68D"/>
<path fill-rule="evenodd" clip-rule="evenodd" d="M23.2227 23.4962V28.5404C23.2227 28.655 23.3953 28.7697 23.5104 28.7124L27.9413 26.1903C27.9989 26.133 28.0564 26.0756 28.0564 26.0183V20.9167C28.0564 20.8021 27.8838 20.6875 27.7687 20.7448L23.4528 23.2096C23.3377 23.2669 23.2227 23.3815 23.2227 23.4962Z" fill="#4AE68D"/>
<path fill-rule="evenodd" clip-rule="evenodd" d="M17.4478 26.7156V31.7598C17.4478 31.8745 17.6204 31.9891 17.7355 31.9318L22.1665 29.4097C22.224 29.3524 22.2815 29.2951 22.2815 29.2377V24.1362C22.2815 24.0215 22.1089 23.9069 21.9938 23.9642L17.678 26.429C17.5629 26.4863 17.4478 26.601 17.4478 26.7156Z" fill="#4AE68D"/>
<path fill-rule="evenodd" clip-rule="evenodd" d="M16.2839 26.4864L11.9105 23.9642C11.7954 23.9069 11.6227 24.0215 11.6227 24.1362V29.1803C11.6227 29.3524 11.6803 29.4671 11.7954 29.5244L16.1688 32.0466C16.2839 32.1037 16.4565 31.9892 16.4565 31.8745V26.8303C16.4565 26.6582 16.399 26.5438 16.2839 26.4864Z" fill="#4AE68D"/>
<path fill-rule="evenodd" clip-rule="evenodd" d="M17.4545 20.1491V25.1933C17.4545 25.308 17.6272 25.4227 17.7423 25.3653L22.1732 22.8432C22.2307 22.7859 22.2883 22.7286 22.2883 22.6712V17.5697C22.2883 17.455 22.1157 17.3404 22.0006 17.3977L17.6847 19.8625C17.5696 19.9198 17.4545 20.0345 17.4545 20.1491Z" fill="#156FF7"/>
<path fill-rule="evenodd" clip-rule="evenodd" d="M10.347 23.1553L5.97355 20.6331C5.85848 20.5758 5.68583 20.6904 5.68583 20.8051V25.8492C5.68583 26.0213 5.74338 26.136 5.85848 26.1933L10.2319 28.7154C10.347 28.7725 10.5196 28.6581 10.5196 28.5434V23.4991C10.5196 23.3271 10.4621 23.2127 10.347 23.1553Z" fill="#156FF7"/>
<path fill-rule="evenodd" clip-rule="evenodd" d="M10.347 16.4343L5.97355 13.9121C5.85848 13.8548 5.68583 13.9694 5.68583 14.0841V19.1282C5.68583 19.3003 5.74338 19.415 5.85848 19.4723L10.2319 21.9944C10.347 22.0515 10.5196 21.9371 10.5196 21.8224V16.7781C10.5196 16.6061 10.4621 16.4917 10.347 16.4343Z" fill="#156FF7"/>
<path fill-rule="evenodd" clip-rule="evenodd" d="M16.2313 19.8062L11.8579 17.284C11.7428 17.2267 11.5702 17.3413 11.5702 17.4559V22.5001C11.5702 22.6721 11.6277 22.7868 11.7428 22.8442L16.1162 25.3663C16.2313 25.4234 16.4039 25.309 16.4039 25.1943V20.15C16.4039 19.978 16.3464 19.8635 16.2313 19.8062Z" fill="#156FF7"/>
<path fill-rule="evenodd" clip-rule="evenodd" d="M6.52024 12.6801L10.8937 10.2153C11.0089 10.158 11.1813 10.158 11.2389 10.2153L15.6698 12.7374C15.7849 12.8521 15.7849 13.024 15.6698 13.0813L11.2965 15.5461C11.1813 15.6035 11.0662 15.6035 10.9513 15.5461L6.52024 13.024C6.40514 12.9094 6.40514 12.7374 6.52024 12.6801Z" fill="#156FF7"/>
<path fill-rule="evenodd" clip-rule="evenodd" d="M12.3635 15.9473L16.737 13.4825C16.8522 13.4252 17.0246 13.4252 17.0822 13.4825L21.5131 16.0047C21.6283 16.1193 21.6283 16.2912 21.5131 16.3486L17.1398 18.8133C17.0246 18.8707 16.9095 18.8707 16.7946 18.8133L12.3635 16.2913C12.2484 16.1766 12.2484 16.0046 12.3635 15.9473Z" fill="#156FF7"/>
<path fill-rule="evenodd" clip-rule="evenodd" d="M22.0006 17.3977C22.0151 17.3905 22.0305 17.386 22.0464 17.3839C22.0467 17.3839 22.047 17.3838 22.0472 17.3838C22.0607 17.3821 22.0746 17.3821 22.0884 17.3836C22.2004 17.3608 22.3408 17.4642 22.3408 17.5676V22.6692C22.3408 22.6699 22.3408 22.6705 22.3408 22.6712C22.3395 22.7279 22.2826 22.7845 22.2258 22.8411L17.7948 25.3633C17.7803 25.3705 17.7648 25.375 17.7489 25.3771C17.7487 25.3771 17.7484 25.3772 17.7482 25.3772C17.7347 25.3789 17.7208 25.3789 17.707 25.3774C17.595 25.4002 17.4545 25.2967 17.4545 25.1933V20.1491C17.4545 20.1484 17.4545 20.1477 17.4545 20.147C17.4559 20.0331 17.5703 19.9195 17.6847 19.8625L22.0006 17.3977ZM17.9123 24.8022L21.8831 22.5421V17.9595L17.9282 20.2181L17.9179 20.2232C17.9162 20.2241 17.9143 20.2251 17.9123 20.2262V24.8022ZM6.0261 20.631L10.3995 23.1532C10.5146 23.2106 10.5721 23.325 10.5721 23.4971V28.5413C10.5721 28.542 10.5721 28.5427 10.5721 28.5434C10.5704 28.642 10.442 28.7396 10.3334 28.7275C10.3143 28.7309 10.2952 28.7316 10.2766 28.729C10.2763 28.729 10.2759 28.7289 10.2755 28.7289C10.2604 28.7267 10.2457 28.7223 10.2319 28.7154L5.85848 26.1933C5.74338 26.136 5.68583 26.0213 5.68583 25.8492V20.8051C5.68583 20.8044 5.68584 20.8037 5.68585 20.803C5.68763 20.7045 5.8159 20.6067 5.92453 20.6189C5.94363 20.6154 5.96282 20.6148 5.98138 20.6173C5.98177 20.6174 5.98215 20.6175 5.98253 20.6175C5.99762 20.6197 6.01228 20.6241 6.0261 20.631ZM10.1144 28.1475V23.4991C10.1144 23.4954 10.1143 23.492 10.1142 23.4889L6.14362 21.199V25.8471C6.14362 25.8509 6.14368 25.8545 6.14378 25.8577L10.1144 28.1475ZM6.0261 13.91L10.3995 16.4322C10.5146 16.4896 10.5721 16.604 10.5721 16.7761V21.8203C10.5721 21.821 10.5721 21.8217 10.5721 21.8224C10.5704 21.921 10.442 22.0186 10.3333 22.0065C10.3143 22.0099 10.2952 22.0106 10.2766 22.008C10.2763 22.008 10.2759 22.0079 10.2755 22.0079C10.2604 22.0057 10.2457 22.0013 10.2319 21.9944L5.85848 19.4723C5.74338 19.415 5.68583 19.3003 5.68583 19.1282V14.0841C5.68583 14.0834 5.68584 14.0827 5.68585 14.082C5.68763 13.9835 5.8159 13.8857 5.92453 13.8979C5.94362 13.8944 5.96282 13.8937 5.98138 13.8963C5.98177 13.8964 5.98215 13.8964 5.98253 13.8965C5.99762 13.8987 6.01228 13.9031 6.0261 13.91ZM10.1144 21.4265V16.7781C10.1144 16.7744 10.1143 16.771 10.1142 16.7679L6.14362 14.478V19.1261C6.14362 19.1299 6.14368 19.1334 6.14378 19.1367L10.1144 21.4265ZM11.9105 17.2819L16.2839 19.8041C16.399 19.8615 16.4565 19.9759 16.4565 20.148V25.1922C16.4565 25.1929 16.4565 25.1936 16.4565 25.1943C16.4547 25.2929 16.3264 25.3905 16.2177 25.3784C16.1987 25.3818 16.1795 25.3825 16.161 25.3799C16.1606 25.3799 16.1602 25.3798 16.1598 25.3798C16.1447 25.3776 16.1301 25.3732 16.1162 25.3663L11.7428 22.8442C11.6277 22.7868 11.5702 22.6721 11.5702 22.5001V17.4559C11.5702 17.4552 11.5702 17.4546 11.5702 17.4539C11.572 17.3553 11.7003 17.2576 11.8089 17.2697C11.828 17.2663 11.8472 17.2656 11.8657 17.2682C11.8661 17.2683 11.8665 17.2683 11.8669 17.2684C11.882 17.2706 11.8966 17.275 11.9105 17.2819ZM15.9987 24.7984V20.15C15.9987 20.1463 15.9987 20.1429 15.9986 20.1397L12.028 17.8498V22.498C12.028 22.5018 12.028 22.5053 12.0281 22.5086L15.9987 24.7984ZM17.854 33.7405L17.8436 33.7456C17.8419 33.7465 17.8401 33.7475 17.8381 33.7486V38.3525L21.8614 36.0624V31.4519L17.854 33.7405ZM21.9789 30.9181C22.094 30.8607 22.2666 30.9754 22.2666 31.09V36.1916C22.2666 36.2489 22.2091 36.3062 22.1515 36.3635L17.7206 38.8857C17.6055 38.943 17.4328 38.8283 17.4328 38.7137V33.6695C17.4328 33.5548 17.5479 33.4402 17.663 33.3829L21.9789 30.9181ZM23.7407 30.3558L23.7303 30.3609C23.7286 30.3618 23.7268 30.3628 23.7248 30.3639V34.9678L27.7481 32.6777V28.0672L23.7407 30.3558ZM27.8656 27.5334L23.5497 29.9982C23.4346 30.0555 23.3195 30.1701 23.3195 30.2848V35.329C23.3195 35.4436 23.4922 35.5583 23.6073 35.501L28.0382 32.9789C28.0958 32.9216 28.1533 32.8642 28.1533 32.8069V27.7053C28.1533 27.5907 27.9807 27.476 27.8656 27.5334ZM29.6273 27.0977L29.617 27.1028C29.6153 27.1037 29.6135 27.1047 29.6115 27.1058V31.7097L33.6348 29.4196V24.8091L29.6273 27.0977ZM33.7523 24.2753C33.8674 24.2179 34.04 24.3326 34.04 24.4472V29.5488C34.04 29.6061 33.9825 29.6635 33.9249 29.7207L29.494 32.2429C29.3789 32.3002 29.2062 32.1855 29.2062 32.0709V27.0267C29.2062 26.912 29.3213 26.7974 29.4364 26.7401L33.7523 24.2753ZM29.6273 20.4451L29.617 20.4503C29.6153 20.4511 29.6135 20.4521 29.6115 20.4532V25.0571L33.6348 22.767V18.1565L29.6273 20.4451ZM33.7523 17.6227L29.4364 20.0875C29.3213 20.1448 29.2062 20.2594 29.2062 20.3741V25.4183C29.2062 25.5329 29.3789 25.6476 29.494 25.5903L33.9249 23.0682C33.9825 23.0109 34.04 22.9535 34.04 22.8962V17.7946C34.04 17.68 33.8674 17.5654 33.7523 17.6227ZM29.6273 13.6412L29.617 13.6464C29.6153 13.6472 29.6135 13.6482 29.6115 13.6494V18.2532L33.6348 15.9632V11.3526L29.6273 13.6412ZM33.7523 10.8188C33.8674 10.7615 34.04 10.8761 34.04 10.9908V16.0923C34.04 16.1496 33.9825 16.207 33.9249 16.2643L29.494 18.7864C29.3789 18.8437 29.2062 18.7291 29.2062 18.6144V13.5702C29.2062 13.4555 29.3213 13.3409 29.4364 13.2836L33.7523 10.8188ZM12.9368 9.51129L16.9641 7.2416L21.049 9.56683L17.0219 11.8365L12.9368 9.51129ZM16.8492 12.2045L12.4182 9.68237C12.3031 9.56772 12.3031 9.39575 12.4182 9.33842L16.7916 6.87363C16.9068 6.81631 17.0792 6.81631 17.1368 6.87363L21.5677 9.39578C21.6829 9.5104 21.6829 9.68235 21.5677 9.73967L17.1944 12.2045C17.0792 12.2618 16.9641 12.2618 16.8492 12.2045ZM18.6331 6.0952L22.7183 8.4204L26.7454 6.15073L22.6604 3.82551L18.6331 6.0952ZM27.2641 5.97968L22.8332 3.45754C22.7756 3.40022 22.6031 3.40022 22.488 3.45754L18.1145 5.92233C17.9994 5.97966 17.9994 6.15163 18.1145 6.26628L22.5455 8.78837C22.6604 8.84569 22.7756 8.84569 22.8907 8.78837L27.2641 6.32358C27.3792 6.26625 27.3792 6.09431 27.2641 5.97968ZM24.5309 9.51129L28.6161 11.8365L32.6432 9.56683L28.5582 7.2416L24.5309 9.51129ZM33.1618 9.39578C33.277 9.5104 33.277 9.68235 33.1618 9.73967L28.7885 12.2045C28.6734 12.2618 28.5582 12.2618 28.4433 12.2045L24.0123 9.68237C23.8972 9.56772 23.8972 9.39575 24.0123 9.33842L28.3858 6.87363C28.5009 6.81631 28.6734 6.81631 28.7309 6.87363L33.1618 9.39578ZM6.7391 6.26783L11.1702 8.78992C11.285 8.84724 11.4002 8.84724 11.5153 8.78992L15.8887 6.32512C16.0038 6.2678 16.0038 6.09585 15.8887 5.98123L11.4578 3.45909C11.4002 3.40176 11.2277 3.40176 11.1126 3.45909L6.7391 5.92388C6.624 5.9812 6.624 6.15318 6.7391 6.26783ZM11.285 3.82706L7.25774 6.09675L11.3429 8.42195L15.37 6.15228L11.285 3.82706ZM11.3082 3.82137C11.3082 3.82138 11.3079 3.82138 11.3074 3.82134C11.3079 3.82135 11.3081 3.82136 11.3082 3.82137ZM12.9541 2.68065L16.9814 0.410963L21.0663 2.73619L17.0392 5.00585L12.9541 2.68065ZM16.8665 5.37382L12.4354 2.85173C12.3203 2.73708 12.3203 2.56511 12.4354 2.50778L16.8089 0.0429933C16.9241 -0.0143311 17.0965 -0.0143311 17.1541 0.0429933L21.585 2.56514C21.7001 2.67976 21.7001 2.85171 21.585 2.90903L17.2117 5.37382C17.0965 5.43115 16.9814 5.43115 16.8665 5.37382ZM1.34267 9.51129L5.42781 11.8365L9.45491 9.56683L5.36997 7.2416L1.34267 9.51129ZM5.39308 7.23592C5.39316 7.23593 5.3929 7.23593 5.39229 7.23588C5.39276 7.23589 5.39302 7.23591 5.39308 7.23592ZM9.97359 9.39578C10.0887 9.5104 10.0887 9.68235 9.97359 9.73967L5.60027 12.2045C5.48512 12.2618 5.36997 12.2618 5.25508 12.2045L0.82403 9.68237C0.708933 9.56772 0.708933 9.39575 0.82403 9.33842L5.19751 6.87363C5.31266 6.81631 5.48512 6.81631 5.54269 6.87363L9.97359 9.39578ZM4.42837 20.3658L0.405238 18.0455L0.405238 22.7261C0.405238 22.7299 0.405296 22.7334 0.405398 22.7366L4.42852 25.0568V20.376C4.42852 20.3723 4.42847 20.3689 4.42837 20.3658ZM4.54604 25.5923L0.172645 23.0702C0.0575482 23.0129 0 22.8982 0 22.7261V17.6819C0 17.5673 0.172645 17.4527 0.287716 17.51L4.66114 20.0322C4.77624 20.0895 4.83376 20.204 4.83376 20.376V25.4203C4.83376 25.535 4.66114 25.6494 4.54604 25.5923ZM4.42837 27.0842C4.42847 27.0874 4.42852 27.0908 4.42852 27.0945V31.7752L0.405398 29.4551C0.405296 29.4519 0.405238 29.4484 0.405238 29.4446L0.405238 24.764L4.42837 27.0842ZM0.287716 24.2284L4.66114 26.7506C4.77624 26.808 4.83376 26.9224 4.83376 27.0945V32.1387C4.83376 32.2534 4.66114 32.3679 4.54604 32.3108L0.172645 29.7887C0.0575482 29.7313 0 29.6166 0 29.4446V24.4004C0 24.2858 0.172645 24.1711 0.287716 24.2284ZM10.1897 30.2471C10.1898 30.2503 10.1899 30.2537 10.1899 30.2574L10.1899 34.9381L6.16674 32.618C6.16663 32.6148 6.16658 32.6113 6.16658 32.6074V27.9269L10.1897 30.2471ZM6.04906 27.3913L10.4225 29.9135C10.5376 29.9709 10.5951 30.0853 10.5951 30.2574L10.5951 35.3016C10.5951 35.4163 10.4225 35.5308 10.3074 35.4737L5.93398 32.9515C5.81889 32.8942 5.76134 32.7795 5.76134 32.6074V27.5633C5.76134 27.4486 5.93398 27.334 6.04906 27.3913ZM16.023 33.6611L11.9999 31.3409V36.0215C11.9999 36.0253 11.9999 36.0288 12 36.032L16.0232 38.3521V33.6714C16.0232 33.6677 16.0231 33.6643 16.023 33.6611ZM16.1407 38.8877L11.7673 36.3656C11.6522 36.3082 11.5946 36.1935 11.5946 36.0215V30.9773C11.5946 30.8627 11.7673 30.7481 11.8824 30.8054L16.2558 33.3276C16.3709 33.3849 16.4284 33.4994 16.4284 33.6714V38.7157C16.4284 38.8304 16.2558 38.9448 16.1407 38.8877ZM4.42837 13.5444L0.405238 11.2242L0.405238 15.9047C0.405238 15.9085 0.405296 15.912 0.405398 15.9153L4.42852 18.2354V13.5547C4.42852 13.551 4.42847 13.5475 4.42837 13.5444ZM0.287716 10.6886L4.66114 13.2108C4.77624 13.2682 4.83376 13.3826 4.83376 13.5547V18.5989C4.83376 18.7136 4.66114 18.828 4.54604 18.7709L0.172645 16.2488C0.0575482 16.1915 0 16.0768 0 15.9047V10.8606C0 10.7459 0.172645 10.6313 0.287716 10.6886ZM6.52024 13.024C6.40514 12.9094 6.40514 12.7374 6.52024 12.6801L10.8937 10.2153C10.9075 10.2084 10.9221 10.2024 10.9372 10.1972C10.9375 10.1971 10.9378 10.197 10.9381 10.1969C10.9887 10.1796 11.0451 10.1714 11.0962 10.1724C11.1557 10.1667 11.2132 10.1723 11.2537 10.1893C11.2563 10.1904 11.2589 10.1915 11.2614 10.1927C11.2733 10.1985 11.2835 10.2053 11.2915 10.2132L15.7224 12.7354C15.8375 12.85 15.8375 13.0219 15.7224 13.0793L11.349 15.5441C11.3347 15.5512 11.3203 15.5575 11.3059 15.5628C11.3056 15.563 11.3053 15.5631 11.305 15.5632C11.2579 15.5807 11.2108 15.5885 11.1637 15.5868C11.107 15.5934 11.0502 15.586 10.9936 15.5646C10.9932 15.5645 10.9928 15.5643 10.9924 15.5642C10.9787 15.559 10.965 15.553 10.9513 15.5461L6.52024 13.024ZM7.09144 12.8509L11.0905 10.5971L15.1511 12.9085L11.1523 15.1622L7.09144 12.8509ZM12.3635 16.2913C12.2484 16.1766 12.2484 16.0046 12.3635 15.9473L16.737 13.4825C16.7508 13.4757 16.7654 13.4696 16.7805 13.4644C16.7808 13.4643 16.7811 13.4642 16.7814 13.4641C16.832 13.4468 16.8884 13.4386 16.9395 13.4396C16.999 13.4339 17.0565 13.4395 17.097 13.4565C17.0997 13.4576 17.1022 13.4587 17.1047 13.4599C17.1166 13.4657 17.1268 13.4725 17.1348 13.4804L21.5657 16.0026C21.6808 16.1172 21.6808 16.2892 21.5657 16.3465L17.1923 18.8113C17.178 18.8184 17.1636 18.8247 17.1492 18.8301C17.1489 18.8302 17.1486 18.8303 17.1483 18.8304C17.1012 18.8479 17.0541 18.8558 17.007 18.854C16.9503 18.8606 16.8935 18.8532 16.8369 18.8318C16.8365 18.8317 16.8361 18.8315 16.8357 18.8314C16.822 18.8262 16.8083 18.8202 16.7946 18.8133L12.3635 16.2913ZM12.9347 16.1181L16.9338 13.8643L20.9944 16.1757L16.9956 18.4295L12.9347 16.1181ZM18.7142 12.8509L22.7993 15.1761L26.8264 12.9064L22.7415 10.5812L18.7142 12.8509ZM27.3451 12.7354L22.9142 10.2132C22.8566 10.1559 22.6842 10.1559 22.569 10.2132L18.1955 12.678C18.0804 12.7353 18.0804 12.9073 18.1955 13.022L22.6266 15.5441C22.7415 15.6014 22.8566 15.6014 22.9718 15.5441L27.3451 13.0793C27.4602 13.0219 27.4602 12.85 27.3451 12.7354ZM23.6438 16.8462L23.6334 16.8513C23.6318 16.8522 23.6299 16.8532 23.6279 16.8543V21.4582L27.6512 19.1681V14.5576L23.6438 16.8462ZM27.7687 14.0238L23.4528 16.4886C23.3377 16.5459 23.2227 16.6605 23.2227 16.7752V21.8194C23.2227 21.934 23.3953 22.0487 23.5104 21.9914L27.9413 19.4693C27.9989 19.412 28.0564 19.3546 28.0564 19.2973V14.1957C28.0564 14.0811 27.8838 13.9665 27.7687 14.0238ZM23.6438 23.5672L23.6334 23.5723C23.6318 23.5732 23.6299 23.5742 23.6279 23.5753V28.1792L27.6512 25.8891V21.2786L23.6438 23.5672ZM27.7687 20.7448C27.8838 20.6875 28.0564 20.8021 28.0564 20.9167V26.0183C28.0564 26.0756 27.9989 26.133 27.9413 26.1903L23.5104 28.7124C23.3953 28.7697 23.2227 28.655 23.2227 28.5404V23.4962C23.2227 23.3815 23.3377 23.2669 23.4528 23.2096L27.7687 20.7448ZM17.8689 26.7866L17.8586 26.7918C17.8569 26.7926 17.855 26.7936 17.853 26.7948V31.3986L21.8763 29.1086V24.498L17.8689 26.7866ZM21.9938 23.9642L17.678 26.429C17.5629 26.4863 17.4478 26.601 17.4478 26.7156V31.7598C17.4478 31.8745 17.6204 31.9891 17.7355 31.9318L22.1665 29.4097C22.224 29.3524 22.2815 29.295 22.2815 29.2377V24.1362C22.2815 24.0215 22.1089 23.9069 21.9938 23.9642ZM16.0511 26.82C16.0512 26.8231 16.0513 26.8266 16.0513 26.8303V31.511L12.0281 29.1909C12.028 29.1877 12.028 29.1841 12.028 29.1803V24.4998L16.0511 26.82ZM11.9105 23.9642L16.2839 26.4864C16.399 26.5438 16.4565 26.6582 16.4565 26.8303V31.8745C16.4565 31.9892 16.2839 32.1037 16.1688 32.0466L11.7954 29.5244C11.6803 29.4671 11.6227 29.3524 11.6227 29.1803V24.1362C11.6227 24.0215 11.7954 23.9069 11.9105 23.9642Z" fill="#D9DEE2"/>
</svg>
