<svg width="48" height="48" viewBox="0 0 48 48" fill="none" xmlns="http://www.w3.org/2000/svg">
<rect width="48" height="48" fill="#D8DBE2"/>
<rect x="0.5" y="0.5" width="47" height="47" rx="1.5" stroke="#CBD5E1"/>
<path d="M37.9983 17.1944C37.9983 15.6019 36.6835 14.3056 35.0693 14.3056C34.1295 14.3056 33.2984 14.7533 32.7647 15.4349L26.7071 11.9849C26.8481 11.6468 26.9285 11.277 26.9285 10.8888C26.9285 9.29629 25.6146 8 23.9996 8C22.3846 8 21.0706 9.29629 21.0706 10.8888C21.0706 11.277 21.1513 11.6461 21.2928 11.9849L15.2352 15.4349C14.6983 14.7533 13.8696 14.3056 12.929 14.3056C11.3148 14.3056 10 15.6027 10 17.1944C10 18.6566 11.1088 19.8539 12.5378 20.0446V26.9562C11.1088 27.1462 10 28.345 10 29.8056C10 31.3981 11.314 32.6944 12.929 32.6944C13.8696 32.6944 14.6991 32.2467 15.236 31.5643L21.2936 35.0143C21.1518 35.3524 21.0714 35.723 21.0714 36.1112C21.0714 37.7037 22.3854 39 24.0004 39C25.6154 39 26.9294 37.7029 26.9294 36.1112C26.9294 35.723 26.8487 35.3531 26.7072 35.0143L32.764 31.5643C33.3009 32.2467 34.1304 32.6944 35.0702 32.6944C36.6852 32.6944 38 31.3973 38 29.8056C38 28.3426 36.8904 27.1461 35.4614 26.9562V20.0446C36.8888 19.8539 37.9984 18.6558 37.9984 17.1944H37.9983ZM32.7626 28.0477L26.7065 24.597C26.8475 24.259 26.9279 23.8883 26.9279 23.5001C26.9279 23.1118 26.8465 22.7427 26.7065 22.4039L32.7626 18.9539C33.2227 19.5399 33.8997 19.9405 34.6773 20.0447V26.9562C33.8994 27.0596 33.2226 27.4618 32.7626 28.0475V28.0477ZM13.3199 26.9562V20.0446C14.0985 19.9405 14.7753 19.539 15.2354 18.9539L21.293 22.4038C21.1513 22.7419 21.0708 23.1118 21.0708 23.5C21.0708 23.8882 21.1515 24.2566 21.293 24.597L15.2354 28.0477C14.7746 27.4622 14.0978 27.06 13.3199 26.9564V26.9562ZM32.3628 16.0982C32.2211 16.4371 32.1414 16.8069 32.1414 17.1944C32.1414 17.5834 32.2229 17.9525 32.3628 18.2914L26.306 21.7413C25.8459 21.1561 25.1689 20.7547 24.3904 20.6505V13.7397C25.1691 13.6355 25.8451 13.2341 26.3052 12.6489L32.3628 16.0982ZM21.692 12.648C22.1513 13.2332 22.8291 13.6346 23.6068 13.7387V20.6496C22.8281 20.7538 22.1514 21.1552 21.6912 21.7404L15.6337 18.2904C15.7754 17.9523 15.8558 17.5825 15.8558 17.1935C15.8558 16.806 15.7751 16.4369 15.6337 16.0973L21.692 12.648ZM15.6355 30.9025C15.7772 30.5644 15.8576 30.1946 15.8576 29.8063C15.8576 29.4181 15.7769 29.049 15.6355 28.7094L21.693 25.2594C22.1531 25.8446 22.8301 26.2452 23.6086 26.3495V33.261C22.8299 33.3652 22.1532 33.7658 21.693 34.351L15.6355 30.9025ZM26.3049 34.3535C25.8448 33.7683 25.1678 33.3669 24.3893 33.2619V26.3517C25.168 26.2475 25.8448 25.8461 26.3049 25.2609L32.3633 28.7109C32.22 29.049 32.1403 29.4196 32.1403 29.8079C32.1403 30.1961 32.2218 30.5645 32.3617 30.9041L26.3049 34.3535Z" fill="#F8F8F8"/>
</svg>
